%TF.GenerationSoftware,KiCad,Pcbnew,9.0.2*%
%TF.CreationDate,2025-06-04T23:59:20+09:00*%
%TF.ProjectId,Button PCB,42757474-6f6e-4205-9043-422e6b696361,rev?*%
%TF.SameCoordinates,Original*%
%TF.FileFunction,Soldermask,Bot*%
%TF.FilePolarity,Negative*%
%FSLAX46Y46*%
G04 Gerber Fmt 4.6, Leading zero omitted, Abs format (unit mm)*
G04 Created by KiCad (PCBNEW 9.0.2) date 2025-06-04 23:59:20*
%MOMM*%
%LPD*%
G01*
G04 APERTURE LIST*
%ADD10R,1.350000X1.350000*%
%ADD11C,1.350000*%
%ADD12C,0.200000*%
G04 APERTURE END LIST*
D10*
%TO.C,BootButton*%
X23900000Y-8800000D03*
D11*
X23900000Y-10800000D03*
X23900000Y-12800000D03*
%TD*%
D10*
%TO.C,DownButton*%
X23900000Y-52200000D03*
D11*
X23900000Y-54200000D03*
X23900000Y-56200000D03*
%TD*%
D10*
%TO.C,UpButton*%
X23900000Y-30500000D03*
D11*
X23900000Y-32500000D03*
X23900000Y-34500000D03*
%TD*%
%TO.C,REF\u002A\u002A*%
X28100000Y-3800000D03*
X28100000Y-5800000D03*
X28100000Y-7800000D03*
X28100000Y-9800000D03*
X28100000Y-1800000D03*
%TD*%
D12*
X28050000Y-1800000D02*
X20100000Y-1800000D01*
X28200000Y-12750000D02*
X28200000Y-9900000D01*
X23900000Y-56200000D02*
X26150000Y-56200000D01*
X20050000Y-32500000D02*
X20050000Y-52200000D01*
X23900000Y-10800000D02*
X20100000Y-10800000D01*
X20050000Y-52200000D02*
X22050000Y-54200000D01*
X20050000Y-10750000D02*
X20050000Y-32500000D01*
X23900000Y-34500000D02*
X28150000Y-34500000D01*
X22050000Y-54200000D02*
X23900000Y-54200000D01*
X20050000Y-1850000D02*
X20050000Y-10750000D01*
X23900000Y-12800000D02*
X28150000Y-12800000D01*
X26150000Y-56200000D02*
X28200000Y-54150000D01*
X23900000Y-32500000D02*
X20050000Y-32500000D01*
X28200000Y-54150000D02*
X28200000Y-34550000D01*
X28200000Y-34550000D02*
X28200000Y-12750000D01*
M02*
