%TF.GenerationSoftware,KiCad,Pcbnew,9.0.2*%
%TF.CreationDate,2025-06-04T23:59:20+09:00*%
%TF.ProjectId,Button PCB,42757474-6f6e-4205-9043-422e6b696361,rev?*%
%TF.SameCoordinates,Original*%
%TF.FileFunction,Copper,L1,Top*%
%TF.FilePolarity,Positive*%
%FSLAX46Y46*%
G04 Gerber Fmt 4.6, Leading zero omitted, Abs format (unit mm)*
G04 Created by KiCad (PCBNEW 9.0.2) date 2025-06-04 23:59:20*
%MOMM*%
%LPD*%
G01*
G04 APERTURE LIST*
%TA.AperFunction,ComponentPad*%
%ADD10R,1.350000X1.350000*%
%TD*%
%TA.AperFunction,ComponentPad*%
%ADD11C,1.350000*%
%TD*%
%TA.AperFunction,Conductor*%
%ADD12C,0.200000*%
%TD*%
G04 APERTURE END LIST*
D10*
%TO.P,BootButton,1*%
%TO.N,BOOT*%
X23900000Y-8800000D03*
D11*
%TO.P,BootButton,2*%
%TO.N,VCC*%
X23900000Y-10800000D03*
%TO.P,BootButton,3*%
%TO.N,GND*%
X23900000Y-12800000D03*
%TD*%
D10*
%TO.P,DownButton,1*%
%TO.N,DOWN*%
X23900000Y-52200000D03*
D11*
%TO.P,DownButton,2*%
%TO.N,VCC*%
X23900000Y-54200000D03*
%TO.P,DownButton,3*%
%TO.N,GND*%
X23900000Y-56200000D03*
%TD*%
D10*
%TO.P,UpButton,1*%
%TO.N,UP*%
X23900000Y-30500000D03*
D11*
%TO.P,UpButton,2*%
%TO.N,VCC*%
X23900000Y-32500000D03*
%TO.P,UpButton,3*%
%TO.N,GND*%
X23900000Y-34500000D03*
%TD*%
%TO.P,REF\u002A\u002A,5*%
%TO.N,BOOT*%
X28100000Y-3800000D03*
%TO.P,REF\u002A\u002A,6*%
%TO.N,UP*%
X28100000Y-5800000D03*
%TO.P,REF\u002A\u002A,7*%
%TO.N,DOWN*%
X28100000Y-7800000D03*
%TO.P,REF\u002A\u002A,GND*%
%TO.N,GND*%
X28100000Y-9800000D03*
%TO.P,REF\u002A\u002A,VCC*%
%TO.N,VCC*%
X28100000Y-1800000D03*
%TD*%
D12*
%TO.N,UP*%
X25700000Y-13650000D02*
X25700000Y-7450000D01*
%TO.N,DOWN*%
X29000000Y-50150000D02*
X29000000Y-12700000D01*
%TO.N,UP*%
X25700000Y-7450000D02*
X27350000Y-5800000D01*
%TO.N,DOWN*%
X23900000Y-52200000D02*
X26950000Y-52200000D01*
X29000000Y-12700000D02*
X27900000Y-11600000D01*
%TO.N,BOOT*%
X23900000Y-8800000D02*
X23900000Y-8000000D01*
%TO.N,GND*%
X28200000Y-9900000D02*
X28100000Y-9800000D01*
%TO.N,DOWN*%
X27900000Y-11600000D02*
X26600000Y-11600000D01*
X26600000Y-9300000D02*
X28100000Y-7800000D01*
X28150000Y-7750000D02*
X28100000Y-7800000D01*
X26950000Y-52200000D02*
X29000000Y-50150000D01*
X23850000Y-52250000D02*
X23900000Y-52200000D01*
X26600000Y-11600000D02*
X26600000Y-9300000D01*
%TO.N,UP*%
X23900000Y-30500000D02*
X26700000Y-27700000D01*
%TO.N,BOOT*%
X23900000Y-8000000D02*
X28100000Y-3800000D01*
%TO.N,UP*%
X26700000Y-14650000D02*
X25700000Y-13650000D01*
X26700000Y-27700000D02*
X26700000Y-14650000D01*
X27350000Y-5800000D02*
X28100000Y-5800000D01*
%TD*%
M02*
