%TF.GenerationSoftware,KiCad,Pcbnew,9.0.2*%
%TF.CreationDate,2025-05-28T20:31:11+09:00*%
%TF.ProjectId,__,78912e6b-6963-4616-945f-706362585858,rev?*%
%TF.SameCoordinates,Original*%
%TF.FileFunction,Soldermask,Bot*%
%TF.FilePolarity,Negative*%
%FSLAX46Y46*%
G04 Gerber Fmt 4.6, Leading zero omitted, Abs format (unit mm)*
G04 Created by KiCad (PCBNEW 9.0.2) date 2025-05-28 20:31:11*
%MOMM*%
%LPD*%
G01*
G04 APERTURE LIST*
%ADD10R,1.350000X1.350000*%
%ADD11C,1.350000*%
%ADD12C,2.109000*%
%ADD13C,2.082800*%
%ADD14C,0.200000*%
G04 APERTURE END LIST*
D10*
%TO.C,Sensors*%
X37525000Y-3900000D03*
D11*
X35525000Y-3900000D03*
X33525000Y-3900000D03*
%TD*%
%TO.C,Button*%
X7080000Y-7160000D03*
X7080000Y-9160000D03*
X7080000Y-11160000D03*
X7080000Y-13160000D03*
X7080000Y-15160000D03*
%TD*%
D12*
%TO.C,ESP32-C3
SuperMini*%
X29700000Y-25040000D03*
X29700000Y-22500000D03*
X29700000Y-19960000D03*
X29700000Y-17420000D03*
X29700000Y-12340000D03*
X29700000Y-14880000D03*
X14460000Y-7260000D03*
X29700000Y-7260000D03*
X14460000Y-9800000D03*
X14460000Y-12340000D03*
X14460000Y-14880000D03*
X14460000Y-17420000D03*
X14460000Y-19960000D03*
X14460000Y-22500000D03*
X14460000Y-25040000D03*
X29700000Y-9800000D03*
%TD*%
D11*
%TO.C,Display / I2C Bus*%
X7080000Y-22160000D03*
X7080000Y-24160000D03*
X7080000Y-26160000D03*
X7080000Y-28160000D03*
%TD*%
D13*
%TO.C,JP2*%
X5255000Y-45797673D03*
X5255000Y-43257673D03*
X5255000Y-40717673D03*
%TD*%
%TO.C,JP4*%
X12875000Y-45797673D03*
X12875000Y-43257673D03*
X12875000Y-40717673D03*
%TD*%
%TO.C,JP5*%
X7795000Y-48337673D03*
X10335000Y-48337673D03*
%TD*%
D14*
X37400000Y-37400000D02*
X50800000Y-37400000D01*
X46250000Y-6400000D02*
X46250000Y-24800000D01*
X33225000Y-24975000D02*
X29765000Y-24975000D01*
X34450000Y-26200000D02*
X33225000Y-24975000D01*
X50800000Y-26200000D02*
X34450000Y-26200000D01*
X14800000Y-46000000D02*
X12800000Y-46000000D01*
X17400000Y-43400000D02*
X14900000Y-45900000D01*
X17400000Y-33900000D02*
X17400000Y-43400000D01*
X39000000Y-19960000D02*
X29700000Y-19960000D01*
X37525000Y-3900000D02*
X37525000Y-9595000D01*
X37525000Y-9595000D02*
X29700000Y-17420000D01*
X19820000Y-30400000D02*
X43825000Y-30400000D01*
X14470000Y-22495000D02*
X14470000Y-22510000D01*
X40750000Y-22500000D02*
X29700000Y-22500000D01*
X21485000Y-29525000D02*
X21500000Y-29525000D01*
X14460000Y-25040000D02*
X19820000Y-30400000D01*
X21500000Y-29525000D02*
X42550000Y-29525000D01*
X14470000Y-22510000D02*
X21485000Y-29525000D01*
X9450000Y-28530000D02*
X7080000Y-26160000D01*
X9450000Y-34525000D02*
X9450000Y-28530000D01*
X11000000Y-10125000D02*
X8035000Y-7160000D01*
X9150000Y-11230000D02*
X9150000Y-17550000D01*
X9150000Y-17550000D02*
X7100000Y-19600000D01*
X7175000Y-22175000D02*
X11000000Y-18350000D01*
X8035000Y-7160000D02*
X7080000Y-7160000D01*
X31775000Y-9800000D02*
X33525000Y-8050000D01*
X33525000Y-8050000D02*
X33525000Y-4000000D01*
X7080000Y-9160000D02*
X9150000Y-11230000D01*
X29700000Y-9800000D02*
X31775000Y-9800000D01*
X33525000Y-4000000D02*
X33575000Y-3950000D01*
X35525000Y-7675000D02*
X30825000Y-12375000D01*
X35550000Y-7675000D02*
X35550000Y-4125000D01*
X35550000Y-4125000D02*
X35500000Y-4075000D01*
X11000000Y-18350000D02*
X11000000Y-10125000D01*
X7700000Y-34525000D02*
X7700000Y-28780000D01*
X7700000Y-28780000D02*
X7080000Y-28160000D01*
M02*
