%TF.GenerationSoftware,KiCad,Pcbnew,9.0.2*%
%TF.CreationDate,2025-05-26T23:58:44+09:00*%
%TF.ProjectId,__,78912e6b-6963-4616-945f-706362585858,rev?*%
%TF.SameCoordinates,Original*%
%TF.FileFunction,Copper,L2,Bot*%
%TF.FilePolarity,Positive*%
%FSLAX46Y46*%
G04 Gerber Fmt 4.6, Leading zero omitted, Abs format (unit mm)*
G04 Created by KiCad (PCBNEW 9.0.2) date 2025-05-26 23:58:44*
%MOMM*%
%LPD*%
G01*
G04 APERTURE LIST*
%TA.AperFunction,ComponentPad*%
%ADD10C,1.350000*%
%TD*%
%TA.AperFunction,ComponentPad*%
%ADD11R,1.350000X1.350000*%
%TD*%
%TA.AperFunction,ComponentPad*%
%ADD12C,1.905000*%
%TD*%
%TA.AperFunction,ComponentPad*%
%ADD13C,1.879600*%
%TD*%
%TA.AperFunction,ViaPad*%
%ADD14C,0.600000*%
%TD*%
%TA.AperFunction,ViaPad*%
%ADD15C,1.200000*%
%TD*%
%TA.AperFunction,Conductor*%
%ADD16C,0.200000*%
%TD*%
%TA.AperFunction,Conductor*%
%ADD17C,0.400000*%
%TD*%
G04 APERTURE END LIST*
D10*
%TO.P,Sensors,3*%
%TO.N,N/C*%
X33525000Y-3900000D03*
%TO.P,Sensors,2*%
X35525000Y-3900000D03*
D11*
%TO.P,Sensors,1*%
X37525000Y-3900000D03*
%TD*%
D10*
%TO.P,Button,1*%
%TO.N,N/C*%
X7080000Y-7160000D03*
%TO.P,Button,2*%
X7080000Y-9160000D03*
%TO.P,Button,3*%
X7080000Y-11160000D03*
%TO.P,Button,4*%
X7080000Y-13160000D03*
%TO.P,Button,5*%
X7080000Y-15160000D03*
%TD*%
D12*
%TO.P,ESP32-C3
SuperMini,0*%
%TO.N,N/C*%
X29700000Y-25040000D03*
%TO.P,ESP32-C3
SuperMini,1*%
X29700000Y-22500000D03*
%TO.P,ESP32-C3
SuperMini,2*%
X29700000Y-19960000D03*
%TO.P,ESP32-C3
SuperMini,3*%
X29700000Y-17420000D03*
%TO.P,ESP32-C3
SuperMini,3.3*%
X29700000Y-12340000D03*
%TO.P,ESP32-C3
SuperMini,4*%
X29700000Y-14880000D03*
%TO.P,ESP32-C3
SuperMini,5*%
X14460000Y-7260000D03*
%TO.P,ESP32-C3
SuperMini,5V*%
X29700000Y-7260000D03*
%TO.P,ESP32-C3
SuperMini,6*%
X14460000Y-9800000D03*
%TO.P,ESP32-C3
SuperMini,7*%
X14460000Y-12340000D03*
%TO.P,ESP32-C3
SuperMini,8*%
X14460000Y-14880000D03*
%TO.P,ESP32-C3
SuperMini,9*%
X14460000Y-17420000D03*
%TO.P,ESP32-C3
SuperMini,10*%
X14460000Y-19960000D03*
%TO.P,ESP32-C3
SuperMini,20*%
X14460000Y-22500000D03*
%TO.P,ESP32-C3
SuperMini,21*%
X14460000Y-25040000D03*
%TO.P,ESP32-C3
SuperMini,G*%
X29700000Y-9800000D03*
%TD*%
D10*
%TO.P,Display / I2C Bus,1*%
%TO.N,N/C*%
X7080000Y-22160000D03*
%TO.P,Display / I2C Bus,2*%
X7080000Y-24160000D03*
%TO.P,Display / I2C Bus,3*%
X7080000Y-26160000D03*
%TO.P,Display / I2C Bus,4*%
X7080000Y-28160000D03*
%TD*%
D13*
%TO.P,JP2,1*%
%TO.N,SDA*%
X5255000Y-45797673D03*
%TO.P,JP2,2*%
%TO.N,SCL*%
X5255000Y-43257673D03*
%TO.P,JP2,3*%
%TO.N,QST*%
X5255000Y-40717673D03*
%TD*%
%TO.P,JP4,1*%
%TO.N,VCC*%
X12875000Y-45797673D03*
%TO.P,JP4,2*%
%TO.N,GND*%
X12875000Y-43257673D03*
%TO.P,JP4,3*%
%TO.N,ALT*%
X12875000Y-40717673D03*
%TD*%
%TO.P,JP5,1*%
%TO.N,VCC*%
X7795000Y-48337673D03*
%TO.P,JP5,2*%
%TO.N,GND*%
X10335000Y-48337673D03*
%TD*%
D14*
%TO.N,SDA*%
X9450000Y-34525000D03*
%TO.N,SCL*%
X7700000Y-34525000D03*
%TO.N,GND*%
X7100000Y-19600000D03*
X39425000Y-13225000D03*
%TO.N,*%
X40750000Y-22500000D03*
%TO.N,GND*%
X36550000Y-13225000D03*
%TO.N,*%
X42550000Y-29525000D03*
X43825000Y-30400000D03*
D15*
X48825000Y-26200000D03*
X48825000Y-37400000D03*
X46225000Y-37400000D03*
X46225000Y-26200000D03*
%TD*%
D16*
%TO.N,SDA*%
X9450000Y-28530000D02*
X7080000Y-26160000D01*
X9450000Y-34525000D02*
X9450000Y-28530000D01*
%TO.N,SCL*%
X7700000Y-28780000D02*
X7080000Y-28160000D01*
X7700000Y-34525000D02*
X7700000Y-28780000D01*
%TO.N,GND*%
X9150000Y-17550000D02*
X7100000Y-19600000D01*
X9150000Y-11230000D02*
X9150000Y-17550000D01*
X7080000Y-9160000D02*
X9150000Y-11230000D01*
X11000000Y-18350000D02*
X11000000Y-10125000D01*
X7175000Y-22175000D02*
X11000000Y-18350000D01*
X11000000Y-10125000D02*
X8035000Y-7160000D01*
X8035000Y-7160000D02*
X7080000Y-7160000D01*
X36550000Y-13225000D02*
X39425000Y-13225000D01*
%TO.N,*%
X21485000Y-29525000D02*
X21500000Y-29525000D01*
X14470000Y-22510000D02*
X21485000Y-29525000D01*
X14470000Y-22495000D02*
X14470000Y-22510000D01*
X40750000Y-22500000D02*
X29700000Y-22500000D01*
X33225000Y-24975000D02*
X29765000Y-24975000D01*
X46225000Y-26200000D02*
X34450000Y-26200000D01*
X34450000Y-26200000D02*
X33225000Y-24975000D01*
X21500000Y-29525000D02*
X42550000Y-29525000D01*
X19820000Y-30400000D02*
X43825000Y-30400000D01*
X14460000Y-25040000D02*
X19820000Y-30400000D01*
X37525000Y-9595000D02*
X29700000Y-17420000D01*
X37525000Y-3900000D02*
X37525000Y-9595000D01*
%TO.N,GND*%
X29575000Y-12450000D02*
X29675000Y-12450000D01*
X29500000Y-12375000D02*
X29575000Y-12450000D01*
X30825000Y-12375000D02*
X29500000Y-12375000D01*
X35525000Y-7675000D02*
X30825000Y-12375000D01*
X35550000Y-7675000D02*
X35525000Y-7675000D01*
X35550000Y-4125000D02*
X35500000Y-4075000D01*
X35550000Y-7675000D02*
X35550000Y-4125000D01*
X33525000Y-4000000D02*
X33575000Y-3950000D01*
X31775000Y-9800000D02*
X33525000Y-8050000D01*
X33525000Y-8050000D02*
X33525000Y-4000000D01*
X29700000Y-9800000D02*
X31775000Y-9800000D01*
D17*
X12250346Y-43257673D02*
X12875000Y-43257673D01*
%TD*%
M02*
