%TF.GenerationSoftware,KiCad,Pcbnew,9.0.2*%
%TF.CreationDate,2025-06-09T22:50:47+09:00*%
%TF.ProjectId,__,78912e6b-6963-4616-945f-706362585858,3*%
%TF.SameCoordinates,Original*%
%TF.FileFunction,Copper,L1,Top*%
%TF.FilePolarity,Positive*%
%FSLAX46Y46*%
G04 Gerber Fmt 4.6, Leading zero omitted, Abs format (unit mm)*
G04 Created by KiCad (PCBNEW 9.0.2) date 2025-06-09 22:50:47*
%MOMM*%
%LPD*%
G01*
G04 APERTURE LIST*
G04 Aperture macros list*
%AMRoundRect*
0 Rectangle with rounded corners*
0 $1 Rounding radius*
0 $2 $3 $4 $5 $6 $7 $8 $9 X,Y pos of 4 corners*
0 Add a 4 corners polygon primitive as box body*
4,1,4,$2,$3,$4,$5,$6,$7,$8,$9,$2,$3,0*
0 Add four circle primitives for the rounded corners*
1,1,$1+$1,$2,$3*
1,1,$1+$1,$4,$5*
1,1,$1+$1,$6,$7*
1,1,$1+$1,$8,$9*
0 Add four rect primitives between the rounded corners*
20,1,$1+$1,$2,$3,$4,$5,0*
20,1,$1+$1,$4,$5,$6,$7,0*
20,1,$1+$1,$6,$7,$8,$9,0*
20,1,$1+$1,$8,$9,$2,$3,0*%
G04 Aperture macros list end*
%TA.AperFunction,ComponentPad*%
%ADD10C,2.000000*%
%TD*%
%TA.AperFunction,SMDPad,CuDef*%
%ADD11RoundRect,0.300000X-1.200000X-0.700000X1.200000X-0.700000X1.200000X0.700000X-1.200000X0.700000X0*%
%TD*%
%TA.AperFunction,ViaPad*%
%ADD12C,2.000000*%
%TD*%
%TA.AperFunction,Conductor*%
%ADD13C,0.200000*%
%TD*%
G04 APERTURE END LIST*
D10*
%TO.P,REF\u002A\u002A,Drain*%
%TO.N,N/C*%
X60275000Y-78400000D03*
%TO.P,REF\u002A\u002A,Gate*%
%TO.N,COOLING*%
X62775000Y-78400000D03*
%TO.P,REF\u002A\u002A,Source*%
%TO.N,N/C*%
X57775000Y-78400000D03*
%TD*%
%TO.P,REF\u002A\u002A,Drain*%
%TO.N,N/C*%
X60225000Y-92725000D03*
%TO.P,REF\u002A\u002A,Gate*%
%TO.N,feltier3*%
X62725000Y-92725000D03*
%TO.P,REF\u002A\u002A,Source*%
%TO.N,felPWM3*%
X57725000Y-92725000D03*
%TD*%
%TO.P,REF\u002A\u002A,Drain*%
%TO.N,N/C*%
X60250000Y-88125000D03*
%TO.P,REF\u002A\u002A,Gate*%
%TO.N,feltier2*%
X62750000Y-88125000D03*
%TO.P,REF\u002A\u002A,Source*%
%TO.N,felPWM2*%
X57750000Y-88125000D03*
%TD*%
D11*
%TO.P,,A*%
%TO.N,5V*%
X61325000Y-122375000D03*
%TD*%
%TO.P,,A*%
%TO.N,5V*%
X57375000Y-122375000D03*
%TD*%
%TO.P,,A*%
%TO.N,GND*%
X57375000Y-109775000D03*
%TD*%
D10*
%TO.P,REF\u002A\u002A,Drain*%
%TO.N,N/C*%
X60250000Y-83725000D03*
%TO.P,REF\u002A\u002A,Gate*%
%TO.N,feltier1*%
X62750000Y-83725000D03*
%TO.P,REF\u002A\u002A,Source*%
%TO.N,felPWM1*%
X57750000Y-83725000D03*
%TD*%
D11*
%TO.P,PAD,A*%
%TO.N,VCC*%
X92225000Y-122375000D03*
%TD*%
D10*
%TO.P,ESP32-C3
SuperMini,0*%
%TO.N,ACTIVEPIN*%
X74560000Y-94525000D03*
%TO.P,ESP32-C3
SuperMini,1*%
%TO.N,DOWN*%
X77100000Y-94525000D03*
%TO.P,ESP32-C3
SuperMini,2*%
%TO.N,UP*%
X79640000Y-94525000D03*
%TO.P,ESP32-C3
SuperMini,3*%
%TO.N,BOOT*%
X82180000Y-94525000D03*
%TO.P,ESP32-C3
SuperMini,3.3*%
%TO.N,VCC*%
X87260000Y-94525000D03*
%TO.P,ESP32-C3
SuperMini,4*%
%TO.N,Sensors*%
X84720000Y-94525000D03*
%TO.P,ESP32-C3
SuperMini,5*%
%TO.N,COOLER_PIN*%
X92340000Y-79285000D03*
%TO.P,ESP32-C3
SuperMini,5V*%
%TO.N,VCC*%
X92340000Y-94525000D03*
%TO.P,ESP32-C3
SuperMini,6*%
%TO.N,HEATER_PIN*%
X89800000Y-79285000D03*
%TO.P,ESP32-C3
SuperMini,7*%
%TO.N,COOLING*%
X87260000Y-79285000D03*
%TO.P,ESP32-C3
SuperMini,8*%
%TO.N,SDA*%
X84720000Y-79285000D03*
%TO.P,ESP32-C3
SuperMini,9*%
%TO.N,SCL*%
X82180000Y-79285000D03*
%TO.P,ESP32-C3
SuperMini,10*%
%TO.N,feltier3*%
X79640000Y-79285000D03*
%TO.P,ESP32-C3
SuperMini,20*%
%TO.N,feltier2*%
X77100000Y-79285000D03*
%TO.P,ESP32-C3
SuperMini,21*%
%TO.N,feltier1*%
X74560000Y-79285000D03*
%TO.P,ESP32-C3
SuperMini,G*%
%TO.N,GND*%
X89800000Y-94525000D03*
%TD*%
D11*
%TO.P,,A*%
%TO.N,GND*%
X61325000Y-109775000D03*
%TD*%
%TO.P,,A*%
%TO.N,GND*%
X92225000Y-109775000D03*
%TD*%
D10*
%TO.P,JP2,1*%
%TO.N,SDA*%
X69430000Y-99075000D03*
%TO.P,JP2,2*%
%TO.N,SCL*%
X71970000Y-99075000D03*
%TO.P,JP2,3*%
%TO.N,QST*%
X74510000Y-99075000D03*
%TD*%
%TO.P,JP4,1*%
%TO.N,VCC*%
X69430000Y-106695000D03*
%TO.P,JP4,2*%
%TO.N,GND*%
X71970000Y-106695000D03*
%TO.P,JP4,3*%
%TO.N,ALT*%
X74510000Y-106695000D03*
%TD*%
%TO.P,JP5,1*%
%TO.N,VCC*%
X66890000Y-101615000D03*
%TO.P,JP5,2*%
%TO.N,GND*%
X66890000Y-104155000D03*
%TD*%
D12*
%TO.N,VCC*%
X90500000Y-106000000D03*
X90500000Y-98750000D03*
X90500000Y-101975000D03*
%TO.N,SDA*%
X88000000Y-106000000D03*
%TO.N,GND*%
X93000000Y-106000000D03*
X93000000Y-102000000D03*
X93000000Y-98750000D03*
%TO.N,SCL*%
X85500000Y-106000000D03*
%TO.N,HEATER_PIN*%
X88150000Y-76300000D03*
%TO.N,COOLER_PIN*%
X90850000Y-76325000D03*
%TO.N,ACTIVEPIN*%
X93600000Y-76350000D03*
%TO.N,Sensors*%
X88000000Y-98750000D03*
%TO.N,DOWN*%
X83000000Y-102000000D03*
%TO.N,UP*%
X85500000Y-102000000D03*
%TO.N,BOOT*%
X88000000Y-102000000D03*
%TD*%
D13*
%TO.N,SDA*%
X86150000Y-104150000D02*
X88000000Y-106000000D01*
X74650000Y-96725000D02*
X82075000Y-104150000D01*
X71780000Y-96725000D02*
X74650000Y-96725000D01*
X82075000Y-104150000D02*
X86150000Y-104150000D01*
%TO.N,SCL*%
X78895000Y-106000000D02*
X85500000Y-106000000D01*
%TO.N,Sensors*%
X84720000Y-94845000D02*
X84720000Y-94525000D01*
X88000000Y-98125000D02*
X84720000Y-94845000D01*
X88000000Y-98750000D02*
X88000000Y-98125000D01*
%TO.N,BOOT*%
X82180000Y-95605000D02*
X82180000Y-94525000D01*
X88000000Y-101425000D02*
X82180000Y-95605000D01*
X88000000Y-102000000D02*
X88000000Y-101425000D01*
%TO.N,UP*%
X85500000Y-101250000D02*
X85500000Y-102000000D01*
X79640000Y-95390000D02*
X85500000Y-101250000D01*
X79640000Y-94525000D02*
X79640000Y-95390000D01*
%TO.N,DOWN*%
X77100000Y-95325000D02*
X77100000Y-94525000D01*
X83000000Y-102000000D02*
X83000000Y-101225000D01*
X83000000Y-101225000D02*
X77100000Y-95325000D01*
%TO.N,VCC*%
X90500000Y-101975000D02*
X90500000Y-98750000D01*
X90500000Y-106000000D02*
X90500000Y-101975000D01*
%TO.N,GND*%
X93000000Y-102000000D02*
X93000000Y-106000000D01*
X93000000Y-98750000D02*
X93000000Y-102000000D01*
X93000000Y-97725000D02*
X89800000Y-94525000D01*
X93000000Y-98750000D02*
X93000000Y-97725000D01*
%TO.N,VCC*%
X90500000Y-97765000D02*
X87260000Y-94525000D01*
X90500000Y-98750000D02*
X90500000Y-97765000D01*
X90225000Y-101975000D02*
X90500000Y-101975000D01*
X90200000Y-101950000D02*
X90225000Y-101975000D01*
%TO.N,GND*%
X92500000Y-102000000D02*
X93000000Y-102000000D01*
X92450000Y-101950000D02*
X92500000Y-102000000D01*
%TO.N,*%
X60275000Y-92675000D02*
X60225000Y-92725000D01*
X60225000Y-92725000D02*
X60250000Y-92700000D01*
X60275000Y-83700000D02*
X60250000Y-83725000D01*
%TO.N,VCC*%
X79125000Y-122325000D02*
X92175000Y-122325000D01*
X92340000Y-94525000D02*
X92340000Y-94540000D01*
X87260000Y-94525000D02*
X87260000Y-94035000D01*
X69420000Y-106705000D02*
X69430000Y-106695000D01*
X92330000Y-94815000D02*
X92270000Y-94755000D01*
X92340000Y-94540000D02*
X94725000Y-96925000D01*
X92225000Y-122375000D02*
X92225000Y-121800000D01*
X87260000Y-94525000D02*
X87260000Y-95160000D01*
X92225000Y-122375000D02*
X92350000Y-122375000D01*
X94725000Y-120000000D02*
X94725000Y-96925000D01*
X69430000Y-112630000D02*
X79125000Y-122325000D01*
X92350000Y-122375000D02*
X94725000Y-120000000D01*
X69350000Y-106775000D02*
X69430000Y-106695000D01*
X92175000Y-122325000D02*
X92225000Y-122375000D01*
X69430000Y-106695000D02*
X69430000Y-112630000D01*
%TO.N,SDA*%
X69430000Y-99080000D02*
X69430000Y-99075000D01*
X71780000Y-92225000D02*
X84720000Y-79285000D01*
X71780000Y-96725000D02*
X71780000Y-92225000D01*
X84720000Y-79305000D02*
X84720000Y-79285000D01*
X69430000Y-99075000D02*
X69420615Y-99065615D01*
X71780000Y-96725000D02*
X69430000Y-99075000D01*
%TO.N,GND*%
X73125000Y-109775000D02*
X92225000Y-109775000D01*
X92225000Y-109775000D02*
X92075000Y-109625000D01*
X57375000Y-109775000D02*
X61325000Y-109775000D01*
X71970000Y-106695000D02*
X71970615Y-106694385D01*
X71890000Y-106775000D02*
X71970000Y-106695000D01*
X61825000Y-109875000D02*
X61825000Y-109625000D01*
X89800000Y-94525000D02*
X89790000Y-94535000D01*
X71970000Y-106695000D02*
X71970000Y-108620000D01*
X92221163Y-109778837D02*
X92225000Y-109775000D01*
X66880000Y-104165000D02*
X66890000Y-104155000D01*
X92225000Y-109775000D02*
X92475000Y-109525000D01*
X89800000Y-94525000D02*
X89790000Y-94525000D01*
X71970000Y-108620000D02*
X73125000Y-109775000D01*
X89800000Y-94525000D02*
X89800000Y-95325000D01*
X92125000Y-109675000D02*
X92225000Y-109775000D01*
X71865000Y-106800000D02*
X71970000Y-106695000D01*
%TO.N,SCL*%
X71970000Y-99075000D02*
X71970000Y-99762327D01*
X67700000Y-93775000D02*
X82180000Y-79295000D01*
X67700000Y-99875000D02*
X67700000Y-93775000D01*
X71607673Y-99075000D02*
X71970000Y-99075000D01*
X82180000Y-79295000D02*
X82180000Y-79285000D01*
X78895000Y-106000000D02*
X71970000Y-99075000D01*
X71970000Y-99075000D02*
X71970000Y-99080000D01*
X68625000Y-100800000D02*
X67700000Y-99875000D01*
X71970000Y-99080000D02*
X70250000Y-100800000D01*
X70250000Y-100800000D02*
X68625000Y-100800000D01*
%TO.N,feltier2*%
X62750000Y-88125000D02*
X68260000Y-88125000D01*
X68260000Y-88125000D02*
X77100000Y-79285000D01*
%TO.N,HEATER_PIN*%
X89800000Y-77950000D02*
X89800000Y-79285000D01*
X88150000Y-76300000D02*
X89800000Y-77950000D01*
%TO.N,COOLER_PIN*%
X90850000Y-76325000D02*
X92340000Y-77815000D01*
X92340000Y-77815000D02*
X92340000Y-79285000D01*
%TO.N,ACTIVEPIN*%
X92350000Y-81925000D02*
X94225000Y-80050000D01*
X74560000Y-94525000D02*
X87160000Y-81925000D01*
X94225000Y-80050000D02*
X94225000Y-76975000D01*
X94225000Y-76975000D02*
X93600000Y-76350000D01*
X87160000Y-81925000D02*
X92350000Y-81925000D01*
%TO.N,Sensors*%
X84720000Y-94995000D02*
X84720000Y-94525000D01*
%TO.N,5V*%
X57375000Y-122375000D02*
X61325000Y-122375000D01*
%TO.N,DOWN*%
X77100000Y-95050000D02*
X77100000Y-94525000D01*
%TO.N,BOOT*%
X82180000Y-95380000D02*
X82180000Y-94525000D01*
%TO.N,feltier1*%
X70120000Y-83725000D02*
X74560000Y-79285000D01*
X62750000Y-83725000D02*
X70120000Y-83725000D01*
X62835000Y-83810000D02*
X62750000Y-83725000D01*
%TO.N,COOLING*%
X87260000Y-79285000D02*
X84250000Y-76275000D01*
X64900000Y-76275000D02*
X62775000Y-78400000D01*
X84250000Y-76275000D02*
X64900000Y-76275000D01*
%TO.N,feltier3*%
X79640000Y-79285000D02*
X66200000Y-92725000D01*
X62725000Y-92725000D02*
X66200000Y-92725000D01*
X79640000Y-79285000D02*
X79650000Y-79275000D01*
%TD*%
M02*
