%TF.GenerationSoftware,KiCad,Pcbnew,9.0.2*%
%TF.CreationDate,2025-05-26T23:58:44+09:00*%
%TF.ProjectId,__,78912e6b-6963-4616-945f-706362585858,rev?*%
%TF.SameCoordinates,Original*%
%TF.FileFunction,Paste,Top*%
%TF.FilePolarity,Positive*%
%FSLAX46Y46*%
G04 Gerber Fmt 4.6, Leading zero omitted, Abs format (unit mm)*
G04 Created by KiCad (PCBNEW 9.0.2) date 2025-05-26 23:58:44*
%MOMM*%
%LPD*%
G01*
G04 APERTURE LIST*
%ADD10C,0.200000*%
G04 APERTURE END LIST*
D10*
X49600000Y-600000D02*
X54600000Y-600000D01*
X54600000Y-4600000D01*
X49600000Y-4600000D01*
X49600000Y-600000D01*
G36*
X49600000Y-600000D02*
G01*
X54600000Y-600000D01*
X54600000Y-4600000D01*
X49600000Y-4600000D01*
X49600000Y-600000D01*
G37*
X49650000Y-5550000D02*
X54650000Y-5550000D01*
X54650000Y-9550000D01*
X49650000Y-9550000D01*
X49650000Y-5550000D01*
G36*
X49650000Y-5550000D02*
G01*
X54650000Y-5550000D01*
X54650000Y-9550000D01*
X49650000Y-9550000D01*
X49650000Y-5550000D01*
G37*
X49650000Y-10550000D02*
X54650000Y-10550000D01*
X54650000Y-14550000D01*
X49650000Y-14550000D01*
X49650000Y-10550000D01*
G36*
X49650000Y-10550000D02*
G01*
X54650000Y-10550000D01*
X54650000Y-14550000D01*
X49650000Y-14550000D01*
X49650000Y-10550000D01*
G37*
X49650000Y-15925000D02*
X54650000Y-15925000D01*
X54650000Y-19925000D01*
X49650000Y-19925000D01*
X49650000Y-15925000D01*
G36*
X49650000Y-15925000D02*
G01*
X54650000Y-15925000D01*
X54650000Y-19925000D01*
X49650000Y-19925000D01*
X49650000Y-15925000D01*
G37*
X49675000Y-20975000D02*
X54675000Y-20975000D01*
X54675000Y-24975000D01*
X49675000Y-24975000D01*
X49675000Y-20975000D01*
G36*
X49675000Y-20975000D02*
G01*
X54675000Y-20975000D01*
X54675000Y-24975000D01*
X49675000Y-24975000D01*
X49675000Y-20975000D01*
G37*
X20050000Y-51700000D02*
X23050000Y-51700000D01*
X23050000Y-53700000D01*
X20050000Y-53700000D01*
X20050000Y-51700000D01*
G36*
X20050000Y-51700000D02*
G01*
X23050000Y-51700000D01*
X23050000Y-53700000D01*
X20050000Y-53700000D01*
X20050000Y-51700000D01*
G37*
X51150000Y-51700000D02*
X54150000Y-51700000D01*
X54150000Y-53700000D01*
X51150000Y-53700000D01*
X51150000Y-51700000D01*
G36*
X51150000Y-51700000D02*
G01*
X54150000Y-51700000D01*
X54150000Y-53700000D01*
X51150000Y-53700000D01*
X51150000Y-51700000D01*
G37*
X20050000Y-38900000D02*
X23050000Y-38900000D01*
X23050000Y-40900000D01*
X20050000Y-40900000D01*
X20050000Y-38900000D01*
G36*
X20050000Y-38900000D02*
G01*
X23050000Y-38900000D01*
X23050000Y-40900000D01*
X20050000Y-40900000D01*
X20050000Y-38900000D01*
G37*
X51150000Y-38900000D02*
X54150000Y-38900000D01*
X54150000Y-40900000D01*
X51150000Y-40900000D01*
X51150000Y-38900000D01*
G36*
X51150000Y-38900000D02*
G01*
X54150000Y-38900000D01*
X54150000Y-40900000D01*
X51150000Y-40900000D01*
X51150000Y-38900000D01*
G37*
M02*
