%TF.GenerationSoftware,KiCad,Pcbnew,9.0.2*%
%TF.CreationDate,2025-06-04T23:53:16+09:00*%
%TF.ProjectId,__,78912e6b-6963-4616-945f-706362585858,rev?*%
%TF.SameCoordinates,Original*%
%TF.FileFunction,Legend,Bot*%
%TF.FilePolarity,Positive*%
%FSLAX46Y46*%
G04 Gerber Fmt 4.6, Leading zero omitted, Abs format (unit mm)*
G04 Created by KiCad (PCBNEW 9.0.2) date 2025-06-04 23:53:16*
%MOMM*%
%LPD*%
G01*
G04 APERTURE LIST*
%ADD10C,0.200000*%
%ADD11C,0.100000*%
%ADD12C,0.114300*%
%ADD13C,0.203200*%
G04 APERTURE END LIST*
D10*
X53599999Y-9277219D02*
X53599999Y-8277219D01*
X53599999Y-8277219D02*
X53219047Y-8277219D01*
X53219047Y-8277219D02*
X53123809Y-8324838D01*
X53123809Y-8324838D02*
X53076190Y-8372457D01*
X53076190Y-8372457D02*
X53028571Y-8467695D01*
X53028571Y-8467695D02*
X53028571Y-8610552D01*
X53028571Y-8610552D02*
X53076190Y-8705790D01*
X53076190Y-8705790D02*
X53123809Y-8753409D01*
X53123809Y-8753409D02*
X53219047Y-8801028D01*
X53219047Y-8801028D02*
X53599999Y-8801028D01*
X52599999Y-9277219D02*
X52599999Y-8277219D01*
X52123809Y-9277219D02*
X52123809Y-8277219D01*
X52123809Y-8277219D02*
X51552381Y-9277219D01*
X51552381Y-9277219D02*
X51552381Y-8277219D01*
X50647619Y-8610552D02*
X50647619Y-9277219D01*
X50885714Y-8229600D02*
X51123809Y-8943885D01*
X51123809Y-8943885D02*
X50504762Y-8943885D01*
D11*
X49950000Y-7950000D02*
X49970000Y-7950000D01*
X50370000Y-7950000D02*
X50390000Y-7950000D01*
X50790000Y-7950000D02*
X50810000Y-7950000D01*
X51210000Y-7950000D02*
X51230000Y-7950000D01*
X51630000Y-7950000D02*
X51650000Y-7950000D01*
X52050000Y-7950000D02*
X52070000Y-7950000D01*
X52470000Y-7950000D02*
X52490000Y-7950000D01*
X52890000Y-7950000D02*
X52910000Y-7950000D01*
X53310000Y-7950000D02*
X53330000Y-7950000D01*
X53730000Y-7950000D02*
X53750000Y-7950000D01*
X54150000Y-7950000D02*
X54170000Y-7950000D01*
X54250000Y-7950000D02*
X54250000Y-7970000D01*
X54250000Y-8370000D02*
X54250000Y-8390000D01*
X54250000Y-8790000D02*
X54250000Y-8810000D01*
X54250000Y-9210000D02*
X54250000Y-9230000D01*
X54250000Y-9630000D02*
X54250000Y-9650000D01*
X54250000Y-9700000D02*
X54230000Y-9700000D01*
X53830000Y-9700000D02*
X53810000Y-9700000D01*
X53410000Y-9700000D02*
X53390000Y-9700000D01*
X52990000Y-9700000D02*
X52970000Y-9700000D01*
X52570000Y-9700000D02*
X52550000Y-9700000D01*
X52150000Y-9700000D02*
X52130000Y-9700000D01*
X51730000Y-9700000D02*
X51710000Y-9700000D01*
X51310000Y-9700000D02*
X51290000Y-9700000D01*
X50890000Y-9700000D02*
X50870000Y-9700000D01*
X50470000Y-9700000D02*
X50450000Y-9700000D01*
X50050000Y-9700000D02*
X50030000Y-9700000D01*
X49950000Y-9700000D02*
X49950000Y-9680000D01*
X49950000Y-9280000D02*
X49950000Y-9260000D01*
X49950000Y-8860000D02*
X49950000Y-8840000D01*
X49950000Y-8440000D02*
X49950000Y-8420000D01*
X49950000Y-8020000D02*
X49950000Y-8000000D01*
D10*
X52961904Y-4774838D02*
X53057142Y-4727219D01*
X53057142Y-4727219D02*
X53199999Y-4727219D01*
X53199999Y-4727219D02*
X53342856Y-4774838D01*
X53342856Y-4774838D02*
X53438094Y-4870076D01*
X53438094Y-4870076D02*
X53485713Y-4965314D01*
X53485713Y-4965314D02*
X53533332Y-5155790D01*
X53533332Y-5155790D02*
X53533332Y-5298647D01*
X53533332Y-5298647D02*
X53485713Y-5489123D01*
X53485713Y-5489123D02*
X53438094Y-5584361D01*
X53438094Y-5584361D02*
X53342856Y-5679600D01*
X53342856Y-5679600D02*
X53199999Y-5727219D01*
X53199999Y-5727219D02*
X53104761Y-5727219D01*
X53104761Y-5727219D02*
X52961904Y-5679600D01*
X52961904Y-5679600D02*
X52914285Y-5631980D01*
X52914285Y-5631980D02*
X52914285Y-5298647D01*
X52914285Y-5298647D02*
X53104761Y-5298647D01*
X52485713Y-5727219D02*
X52485713Y-4727219D01*
X52485713Y-4727219D02*
X51914285Y-5727219D01*
X51914285Y-5727219D02*
X51914285Y-4727219D01*
X51438094Y-5727219D02*
X51438094Y-4727219D01*
X51438094Y-4727219D02*
X51199999Y-4727219D01*
X51199999Y-4727219D02*
X51057142Y-4774838D01*
X51057142Y-4774838D02*
X50961904Y-4870076D01*
X50961904Y-4870076D02*
X50914285Y-4965314D01*
X50914285Y-4965314D02*
X50866666Y-5155790D01*
X50866666Y-5155790D02*
X50866666Y-5298647D01*
X50866666Y-5298647D02*
X50914285Y-5489123D01*
X50914285Y-5489123D02*
X50961904Y-5584361D01*
X50961904Y-5584361D02*
X51057142Y-5679600D01*
X51057142Y-5679600D02*
X51199999Y-5727219D01*
X51199999Y-5727219D02*
X51438094Y-5727219D01*
D11*
X50050000Y-4400000D02*
X50070000Y-4400000D01*
X50470000Y-4400000D02*
X50490000Y-4400000D01*
X50890000Y-4400000D02*
X50910000Y-4400000D01*
X51310000Y-4400000D02*
X51330000Y-4400000D01*
X51730000Y-4400000D02*
X51750000Y-4400000D01*
X52150000Y-4400000D02*
X52170000Y-4400000D01*
X52570000Y-4400000D02*
X52590000Y-4400000D01*
X52990000Y-4400000D02*
X53010000Y-4400000D01*
X53410000Y-4400000D02*
X53430000Y-4400000D01*
X53830000Y-4400000D02*
X53850000Y-4400000D01*
X54250000Y-4400000D02*
X54270000Y-4400000D01*
X54350000Y-4400000D02*
X54350000Y-4420000D01*
X54350000Y-4820000D02*
X54350000Y-4840000D01*
X54350000Y-5240000D02*
X54350000Y-5260000D01*
X54350000Y-5660000D02*
X54350000Y-5680000D01*
X54350000Y-6080000D02*
X54350000Y-6100000D01*
X54350000Y-6150000D02*
X54330000Y-6150000D01*
X53930000Y-6150000D02*
X53910000Y-6150000D01*
X53510000Y-6150000D02*
X53490000Y-6150000D01*
X53090000Y-6150000D02*
X53070000Y-6150000D01*
X52670000Y-6150000D02*
X52650000Y-6150000D01*
X52250000Y-6150000D02*
X52230000Y-6150000D01*
X51830000Y-6150000D02*
X51810000Y-6150000D01*
X51410000Y-6150000D02*
X51390000Y-6150000D01*
X50990000Y-6150000D02*
X50970000Y-6150000D01*
X50570000Y-6150000D02*
X50550000Y-6150000D01*
X50150000Y-6150000D02*
X50130000Y-6150000D01*
X50050000Y-6150000D02*
X50050000Y-6130000D01*
X50050000Y-5730000D02*
X50050000Y-5710000D01*
X50050000Y-5310000D02*
X50050000Y-5290000D01*
X50050000Y-4890000D02*
X50050000Y-4870000D01*
X50050000Y-4470000D02*
X50050000Y-4450000D01*
D10*
X4536904Y-6604838D02*
X4632142Y-6557219D01*
X4632142Y-6557219D02*
X4774999Y-6557219D01*
X4774999Y-6557219D02*
X4917856Y-6604838D01*
X4917856Y-6604838D02*
X5013094Y-6700076D01*
X5013094Y-6700076D02*
X5060713Y-6795314D01*
X5060713Y-6795314D02*
X5108332Y-6985790D01*
X5108332Y-6985790D02*
X5108332Y-7128647D01*
X5108332Y-7128647D02*
X5060713Y-7319123D01*
X5060713Y-7319123D02*
X5013094Y-7414361D01*
X5013094Y-7414361D02*
X4917856Y-7509600D01*
X4917856Y-7509600D02*
X4774999Y-7557219D01*
X4774999Y-7557219D02*
X4679761Y-7557219D01*
X4679761Y-7557219D02*
X4536904Y-7509600D01*
X4536904Y-7509600D02*
X4489285Y-7461980D01*
X4489285Y-7461980D02*
X4489285Y-7128647D01*
X4489285Y-7128647D02*
X4679761Y-7128647D01*
X4060713Y-7557219D02*
X4060713Y-6557219D01*
X4060713Y-6557219D02*
X3489285Y-7557219D01*
X3489285Y-7557219D02*
X3489285Y-6557219D01*
X3013094Y-7557219D02*
X3013094Y-6557219D01*
X3013094Y-6557219D02*
X2774999Y-6557219D01*
X2774999Y-6557219D02*
X2632142Y-6604838D01*
X2632142Y-6604838D02*
X2536904Y-6700076D01*
X2536904Y-6700076D02*
X2489285Y-6795314D01*
X2489285Y-6795314D02*
X2441666Y-6985790D01*
X2441666Y-6985790D02*
X2441666Y-7128647D01*
X2441666Y-7128647D02*
X2489285Y-7319123D01*
X2489285Y-7319123D02*
X2536904Y-7414361D01*
X2536904Y-7414361D02*
X2632142Y-7509600D01*
X2632142Y-7509600D02*
X2774999Y-7557219D01*
X2774999Y-7557219D02*
X3013094Y-7557219D01*
D11*
X2025000Y-6230000D02*
X2045000Y-6230000D01*
X2445000Y-6230000D02*
X2465000Y-6230000D01*
X2865000Y-6230000D02*
X2885000Y-6230000D01*
X3285000Y-6230000D02*
X3305000Y-6230000D01*
X3705000Y-6230000D02*
X3725000Y-6230000D01*
X4125000Y-6230000D02*
X4145000Y-6230000D01*
X4545000Y-6230000D02*
X4565000Y-6230000D01*
X4965000Y-6230000D02*
X4985000Y-6230000D01*
X5385000Y-6230000D02*
X5405000Y-6230000D01*
X5525000Y-6230000D02*
X5525000Y-6250000D01*
X5525000Y-6650000D02*
X5525000Y-6670000D01*
X5525000Y-7070000D02*
X5525000Y-7090000D01*
X5525000Y-7490000D02*
X5525000Y-7510000D01*
X5525000Y-7910000D02*
X5525000Y-7930000D01*
X5525000Y-7980000D02*
X5505000Y-7980000D01*
X5105000Y-7980000D02*
X5085000Y-7980000D01*
X4685000Y-7980000D02*
X4665000Y-7980000D01*
X4265000Y-7980000D02*
X4245000Y-7980000D01*
X3845000Y-7980000D02*
X3825000Y-7980000D01*
X3425000Y-7980000D02*
X3405000Y-7980000D01*
X3005000Y-7980000D02*
X2985000Y-7980000D01*
X2585000Y-7980000D02*
X2565000Y-7980000D01*
X2165000Y-7980000D02*
X2145000Y-7980000D01*
X2025000Y-7980000D02*
X2025000Y-7960000D01*
X2025000Y-7560000D02*
X2025000Y-7540000D01*
X2025000Y-7140000D02*
X2025000Y-7120000D01*
X2025000Y-6720000D02*
X2025000Y-6700000D01*
X2025000Y-6300000D02*
X2025000Y-6280000D01*
D10*
X5179761Y-11557219D02*
X5179761Y-10557219D01*
X5179761Y-10938171D02*
X5084523Y-10890552D01*
X5084523Y-10890552D02*
X4894047Y-10890552D01*
X4894047Y-10890552D02*
X4798809Y-10938171D01*
X4798809Y-10938171D02*
X4751190Y-10985790D01*
X4751190Y-10985790D02*
X4703571Y-11081028D01*
X4703571Y-11081028D02*
X4703571Y-11366742D01*
X4703571Y-11366742D02*
X4751190Y-11461980D01*
X4751190Y-11461980D02*
X4798809Y-11509600D01*
X4798809Y-11509600D02*
X4894047Y-11557219D01*
X4894047Y-11557219D02*
X5084523Y-11557219D01*
X5084523Y-11557219D02*
X5179761Y-11509600D01*
X4132142Y-11557219D02*
X4227380Y-11509600D01*
X4227380Y-11509600D02*
X4274999Y-11461980D01*
X4274999Y-11461980D02*
X4322618Y-11366742D01*
X4322618Y-11366742D02*
X4322618Y-11081028D01*
X4322618Y-11081028D02*
X4274999Y-10985790D01*
X4274999Y-10985790D02*
X4227380Y-10938171D01*
X4227380Y-10938171D02*
X4132142Y-10890552D01*
X4132142Y-10890552D02*
X3989285Y-10890552D01*
X3989285Y-10890552D02*
X3894047Y-10938171D01*
X3894047Y-10938171D02*
X3846428Y-10985790D01*
X3846428Y-10985790D02*
X3798809Y-11081028D01*
X3798809Y-11081028D02*
X3798809Y-11366742D01*
X3798809Y-11366742D02*
X3846428Y-11461980D01*
X3846428Y-11461980D02*
X3894047Y-11509600D01*
X3894047Y-11509600D02*
X3989285Y-11557219D01*
X3989285Y-11557219D02*
X4132142Y-11557219D01*
X3227380Y-11557219D02*
X3322618Y-11509600D01*
X3322618Y-11509600D02*
X3370237Y-11461980D01*
X3370237Y-11461980D02*
X3417856Y-11366742D01*
X3417856Y-11366742D02*
X3417856Y-11081028D01*
X3417856Y-11081028D02*
X3370237Y-10985790D01*
X3370237Y-10985790D02*
X3322618Y-10938171D01*
X3322618Y-10938171D02*
X3227380Y-10890552D01*
X3227380Y-10890552D02*
X3084523Y-10890552D01*
X3084523Y-10890552D02*
X2989285Y-10938171D01*
X2989285Y-10938171D02*
X2941666Y-10985790D01*
X2941666Y-10985790D02*
X2894047Y-11081028D01*
X2894047Y-11081028D02*
X2894047Y-11366742D01*
X2894047Y-11366742D02*
X2941666Y-11461980D01*
X2941666Y-11461980D02*
X2989285Y-11509600D01*
X2989285Y-11509600D02*
X3084523Y-11557219D01*
X3084523Y-11557219D02*
X3227380Y-11557219D01*
X2608332Y-10890552D02*
X2227380Y-10890552D01*
X2465475Y-10557219D02*
X2465475Y-11414361D01*
X2465475Y-11414361D02*
X2417856Y-11509600D01*
X2417856Y-11509600D02*
X2322618Y-11557219D01*
X2322618Y-11557219D02*
X2227380Y-11557219D01*
D11*
X2025000Y-10230000D02*
X2045000Y-10230000D01*
X2445000Y-10230000D02*
X2465000Y-10230000D01*
X2865000Y-10230000D02*
X2885000Y-10230000D01*
X3285000Y-10230000D02*
X3305000Y-10230000D01*
X3705000Y-10230000D02*
X3725000Y-10230000D01*
X4125000Y-10230000D02*
X4145000Y-10230000D01*
X4545000Y-10230000D02*
X4565000Y-10230000D01*
X4965000Y-10230000D02*
X4985000Y-10230000D01*
X5385000Y-10230000D02*
X5405000Y-10230000D01*
X5525000Y-10230000D02*
X5525000Y-10250000D01*
X5525000Y-10650000D02*
X5525000Y-10670000D01*
X5525000Y-11070000D02*
X5525000Y-11090000D01*
X5525000Y-11490000D02*
X5525000Y-11510000D01*
X5525000Y-11910000D02*
X5525000Y-11930000D01*
X5525000Y-11980000D02*
X5505000Y-11980000D01*
X5105000Y-11980000D02*
X5085000Y-11980000D01*
X4685000Y-11980000D02*
X4665000Y-11980000D01*
X4265000Y-11980000D02*
X4245000Y-11980000D01*
X3845000Y-11980000D02*
X3825000Y-11980000D01*
X3425000Y-11980000D02*
X3405000Y-11980000D01*
X3005000Y-11980000D02*
X2985000Y-11980000D01*
X2585000Y-11980000D02*
X2565000Y-11980000D01*
X2165000Y-11980000D02*
X2145000Y-11980000D01*
X2025000Y-11980000D02*
X2025000Y-11960000D01*
X2025000Y-11560000D02*
X2025000Y-11540000D01*
X2025000Y-11140000D02*
X2025000Y-11120000D01*
X2025000Y-10720000D02*
X2025000Y-10700000D01*
X2025000Y-10300000D02*
X2025000Y-10280000D01*
D10*
X4833332Y-23307219D02*
X4499999Y-24307219D01*
X4499999Y-24307219D02*
X4166666Y-23307219D01*
X3261904Y-24211980D02*
X3309523Y-24259600D01*
X3309523Y-24259600D02*
X3452380Y-24307219D01*
X3452380Y-24307219D02*
X3547618Y-24307219D01*
X3547618Y-24307219D02*
X3690475Y-24259600D01*
X3690475Y-24259600D02*
X3785713Y-24164361D01*
X3785713Y-24164361D02*
X3833332Y-24069123D01*
X3833332Y-24069123D02*
X3880951Y-23878647D01*
X3880951Y-23878647D02*
X3880951Y-23735790D01*
X3880951Y-23735790D02*
X3833332Y-23545314D01*
X3833332Y-23545314D02*
X3785713Y-23450076D01*
X3785713Y-23450076D02*
X3690475Y-23354838D01*
X3690475Y-23354838D02*
X3547618Y-23307219D01*
X3547618Y-23307219D02*
X3452380Y-23307219D01*
X3452380Y-23307219D02*
X3309523Y-23354838D01*
X3309523Y-23354838D02*
X3261904Y-23402457D01*
X2261904Y-24211980D02*
X2309523Y-24259600D01*
X2309523Y-24259600D02*
X2452380Y-24307219D01*
X2452380Y-24307219D02*
X2547618Y-24307219D01*
X2547618Y-24307219D02*
X2690475Y-24259600D01*
X2690475Y-24259600D02*
X2785713Y-24164361D01*
X2785713Y-24164361D02*
X2833332Y-24069123D01*
X2833332Y-24069123D02*
X2880951Y-23878647D01*
X2880951Y-23878647D02*
X2880951Y-23735790D01*
X2880951Y-23735790D02*
X2833332Y-23545314D01*
X2833332Y-23545314D02*
X2785713Y-23450076D01*
X2785713Y-23450076D02*
X2690475Y-23354838D01*
X2690475Y-23354838D02*
X2547618Y-23307219D01*
X2547618Y-23307219D02*
X2452380Y-23307219D01*
X2452380Y-23307219D02*
X2309523Y-23354838D01*
X2309523Y-23354838D02*
X2261904Y-23402457D01*
D11*
X1750000Y-22980000D02*
X1770000Y-22980000D01*
X2170000Y-22980000D02*
X2190000Y-22980000D01*
X2590000Y-22980000D02*
X2610000Y-22980000D01*
X3010000Y-22980000D02*
X3030000Y-22980000D01*
X3430000Y-22980000D02*
X3450000Y-22980000D01*
X3850000Y-22980000D02*
X3870000Y-22980000D01*
X4270000Y-22980000D02*
X4290000Y-22980000D01*
X4690000Y-22980000D02*
X4710000Y-22980000D01*
X5110000Y-22980000D02*
X5130000Y-22980000D01*
X5250000Y-22980000D02*
X5250000Y-23000000D01*
X5250000Y-23400000D02*
X5250000Y-23420000D01*
X5250000Y-23820000D02*
X5250000Y-23840000D01*
X5250000Y-24240000D02*
X5250000Y-24260000D01*
X5250000Y-24660000D02*
X5250000Y-24680000D01*
X5250000Y-24730000D02*
X5230000Y-24730000D01*
X4830000Y-24730000D02*
X4810000Y-24730000D01*
X4410000Y-24730000D02*
X4390000Y-24730000D01*
X3990000Y-24730000D02*
X3970000Y-24730000D01*
X3570000Y-24730000D02*
X3550000Y-24730000D01*
X3150000Y-24730000D02*
X3130000Y-24730000D01*
X2730000Y-24730000D02*
X2710000Y-24730000D01*
X2310000Y-24730000D02*
X2290000Y-24730000D01*
X1890000Y-24730000D02*
X1870000Y-24730000D01*
X1750000Y-24730000D02*
X1750000Y-24710000D01*
X1750000Y-24310000D02*
X1750000Y-24290000D01*
X1750000Y-23890000D02*
X1750000Y-23870000D01*
X1750000Y-23470000D02*
X1750000Y-23450000D01*
X1750000Y-23050000D02*
X1750000Y-23030000D01*
D10*
X27938095Y-15204600D02*
X27795238Y-15252219D01*
X27795238Y-15252219D02*
X27557143Y-15252219D01*
X27557143Y-15252219D02*
X27461905Y-15204600D01*
X27461905Y-15204600D02*
X27414286Y-15156980D01*
X27414286Y-15156980D02*
X27366667Y-15061742D01*
X27366667Y-15061742D02*
X27366667Y-14966504D01*
X27366667Y-14966504D02*
X27414286Y-14871266D01*
X27414286Y-14871266D02*
X27461905Y-14823647D01*
X27461905Y-14823647D02*
X27557143Y-14776028D01*
X27557143Y-14776028D02*
X27747619Y-14728409D01*
X27747619Y-14728409D02*
X27842857Y-14680790D01*
X27842857Y-14680790D02*
X27890476Y-14633171D01*
X27890476Y-14633171D02*
X27938095Y-14537933D01*
X27938095Y-14537933D02*
X27938095Y-14442695D01*
X27938095Y-14442695D02*
X27890476Y-14347457D01*
X27890476Y-14347457D02*
X27842857Y-14299838D01*
X27842857Y-14299838D02*
X27747619Y-14252219D01*
X27747619Y-14252219D02*
X27509524Y-14252219D01*
X27509524Y-14252219D02*
X27366667Y-14299838D01*
X26557143Y-15204600D02*
X26652381Y-15252219D01*
X26652381Y-15252219D02*
X26842857Y-15252219D01*
X26842857Y-15252219D02*
X26938095Y-15204600D01*
X26938095Y-15204600D02*
X26985714Y-15109361D01*
X26985714Y-15109361D02*
X26985714Y-14728409D01*
X26985714Y-14728409D02*
X26938095Y-14633171D01*
X26938095Y-14633171D02*
X26842857Y-14585552D01*
X26842857Y-14585552D02*
X26652381Y-14585552D01*
X26652381Y-14585552D02*
X26557143Y-14633171D01*
X26557143Y-14633171D02*
X26509524Y-14728409D01*
X26509524Y-14728409D02*
X26509524Y-14823647D01*
X26509524Y-14823647D02*
X26985714Y-14918885D01*
X26080952Y-14585552D02*
X26080952Y-15252219D01*
X26080952Y-14680790D02*
X26033333Y-14633171D01*
X26033333Y-14633171D02*
X25938095Y-14585552D01*
X25938095Y-14585552D02*
X25795238Y-14585552D01*
X25795238Y-14585552D02*
X25700000Y-14633171D01*
X25700000Y-14633171D02*
X25652381Y-14728409D01*
X25652381Y-14728409D02*
X25652381Y-15252219D01*
X25223809Y-15204600D02*
X25128571Y-15252219D01*
X25128571Y-15252219D02*
X24938095Y-15252219D01*
X24938095Y-15252219D02*
X24842857Y-15204600D01*
X24842857Y-15204600D02*
X24795238Y-15109361D01*
X24795238Y-15109361D02*
X24795238Y-15061742D01*
X24795238Y-15061742D02*
X24842857Y-14966504D01*
X24842857Y-14966504D02*
X24938095Y-14918885D01*
X24938095Y-14918885D02*
X25080952Y-14918885D01*
X25080952Y-14918885D02*
X25176190Y-14871266D01*
X25176190Y-14871266D02*
X25223809Y-14776028D01*
X25223809Y-14776028D02*
X25223809Y-14728409D01*
X25223809Y-14728409D02*
X25176190Y-14633171D01*
X25176190Y-14633171D02*
X25080952Y-14585552D01*
X25080952Y-14585552D02*
X24938095Y-14585552D01*
X24938095Y-14585552D02*
X24842857Y-14633171D01*
X24223809Y-15252219D02*
X24319047Y-15204600D01*
X24319047Y-15204600D02*
X24366666Y-15156980D01*
X24366666Y-15156980D02*
X24414285Y-15061742D01*
X24414285Y-15061742D02*
X24414285Y-14776028D01*
X24414285Y-14776028D02*
X24366666Y-14680790D01*
X24366666Y-14680790D02*
X24319047Y-14633171D01*
X24319047Y-14633171D02*
X24223809Y-14585552D01*
X24223809Y-14585552D02*
X24080952Y-14585552D01*
X24080952Y-14585552D02*
X23985714Y-14633171D01*
X23985714Y-14633171D02*
X23938095Y-14680790D01*
X23938095Y-14680790D02*
X23890476Y-14776028D01*
X23890476Y-14776028D02*
X23890476Y-15061742D01*
X23890476Y-15061742D02*
X23938095Y-15156980D01*
X23938095Y-15156980D02*
X23985714Y-15204600D01*
X23985714Y-15204600D02*
X24080952Y-15252219D01*
X24080952Y-15252219D02*
X24223809Y-15252219D01*
X23461904Y-15252219D02*
X23461904Y-14585552D01*
X23461904Y-14776028D02*
X23414285Y-14680790D01*
X23414285Y-14680790D02*
X23366666Y-14633171D01*
X23366666Y-14633171D02*
X23271428Y-14585552D01*
X23271428Y-14585552D02*
X23176190Y-14585552D01*
X22890475Y-15204600D02*
X22795237Y-15252219D01*
X22795237Y-15252219D02*
X22604761Y-15252219D01*
X22604761Y-15252219D02*
X22509523Y-15204600D01*
X22509523Y-15204600D02*
X22461904Y-15109361D01*
X22461904Y-15109361D02*
X22461904Y-15061742D01*
X22461904Y-15061742D02*
X22509523Y-14966504D01*
X22509523Y-14966504D02*
X22604761Y-14918885D01*
X22604761Y-14918885D02*
X22747618Y-14918885D01*
X22747618Y-14918885D02*
X22842856Y-14871266D01*
X22842856Y-14871266D02*
X22890475Y-14776028D01*
X22890475Y-14776028D02*
X22890475Y-14728409D01*
X22890475Y-14728409D02*
X22842856Y-14633171D01*
X22842856Y-14633171D02*
X22747618Y-14585552D01*
X22747618Y-14585552D02*
X22604761Y-14585552D01*
X22604761Y-14585552D02*
X22509523Y-14633171D01*
D11*
X22225000Y-13975000D02*
X22245000Y-13975000D01*
X22645000Y-13975000D02*
X22665000Y-13975000D01*
X23065000Y-13975000D02*
X23085000Y-13975000D01*
X23485000Y-13975000D02*
X23505000Y-13975000D01*
X23905000Y-13975000D02*
X23925000Y-13975000D01*
X24325000Y-13975000D02*
X24345000Y-13975000D01*
X24745000Y-13975000D02*
X24765000Y-13975000D01*
X25165000Y-13975000D02*
X25185000Y-13975000D01*
X25585000Y-13975000D02*
X25605000Y-13975000D01*
X26005000Y-13975000D02*
X26025000Y-13975000D01*
X26425000Y-13975000D02*
X26445000Y-13975000D01*
X26845000Y-13975000D02*
X26865000Y-13975000D01*
X27265000Y-13975000D02*
X27285000Y-13975000D01*
X27685000Y-13975000D02*
X27705000Y-13975000D01*
X28105000Y-13975000D02*
X28125000Y-13975000D01*
X28175000Y-13975000D02*
X28175000Y-13995000D01*
X28175000Y-14395000D02*
X28175000Y-14415000D01*
X28175000Y-14815000D02*
X28175000Y-14835000D01*
X28175000Y-15235000D02*
X28175000Y-15255000D01*
X28175000Y-15625000D02*
X28155000Y-15625000D01*
X27755000Y-15625000D02*
X27735000Y-15625000D01*
X27335000Y-15625000D02*
X27315000Y-15625000D01*
X26915000Y-15625000D02*
X26895000Y-15625000D01*
X26495000Y-15625000D02*
X26475000Y-15625000D01*
X26075000Y-15625000D02*
X26055000Y-15625000D01*
X25655000Y-15625000D02*
X25635000Y-15625000D01*
X25235000Y-15625000D02*
X25215000Y-15625000D01*
X24815000Y-15625000D02*
X24795000Y-15625000D01*
X24395000Y-15625000D02*
X24375000Y-15625000D01*
X23975000Y-15625000D02*
X23955000Y-15625000D01*
X23555000Y-15625000D02*
X23535000Y-15625000D01*
X23135000Y-15625000D02*
X23115000Y-15625000D01*
X22715000Y-15625000D02*
X22695000Y-15625000D01*
X22295000Y-15625000D02*
X22275000Y-15625000D01*
X22225000Y-15625000D02*
X22225000Y-15605000D01*
X22225000Y-15205000D02*
X22225000Y-15185000D01*
X22225000Y-14785000D02*
X22225000Y-14765000D01*
X22225000Y-14365000D02*
X22225000Y-14345000D01*
D10*
X3214285Y-46154600D02*
X3071428Y-46202219D01*
X3071428Y-46202219D02*
X2833333Y-46202219D01*
X2833333Y-46202219D02*
X2738095Y-46154600D01*
X2738095Y-46154600D02*
X2690476Y-46106980D01*
X2690476Y-46106980D02*
X2642857Y-46011742D01*
X2642857Y-46011742D02*
X2642857Y-45916504D01*
X2642857Y-45916504D02*
X2690476Y-45821266D01*
X2690476Y-45821266D02*
X2738095Y-45773647D01*
X2738095Y-45773647D02*
X2833333Y-45726028D01*
X2833333Y-45726028D02*
X3023809Y-45678409D01*
X3023809Y-45678409D02*
X3119047Y-45630790D01*
X3119047Y-45630790D02*
X3166666Y-45583171D01*
X3166666Y-45583171D02*
X3214285Y-45487933D01*
X3214285Y-45487933D02*
X3214285Y-45392695D01*
X3214285Y-45392695D02*
X3166666Y-45297457D01*
X3166666Y-45297457D02*
X3119047Y-45249838D01*
X3119047Y-45249838D02*
X3023809Y-45202219D01*
X3023809Y-45202219D02*
X2785714Y-45202219D01*
X2785714Y-45202219D02*
X2642857Y-45249838D01*
X2214285Y-46202219D02*
X2214285Y-45202219D01*
X2214285Y-45202219D02*
X1976190Y-45202219D01*
X1976190Y-45202219D02*
X1833333Y-45249838D01*
X1833333Y-45249838D02*
X1738095Y-45345076D01*
X1738095Y-45345076D02*
X1690476Y-45440314D01*
X1690476Y-45440314D02*
X1642857Y-45630790D01*
X1642857Y-45630790D02*
X1642857Y-45773647D01*
X1642857Y-45773647D02*
X1690476Y-45964123D01*
X1690476Y-45964123D02*
X1738095Y-46059361D01*
X1738095Y-46059361D02*
X1833333Y-46154600D01*
X1833333Y-46154600D02*
X1976190Y-46202219D01*
X1976190Y-46202219D02*
X2214285Y-46202219D01*
X1261904Y-45916504D02*
X785714Y-45916504D01*
X1357142Y-46202219D02*
X1023809Y-45202219D01*
X1023809Y-45202219D02*
X690476Y-46202219D01*
D11*
X250000Y-44875000D02*
X270000Y-44875000D01*
X670000Y-44875000D02*
X690000Y-44875000D01*
X1090000Y-44875000D02*
X1110000Y-44875000D01*
X1510000Y-44875000D02*
X1530000Y-44875000D01*
X1930000Y-44875000D02*
X1950000Y-44875000D01*
X2350000Y-44875000D02*
X2370000Y-44875000D01*
X2770000Y-44875000D02*
X2790000Y-44875000D01*
X3190000Y-44875000D02*
X3210000Y-44875000D01*
X3610000Y-44875000D02*
X3630000Y-44875000D01*
X3750000Y-44875000D02*
X3750000Y-44895000D01*
X3750000Y-45295000D02*
X3750000Y-45315000D01*
X3750000Y-45715000D02*
X3750000Y-45735000D01*
X3750000Y-46135000D02*
X3750000Y-46155000D01*
X3750000Y-46555000D02*
X3750000Y-46575000D01*
X3750000Y-46625000D02*
X3730000Y-46625000D01*
X3330000Y-46625000D02*
X3310000Y-46625000D01*
X2910000Y-46625000D02*
X2890000Y-46625000D01*
X2490000Y-46625000D02*
X2470000Y-46625000D01*
X2070000Y-46625000D02*
X2050000Y-46625000D01*
X1650000Y-46625000D02*
X1630000Y-46625000D01*
X1230000Y-46625000D02*
X1210000Y-46625000D01*
X810000Y-46625000D02*
X790000Y-46625000D01*
X390000Y-46625000D02*
X370000Y-46625000D01*
X250000Y-46625000D02*
X250000Y-46605000D01*
X250000Y-46205000D02*
X250000Y-46185000D01*
X250000Y-45785000D02*
X250000Y-45765000D01*
X250000Y-45365000D02*
X250000Y-45345000D01*
X250000Y-44945000D02*
X250000Y-44925000D01*
D10*
X4740475Y-28709600D02*
X4597618Y-28757219D01*
X4597618Y-28757219D02*
X4359523Y-28757219D01*
X4359523Y-28757219D02*
X4264285Y-28709600D01*
X4264285Y-28709600D02*
X4216666Y-28661980D01*
X4216666Y-28661980D02*
X4169047Y-28566742D01*
X4169047Y-28566742D02*
X4169047Y-28471504D01*
X4169047Y-28471504D02*
X4216666Y-28376266D01*
X4216666Y-28376266D02*
X4264285Y-28328647D01*
X4264285Y-28328647D02*
X4359523Y-28281028D01*
X4359523Y-28281028D02*
X4549999Y-28233409D01*
X4549999Y-28233409D02*
X4645237Y-28185790D01*
X4645237Y-28185790D02*
X4692856Y-28138171D01*
X4692856Y-28138171D02*
X4740475Y-28042933D01*
X4740475Y-28042933D02*
X4740475Y-27947695D01*
X4740475Y-27947695D02*
X4692856Y-27852457D01*
X4692856Y-27852457D02*
X4645237Y-27804838D01*
X4645237Y-27804838D02*
X4549999Y-27757219D01*
X4549999Y-27757219D02*
X4311904Y-27757219D01*
X4311904Y-27757219D02*
X4169047Y-27804838D01*
X3169047Y-28661980D02*
X3216666Y-28709600D01*
X3216666Y-28709600D02*
X3359523Y-28757219D01*
X3359523Y-28757219D02*
X3454761Y-28757219D01*
X3454761Y-28757219D02*
X3597618Y-28709600D01*
X3597618Y-28709600D02*
X3692856Y-28614361D01*
X3692856Y-28614361D02*
X3740475Y-28519123D01*
X3740475Y-28519123D02*
X3788094Y-28328647D01*
X3788094Y-28328647D02*
X3788094Y-28185790D01*
X3788094Y-28185790D02*
X3740475Y-27995314D01*
X3740475Y-27995314D02*
X3692856Y-27900076D01*
X3692856Y-27900076D02*
X3597618Y-27804838D01*
X3597618Y-27804838D02*
X3454761Y-27757219D01*
X3454761Y-27757219D02*
X3359523Y-27757219D01*
X3359523Y-27757219D02*
X3216666Y-27804838D01*
X3216666Y-27804838D02*
X3169047Y-27852457D01*
X2264285Y-28757219D02*
X2740475Y-28757219D01*
X2740475Y-28757219D02*
X2740475Y-27757219D01*
D11*
X1800000Y-27430000D02*
X1820000Y-27430000D01*
X2220000Y-27430000D02*
X2240000Y-27430000D01*
X2640000Y-27430000D02*
X2660000Y-27430000D01*
X3060000Y-27430000D02*
X3080000Y-27430000D01*
X3480000Y-27430000D02*
X3500000Y-27430000D01*
X3900000Y-27430000D02*
X3920000Y-27430000D01*
X4320000Y-27430000D02*
X4340000Y-27430000D01*
X4740000Y-27430000D02*
X4760000Y-27430000D01*
X5160000Y-27430000D02*
X5180000Y-27430000D01*
X5300000Y-27430000D02*
X5300000Y-27450000D01*
X5300000Y-27850000D02*
X5300000Y-27870000D01*
X5300000Y-28270000D02*
X5300000Y-28290000D01*
X5300000Y-28690000D02*
X5300000Y-28710000D01*
X5300000Y-29110000D02*
X5300000Y-29130000D01*
X5300000Y-29180000D02*
X5280000Y-29180000D01*
X4880000Y-29180000D02*
X4860000Y-29180000D01*
X4460000Y-29180000D02*
X4440000Y-29180000D01*
X4040000Y-29180000D02*
X4020000Y-29180000D01*
X3620000Y-29180000D02*
X3600000Y-29180000D01*
X3200000Y-29180000D02*
X3180000Y-29180000D01*
X2780000Y-29180000D02*
X2760000Y-29180000D01*
X2360000Y-29180000D02*
X2340000Y-29180000D01*
X1940000Y-29180000D02*
X1920000Y-29180000D01*
X1800000Y-29180000D02*
X1800000Y-29160000D01*
X1800000Y-28760000D02*
X1800000Y-28740000D01*
X1800000Y-28340000D02*
X1800000Y-28320000D01*
X1800000Y-27920000D02*
X1800000Y-27900000D01*
X1800000Y-27500000D02*
X1800000Y-27480000D01*
D10*
X4560713Y-12557219D02*
X4560713Y-13366742D01*
X4560713Y-13366742D02*
X4513094Y-13461980D01*
X4513094Y-13461980D02*
X4465475Y-13509600D01*
X4465475Y-13509600D02*
X4370237Y-13557219D01*
X4370237Y-13557219D02*
X4179761Y-13557219D01*
X4179761Y-13557219D02*
X4084523Y-13509600D01*
X4084523Y-13509600D02*
X4036904Y-13461980D01*
X4036904Y-13461980D02*
X3989285Y-13366742D01*
X3989285Y-13366742D02*
X3989285Y-12557219D01*
X3513094Y-13557219D02*
X3513094Y-12557219D01*
X3513094Y-12557219D02*
X3132142Y-12557219D01*
X3132142Y-12557219D02*
X3036904Y-12604838D01*
X3036904Y-12604838D02*
X2989285Y-12652457D01*
X2989285Y-12652457D02*
X2941666Y-12747695D01*
X2941666Y-12747695D02*
X2941666Y-12890552D01*
X2941666Y-12890552D02*
X2989285Y-12985790D01*
X2989285Y-12985790D02*
X3036904Y-13033409D01*
X3036904Y-13033409D02*
X3132142Y-13081028D01*
X3132142Y-13081028D02*
X3513094Y-13081028D01*
D11*
X2025000Y-12230000D02*
X2045000Y-12230000D01*
X2445000Y-12230000D02*
X2465000Y-12230000D01*
X2865000Y-12230000D02*
X2885000Y-12230000D01*
X3285000Y-12230000D02*
X3305000Y-12230000D01*
X3705000Y-12230000D02*
X3725000Y-12230000D01*
X4125000Y-12230000D02*
X4145000Y-12230000D01*
X4545000Y-12230000D02*
X4565000Y-12230000D01*
X4965000Y-12230000D02*
X4985000Y-12230000D01*
X5385000Y-12230000D02*
X5405000Y-12230000D01*
X5525000Y-12230000D02*
X5525000Y-12250000D01*
X5525000Y-12650000D02*
X5525000Y-12670000D01*
X5525000Y-13070000D02*
X5525000Y-13090000D01*
X5525000Y-13490000D02*
X5525000Y-13510000D01*
X5525000Y-13910000D02*
X5525000Y-13930000D01*
X5525000Y-13980000D02*
X5505000Y-13980000D01*
X5105000Y-13980000D02*
X5085000Y-13980000D01*
X4685000Y-13980000D02*
X4665000Y-13980000D01*
X4265000Y-13980000D02*
X4245000Y-13980000D01*
X3845000Y-13980000D02*
X3825000Y-13980000D01*
X3425000Y-13980000D02*
X3405000Y-13980000D01*
X3005000Y-13980000D02*
X2985000Y-13980000D01*
X2585000Y-13980000D02*
X2565000Y-13980000D01*
X2165000Y-13980000D02*
X2145000Y-13980000D01*
X2025000Y-13980000D02*
X2025000Y-13960000D01*
X2025000Y-13560000D02*
X2025000Y-13540000D01*
X2025000Y-13140000D02*
X2025000Y-13120000D01*
X2025000Y-12720000D02*
X2025000Y-12700000D01*
X2025000Y-12300000D02*
X2025000Y-12280000D01*
X27359523Y-25357419D02*
X27234523Y-24357419D01*
X27234523Y-24357419D02*
X26853570Y-24357419D01*
X26853570Y-24357419D02*
X26764285Y-24405038D01*
X26764285Y-24405038D02*
X26722618Y-24452657D01*
X26722618Y-24452657D02*
X26686904Y-24547895D01*
X26686904Y-24547895D02*
X26704761Y-24690752D01*
X26704761Y-24690752D02*
X26764285Y-24785990D01*
X26764285Y-24785990D02*
X26817856Y-24833609D01*
X26817856Y-24833609D02*
X26919046Y-24881228D01*
X26919046Y-24881228D02*
X27299999Y-24881228D01*
X26359523Y-25357419D02*
X26276189Y-24690752D01*
X26234523Y-24357419D02*
X26288094Y-24405038D01*
X26288094Y-24405038D02*
X26246427Y-24452657D01*
X26246427Y-24452657D02*
X26192856Y-24405038D01*
X26192856Y-24405038D02*
X26234523Y-24357419D01*
X26234523Y-24357419D02*
X26246427Y-24452657D01*
X25799999Y-24690752D02*
X25883333Y-25357419D01*
X25811904Y-24785990D02*
X25758333Y-24738371D01*
X25758333Y-24738371D02*
X25657142Y-24690752D01*
X25657142Y-24690752D02*
X25514285Y-24690752D01*
X25514285Y-24690752D02*
X25424999Y-24738371D01*
X25424999Y-24738371D02*
X25389285Y-24833609D01*
X25389285Y-24833609D02*
X25454761Y-25357419D01*
X24913094Y-24452657D02*
X24859523Y-24405038D01*
X24859523Y-24405038D02*
X24758333Y-24357419D01*
X24758333Y-24357419D02*
X24520237Y-24357419D01*
X24520237Y-24357419D02*
X24430952Y-24405038D01*
X24430952Y-24405038D02*
X24389285Y-24452657D01*
X24389285Y-24452657D02*
X24353571Y-24547895D01*
X24353571Y-24547895D02*
X24365475Y-24643133D01*
X24365475Y-24643133D02*
X24430952Y-24785990D01*
X24430952Y-24785990D02*
X25073809Y-25357419D01*
X25073809Y-25357419D02*
X24454761Y-25357419D01*
X23550000Y-24025000D02*
X23570000Y-24025000D01*
X23970000Y-24025000D02*
X23990000Y-24025000D01*
X24390000Y-24025000D02*
X24410000Y-24025000D01*
X24810000Y-24025000D02*
X24830000Y-24025000D01*
X25230000Y-24025000D02*
X25250000Y-24025000D01*
X25650000Y-24025000D02*
X25670000Y-24025000D01*
X26070000Y-24025000D02*
X26090000Y-24025000D01*
X26490000Y-24025000D02*
X26510000Y-24025000D01*
X26910000Y-24025000D02*
X26930000Y-24025000D01*
X27330000Y-24025000D02*
X27350000Y-24025000D01*
X27750000Y-24025000D02*
X27770000Y-24025000D01*
X28170000Y-24025000D02*
X28190000Y-24025000D01*
X28300000Y-24025000D02*
X28300000Y-24045000D01*
X28300000Y-24445000D02*
X28300000Y-24465000D01*
X28300000Y-24865000D02*
X28300000Y-24885000D01*
X28300000Y-25285000D02*
X28300000Y-25305000D01*
X28300000Y-25705000D02*
X28300000Y-25725000D01*
X28300000Y-25775000D02*
X28280000Y-25775000D01*
X27880000Y-25775000D02*
X27860000Y-25775000D01*
X27460000Y-25775000D02*
X27440000Y-25775000D01*
X27040000Y-25775000D02*
X27020000Y-25775000D01*
X26620000Y-25775000D02*
X26600000Y-25775000D01*
X26200000Y-25775000D02*
X26180000Y-25775000D01*
X25780000Y-25775000D02*
X25760000Y-25775000D01*
X25360000Y-25775000D02*
X25340000Y-25775000D01*
X24940000Y-25775000D02*
X24920000Y-25775000D01*
X24520000Y-25775000D02*
X24500000Y-25775000D01*
X24100000Y-25775000D02*
X24080000Y-25775000D01*
X23680000Y-25775000D02*
X23660000Y-25775000D01*
X23550000Y-25775000D02*
X23550000Y-25755000D01*
X23550000Y-25355000D02*
X23550000Y-25335000D01*
X23550000Y-24935000D02*
X23550000Y-24915000D01*
X23550000Y-24515000D02*
X23550000Y-24495000D01*
X23550000Y-24095000D02*
X23550000Y-24075000D01*
D10*
X53458332Y-822247D02*
X53124999Y-1822247D01*
X53124999Y-1822247D02*
X52791666Y-822247D01*
X51886904Y-1727008D02*
X51934523Y-1774628D01*
X51934523Y-1774628D02*
X52077380Y-1822247D01*
X52077380Y-1822247D02*
X52172618Y-1822247D01*
X52172618Y-1822247D02*
X52315475Y-1774628D01*
X52315475Y-1774628D02*
X52410713Y-1679389D01*
X52410713Y-1679389D02*
X52458332Y-1584151D01*
X52458332Y-1584151D02*
X52505951Y-1393675D01*
X52505951Y-1393675D02*
X52505951Y-1250818D01*
X52505951Y-1250818D02*
X52458332Y-1060342D01*
X52458332Y-1060342D02*
X52410713Y-965104D01*
X52410713Y-965104D02*
X52315475Y-869866D01*
X52315475Y-869866D02*
X52172618Y-822247D01*
X52172618Y-822247D02*
X52077380Y-822247D01*
X52077380Y-822247D02*
X51934523Y-869866D01*
X51934523Y-869866D02*
X51886904Y-917485D01*
X50886904Y-1727008D02*
X50934523Y-1774628D01*
X50934523Y-1774628D02*
X51077380Y-1822247D01*
X51077380Y-1822247D02*
X51172618Y-1822247D01*
X51172618Y-1822247D02*
X51315475Y-1774628D01*
X51315475Y-1774628D02*
X51410713Y-1679389D01*
X51410713Y-1679389D02*
X51458332Y-1584151D01*
X51458332Y-1584151D02*
X51505951Y-1393675D01*
X51505951Y-1393675D02*
X51505951Y-1250818D01*
X51505951Y-1250818D02*
X51458332Y-1060342D01*
X51458332Y-1060342D02*
X51410713Y-965104D01*
X51410713Y-965104D02*
X51315475Y-869866D01*
X51315475Y-869866D02*
X51172618Y-822247D01*
X51172618Y-822247D02*
X51077380Y-822247D01*
X51077380Y-822247D02*
X50934523Y-869866D01*
X50934523Y-869866D02*
X50886904Y-917485D01*
X52315476Y-2432191D02*
X52791666Y-2432191D01*
X52791666Y-2432191D02*
X52839285Y-2908381D01*
X52839285Y-2908381D02*
X52791666Y-2860762D01*
X52791666Y-2860762D02*
X52696428Y-2813143D01*
X52696428Y-2813143D02*
X52458333Y-2813143D01*
X52458333Y-2813143D02*
X52363095Y-2860762D01*
X52363095Y-2860762D02*
X52315476Y-2908381D01*
X52315476Y-2908381D02*
X52267857Y-3003619D01*
X52267857Y-3003619D02*
X52267857Y-3241714D01*
X52267857Y-3241714D02*
X52315476Y-3336952D01*
X52315476Y-3336952D02*
X52363095Y-3384572D01*
X52363095Y-3384572D02*
X52458333Y-3432191D01*
X52458333Y-3432191D02*
X52696428Y-3432191D01*
X52696428Y-3432191D02*
X52791666Y-3384572D01*
X52791666Y-3384572D02*
X52839285Y-3336952D01*
X51982142Y-2432191D02*
X51648809Y-3432191D01*
X51648809Y-3432191D02*
X51315476Y-2432191D01*
D11*
X49975000Y-1300000D02*
X49995000Y-1300000D01*
X50395000Y-1300000D02*
X50415000Y-1300000D01*
X50815000Y-1300000D02*
X50835000Y-1300000D01*
X51235000Y-1300000D02*
X51255000Y-1300000D01*
X51655000Y-1300000D02*
X51675000Y-1300000D01*
X52075000Y-1300000D02*
X52095000Y-1300000D01*
X52495000Y-1300000D02*
X52515000Y-1300000D01*
X52915000Y-1300000D02*
X52935000Y-1300000D01*
X53335000Y-1300000D02*
X53355000Y-1300000D01*
X53755000Y-1300000D02*
X53775000Y-1300000D01*
X54175000Y-1300000D02*
X54195000Y-1300000D01*
X54275000Y-1300000D02*
X54275000Y-1320000D01*
X54275000Y-1720000D02*
X54275000Y-1740000D01*
X54275000Y-2140000D02*
X54275000Y-2160000D01*
X54275000Y-2560000D02*
X54275000Y-2580000D01*
X54275000Y-2980000D02*
X54275000Y-3000000D01*
X54275000Y-3050000D02*
X54255000Y-3050000D01*
X53855000Y-3050000D02*
X53835000Y-3050000D01*
X53435000Y-3050000D02*
X53415000Y-3050000D01*
X53015000Y-3050000D02*
X52995000Y-3050000D01*
X52595000Y-3050000D02*
X52575000Y-3050000D01*
X52175000Y-3050000D02*
X52155000Y-3050000D01*
X51755000Y-3050000D02*
X51735000Y-3050000D01*
X51335000Y-3050000D02*
X51315000Y-3050000D01*
X50915000Y-3050000D02*
X50895000Y-3050000D01*
X50495000Y-3050000D02*
X50475000Y-3050000D01*
X50075000Y-3050000D02*
X50055000Y-3050000D01*
X49975000Y-3050000D02*
X49975000Y-3030000D01*
X49975000Y-2630000D02*
X49975000Y-2610000D01*
X49975000Y-2210000D02*
X49975000Y-2190000D01*
X49975000Y-1790000D02*
X49975000Y-1770000D01*
X49975000Y-1370000D02*
X49975000Y-1350000D01*
D10*
X19014285Y-15229600D02*
X18871428Y-15277219D01*
X18871428Y-15277219D02*
X18633333Y-15277219D01*
X18633333Y-15277219D02*
X18538095Y-15229600D01*
X18538095Y-15229600D02*
X18490476Y-15181980D01*
X18490476Y-15181980D02*
X18442857Y-15086742D01*
X18442857Y-15086742D02*
X18442857Y-14991504D01*
X18442857Y-14991504D02*
X18490476Y-14896266D01*
X18490476Y-14896266D02*
X18538095Y-14848647D01*
X18538095Y-14848647D02*
X18633333Y-14801028D01*
X18633333Y-14801028D02*
X18823809Y-14753409D01*
X18823809Y-14753409D02*
X18919047Y-14705790D01*
X18919047Y-14705790D02*
X18966666Y-14658171D01*
X18966666Y-14658171D02*
X19014285Y-14562933D01*
X19014285Y-14562933D02*
X19014285Y-14467695D01*
X19014285Y-14467695D02*
X18966666Y-14372457D01*
X18966666Y-14372457D02*
X18919047Y-14324838D01*
X18919047Y-14324838D02*
X18823809Y-14277219D01*
X18823809Y-14277219D02*
X18585714Y-14277219D01*
X18585714Y-14277219D02*
X18442857Y-14324838D01*
X18014285Y-15277219D02*
X18014285Y-14277219D01*
X18014285Y-14277219D02*
X17776190Y-14277219D01*
X17776190Y-14277219D02*
X17633333Y-14324838D01*
X17633333Y-14324838D02*
X17538095Y-14420076D01*
X17538095Y-14420076D02*
X17490476Y-14515314D01*
X17490476Y-14515314D02*
X17442857Y-14705790D01*
X17442857Y-14705790D02*
X17442857Y-14848647D01*
X17442857Y-14848647D02*
X17490476Y-15039123D01*
X17490476Y-15039123D02*
X17538095Y-15134361D01*
X17538095Y-15134361D02*
X17633333Y-15229600D01*
X17633333Y-15229600D02*
X17776190Y-15277219D01*
X17776190Y-15277219D02*
X18014285Y-15277219D01*
X17061904Y-14991504D02*
X16585714Y-14991504D01*
X17157142Y-15277219D02*
X16823809Y-14277219D01*
X16823809Y-14277219D02*
X16490476Y-15277219D01*
D11*
X16050000Y-13950000D02*
X16070000Y-13950000D01*
X16470000Y-13950000D02*
X16490000Y-13950000D01*
X16890000Y-13950000D02*
X16910000Y-13950000D01*
X17310000Y-13950000D02*
X17330000Y-13950000D01*
X17730000Y-13950000D02*
X17750000Y-13950000D01*
X18150000Y-13950000D02*
X18170000Y-13950000D01*
X18570000Y-13950000D02*
X18590000Y-13950000D01*
X18990000Y-13950000D02*
X19010000Y-13950000D01*
X19410000Y-13950000D02*
X19430000Y-13950000D01*
X19550000Y-13950000D02*
X19550000Y-13970000D01*
X19550000Y-14370000D02*
X19550000Y-14390000D01*
X19550000Y-14790000D02*
X19550000Y-14810000D01*
X19550000Y-15210000D02*
X19550000Y-15230000D01*
X19550000Y-15630000D02*
X19550000Y-15650000D01*
X19550000Y-15700000D02*
X19530000Y-15700000D01*
X19130000Y-15700000D02*
X19110000Y-15700000D01*
X18710000Y-15700000D02*
X18690000Y-15700000D01*
X18290000Y-15700000D02*
X18270000Y-15700000D01*
X17870000Y-15700000D02*
X17850000Y-15700000D01*
X17450000Y-15700000D02*
X17430000Y-15700000D01*
X17030000Y-15700000D02*
X17010000Y-15700000D01*
X16610000Y-15700000D02*
X16590000Y-15700000D01*
X16190000Y-15700000D02*
X16170000Y-15700000D01*
X16050000Y-15700000D02*
X16050000Y-15680000D01*
X16050000Y-15280000D02*
X16050000Y-15260000D01*
X16050000Y-14860000D02*
X16050000Y-14840000D01*
X16050000Y-14440000D02*
X16050000Y-14420000D01*
X16050000Y-14020000D02*
X16050000Y-14000000D01*
D10*
X26340476Y-6732219D02*
X26816666Y-6732219D01*
X26816666Y-6732219D02*
X26864285Y-7208409D01*
X26864285Y-7208409D02*
X26816666Y-7160790D01*
X26816666Y-7160790D02*
X26721428Y-7113171D01*
X26721428Y-7113171D02*
X26483333Y-7113171D01*
X26483333Y-7113171D02*
X26388095Y-7160790D01*
X26388095Y-7160790D02*
X26340476Y-7208409D01*
X26340476Y-7208409D02*
X26292857Y-7303647D01*
X26292857Y-7303647D02*
X26292857Y-7541742D01*
X26292857Y-7541742D02*
X26340476Y-7636980D01*
X26340476Y-7636980D02*
X26388095Y-7684600D01*
X26388095Y-7684600D02*
X26483333Y-7732219D01*
X26483333Y-7732219D02*
X26721428Y-7732219D01*
X26721428Y-7732219D02*
X26816666Y-7684600D01*
X26816666Y-7684600D02*
X26864285Y-7636980D01*
X26007142Y-6732219D02*
X25673809Y-7732219D01*
X25673809Y-7732219D02*
X25340476Y-6732219D01*
D11*
X24400000Y-6405000D02*
X24420000Y-6405000D01*
X24820000Y-6405000D02*
X24840000Y-6405000D01*
X25240000Y-6405000D02*
X25260000Y-6405000D01*
X25660000Y-6405000D02*
X25680000Y-6405000D01*
X26080000Y-6405000D02*
X26100000Y-6405000D01*
X26500000Y-6405000D02*
X26520000Y-6405000D01*
X26920000Y-6405000D02*
X26940000Y-6405000D01*
X27340000Y-6405000D02*
X27360000Y-6405000D01*
X27760000Y-6405000D02*
X27780000Y-6405000D01*
X27900000Y-6405000D02*
X27900000Y-6425000D01*
X27900000Y-6825000D02*
X27900000Y-6845000D01*
X27900000Y-7245000D02*
X27900000Y-7265000D01*
X27900000Y-7665000D02*
X27900000Y-7685000D01*
X27900000Y-8085000D02*
X27900000Y-8105000D01*
X27900000Y-8155000D02*
X27880000Y-8155000D01*
X27480000Y-8155000D02*
X27460000Y-8155000D01*
X27060000Y-8155000D02*
X27040000Y-8155000D01*
X26640000Y-8155000D02*
X26620000Y-8155000D01*
X26220000Y-8155000D02*
X26200000Y-8155000D01*
X25800000Y-8155000D02*
X25780000Y-8155000D01*
X25380000Y-8155000D02*
X25360000Y-8155000D01*
X24960000Y-8155000D02*
X24940000Y-8155000D01*
X24540000Y-8155000D02*
X24520000Y-8155000D01*
X24400000Y-8155000D02*
X24400000Y-8135000D01*
X24400000Y-7735000D02*
X24400000Y-7715000D01*
X24400000Y-7315000D02*
X24400000Y-7295000D01*
X24400000Y-6895000D02*
X24400000Y-6875000D01*
X24400000Y-6475000D02*
X24400000Y-6455000D01*
D10*
X27980951Y-22902219D02*
X27980951Y-21902219D01*
X27980951Y-21902219D02*
X27599999Y-21902219D01*
X27599999Y-21902219D02*
X27504761Y-21949838D01*
X27504761Y-21949838D02*
X27457142Y-21997457D01*
X27457142Y-21997457D02*
X27409523Y-22092695D01*
X27409523Y-22092695D02*
X27409523Y-22235552D01*
X27409523Y-22235552D02*
X27457142Y-22330790D01*
X27457142Y-22330790D02*
X27504761Y-22378409D01*
X27504761Y-22378409D02*
X27599999Y-22426028D01*
X27599999Y-22426028D02*
X27980951Y-22426028D01*
X27076189Y-21902219D02*
X26838094Y-22902219D01*
X26838094Y-22902219D02*
X26647618Y-22187933D01*
X26647618Y-22187933D02*
X26457142Y-22902219D01*
X26457142Y-22902219D02*
X26219047Y-21902219D01*
X25838094Y-22902219D02*
X25838094Y-21902219D01*
X25838094Y-21902219D02*
X25504761Y-22616504D01*
X25504761Y-22616504D02*
X25171428Y-21902219D01*
X25171428Y-21902219D02*
X25171428Y-22902219D01*
X24171428Y-22902219D02*
X24742856Y-22902219D01*
X24457142Y-22902219D02*
X24457142Y-21902219D01*
X24457142Y-21902219D02*
X24552380Y-22045076D01*
X24552380Y-22045076D02*
X24647618Y-22140314D01*
X24647618Y-22140314D02*
X24742856Y-22187933D01*
D11*
X23950000Y-21575000D02*
X23970000Y-21575000D01*
X24370000Y-21575000D02*
X24390000Y-21575000D01*
X24790000Y-21575000D02*
X24810000Y-21575000D01*
X25210000Y-21575000D02*
X25230000Y-21575000D01*
X25630000Y-21575000D02*
X25650000Y-21575000D01*
X26050000Y-21575000D02*
X26070000Y-21575000D01*
X26470000Y-21575000D02*
X26490000Y-21575000D01*
X26890000Y-21575000D02*
X26910000Y-21575000D01*
X27310000Y-21575000D02*
X27330000Y-21575000D01*
X27730000Y-21575000D02*
X27750000Y-21575000D01*
X28150000Y-21575000D02*
X28170000Y-21575000D01*
X28250000Y-21575000D02*
X28250000Y-21595000D01*
X28250000Y-21995000D02*
X28250000Y-22015000D01*
X28250000Y-22415000D02*
X28250000Y-22435000D01*
X28250000Y-22835000D02*
X28250000Y-22855000D01*
X28250000Y-23255000D02*
X28250000Y-23275000D01*
X28250000Y-23325000D02*
X28230000Y-23325000D01*
X27830000Y-23325000D02*
X27810000Y-23325000D01*
X27410000Y-23325000D02*
X27390000Y-23325000D01*
X26990000Y-23325000D02*
X26970000Y-23325000D01*
X26570000Y-23325000D02*
X26550000Y-23325000D01*
X26150000Y-23325000D02*
X26130000Y-23325000D01*
X25730000Y-23325000D02*
X25710000Y-23325000D01*
X25310000Y-23325000D02*
X25290000Y-23325000D01*
X24890000Y-23325000D02*
X24870000Y-23325000D01*
X24470000Y-23325000D02*
X24450000Y-23325000D01*
X24050000Y-23325000D02*
X24030000Y-23325000D01*
X23950000Y-23325000D02*
X23950000Y-23305000D01*
X23950000Y-22905000D02*
X23950000Y-22885000D01*
X23950000Y-22485000D02*
X23950000Y-22465000D01*
X23950000Y-22065000D02*
X23950000Y-22045000D01*
X23950000Y-21645000D02*
X23950000Y-21625000D01*
D10*
X53319047Y-23716504D02*
X52842857Y-23716504D01*
X53414285Y-24002219D02*
X53080952Y-23002219D01*
X53080952Y-23002219D02*
X52747619Y-24002219D01*
X51842857Y-23906980D02*
X51890476Y-23954600D01*
X51890476Y-23954600D02*
X52033333Y-24002219D01*
X52033333Y-24002219D02*
X52128571Y-24002219D01*
X52128571Y-24002219D02*
X52271428Y-23954600D01*
X52271428Y-23954600D02*
X52366666Y-23859361D01*
X52366666Y-23859361D02*
X52414285Y-23764123D01*
X52414285Y-23764123D02*
X52461904Y-23573647D01*
X52461904Y-23573647D02*
X52461904Y-23430790D01*
X52461904Y-23430790D02*
X52414285Y-23240314D01*
X52414285Y-23240314D02*
X52366666Y-23145076D01*
X52366666Y-23145076D02*
X52271428Y-23049838D01*
X52271428Y-23049838D02*
X52128571Y-23002219D01*
X52128571Y-23002219D02*
X52033333Y-23002219D01*
X52033333Y-23002219D02*
X51890476Y-23049838D01*
X51890476Y-23049838D02*
X51842857Y-23097457D01*
X51557142Y-23002219D02*
X50985714Y-23002219D01*
X51271428Y-24002219D02*
X51271428Y-23002219D01*
D11*
X50050000Y-22675000D02*
X50070000Y-22675000D01*
X50470000Y-22675000D02*
X50490000Y-22675000D01*
X50890000Y-22675000D02*
X50910000Y-22675000D01*
X51310000Y-22675000D02*
X51330000Y-22675000D01*
X51730000Y-22675000D02*
X51750000Y-22675000D01*
X52150000Y-22675000D02*
X52170000Y-22675000D01*
X52570000Y-22675000D02*
X52590000Y-22675000D01*
X52990000Y-22675000D02*
X53010000Y-22675000D01*
X53410000Y-22675000D02*
X53430000Y-22675000D01*
X53830000Y-22675000D02*
X53850000Y-22675000D01*
X54250000Y-22675000D02*
X54270000Y-22675000D01*
X54350000Y-22675000D02*
X54350000Y-22695000D01*
X54350000Y-23095000D02*
X54350000Y-23115000D01*
X54350000Y-23515000D02*
X54350000Y-23535000D01*
X54350000Y-23935000D02*
X54350000Y-23955000D01*
X54350000Y-24355000D02*
X54350000Y-24375000D01*
X54350000Y-24425000D02*
X54330000Y-24425000D01*
X53930000Y-24425000D02*
X53910000Y-24425000D01*
X53510000Y-24425000D02*
X53490000Y-24425000D01*
X53090000Y-24425000D02*
X53070000Y-24425000D01*
X52670000Y-24425000D02*
X52650000Y-24425000D01*
X52250000Y-24425000D02*
X52230000Y-24425000D01*
X51830000Y-24425000D02*
X51810000Y-24425000D01*
X51410000Y-24425000D02*
X51390000Y-24425000D01*
X50990000Y-24425000D02*
X50970000Y-24425000D01*
X50570000Y-24425000D02*
X50550000Y-24425000D01*
X50150000Y-24425000D02*
X50130000Y-24425000D01*
X50050000Y-24425000D02*
X50050000Y-24405000D01*
X50050000Y-24005000D02*
X50050000Y-23985000D01*
X50050000Y-23585000D02*
X50050000Y-23565000D01*
X50050000Y-23165000D02*
X50050000Y-23145000D01*
X50050000Y-22745000D02*
X50050000Y-22725000D01*
D10*
X20752380Y-20306980D02*
X20799999Y-20354600D01*
X20799999Y-20354600D02*
X20942856Y-20402219D01*
X20942856Y-20402219D02*
X21038094Y-20402219D01*
X21038094Y-20402219D02*
X21180951Y-20354600D01*
X21180951Y-20354600D02*
X21276189Y-20259361D01*
X21276189Y-20259361D02*
X21323808Y-20164123D01*
X21323808Y-20164123D02*
X21371427Y-19973647D01*
X21371427Y-19973647D02*
X21371427Y-19830790D01*
X21371427Y-19830790D02*
X21323808Y-19640314D01*
X21323808Y-19640314D02*
X21276189Y-19545076D01*
X21276189Y-19545076D02*
X21180951Y-19449838D01*
X21180951Y-19449838D02*
X21038094Y-19402219D01*
X21038094Y-19402219D02*
X20942856Y-19402219D01*
X20942856Y-19402219D02*
X20799999Y-19449838D01*
X20799999Y-19449838D02*
X20752380Y-19497457D01*
X20323808Y-20021266D02*
X19561904Y-20021266D01*
X19085713Y-20402219D02*
X19085713Y-19402219D01*
X19085713Y-19402219D02*
X18704761Y-19402219D01*
X18704761Y-19402219D02*
X18609523Y-19449838D01*
X18609523Y-19449838D02*
X18561904Y-19497457D01*
X18561904Y-19497457D02*
X18514285Y-19592695D01*
X18514285Y-19592695D02*
X18514285Y-19735552D01*
X18514285Y-19735552D02*
X18561904Y-19830790D01*
X18561904Y-19830790D02*
X18609523Y-19878409D01*
X18609523Y-19878409D02*
X18704761Y-19926028D01*
X18704761Y-19926028D02*
X19085713Y-19926028D01*
X18180951Y-19402219D02*
X17942856Y-20402219D01*
X17942856Y-20402219D02*
X17752380Y-19687933D01*
X17752380Y-19687933D02*
X17561904Y-20402219D01*
X17561904Y-20402219D02*
X17323809Y-19402219D01*
X16942856Y-20402219D02*
X16942856Y-19402219D01*
X16942856Y-19402219D02*
X16609523Y-20116504D01*
X16609523Y-20116504D02*
X16276190Y-19402219D01*
X16276190Y-19402219D02*
X16276190Y-20402219D01*
D11*
X16000000Y-19100000D02*
X16020000Y-19100000D01*
X16420000Y-19100000D02*
X16440000Y-19100000D01*
X16840000Y-19100000D02*
X16860000Y-19100000D01*
X17260000Y-19100000D02*
X17280000Y-19100000D01*
X17680000Y-19100000D02*
X17700000Y-19100000D01*
X18100000Y-19100000D02*
X18120000Y-19100000D01*
X18520000Y-19100000D02*
X18540000Y-19100000D01*
X18940000Y-19100000D02*
X18960000Y-19100000D01*
X19360000Y-19100000D02*
X19380000Y-19100000D01*
X19780000Y-19100000D02*
X19800000Y-19100000D01*
X20200000Y-19100000D02*
X20220000Y-19100000D01*
X20620000Y-19100000D02*
X20640000Y-19100000D01*
X21040000Y-19100000D02*
X21060000Y-19100000D01*
X21460000Y-19100000D02*
X21480000Y-19100000D01*
X21600000Y-19100000D02*
X21600000Y-19120000D01*
X21600000Y-19520000D02*
X21600000Y-19540000D01*
X21600000Y-19940000D02*
X21600000Y-19960000D01*
X21600000Y-20360000D02*
X21600000Y-20380000D01*
X21600000Y-20780000D02*
X21600000Y-20800000D01*
X21600000Y-20800000D02*
X21580000Y-20800000D01*
X21180000Y-20800000D02*
X21160000Y-20800000D01*
X20760000Y-20800000D02*
X20740000Y-20800000D01*
X20340000Y-20800000D02*
X20320000Y-20800000D01*
X19920000Y-20800000D02*
X19900000Y-20800000D01*
X19500000Y-20800000D02*
X19480000Y-20800000D01*
X19080000Y-20800000D02*
X19060000Y-20800000D01*
X18660000Y-20800000D02*
X18640000Y-20800000D01*
X18240000Y-20800000D02*
X18220000Y-20800000D01*
X17820000Y-20800000D02*
X17800000Y-20800000D01*
X17400000Y-20800000D02*
X17380000Y-20800000D01*
X16980000Y-20800000D02*
X16960000Y-20800000D01*
X16560000Y-20800000D02*
X16540000Y-20800000D01*
X16140000Y-20800000D02*
X16120000Y-20800000D01*
X16000000Y-20800000D02*
X16000000Y-20780000D01*
X16000000Y-20380000D02*
X16000000Y-20360000D01*
X16000000Y-19960000D02*
X16000000Y-19940000D01*
X16000000Y-19540000D02*
X16000000Y-19520000D01*
X16000000Y-19120000D02*
X16000000Y-19100000D01*
D10*
X53959523Y-19653409D02*
X54292856Y-19653409D01*
X54292856Y-20177219D02*
X54292856Y-19177219D01*
X54292856Y-19177219D02*
X53816666Y-19177219D01*
X53435713Y-19653409D02*
X53102380Y-19653409D01*
X52959523Y-20177219D02*
X53435713Y-20177219D01*
X53435713Y-20177219D02*
X53435713Y-19177219D01*
X53435713Y-19177219D02*
X52959523Y-19177219D01*
X52054761Y-20177219D02*
X52530951Y-20177219D01*
X52530951Y-20177219D02*
X52530951Y-19177219D01*
X51864284Y-19177219D02*
X51292856Y-19177219D01*
X51578570Y-20177219D02*
X51578570Y-19177219D01*
X50959522Y-20177219D02*
X50959522Y-19177219D01*
X50530951Y-19272457D02*
X50483332Y-19224838D01*
X50483332Y-19224838D02*
X50388094Y-19177219D01*
X50388094Y-19177219D02*
X50149999Y-19177219D01*
X50149999Y-19177219D02*
X50054761Y-19224838D01*
X50054761Y-19224838D02*
X50007142Y-19272457D01*
X50007142Y-19272457D02*
X49959523Y-19367695D01*
X49959523Y-19367695D02*
X49959523Y-19462933D01*
X49959523Y-19462933D02*
X50007142Y-19605790D01*
X50007142Y-19605790D02*
X50578570Y-20177219D01*
X50578570Y-20177219D02*
X49959523Y-20177219D01*
D11*
X50000000Y-18850000D02*
X50020000Y-18850000D01*
X50420000Y-18850000D02*
X50440000Y-18850000D01*
X50840000Y-18850000D02*
X50860000Y-18850000D01*
X51260000Y-18850000D02*
X51280000Y-18850000D01*
X51680000Y-18850000D02*
X51700000Y-18850000D01*
X52100000Y-18850000D02*
X52120000Y-18850000D01*
X52520000Y-18850000D02*
X52540000Y-18850000D01*
X52940000Y-18850000D02*
X52960000Y-18850000D01*
X53360000Y-18850000D02*
X53380000Y-18850000D01*
X53780000Y-18850000D02*
X53800000Y-18850000D01*
X54200000Y-18850000D02*
X54220000Y-18850000D01*
X54300000Y-18850000D02*
X54300000Y-18870000D01*
X54300000Y-19270000D02*
X54300000Y-19290000D01*
X54300000Y-19690000D02*
X54300000Y-19710000D01*
X54300000Y-20110000D02*
X54300000Y-20130000D01*
X54300000Y-20530000D02*
X54300000Y-20550000D01*
X54300000Y-20600000D02*
X54280000Y-20600000D01*
X53880000Y-20600000D02*
X53860000Y-20600000D01*
X53460000Y-20600000D02*
X53440000Y-20600000D01*
X53040000Y-20600000D02*
X53020000Y-20600000D01*
X52620000Y-20600000D02*
X52600000Y-20600000D01*
X52200000Y-20600000D02*
X52180000Y-20600000D01*
X51780000Y-20600000D02*
X51760000Y-20600000D01*
X51360000Y-20600000D02*
X51340000Y-20600000D01*
X50940000Y-20600000D02*
X50920000Y-20600000D01*
X50520000Y-20600000D02*
X50500000Y-20600000D01*
X50100000Y-20600000D02*
X50080000Y-20600000D01*
X50000000Y-20600000D02*
X50000000Y-20580000D01*
X50000000Y-20180000D02*
X50000000Y-20160000D01*
X50000000Y-19760000D02*
X50000000Y-19740000D01*
X50000000Y-19340000D02*
X50000000Y-19320000D01*
X50000000Y-18920000D02*
X50000000Y-18900000D01*
D10*
X5655951Y-15557219D02*
X5655951Y-14557219D01*
X5655951Y-14557219D02*
X5417856Y-14557219D01*
X5417856Y-14557219D02*
X5274999Y-14604838D01*
X5274999Y-14604838D02*
X5179761Y-14700076D01*
X5179761Y-14700076D02*
X5132142Y-14795314D01*
X5132142Y-14795314D02*
X5084523Y-14985790D01*
X5084523Y-14985790D02*
X5084523Y-15128647D01*
X5084523Y-15128647D02*
X5132142Y-15319123D01*
X5132142Y-15319123D02*
X5179761Y-15414361D01*
X5179761Y-15414361D02*
X5274999Y-15509600D01*
X5274999Y-15509600D02*
X5417856Y-15557219D01*
X5417856Y-15557219D02*
X5655951Y-15557219D01*
X4465475Y-14557219D02*
X4274999Y-14557219D01*
X4274999Y-14557219D02*
X4179761Y-14604838D01*
X4179761Y-14604838D02*
X4084523Y-14700076D01*
X4084523Y-14700076D02*
X4036904Y-14890552D01*
X4036904Y-14890552D02*
X4036904Y-15223885D01*
X4036904Y-15223885D02*
X4084523Y-15414361D01*
X4084523Y-15414361D02*
X4179761Y-15509600D01*
X4179761Y-15509600D02*
X4274999Y-15557219D01*
X4274999Y-15557219D02*
X4465475Y-15557219D01*
X4465475Y-15557219D02*
X4560713Y-15509600D01*
X4560713Y-15509600D02*
X4655951Y-15414361D01*
X4655951Y-15414361D02*
X4703570Y-15223885D01*
X4703570Y-15223885D02*
X4703570Y-14890552D01*
X4703570Y-14890552D02*
X4655951Y-14700076D01*
X4655951Y-14700076D02*
X4560713Y-14604838D01*
X4560713Y-14604838D02*
X4465475Y-14557219D01*
X3703570Y-14557219D02*
X3465475Y-15557219D01*
X3465475Y-15557219D02*
X3274999Y-14842933D01*
X3274999Y-14842933D02*
X3084523Y-15557219D01*
X3084523Y-15557219D02*
X2846428Y-14557219D01*
X2465475Y-15557219D02*
X2465475Y-14557219D01*
X2465475Y-14557219D02*
X1894047Y-15557219D01*
X1894047Y-15557219D02*
X1894047Y-14557219D01*
D11*
X2150000Y-14230000D02*
X2170000Y-14230000D01*
X2570000Y-14230000D02*
X2590000Y-14230000D01*
X2990000Y-14230000D02*
X3010000Y-14230000D01*
X3410000Y-14230000D02*
X3430000Y-14230000D01*
X3830000Y-14230000D02*
X3850000Y-14230000D01*
X4250000Y-14230000D02*
X4270000Y-14230000D01*
X4670000Y-14230000D02*
X4690000Y-14230000D01*
X5090000Y-14230000D02*
X5110000Y-14230000D01*
X5400000Y-14230000D02*
X5400000Y-14250000D01*
X5400000Y-14650000D02*
X5400000Y-14670000D01*
X5400000Y-15070000D02*
X5400000Y-15090000D01*
X5400000Y-15490000D02*
X5400000Y-15510000D01*
X5400000Y-15910000D02*
X5400000Y-15930000D01*
X5400000Y-15980000D02*
X5380000Y-15980000D01*
X4980000Y-15980000D02*
X4960000Y-15980000D01*
X4560000Y-15980000D02*
X4540000Y-15980000D01*
X4140000Y-15980000D02*
X4120000Y-15980000D01*
X3720000Y-15980000D02*
X3700000Y-15980000D01*
X3300000Y-15980000D02*
X3280000Y-15980000D01*
X2880000Y-15980000D02*
X2860000Y-15980000D01*
X2460000Y-15980000D02*
X2440000Y-15980000D01*
X2150000Y-15980000D02*
X2150000Y-15960000D01*
X2150000Y-15560000D02*
X2150000Y-15540000D01*
X2150000Y-15140000D02*
X2150000Y-15120000D01*
X2150000Y-14720000D02*
X2150000Y-14700000D01*
X2150000Y-14300000D02*
X2150000Y-14280000D01*
D10*
X4764285Y-26584600D02*
X4621428Y-26632219D01*
X4621428Y-26632219D02*
X4383333Y-26632219D01*
X4383333Y-26632219D02*
X4288095Y-26584600D01*
X4288095Y-26584600D02*
X4240476Y-26536980D01*
X4240476Y-26536980D02*
X4192857Y-26441742D01*
X4192857Y-26441742D02*
X4192857Y-26346504D01*
X4192857Y-26346504D02*
X4240476Y-26251266D01*
X4240476Y-26251266D02*
X4288095Y-26203647D01*
X4288095Y-26203647D02*
X4383333Y-26156028D01*
X4383333Y-26156028D02*
X4573809Y-26108409D01*
X4573809Y-26108409D02*
X4669047Y-26060790D01*
X4669047Y-26060790D02*
X4716666Y-26013171D01*
X4716666Y-26013171D02*
X4764285Y-25917933D01*
X4764285Y-25917933D02*
X4764285Y-25822695D01*
X4764285Y-25822695D02*
X4716666Y-25727457D01*
X4716666Y-25727457D02*
X4669047Y-25679838D01*
X4669047Y-25679838D02*
X4573809Y-25632219D01*
X4573809Y-25632219D02*
X4335714Y-25632219D01*
X4335714Y-25632219D02*
X4192857Y-25679838D01*
X3764285Y-26632219D02*
X3764285Y-25632219D01*
X3764285Y-25632219D02*
X3526190Y-25632219D01*
X3526190Y-25632219D02*
X3383333Y-25679838D01*
X3383333Y-25679838D02*
X3288095Y-25775076D01*
X3288095Y-25775076D02*
X3240476Y-25870314D01*
X3240476Y-25870314D02*
X3192857Y-26060790D01*
X3192857Y-26060790D02*
X3192857Y-26203647D01*
X3192857Y-26203647D02*
X3240476Y-26394123D01*
X3240476Y-26394123D02*
X3288095Y-26489361D01*
X3288095Y-26489361D02*
X3383333Y-26584600D01*
X3383333Y-26584600D02*
X3526190Y-26632219D01*
X3526190Y-26632219D02*
X3764285Y-26632219D01*
X2811904Y-26346504D02*
X2335714Y-26346504D01*
X2907142Y-26632219D02*
X2573809Y-25632219D01*
X2573809Y-25632219D02*
X2240476Y-26632219D01*
D11*
X1800000Y-25305000D02*
X1820000Y-25305000D01*
X2220000Y-25305000D02*
X2240000Y-25305000D01*
X2640000Y-25305000D02*
X2660000Y-25305000D01*
X3060000Y-25305000D02*
X3080000Y-25305000D01*
X3480000Y-25305000D02*
X3500000Y-25305000D01*
X3900000Y-25305000D02*
X3920000Y-25305000D01*
X4320000Y-25305000D02*
X4340000Y-25305000D01*
X4740000Y-25305000D02*
X4760000Y-25305000D01*
X5160000Y-25305000D02*
X5180000Y-25305000D01*
X5300000Y-25305000D02*
X5300000Y-25325000D01*
X5300000Y-25725000D02*
X5300000Y-25745000D01*
X5300000Y-26145000D02*
X5300000Y-26165000D01*
X5300000Y-26565000D02*
X5300000Y-26585000D01*
X5300000Y-26985000D02*
X5300000Y-27005000D01*
X5300000Y-27055000D02*
X5280000Y-27055000D01*
X4880000Y-27055000D02*
X4860000Y-27055000D01*
X4460000Y-27055000D02*
X4440000Y-27055000D01*
X4040000Y-27055000D02*
X4020000Y-27055000D01*
X3620000Y-27055000D02*
X3600000Y-27055000D01*
X3200000Y-27055000D02*
X3180000Y-27055000D01*
X2780000Y-27055000D02*
X2760000Y-27055000D01*
X2360000Y-27055000D02*
X2340000Y-27055000D01*
X1940000Y-27055000D02*
X1920000Y-27055000D01*
X1800000Y-27055000D02*
X1800000Y-27035000D01*
X1800000Y-26635000D02*
X1800000Y-26615000D01*
X1800000Y-26215000D02*
X1800000Y-26195000D01*
X1800000Y-25795000D02*
X1800000Y-25775000D01*
X1800000Y-25375000D02*
X1800000Y-25355000D01*
D10*
X27930951Y-20302219D02*
X27930951Y-19302219D01*
X27930951Y-19302219D02*
X27549999Y-19302219D01*
X27549999Y-19302219D02*
X27454761Y-19349838D01*
X27454761Y-19349838D02*
X27407142Y-19397457D01*
X27407142Y-19397457D02*
X27359523Y-19492695D01*
X27359523Y-19492695D02*
X27359523Y-19635552D01*
X27359523Y-19635552D02*
X27407142Y-19730790D01*
X27407142Y-19730790D02*
X27454761Y-19778409D01*
X27454761Y-19778409D02*
X27549999Y-19826028D01*
X27549999Y-19826028D02*
X27930951Y-19826028D01*
X27026189Y-19302219D02*
X26788094Y-20302219D01*
X26788094Y-20302219D02*
X26597618Y-19587933D01*
X26597618Y-19587933D02*
X26407142Y-20302219D01*
X26407142Y-20302219D02*
X26169047Y-19302219D01*
X25788094Y-20302219D02*
X25788094Y-19302219D01*
X25788094Y-19302219D02*
X25454761Y-20016504D01*
X25454761Y-20016504D02*
X25121428Y-19302219D01*
X25121428Y-19302219D02*
X25121428Y-20302219D01*
X24692856Y-19397457D02*
X24645237Y-19349838D01*
X24645237Y-19349838D02*
X24549999Y-19302219D01*
X24549999Y-19302219D02*
X24311904Y-19302219D01*
X24311904Y-19302219D02*
X24216666Y-19349838D01*
X24216666Y-19349838D02*
X24169047Y-19397457D01*
X24169047Y-19397457D02*
X24121428Y-19492695D01*
X24121428Y-19492695D02*
X24121428Y-19587933D01*
X24121428Y-19587933D02*
X24169047Y-19730790D01*
X24169047Y-19730790D02*
X24740475Y-20302219D01*
X24740475Y-20302219D02*
X24121428Y-20302219D01*
D11*
X23900000Y-18975000D02*
X23920000Y-18975000D01*
X24320000Y-18975000D02*
X24340000Y-18975000D01*
X24740000Y-18975000D02*
X24760000Y-18975000D01*
X25160000Y-18975000D02*
X25180000Y-18975000D01*
X25580000Y-18975000D02*
X25600000Y-18975000D01*
X26000000Y-18975000D02*
X26020000Y-18975000D01*
X26420000Y-18975000D02*
X26440000Y-18975000D01*
X26840000Y-18975000D02*
X26860000Y-18975000D01*
X27260000Y-18975000D02*
X27280000Y-18975000D01*
X27680000Y-18975000D02*
X27700000Y-18975000D01*
X28100000Y-18975000D02*
X28120000Y-18975000D01*
X28200000Y-18975000D02*
X28200000Y-18995000D01*
X28200000Y-19395000D02*
X28200000Y-19415000D01*
X28200000Y-19815000D02*
X28200000Y-19835000D01*
X28200000Y-20235000D02*
X28200000Y-20255000D01*
X28200000Y-20655000D02*
X28200000Y-20675000D01*
X28200000Y-20725000D02*
X28180000Y-20725000D01*
X27780000Y-20725000D02*
X27760000Y-20725000D01*
X27360000Y-20725000D02*
X27340000Y-20725000D01*
X26940000Y-20725000D02*
X26920000Y-20725000D01*
X26520000Y-20725000D02*
X26500000Y-20725000D01*
X26100000Y-20725000D02*
X26080000Y-20725000D01*
X25680000Y-20725000D02*
X25660000Y-20725000D01*
X25260000Y-20725000D02*
X25240000Y-20725000D01*
X24840000Y-20725000D02*
X24820000Y-20725000D01*
X24420000Y-20725000D02*
X24400000Y-20725000D01*
X24000000Y-20725000D02*
X23980000Y-20725000D01*
X23900000Y-20725000D02*
X23900000Y-20705000D01*
X23900000Y-20305000D02*
X23900000Y-20285000D01*
X23900000Y-19885000D02*
X23900000Y-19865000D01*
X23900000Y-19465000D02*
X23900000Y-19445000D01*
X23900000Y-19045000D02*
X23900000Y-19025000D01*
D10*
X18990475Y-17829600D02*
X18847618Y-17877219D01*
X18847618Y-17877219D02*
X18609523Y-17877219D01*
X18609523Y-17877219D02*
X18514285Y-17829600D01*
X18514285Y-17829600D02*
X18466666Y-17781980D01*
X18466666Y-17781980D02*
X18419047Y-17686742D01*
X18419047Y-17686742D02*
X18419047Y-17591504D01*
X18419047Y-17591504D02*
X18466666Y-17496266D01*
X18466666Y-17496266D02*
X18514285Y-17448647D01*
X18514285Y-17448647D02*
X18609523Y-17401028D01*
X18609523Y-17401028D02*
X18799999Y-17353409D01*
X18799999Y-17353409D02*
X18895237Y-17305790D01*
X18895237Y-17305790D02*
X18942856Y-17258171D01*
X18942856Y-17258171D02*
X18990475Y-17162933D01*
X18990475Y-17162933D02*
X18990475Y-17067695D01*
X18990475Y-17067695D02*
X18942856Y-16972457D01*
X18942856Y-16972457D02*
X18895237Y-16924838D01*
X18895237Y-16924838D02*
X18799999Y-16877219D01*
X18799999Y-16877219D02*
X18561904Y-16877219D01*
X18561904Y-16877219D02*
X18419047Y-16924838D01*
X17419047Y-17781980D02*
X17466666Y-17829600D01*
X17466666Y-17829600D02*
X17609523Y-17877219D01*
X17609523Y-17877219D02*
X17704761Y-17877219D01*
X17704761Y-17877219D02*
X17847618Y-17829600D01*
X17847618Y-17829600D02*
X17942856Y-17734361D01*
X17942856Y-17734361D02*
X17990475Y-17639123D01*
X17990475Y-17639123D02*
X18038094Y-17448647D01*
X18038094Y-17448647D02*
X18038094Y-17305790D01*
X18038094Y-17305790D02*
X17990475Y-17115314D01*
X17990475Y-17115314D02*
X17942856Y-17020076D01*
X17942856Y-17020076D02*
X17847618Y-16924838D01*
X17847618Y-16924838D02*
X17704761Y-16877219D01*
X17704761Y-16877219D02*
X17609523Y-16877219D01*
X17609523Y-16877219D02*
X17466666Y-16924838D01*
X17466666Y-16924838D02*
X17419047Y-16972457D01*
X16514285Y-17877219D02*
X16990475Y-17877219D01*
X16990475Y-17877219D02*
X16990475Y-16877219D01*
D11*
X16050000Y-16550000D02*
X16070000Y-16550000D01*
X16470000Y-16550000D02*
X16490000Y-16550000D01*
X16890000Y-16550000D02*
X16910000Y-16550000D01*
X17310000Y-16550000D02*
X17330000Y-16550000D01*
X17730000Y-16550000D02*
X17750000Y-16550000D01*
X18150000Y-16550000D02*
X18170000Y-16550000D01*
X18570000Y-16550000D02*
X18590000Y-16550000D01*
X18990000Y-16550000D02*
X19010000Y-16550000D01*
X19410000Y-16550000D02*
X19430000Y-16550000D01*
X19550000Y-16550000D02*
X19550000Y-16570000D01*
X19550000Y-16970000D02*
X19550000Y-16990000D01*
X19550000Y-17390000D02*
X19550000Y-17410000D01*
X19550000Y-17810000D02*
X19550000Y-17830000D01*
X19550000Y-18230000D02*
X19550000Y-18250000D01*
X19550000Y-18300000D02*
X19530000Y-18300000D01*
X19130000Y-18300000D02*
X19110000Y-18300000D01*
X18710000Y-18300000D02*
X18690000Y-18300000D01*
X18290000Y-18300000D02*
X18270000Y-18300000D01*
X17870000Y-18300000D02*
X17850000Y-18300000D01*
X17450000Y-18300000D02*
X17430000Y-18300000D01*
X17030000Y-18300000D02*
X17010000Y-18300000D01*
X16610000Y-18300000D02*
X16590000Y-18300000D01*
X16190000Y-18300000D02*
X16170000Y-18300000D01*
X16050000Y-18300000D02*
X16050000Y-18280000D01*
X16050000Y-17880000D02*
X16050000Y-17860000D01*
X16050000Y-17460000D02*
X16050000Y-17440000D01*
X16050000Y-17040000D02*
X16050000Y-17020000D01*
X16050000Y-16620000D02*
X16050000Y-16600000D01*
X20991666Y-22140752D02*
X20610714Y-22140752D01*
X20932143Y-22807419D02*
X20825000Y-21950276D01*
X20825000Y-21950276D02*
X20765476Y-21855038D01*
X20765476Y-21855038D02*
X20664286Y-21807419D01*
X20664286Y-21807419D02*
X20569047Y-21807419D01*
X19973809Y-22759800D02*
X20074999Y-22807419D01*
X20074999Y-22807419D02*
X20265476Y-22807419D01*
X20265476Y-22807419D02*
X20354761Y-22759800D01*
X20354761Y-22759800D02*
X20390476Y-22664561D01*
X20390476Y-22664561D02*
X20342857Y-22283609D01*
X20342857Y-22283609D02*
X20283333Y-22188371D01*
X20283333Y-22188371D02*
X20182142Y-22140752D01*
X20182142Y-22140752D02*
X19991666Y-22140752D01*
X19991666Y-22140752D02*
X19902380Y-22188371D01*
X19902380Y-22188371D02*
X19866666Y-22283609D01*
X19866666Y-22283609D02*
X19878571Y-22378847D01*
X19878571Y-22378847D02*
X20366666Y-22474085D01*
X19360714Y-22807419D02*
X19449999Y-22759800D01*
X19449999Y-22759800D02*
X19485714Y-22664561D01*
X19485714Y-22664561D02*
X19378571Y-21807419D01*
X19039284Y-22140752D02*
X18658332Y-22140752D01*
X18854761Y-21807419D02*
X18961904Y-22664561D01*
X18961904Y-22664561D02*
X18926189Y-22759800D01*
X18926189Y-22759800D02*
X18836904Y-22807419D01*
X18836904Y-22807419D02*
X18741665Y-22807419D01*
X18408332Y-22807419D02*
X18324998Y-22140752D01*
X18283332Y-21807419D02*
X18336903Y-21855038D01*
X18336903Y-21855038D02*
X18295236Y-21902657D01*
X18295236Y-21902657D02*
X18241665Y-21855038D01*
X18241665Y-21855038D02*
X18283332Y-21807419D01*
X18283332Y-21807419D02*
X18295236Y-21902657D01*
X17545237Y-22759800D02*
X17646427Y-22807419D01*
X17646427Y-22807419D02*
X17836904Y-22807419D01*
X17836904Y-22807419D02*
X17926189Y-22759800D01*
X17926189Y-22759800D02*
X17961904Y-22664561D01*
X17961904Y-22664561D02*
X17914285Y-22283609D01*
X17914285Y-22283609D02*
X17854761Y-22188371D01*
X17854761Y-22188371D02*
X17753570Y-22140752D01*
X17753570Y-22140752D02*
X17563094Y-22140752D01*
X17563094Y-22140752D02*
X17473808Y-22188371D01*
X17473808Y-22188371D02*
X17438094Y-22283609D01*
X17438094Y-22283609D02*
X17449999Y-22378847D01*
X17449999Y-22378847D02*
X17938094Y-22474085D01*
X17074999Y-22807419D02*
X16991665Y-22140752D01*
X17015475Y-22331228D02*
X16955951Y-22235990D01*
X16955951Y-22235990D02*
X16902380Y-22188371D01*
X16902380Y-22188371D02*
X16801189Y-22140752D01*
X16801189Y-22140752D02*
X16705951Y-22140752D01*
X16390474Y-21902657D02*
X16336903Y-21855038D01*
X16336903Y-21855038D02*
X16235713Y-21807419D01*
X16235713Y-21807419D02*
X15997617Y-21807419D01*
X15997617Y-21807419D02*
X15908332Y-21855038D01*
X15908332Y-21855038D02*
X15866665Y-21902657D01*
X15866665Y-21902657D02*
X15830951Y-21997895D01*
X15830951Y-21997895D02*
X15842855Y-22093133D01*
X15842855Y-22093133D02*
X15908332Y-22235990D01*
X15908332Y-22235990D02*
X16551189Y-22807419D01*
X16551189Y-22807419D02*
X15932141Y-22807419D01*
X16075000Y-21475000D02*
X16095000Y-21475000D01*
X16495000Y-21475000D02*
X16515000Y-21475000D01*
X16915000Y-21475000D02*
X16935000Y-21475000D01*
X17335000Y-21475000D02*
X17355000Y-21475000D01*
X17755000Y-21475000D02*
X17775000Y-21475000D01*
X18175000Y-21475000D02*
X18195000Y-21475000D01*
X18595000Y-21475000D02*
X18615000Y-21475000D01*
X19015000Y-21475000D02*
X19035000Y-21475000D01*
X19435000Y-21475000D02*
X19455000Y-21475000D01*
X19855000Y-21475000D02*
X19875000Y-21475000D01*
X20275000Y-21475000D02*
X20295000Y-21475000D01*
X20695000Y-21475000D02*
X20715000Y-21475000D01*
X20825000Y-21475000D02*
X20825000Y-21495000D01*
X20825000Y-21895000D02*
X20825000Y-21915000D01*
X20825000Y-22315000D02*
X20825000Y-22335000D01*
X20825000Y-22735000D02*
X20825000Y-22755000D01*
X20825000Y-23155000D02*
X20825000Y-23175000D01*
X20825000Y-23225000D02*
X20805000Y-23225000D01*
X20405000Y-23225000D02*
X20385000Y-23225000D01*
X19985000Y-23225000D02*
X19965000Y-23225000D01*
X19565000Y-23225000D02*
X19545000Y-23225000D01*
X19145000Y-23225000D02*
X19125000Y-23225000D01*
X18725000Y-23225000D02*
X18705000Y-23225000D01*
X18305000Y-23225000D02*
X18285000Y-23225000D01*
X17885000Y-23225000D02*
X17865000Y-23225000D01*
X17465000Y-23225000D02*
X17445000Y-23225000D01*
X17045000Y-23225000D02*
X17025000Y-23225000D01*
X16625000Y-23225000D02*
X16605000Y-23225000D01*
X16205000Y-23225000D02*
X16185000Y-23225000D01*
X16075000Y-23225000D02*
X16075000Y-23205000D01*
X16075000Y-22805000D02*
X16075000Y-22785000D01*
X16075000Y-22385000D02*
X16075000Y-22365000D01*
X16075000Y-21965000D02*
X16075000Y-21945000D01*
X16075000Y-21545000D02*
X16075000Y-21525000D01*
X53709523Y-16407419D02*
X53584523Y-15407419D01*
X53584523Y-15407419D02*
X53203570Y-15407419D01*
X53203570Y-15407419D02*
X53114285Y-15455038D01*
X53114285Y-15455038D02*
X53072618Y-15502657D01*
X53072618Y-15502657D02*
X53036904Y-15597895D01*
X53036904Y-15597895D02*
X53054761Y-15740752D01*
X53054761Y-15740752D02*
X53114285Y-15835990D01*
X53114285Y-15835990D02*
X53167856Y-15883609D01*
X53167856Y-15883609D02*
X53269046Y-15931228D01*
X53269046Y-15931228D02*
X53649999Y-15931228D01*
X52709523Y-16407419D02*
X52626189Y-15740752D01*
X52584523Y-15407419D02*
X52638094Y-15455038D01*
X52638094Y-15455038D02*
X52596427Y-15502657D01*
X52596427Y-15502657D02*
X52542856Y-15455038D01*
X52542856Y-15455038D02*
X52584523Y-15407419D01*
X52584523Y-15407419D02*
X52596427Y-15502657D01*
X52149999Y-15740752D02*
X52233333Y-16407419D01*
X52161904Y-15835990D02*
X52108333Y-15788371D01*
X52108333Y-15788371D02*
X52007142Y-15740752D01*
X52007142Y-15740752D02*
X51864285Y-15740752D01*
X51864285Y-15740752D02*
X51774999Y-15788371D01*
X51774999Y-15788371D02*
X51739285Y-15883609D01*
X51739285Y-15883609D02*
X51804761Y-16407419D01*
X51263094Y-15502657D02*
X51209523Y-15455038D01*
X51209523Y-15455038D02*
X51108333Y-15407419D01*
X51108333Y-15407419D02*
X50870237Y-15407419D01*
X50870237Y-15407419D02*
X50780952Y-15455038D01*
X50780952Y-15455038D02*
X50739285Y-15502657D01*
X50739285Y-15502657D02*
X50703571Y-15597895D01*
X50703571Y-15597895D02*
X50715475Y-15693133D01*
X50715475Y-15693133D02*
X50780952Y-15835990D01*
X50780952Y-15835990D02*
X51423809Y-16407419D01*
X51423809Y-16407419D02*
X50804761Y-16407419D01*
X49900000Y-15075000D02*
X49920000Y-15075000D01*
X50320000Y-15075000D02*
X50340000Y-15075000D01*
X50740000Y-15075000D02*
X50760000Y-15075000D01*
X51160000Y-15075000D02*
X51180000Y-15075000D01*
X51580000Y-15075000D02*
X51600000Y-15075000D01*
X52000000Y-15075000D02*
X52020000Y-15075000D01*
X52420000Y-15075000D02*
X52440000Y-15075000D01*
X52840000Y-15075000D02*
X52860000Y-15075000D01*
X53260000Y-15075000D02*
X53280000Y-15075000D01*
X53680000Y-15075000D02*
X53700000Y-15075000D01*
X54100000Y-15075000D02*
X54120000Y-15075000D01*
X54520000Y-15075000D02*
X54540000Y-15075000D01*
X54650000Y-15075000D02*
X54650000Y-15095000D01*
X54650000Y-15495000D02*
X54650000Y-15515000D01*
X54650000Y-15915000D02*
X54650000Y-15935000D01*
X54650000Y-16335000D02*
X54650000Y-16355000D01*
X54650000Y-16755000D02*
X54650000Y-16775000D01*
X54650000Y-16825000D02*
X54630000Y-16825000D01*
X54230000Y-16825000D02*
X54210000Y-16825000D01*
X53810000Y-16825000D02*
X53790000Y-16825000D01*
X53390000Y-16825000D02*
X53370000Y-16825000D01*
X52970000Y-16825000D02*
X52950000Y-16825000D01*
X52550000Y-16825000D02*
X52530000Y-16825000D01*
X52130000Y-16825000D02*
X52110000Y-16825000D01*
X51710000Y-16825000D02*
X51690000Y-16825000D01*
X51290000Y-16825000D02*
X51270000Y-16825000D01*
X50870000Y-16825000D02*
X50850000Y-16825000D01*
X50450000Y-16825000D02*
X50430000Y-16825000D01*
X50030000Y-16825000D02*
X50010000Y-16825000D01*
X49900000Y-16825000D02*
X49900000Y-16805000D01*
X49900000Y-16405000D02*
X49900000Y-16385000D01*
X49900000Y-15985000D02*
X49900000Y-15965000D01*
X49900000Y-15565000D02*
X49900000Y-15545000D01*
X49900000Y-15145000D02*
X49900000Y-15125000D01*
D10*
X17604761Y-7153409D02*
X17461904Y-7201028D01*
X17461904Y-7201028D02*
X17414285Y-7248647D01*
X17414285Y-7248647D02*
X17366666Y-7343885D01*
X17366666Y-7343885D02*
X17366666Y-7486742D01*
X17366666Y-7486742D02*
X17414285Y-7581980D01*
X17414285Y-7581980D02*
X17461904Y-7629600D01*
X17461904Y-7629600D02*
X17557142Y-7677219D01*
X17557142Y-7677219D02*
X17938094Y-7677219D01*
X17938094Y-7677219D02*
X17938094Y-6677219D01*
X17938094Y-6677219D02*
X17604761Y-6677219D01*
X17604761Y-6677219D02*
X17509523Y-6724838D01*
X17509523Y-6724838D02*
X17461904Y-6772457D01*
X17461904Y-6772457D02*
X17414285Y-6867695D01*
X17414285Y-6867695D02*
X17414285Y-6962933D01*
X17414285Y-6962933D02*
X17461904Y-7058171D01*
X17461904Y-7058171D02*
X17509523Y-7105790D01*
X17509523Y-7105790D02*
X17604761Y-7153409D01*
X17604761Y-7153409D02*
X17938094Y-7153409D01*
X16414285Y-7677219D02*
X16985713Y-7677219D01*
X16699999Y-7677219D02*
X16699999Y-6677219D01*
X16699999Y-6677219D02*
X16795237Y-6820076D01*
X16795237Y-6820076D02*
X16890475Y-6915314D01*
X16890475Y-6915314D02*
X16985713Y-6962933D01*
D11*
X16050000Y-6350000D02*
X16070000Y-6350000D01*
X16470000Y-6350000D02*
X16490000Y-6350000D01*
X16890000Y-6350000D02*
X16910000Y-6350000D01*
X17310000Y-6350000D02*
X17330000Y-6350000D01*
X17730000Y-6350000D02*
X17750000Y-6350000D01*
X18150000Y-6350000D02*
X18170000Y-6350000D01*
X18350000Y-6350000D02*
X18350000Y-6370000D01*
X18350000Y-6770000D02*
X18350000Y-6790000D01*
X18350000Y-7190000D02*
X18350000Y-7210000D01*
X18350000Y-7610000D02*
X18350000Y-7630000D01*
X18350000Y-8030000D02*
X18350000Y-8050000D01*
X18350000Y-8100000D02*
X18330000Y-8100000D01*
X17930000Y-8100000D02*
X17910000Y-8100000D01*
X17510000Y-8100000D02*
X17490000Y-8100000D01*
X17090000Y-8100000D02*
X17070000Y-8100000D01*
X16670000Y-8100000D02*
X16650000Y-8100000D01*
X16250000Y-8100000D02*
X16230000Y-8100000D01*
X16050000Y-8100000D02*
X16050000Y-8080000D01*
X16050000Y-7680000D02*
X16050000Y-7660000D01*
X16050000Y-7260000D02*
X16050000Y-7240000D01*
X16050000Y-6840000D02*
X16050000Y-6820000D01*
X16050000Y-6420000D02*
X16050000Y-6400000D01*
D10*
X27111904Y-9304838D02*
X27207142Y-9257219D01*
X27207142Y-9257219D02*
X27349999Y-9257219D01*
X27349999Y-9257219D02*
X27492856Y-9304838D01*
X27492856Y-9304838D02*
X27588094Y-9400076D01*
X27588094Y-9400076D02*
X27635713Y-9495314D01*
X27635713Y-9495314D02*
X27683332Y-9685790D01*
X27683332Y-9685790D02*
X27683332Y-9828647D01*
X27683332Y-9828647D02*
X27635713Y-10019123D01*
X27635713Y-10019123D02*
X27588094Y-10114361D01*
X27588094Y-10114361D02*
X27492856Y-10209600D01*
X27492856Y-10209600D02*
X27349999Y-10257219D01*
X27349999Y-10257219D02*
X27254761Y-10257219D01*
X27254761Y-10257219D02*
X27111904Y-10209600D01*
X27111904Y-10209600D02*
X27064285Y-10161980D01*
X27064285Y-10161980D02*
X27064285Y-9828647D01*
X27064285Y-9828647D02*
X27254761Y-9828647D01*
X26635713Y-10257219D02*
X26635713Y-9257219D01*
X26635713Y-9257219D02*
X26064285Y-10257219D01*
X26064285Y-10257219D02*
X26064285Y-9257219D01*
X25588094Y-10257219D02*
X25588094Y-9257219D01*
X25588094Y-9257219D02*
X25349999Y-9257219D01*
X25349999Y-9257219D02*
X25207142Y-9304838D01*
X25207142Y-9304838D02*
X25111904Y-9400076D01*
X25111904Y-9400076D02*
X25064285Y-9495314D01*
X25064285Y-9495314D02*
X25016666Y-9685790D01*
X25016666Y-9685790D02*
X25016666Y-9828647D01*
X25016666Y-9828647D02*
X25064285Y-10019123D01*
X25064285Y-10019123D02*
X25111904Y-10114361D01*
X25111904Y-10114361D02*
X25207142Y-10209600D01*
X25207142Y-10209600D02*
X25349999Y-10257219D01*
X25349999Y-10257219D02*
X25588094Y-10257219D01*
D11*
X24600000Y-8930000D02*
X24620000Y-8930000D01*
X25020000Y-8930000D02*
X25040000Y-8930000D01*
X25440000Y-8930000D02*
X25460000Y-8930000D01*
X25860000Y-8930000D02*
X25880000Y-8930000D01*
X26280000Y-8930000D02*
X26300000Y-8930000D01*
X26700000Y-8930000D02*
X26720000Y-8930000D01*
X27120000Y-8930000D02*
X27140000Y-8930000D01*
X27540000Y-8930000D02*
X27560000Y-8930000D01*
X27960000Y-8930000D02*
X27980000Y-8930000D01*
X28100000Y-8930000D02*
X28100000Y-8950000D01*
X28100000Y-9350000D02*
X28100000Y-9370000D01*
X28100000Y-9770000D02*
X28100000Y-9790000D01*
X28100000Y-10190000D02*
X28100000Y-10210000D01*
X28100000Y-10610000D02*
X28100000Y-10630000D01*
X28100000Y-10680000D02*
X28080000Y-10680000D01*
X27680000Y-10680000D02*
X27660000Y-10680000D01*
X27260000Y-10680000D02*
X27240000Y-10680000D01*
X26840000Y-10680000D02*
X26820000Y-10680000D01*
X26420000Y-10680000D02*
X26400000Y-10680000D01*
X26000000Y-10680000D02*
X25980000Y-10680000D01*
X25580000Y-10680000D02*
X25560000Y-10680000D01*
X25160000Y-10680000D02*
X25140000Y-10680000D01*
X24740000Y-10680000D02*
X24720000Y-10680000D01*
X24600000Y-10680000D02*
X24600000Y-10660000D01*
X24600000Y-10260000D02*
X24600000Y-10240000D01*
X24600000Y-9840000D02*
X24600000Y-9820000D01*
X24600000Y-9420000D02*
X24600000Y-9400000D01*
X24600000Y-9000000D02*
X24600000Y-8980000D01*
D10*
X27776189Y-11777219D02*
X27157142Y-11777219D01*
X27157142Y-11777219D02*
X27490475Y-12158171D01*
X27490475Y-12158171D02*
X27347618Y-12158171D01*
X27347618Y-12158171D02*
X27252380Y-12205790D01*
X27252380Y-12205790D02*
X27204761Y-12253409D01*
X27204761Y-12253409D02*
X27157142Y-12348647D01*
X27157142Y-12348647D02*
X27157142Y-12586742D01*
X27157142Y-12586742D02*
X27204761Y-12681980D01*
X27204761Y-12681980D02*
X27252380Y-12729600D01*
X27252380Y-12729600D02*
X27347618Y-12777219D01*
X27347618Y-12777219D02*
X27633332Y-12777219D01*
X27633332Y-12777219D02*
X27728570Y-12729600D01*
X27728570Y-12729600D02*
X27776189Y-12681980D01*
X26728570Y-12681980D02*
X26680951Y-12729600D01*
X26680951Y-12729600D02*
X26728570Y-12777219D01*
X26728570Y-12777219D02*
X26776189Y-12729600D01*
X26776189Y-12729600D02*
X26728570Y-12681980D01*
X26728570Y-12681980D02*
X26728570Y-12777219D01*
X26347618Y-11777219D02*
X25728571Y-11777219D01*
X25728571Y-11777219D02*
X26061904Y-12158171D01*
X26061904Y-12158171D02*
X25919047Y-12158171D01*
X25919047Y-12158171D02*
X25823809Y-12205790D01*
X25823809Y-12205790D02*
X25776190Y-12253409D01*
X25776190Y-12253409D02*
X25728571Y-12348647D01*
X25728571Y-12348647D02*
X25728571Y-12586742D01*
X25728571Y-12586742D02*
X25776190Y-12681980D01*
X25776190Y-12681980D02*
X25823809Y-12729600D01*
X25823809Y-12729600D02*
X25919047Y-12777219D01*
X25919047Y-12777219D02*
X26204761Y-12777219D01*
X26204761Y-12777219D02*
X26299999Y-12729600D01*
X26299999Y-12729600D02*
X26347618Y-12681980D01*
X25442856Y-11777219D02*
X25109523Y-12777219D01*
X25109523Y-12777219D02*
X24776190Y-11777219D01*
D11*
X24550000Y-11450000D02*
X24570000Y-11450000D01*
X24970000Y-11450000D02*
X24990000Y-11450000D01*
X25390000Y-11450000D02*
X25410000Y-11450000D01*
X25810000Y-11450000D02*
X25830000Y-11450000D01*
X26230000Y-11450000D02*
X26250000Y-11450000D01*
X26650000Y-11450000D02*
X26670000Y-11450000D01*
X27070000Y-11450000D02*
X27090000Y-11450000D01*
X27490000Y-11450000D02*
X27510000Y-11450000D01*
X27910000Y-11450000D02*
X27930000Y-11450000D01*
X28050000Y-11450000D02*
X28050000Y-11470000D01*
X28050000Y-11870000D02*
X28050000Y-11890000D01*
X28050000Y-12290000D02*
X28050000Y-12310000D01*
X28050000Y-12710000D02*
X28050000Y-12730000D01*
X28050000Y-13130000D02*
X28050000Y-13150000D01*
X28050000Y-13200000D02*
X28030000Y-13200000D01*
X27630000Y-13200000D02*
X27610000Y-13200000D01*
X27210000Y-13200000D02*
X27190000Y-13200000D01*
X26790000Y-13200000D02*
X26770000Y-13200000D01*
X26370000Y-13200000D02*
X26350000Y-13200000D01*
X25950000Y-13200000D02*
X25930000Y-13200000D01*
X25530000Y-13200000D02*
X25510000Y-13200000D01*
X25110000Y-13200000D02*
X25090000Y-13200000D01*
X24690000Y-13200000D02*
X24670000Y-13200000D01*
X24550000Y-13200000D02*
X24550000Y-13180000D01*
X24550000Y-12780000D02*
X24550000Y-12760000D01*
X24550000Y-12360000D02*
X24550000Y-12340000D01*
X24550000Y-11940000D02*
X24550000Y-11920000D01*
X24550000Y-11520000D02*
X24550000Y-11500000D01*
D10*
X3165475Y-43604600D02*
X3022618Y-43652219D01*
X3022618Y-43652219D02*
X2784523Y-43652219D01*
X2784523Y-43652219D02*
X2689285Y-43604600D01*
X2689285Y-43604600D02*
X2641666Y-43556980D01*
X2641666Y-43556980D02*
X2594047Y-43461742D01*
X2594047Y-43461742D02*
X2594047Y-43366504D01*
X2594047Y-43366504D02*
X2641666Y-43271266D01*
X2641666Y-43271266D02*
X2689285Y-43223647D01*
X2689285Y-43223647D02*
X2784523Y-43176028D01*
X2784523Y-43176028D02*
X2974999Y-43128409D01*
X2974999Y-43128409D02*
X3070237Y-43080790D01*
X3070237Y-43080790D02*
X3117856Y-43033171D01*
X3117856Y-43033171D02*
X3165475Y-42937933D01*
X3165475Y-42937933D02*
X3165475Y-42842695D01*
X3165475Y-42842695D02*
X3117856Y-42747457D01*
X3117856Y-42747457D02*
X3070237Y-42699838D01*
X3070237Y-42699838D02*
X2974999Y-42652219D01*
X2974999Y-42652219D02*
X2736904Y-42652219D01*
X2736904Y-42652219D02*
X2594047Y-42699838D01*
X1594047Y-43556980D02*
X1641666Y-43604600D01*
X1641666Y-43604600D02*
X1784523Y-43652219D01*
X1784523Y-43652219D02*
X1879761Y-43652219D01*
X1879761Y-43652219D02*
X2022618Y-43604600D01*
X2022618Y-43604600D02*
X2117856Y-43509361D01*
X2117856Y-43509361D02*
X2165475Y-43414123D01*
X2165475Y-43414123D02*
X2213094Y-43223647D01*
X2213094Y-43223647D02*
X2213094Y-43080790D01*
X2213094Y-43080790D02*
X2165475Y-42890314D01*
X2165475Y-42890314D02*
X2117856Y-42795076D01*
X2117856Y-42795076D02*
X2022618Y-42699838D01*
X2022618Y-42699838D02*
X1879761Y-42652219D01*
X1879761Y-42652219D02*
X1784523Y-42652219D01*
X1784523Y-42652219D02*
X1641666Y-42699838D01*
X1641666Y-42699838D02*
X1594047Y-42747457D01*
X689285Y-43652219D02*
X1165475Y-43652219D01*
X1165475Y-43652219D02*
X1165475Y-42652219D01*
D11*
X225000Y-42325000D02*
X245000Y-42325000D01*
X645000Y-42325000D02*
X665000Y-42325000D01*
X1065000Y-42325000D02*
X1085000Y-42325000D01*
X1485000Y-42325000D02*
X1505000Y-42325000D01*
X1905000Y-42325000D02*
X1925000Y-42325000D01*
X2325000Y-42325000D02*
X2345000Y-42325000D01*
X2745000Y-42325000D02*
X2765000Y-42325000D01*
X3165000Y-42325000D02*
X3185000Y-42325000D01*
X3585000Y-42325000D02*
X3605000Y-42325000D01*
X3725000Y-42325000D02*
X3725000Y-42345000D01*
X3725000Y-42745000D02*
X3725000Y-42765000D01*
X3725000Y-43165000D02*
X3725000Y-43185000D01*
X3725000Y-43585000D02*
X3725000Y-43605000D01*
X3725000Y-44005000D02*
X3725000Y-44025000D01*
X3725000Y-44075000D02*
X3705000Y-44075000D01*
X3305000Y-44075000D02*
X3285000Y-44075000D01*
X2885000Y-44075000D02*
X2865000Y-44075000D01*
X2465000Y-44075000D02*
X2445000Y-44075000D01*
X2045000Y-44075000D02*
X2025000Y-44075000D01*
X1625000Y-44075000D02*
X1605000Y-44075000D01*
X1205000Y-44075000D02*
X1185000Y-44075000D01*
X785000Y-44075000D02*
X765000Y-44075000D01*
X365000Y-44075000D02*
X345000Y-44075000D01*
X225000Y-44075000D02*
X225000Y-44055000D01*
X225000Y-43655000D02*
X225000Y-43635000D01*
X225000Y-43235000D02*
X225000Y-43215000D01*
X225000Y-42815000D02*
X225000Y-42795000D01*
X225000Y-42395000D02*
X225000Y-42375000D01*
D10*
X4261904Y-21229838D02*
X4357142Y-21182219D01*
X4357142Y-21182219D02*
X4499999Y-21182219D01*
X4499999Y-21182219D02*
X4642856Y-21229838D01*
X4642856Y-21229838D02*
X4738094Y-21325076D01*
X4738094Y-21325076D02*
X4785713Y-21420314D01*
X4785713Y-21420314D02*
X4833332Y-21610790D01*
X4833332Y-21610790D02*
X4833332Y-21753647D01*
X4833332Y-21753647D02*
X4785713Y-21944123D01*
X4785713Y-21944123D02*
X4738094Y-22039361D01*
X4738094Y-22039361D02*
X4642856Y-22134600D01*
X4642856Y-22134600D02*
X4499999Y-22182219D01*
X4499999Y-22182219D02*
X4404761Y-22182219D01*
X4404761Y-22182219D02*
X4261904Y-22134600D01*
X4261904Y-22134600D02*
X4214285Y-22086980D01*
X4214285Y-22086980D02*
X4214285Y-21753647D01*
X4214285Y-21753647D02*
X4404761Y-21753647D01*
X3785713Y-22182219D02*
X3785713Y-21182219D01*
X3785713Y-21182219D02*
X3214285Y-22182219D01*
X3214285Y-22182219D02*
X3214285Y-21182219D01*
X2738094Y-22182219D02*
X2738094Y-21182219D01*
X2738094Y-21182219D02*
X2499999Y-21182219D01*
X2499999Y-21182219D02*
X2357142Y-21229838D01*
X2357142Y-21229838D02*
X2261904Y-21325076D01*
X2261904Y-21325076D02*
X2214285Y-21420314D01*
X2214285Y-21420314D02*
X2166666Y-21610790D01*
X2166666Y-21610790D02*
X2166666Y-21753647D01*
X2166666Y-21753647D02*
X2214285Y-21944123D01*
X2214285Y-21944123D02*
X2261904Y-22039361D01*
X2261904Y-22039361D02*
X2357142Y-22134600D01*
X2357142Y-22134600D02*
X2499999Y-22182219D01*
X2499999Y-22182219D02*
X2738094Y-22182219D01*
D11*
X1750000Y-20855000D02*
X1770000Y-20855000D01*
X2170000Y-20855000D02*
X2190000Y-20855000D01*
X2590000Y-20855000D02*
X2610000Y-20855000D01*
X3010000Y-20855000D02*
X3030000Y-20855000D01*
X3430000Y-20855000D02*
X3450000Y-20855000D01*
X3850000Y-20855000D02*
X3870000Y-20855000D01*
X4270000Y-20855000D02*
X4290000Y-20855000D01*
X4690000Y-20855000D02*
X4710000Y-20855000D01*
X5110000Y-20855000D02*
X5130000Y-20855000D01*
X5250000Y-20855000D02*
X5250000Y-20875000D01*
X5250000Y-21275000D02*
X5250000Y-21295000D01*
X5250000Y-21695000D02*
X5250000Y-21715000D01*
X5250000Y-22115000D02*
X5250000Y-22135000D01*
X5250000Y-22535000D02*
X5250000Y-22555000D01*
X5250000Y-22605000D02*
X5230000Y-22605000D01*
X4830000Y-22605000D02*
X4810000Y-22605000D01*
X4410000Y-22605000D02*
X4390000Y-22605000D01*
X3990000Y-22605000D02*
X3970000Y-22605000D01*
X3570000Y-22605000D02*
X3550000Y-22605000D01*
X3150000Y-22605000D02*
X3130000Y-22605000D01*
X2730000Y-22605000D02*
X2710000Y-22605000D01*
X2310000Y-22605000D02*
X2290000Y-22605000D01*
X1890000Y-22605000D02*
X1870000Y-22605000D01*
X1750000Y-22605000D02*
X1750000Y-22585000D01*
X1750000Y-22185000D02*
X1750000Y-22165000D01*
X1750000Y-21765000D02*
X1750000Y-21745000D01*
X1750000Y-21345000D02*
X1750000Y-21325000D01*
X1750000Y-20925000D02*
X1750000Y-20905000D01*
X21714285Y-25096704D02*
X21238095Y-25096704D01*
X21845238Y-25382419D02*
X21386904Y-24382419D01*
X21386904Y-24382419D02*
X21178571Y-25382419D01*
X20261904Y-25287180D02*
X20315476Y-25334800D01*
X20315476Y-25334800D02*
X20464285Y-25382419D01*
X20464285Y-25382419D02*
X20559523Y-25382419D01*
X20559523Y-25382419D02*
X20696428Y-25334800D01*
X20696428Y-25334800D02*
X20779761Y-25239561D01*
X20779761Y-25239561D02*
X20815476Y-25144323D01*
X20815476Y-25144323D02*
X20839285Y-24953847D01*
X20839285Y-24953847D02*
X20821428Y-24810990D01*
X20821428Y-24810990D02*
X20750000Y-24620514D01*
X20750000Y-24620514D02*
X20690476Y-24525276D01*
X20690476Y-24525276D02*
X20583333Y-24430038D01*
X20583333Y-24430038D02*
X20434523Y-24382419D01*
X20434523Y-24382419D02*
X20339285Y-24382419D01*
X20339285Y-24382419D02*
X20202381Y-24430038D01*
X20202381Y-24430038D02*
X20160714Y-24477657D01*
X19863095Y-24382419D02*
X19291666Y-24382419D01*
X19702381Y-25382419D02*
X19577381Y-24382419D01*
X18250000Y-24050000D02*
X18270000Y-24050000D01*
X18670000Y-24050000D02*
X18690000Y-24050000D01*
X19090000Y-24050000D02*
X19110000Y-24050000D01*
X19510000Y-24050000D02*
X19530000Y-24050000D01*
X19930000Y-24050000D02*
X19950000Y-24050000D01*
X20350000Y-24050000D02*
X20370000Y-24050000D01*
X20770000Y-24050000D02*
X20790000Y-24050000D01*
X21190000Y-24050000D02*
X21210000Y-24050000D01*
X21610000Y-24050000D02*
X21630000Y-24050000D01*
X22030000Y-24050000D02*
X22050000Y-24050000D01*
X22450000Y-24050000D02*
X22470000Y-24050000D01*
X22870000Y-24050000D02*
X22890000Y-24050000D01*
X23000000Y-24050000D02*
X23000000Y-24070000D01*
X23000000Y-24470000D02*
X23000000Y-24490000D01*
X23000000Y-24890000D02*
X23000000Y-24910000D01*
X23000000Y-25310000D02*
X23000000Y-25330000D01*
X23000000Y-25730000D02*
X23000000Y-25750000D01*
X23000000Y-25800000D02*
X22980000Y-25800000D01*
X22580000Y-25800000D02*
X22560000Y-25800000D01*
X22160000Y-25800000D02*
X22140000Y-25800000D01*
X21740000Y-25800000D02*
X21720000Y-25800000D01*
X21320000Y-25800000D02*
X21300000Y-25800000D01*
X20900000Y-25800000D02*
X20880000Y-25800000D01*
X20480000Y-25800000D02*
X20460000Y-25800000D01*
X20060000Y-25800000D02*
X20040000Y-25800000D01*
X19640000Y-25800000D02*
X19620000Y-25800000D01*
X19220000Y-25800000D02*
X19200000Y-25800000D01*
X18800000Y-25800000D02*
X18780000Y-25800000D01*
X18380000Y-25800000D02*
X18360000Y-25800000D01*
X18250000Y-25800000D02*
X18250000Y-25780000D01*
X18250000Y-25380000D02*
X18250000Y-25360000D01*
X18250000Y-24960000D02*
X18250000Y-24940000D01*
X18250000Y-24540000D02*
X18250000Y-24520000D01*
X18250000Y-24120000D02*
X18250000Y-24100000D01*
D10*
X17604761Y-9753409D02*
X17461904Y-9801028D01*
X17461904Y-9801028D02*
X17414285Y-9848647D01*
X17414285Y-9848647D02*
X17366666Y-9943885D01*
X17366666Y-9943885D02*
X17366666Y-10086742D01*
X17366666Y-10086742D02*
X17414285Y-10181980D01*
X17414285Y-10181980D02*
X17461904Y-10229600D01*
X17461904Y-10229600D02*
X17557142Y-10277219D01*
X17557142Y-10277219D02*
X17938094Y-10277219D01*
X17938094Y-10277219D02*
X17938094Y-9277219D01*
X17938094Y-9277219D02*
X17604761Y-9277219D01*
X17604761Y-9277219D02*
X17509523Y-9324838D01*
X17509523Y-9324838D02*
X17461904Y-9372457D01*
X17461904Y-9372457D02*
X17414285Y-9467695D01*
X17414285Y-9467695D02*
X17414285Y-9562933D01*
X17414285Y-9562933D02*
X17461904Y-9658171D01*
X17461904Y-9658171D02*
X17509523Y-9705790D01*
X17509523Y-9705790D02*
X17604761Y-9753409D01*
X17604761Y-9753409D02*
X17938094Y-9753409D01*
X16985713Y-9372457D02*
X16938094Y-9324838D01*
X16938094Y-9324838D02*
X16842856Y-9277219D01*
X16842856Y-9277219D02*
X16604761Y-9277219D01*
X16604761Y-9277219D02*
X16509523Y-9324838D01*
X16509523Y-9324838D02*
X16461904Y-9372457D01*
X16461904Y-9372457D02*
X16414285Y-9467695D01*
X16414285Y-9467695D02*
X16414285Y-9562933D01*
X16414285Y-9562933D02*
X16461904Y-9705790D01*
X16461904Y-9705790D02*
X17033332Y-10277219D01*
X17033332Y-10277219D02*
X16414285Y-10277219D01*
D11*
X16050000Y-8950000D02*
X16070000Y-8950000D01*
X16470000Y-8950000D02*
X16490000Y-8950000D01*
X16890000Y-8950000D02*
X16910000Y-8950000D01*
X17310000Y-8950000D02*
X17330000Y-8950000D01*
X17730000Y-8950000D02*
X17750000Y-8950000D01*
X18150000Y-8950000D02*
X18170000Y-8950000D01*
X18350000Y-8950000D02*
X18350000Y-8970000D01*
X18350000Y-9370000D02*
X18350000Y-9390000D01*
X18350000Y-9790000D02*
X18350000Y-9810000D01*
X18350000Y-10210000D02*
X18350000Y-10230000D01*
X18350000Y-10630000D02*
X18350000Y-10650000D01*
X18350000Y-10700000D02*
X18330000Y-10700000D01*
X17930000Y-10700000D02*
X17910000Y-10700000D01*
X17510000Y-10700000D02*
X17490000Y-10700000D01*
X17090000Y-10700000D02*
X17070000Y-10700000D01*
X16670000Y-10700000D02*
X16650000Y-10700000D01*
X16250000Y-10700000D02*
X16230000Y-10700000D01*
X16050000Y-10700000D02*
X16050000Y-10680000D01*
X16050000Y-10280000D02*
X16050000Y-10260000D01*
X16050000Y-9860000D02*
X16050000Y-9840000D01*
X16050000Y-9440000D02*
X16050000Y-9420000D01*
X16050000Y-9020000D02*
X16050000Y-9000000D01*
D10*
X17604761Y-12253409D02*
X17461904Y-12301028D01*
X17461904Y-12301028D02*
X17414285Y-12348647D01*
X17414285Y-12348647D02*
X17366666Y-12443885D01*
X17366666Y-12443885D02*
X17366666Y-12586742D01*
X17366666Y-12586742D02*
X17414285Y-12681980D01*
X17414285Y-12681980D02*
X17461904Y-12729600D01*
X17461904Y-12729600D02*
X17557142Y-12777219D01*
X17557142Y-12777219D02*
X17938094Y-12777219D01*
X17938094Y-12777219D02*
X17938094Y-11777219D01*
X17938094Y-11777219D02*
X17604761Y-11777219D01*
X17604761Y-11777219D02*
X17509523Y-11824838D01*
X17509523Y-11824838D02*
X17461904Y-11872457D01*
X17461904Y-11872457D02*
X17414285Y-11967695D01*
X17414285Y-11967695D02*
X17414285Y-12062933D01*
X17414285Y-12062933D02*
X17461904Y-12158171D01*
X17461904Y-12158171D02*
X17509523Y-12205790D01*
X17509523Y-12205790D02*
X17604761Y-12253409D01*
X17604761Y-12253409D02*
X17938094Y-12253409D01*
X17033332Y-11777219D02*
X16414285Y-11777219D01*
X16414285Y-11777219D02*
X16747618Y-12158171D01*
X16747618Y-12158171D02*
X16604761Y-12158171D01*
X16604761Y-12158171D02*
X16509523Y-12205790D01*
X16509523Y-12205790D02*
X16461904Y-12253409D01*
X16461904Y-12253409D02*
X16414285Y-12348647D01*
X16414285Y-12348647D02*
X16414285Y-12586742D01*
X16414285Y-12586742D02*
X16461904Y-12681980D01*
X16461904Y-12681980D02*
X16509523Y-12729600D01*
X16509523Y-12729600D02*
X16604761Y-12777219D01*
X16604761Y-12777219D02*
X16890475Y-12777219D01*
X16890475Y-12777219D02*
X16985713Y-12729600D01*
X16985713Y-12729600D02*
X17033332Y-12681980D01*
D11*
X16050000Y-11450000D02*
X16070000Y-11450000D01*
X16470000Y-11450000D02*
X16490000Y-11450000D01*
X16890000Y-11450000D02*
X16910000Y-11450000D01*
X17310000Y-11450000D02*
X17330000Y-11450000D01*
X17730000Y-11450000D02*
X17750000Y-11450000D01*
X18150000Y-11450000D02*
X18170000Y-11450000D01*
X18350000Y-11450000D02*
X18350000Y-11470000D01*
X18350000Y-11870000D02*
X18350000Y-11890000D01*
X18350000Y-12290000D02*
X18350000Y-12310000D01*
X18350000Y-12710000D02*
X18350000Y-12730000D01*
X18350000Y-13130000D02*
X18350000Y-13150000D01*
X18350000Y-13200000D02*
X18330000Y-13200000D01*
X17930000Y-13200000D02*
X17910000Y-13200000D01*
X17510000Y-13200000D02*
X17490000Y-13200000D01*
X17090000Y-13200000D02*
X17070000Y-13200000D01*
X16670000Y-13200000D02*
X16650000Y-13200000D01*
X16250000Y-13200000D02*
X16230000Y-13200000D01*
X16050000Y-13200000D02*
X16050000Y-13180000D01*
X16050000Y-12780000D02*
X16050000Y-12760000D01*
X16050000Y-12360000D02*
X16050000Y-12340000D01*
X16050000Y-11940000D02*
X16050000Y-11920000D01*
X16050000Y-11520000D02*
X16050000Y-11500000D01*
D10*
X4983332Y-8682219D02*
X4649999Y-9682219D01*
X4649999Y-9682219D02*
X4316666Y-8682219D01*
X3411904Y-9586980D02*
X3459523Y-9634600D01*
X3459523Y-9634600D02*
X3602380Y-9682219D01*
X3602380Y-9682219D02*
X3697618Y-9682219D01*
X3697618Y-9682219D02*
X3840475Y-9634600D01*
X3840475Y-9634600D02*
X3935713Y-9539361D01*
X3935713Y-9539361D02*
X3983332Y-9444123D01*
X3983332Y-9444123D02*
X4030951Y-9253647D01*
X4030951Y-9253647D02*
X4030951Y-9110790D01*
X4030951Y-9110790D02*
X3983332Y-8920314D01*
X3983332Y-8920314D02*
X3935713Y-8825076D01*
X3935713Y-8825076D02*
X3840475Y-8729838D01*
X3840475Y-8729838D02*
X3697618Y-8682219D01*
X3697618Y-8682219D02*
X3602380Y-8682219D01*
X3602380Y-8682219D02*
X3459523Y-8729838D01*
X3459523Y-8729838D02*
X3411904Y-8777457D01*
X2411904Y-9586980D02*
X2459523Y-9634600D01*
X2459523Y-9634600D02*
X2602380Y-9682219D01*
X2602380Y-9682219D02*
X2697618Y-9682219D01*
X2697618Y-9682219D02*
X2840475Y-9634600D01*
X2840475Y-9634600D02*
X2935713Y-9539361D01*
X2935713Y-9539361D02*
X2983332Y-9444123D01*
X2983332Y-9444123D02*
X3030951Y-9253647D01*
X3030951Y-9253647D02*
X3030951Y-9110790D01*
X3030951Y-9110790D02*
X2983332Y-8920314D01*
X2983332Y-8920314D02*
X2935713Y-8825076D01*
X2935713Y-8825076D02*
X2840475Y-8729838D01*
X2840475Y-8729838D02*
X2697618Y-8682219D01*
X2697618Y-8682219D02*
X2602380Y-8682219D01*
X2602380Y-8682219D02*
X2459523Y-8729838D01*
X2459523Y-8729838D02*
X2411904Y-8777457D01*
D11*
X1900000Y-8355000D02*
X1920000Y-8355000D01*
X2320000Y-8355000D02*
X2340000Y-8355000D01*
X2740000Y-8355000D02*
X2760000Y-8355000D01*
X3160000Y-8355000D02*
X3180000Y-8355000D01*
X3580000Y-8355000D02*
X3600000Y-8355000D01*
X4000000Y-8355000D02*
X4020000Y-8355000D01*
X4420000Y-8355000D02*
X4440000Y-8355000D01*
X4840000Y-8355000D02*
X4860000Y-8355000D01*
X5260000Y-8355000D02*
X5280000Y-8355000D01*
X5400000Y-8355000D02*
X5400000Y-8375000D01*
X5400000Y-8775000D02*
X5400000Y-8795000D01*
X5400000Y-9195000D02*
X5400000Y-9215000D01*
X5400000Y-9615000D02*
X5400000Y-9635000D01*
X5400000Y-10035000D02*
X5400000Y-10055000D01*
X5400000Y-10105000D02*
X5380000Y-10105000D01*
X4980000Y-10105000D02*
X4960000Y-10105000D01*
X4560000Y-10105000D02*
X4540000Y-10105000D01*
X4140000Y-10105000D02*
X4120000Y-10105000D01*
X3720000Y-10105000D02*
X3700000Y-10105000D01*
X3300000Y-10105000D02*
X3280000Y-10105000D01*
X2880000Y-10105000D02*
X2860000Y-10105000D01*
X2460000Y-10105000D02*
X2440000Y-10105000D01*
X2040000Y-10105000D02*
X2020000Y-10105000D01*
X1900000Y-10105000D02*
X1900000Y-10085000D01*
X1900000Y-9685000D02*
X1900000Y-9665000D01*
X1900000Y-9265000D02*
X1900000Y-9245000D01*
X1900000Y-8845000D02*
X1900000Y-8825000D01*
X1900000Y-8425000D02*
X1900000Y-8405000D01*
X54666666Y-11865752D02*
X54285714Y-11865752D01*
X54607143Y-12532419D02*
X54500000Y-11675276D01*
X54500000Y-11675276D02*
X54440476Y-11580038D01*
X54440476Y-11580038D02*
X54339286Y-11532419D01*
X54339286Y-11532419D02*
X54244047Y-11532419D01*
X53648809Y-12484800D02*
X53749999Y-12532419D01*
X53749999Y-12532419D02*
X53940476Y-12532419D01*
X53940476Y-12532419D02*
X54029761Y-12484800D01*
X54029761Y-12484800D02*
X54065476Y-12389561D01*
X54065476Y-12389561D02*
X54017857Y-12008609D01*
X54017857Y-12008609D02*
X53958333Y-11913371D01*
X53958333Y-11913371D02*
X53857142Y-11865752D01*
X53857142Y-11865752D02*
X53666666Y-11865752D01*
X53666666Y-11865752D02*
X53577380Y-11913371D01*
X53577380Y-11913371D02*
X53541666Y-12008609D01*
X53541666Y-12008609D02*
X53553571Y-12103847D01*
X53553571Y-12103847D02*
X54041666Y-12199085D01*
X53035714Y-12532419D02*
X53124999Y-12484800D01*
X53124999Y-12484800D02*
X53160714Y-12389561D01*
X53160714Y-12389561D02*
X53053571Y-11532419D01*
X52714284Y-11865752D02*
X52333332Y-11865752D01*
X52529761Y-11532419D02*
X52636904Y-12389561D01*
X52636904Y-12389561D02*
X52601189Y-12484800D01*
X52601189Y-12484800D02*
X52511904Y-12532419D01*
X52511904Y-12532419D02*
X52416665Y-12532419D01*
X52083332Y-12532419D02*
X51999998Y-11865752D01*
X51958332Y-11532419D02*
X52011903Y-11580038D01*
X52011903Y-11580038D02*
X51970236Y-11627657D01*
X51970236Y-11627657D02*
X51916665Y-11580038D01*
X51916665Y-11580038D02*
X51958332Y-11532419D01*
X51958332Y-11532419D02*
X51970236Y-11627657D01*
X51220237Y-12484800D02*
X51321427Y-12532419D01*
X51321427Y-12532419D02*
X51511904Y-12532419D01*
X51511904Y-12532419D02*
X51601189Y-12484800D01*
X51601189Y-12484800D02*
X51636904Y-12389561D01*
X51636904Y-12389561D02*
X51589285Y-12008609D01*
X51589285Y-12008609D02*
X51529761Y-11913371D01*
X51529761Y-11913371D02*
X51428570Y-11865752D01*
X51428570Y-11865752D02*
X51238094Y-11865752D01*
X51238094Y-11865752D02*
X51148808Y-11913371D01*
X51148808Y-11913371D02*
X51113094Y-12008609D01*
X51113094Y-12008609D02*
X51124999Y-12103847D01*
X51124999Y-12103847D02*
X51613094Y-12199085D01*
X50749999Y-12532419D02*
X50666665Y-11865752D01*
X50690475Y-12056228D02*
X50630951Y-11960990D01*
X50630951Y-11960990D02*
X50577380Y-11913371D01*
X50577380Y-11913371D02*
X50476189Y-11865752D01*
X50476189Y-11865752D02*
X50380951Y-11865752D01*
X50065474Y-11627657D02*
X50011903Y-11580038D01*
X50011903Y-11580038D02*
X49910713Y-11532419D01*
X49910713Y-11532419D02*
X49672617Y-11532419D01*
X49672617Y-11532419D02*
X49583332Y-11580038D01*
X49583332Y-11580038D02*
X49541665Y-11627657D01*
X49541665Y-11627657D02*
X49505951Y-11722895D01*
X49505951Y-11722895D02*
X49517855Y-11818133D01*
X49517855Y-11818133D02*
X49583332Y-11960990D01*
X49583332Y-11960990D02*
X50226189Y-12532419D01*
X50226189Y-12532419D02*
X49607141Y-12532419D01*
X49750000Y-11200000D02*
X49770000Y-11200000D01*
X50170000Y-11200000D02*
X50190000Y-11200000D01*
X50590000Y-11200000D02*
X50610000Y-11200000D01*
X51010000Y-11200000D02*
X51030000Y-11200000D01*
X51430000Y-11200000D02*
X51450000Y-11200000D01*
X51850000Y-11200000D02*
X51870000Y-11200000D01*
X52270000Y-11200000D02*
X52290000Y-11200000D01*
X52690000Y-11200000D02*
X52710000Y-11200000D01*
X53110000Y-11200000D02*
X53130000Y-11200000D01*
X53530000Y-11200000D02*
X53550000Y-11200000D01*
X53950000Y-11200000D02*
X53970000Y-11200000D01*
X54370000Y-11200000D02*
X54390000Y-11200000D01*
X54500000Y-11200000D02*
X54500000Y-11220000D01*
X54500000Y-11620000D02*
X54500000Y-11640000D01*
X54500000Y-12040000D02*
X54500000Y-12060000D01*
X54500000Y-12460000D02*
X54500000Y-12480000D01*
X54500000Y-12880000D02*
X54500000Y-12900000D01*
X54500000Y-12950000D02*
X54480000Y-12950000D01*
X54080000Y-12950000D02*
X54060000Y-12950000D01*
X53660000Y-12950000D02*
X53640000Y-12950000D01*
X53240000Y-12950000D02*
X53220000Y-12950000D01*
X52820000Y-12950000D02*
X52800000Y-12950000D01*
X52400000Y-12950000D02*
X52380000Y-12950000D01*
X51980000Y-12950000D02*
X51960000Y-12950000D01*
X51560000Y-12950000D02*
X51540000Y-12950000D01*
X51140000Y-12950000D02*
X51120000Y-12950000D01*
X50720000Y-12950000D02*
X50700000Y-12950000D01*
X50300000Y-12950000D02*
X50280000Y-12950000D01*
X49880000Y-12950000D02*
X49860000Y-12950000D01*
X49750000Y-12950000D02*
X49750000Y-12930000D01*
X49750000Y-12530000D02*
X49750000Y-12510000D01*
X49750000Y-12110000D02*
X49750000Y-12090000D01*
X49750000Y-11690000D02*
X49750000Y-11670000D01*
X49750000Y-11270000D02*
X49750000Y-11250000D01*
D12*
X7132889Y-44537142D02*
X7958389Y-44537142D01*
X7958389Y-44537142D02*
X8123489Y-44482109D01*
X8123489Y-44482109D02*
X8233556Y-44372042D01*
X8233556Y-44372042D02*
X8288589Y-44206942D01*
X8288589Y-44206942D02*
X8288589Y-44096876D01*
X8288589Y-45087475D02*
X7132889Y-45087475D01*
X7132889Y-45087475D02*
X7132889Y-45527742D01*
X7132889Y-45527742D02*
X7187922Y-45637809D01*
X7187922Y-45637809D02*
X7242956Y-45692842D01*
X7242956Y-45692842D02*
X7353022Y-45747875D01*
X7353022Y-45747875D02*
X7518122Y-45747875D01*
X7518122Y-45747875D02*
X7628189Y-45692842D01*
X7628189Y-45692842D02*
X7683222Y-45637809D01*
X7683222Y-45637809D02*
X7738256Y-45527742D01*
X7738256Y-45527742D02*
X7738256Y-45087475D01*
X7242956Y-46188142D02*
X7187922Y-46243175D01*
X7187922Y-46243175D02*
X7132889Y-46353242D01*
X7132889Y-46353242D02*
X7132889Y-46628409D01*
X7132889Y-46628409D02*
X7187922Y-46738475D01*
X7187922Y-46738475D02*
X7242956Y-46793509D01*
X7242956Y-46793509D02*
X7353022Y-46848542D01*
X7353022Y-46848542D02*
X7463089Y-46848542D01*
X7463089Y-46848542D02*
X7628189Y-46793509D01*
X7628189Y-46793509D02*
X8288589Y-46133109D01*
X8288589Y-46133109D02*
X8288589Y-46848542D01*
X7129363Y-51469552D02*
X7129363Y-50644052D01*
X7129363Y-50644052D02*
X7074330Y-50478952D01*
X7074330Y-50478952D02*
X6964263Y-50368886D01*
X6964263Y-50368886D02*
X6799163Y-50313852D01*
X6799163Y-50313852D02*
X6689097Y-50313852D01*
X7679696Y-50313852D02*
X7679696Y-51469552D01*
X7679696Y-51469552D02*
X8119963Y-51469552D01*
X8119963Y-51469552D02*
X8230030Y-51414519D01*
X8230030Y-51414519D02*
X8285063Y-51359486D01*
X8285063Y-51359486D02*
X8340096Y-51249419D01*
X8340096Y-51249419D02*
X8340096Y-51084319D01*
X8340096Y-51084319D02*
X8285063Y-50974252D01*
X8285063Y-50974252D02*
X8230030Y-50919219D01*
X8230030Y-50919219D02*
X8119963Y-50864186D01*
X8119963Y-50864186D02*
X7679696Y-50864186D01*
X9385730Y-51469552D02*
X8835396Y-51469552D01*
X8835396Y-51469552D02*
X8780363Y-50919219D01*
X8780363Y-50919219D02*
X8835396Y-50974252D01*
X8835396Y-50974252D02*
X8945463Y-51029286D01*
X8945463Y-51029286D02*
X9220630Y-51029286D01*
X9220630Y-51029286D02*
X9330696Y-50974252D01*
X9330696Y-50974252D02*
X9385730Y-50919219D01*
X9385730Y-50919219D02*
X9440763Y-50809152D01*
X9440763Y-50809152D02*
X9440763Y-50533986D01*
X9440763Y-50533986D02*
X9385730Y-50423919D01*
X9385730Y-50423919D02*
X9330696Y-50368886D01*
X9330696Y-50368886D02*
X9220630Y-50313852D01*
X9220630Y-50313852D02*
X8945463Y-50313852D01*
X8945463Y-50313852D02*
X8835396Y-50368886D01*
X8835396Y-50368886D02*
X8780363Y-50423919D01*
D13*
%TO.C,JP2*%
X3985000Y-40082673D02*
X3985000Y-41352673D01*
X3985000Y-41352673D02*
X4620000Y-41987673D01*
X3985000Y-42622673D02*
X3985000Y-43892673D01*
X3985000Y-43892673D02*
X4620000Y-44527673D01*
X3985000Y-45162673D02*
X3985000Y-46432673D01*
X4620000Y-39447673D02*
X3985000Y-40082673D01*
X4620000Y-41987673D02*
X3985000Y-42622673D01*
X4620000Y-44527673D02*
X3985000Y-45162673D01*
X4620000Y-47067673D02*
X3985000Y-46432673D01*
X5890000Y-39447673D02*
X4620000Y-39447673D01*
X5890000Y-41987673D02*
X6525000Y-41352673D01*
X5890000Y-44527673D02*
X6525000Y-43892673D01*
X5890000Y-47067673D02*
X4620000Y-47067673D01*
X6525000Y-40082673D02*
X5890000Y-39447673D01*
X6525000Y-41352673D02*
X6525000Y-40082673D01*
X6525000Y-42622673D02*
X5890000Y-41987673D01*
X6525000Y-43892673D02*
X6525000Y-42622673D01*
X6525000Y-45162673D02*
X5890000Y-44527673D01*
X6525000Y-46432673D02*
X5890000Y-47067673D01*
X6525000Y-46432673D02*
X6525000Y-45162673D01*
%TO.C,JP4*%
X11605000Y-40082673D02*
X11605000Y-41352673D01*
X11605000Y-41352673D02*
X12240000Y-41987673D01*
X11605000Y-42622673D02*
X11605000Y-43892673D01*
X11605000Y-43892673D02*
X12240000Y-44527673D01*
X11605000Y-45162673D02*
X11605000Y-46432673D01*
X12240000Y-39447673D02*
X11605000Y-40082673D01*
X12240000Y-41987673D02*
X11605000Y-42622673D01*
X12240000Y-44527673D02*
X11605000Y-45162673D01*
X12240000Y-47067673D02*
X11605000Y-46432673D01*
X13510000Y-39447673D02*
X12240000Y-39447673D01*
X13510000Y-41987673D02*
X14145000Y-41352673D01*
X13510000Y-44527673D02*
X14145000Y-43892673D01*
X13510000Y-47067673D02*
X12240000Y-47067673D01*
X14145000Y-40082673D02*
X13510000Y-39447673D01*
X14145000Y-41352673D02*
X14145000Y-40082673D01*
X14145000Y-42622673D02*
X13510000Y-41987673D01*
X14145000Y-43892673D02*
X14145000Y-42622673D01*
X14145000Y-45162673D02*
X13510000Y-44527673D01*
X14145000Y-46432673D02*
X13510000Y-47067673D01*
X14145000Y-46432673D02*
X14145000Y-45162673D01*
%TO.C,JP5*%
X6525000Y-47702673D02*
X7160000Y-47067673D01*
X6525000Y-48972673D02*
X6525000Y-47702673D01*
X7160000Y-49607673D02*
X6525000Y-48972673D01*
X7160000Y-49607673D02*
X8430000Y-49607673D01*
X8430000Y-47067673D02*
X7160000Y-47067673D01*
X8430000Y-49607673D02*
X9065000Y-48972673D01*
X9065000Y-47702673D02*
X8430000Y-47067673D01*
X9065000Y-48972673D02*
X9700000Y-49607673D01*
X9700000Y-47067673D02*
X9065000Y-47702673D01*
X9700000Y-49607673D02*
X10970000Y-49607673D01*
X10970000Y-47067673D02*
X9700000Y-47067673D01*
X10970000Y-49607673D02*
X11605000Y-48972673D01*
X11605000Y-47702673D02*
X10970000Y-47067673D01*
X11605000Y-48972673D02*
X11605000Y-47702673D01*
%TD*%
M02*
