%TF.GenerationSoftware,KiCad,Pcbnew,9.0.2*%
%TF.CreationDate,2025-06-04T23:53:16+09:00*%
%TF.ProjectId,__,78912e6b-6963-4616-945f-706362585858,rev?*%
%TF.SameCoordinates,Original*%
%TF.FileFunction,Copper,L1,Top*%
%TF.FilePolarity,Positive*%
%FSLAX46Y46*%
G04 Gerber Fmt 4.6, Leading zero omitted, Abs format (unit mm)*
G04 Created by KiCad (PCBNEW 9.0.2) date 2025-06-04 23:53:16*
%MOMM*%
%LPD*%
G01*
G04 APERTURE LIST*
G04 Aperture macros list*
%AMRoundRect*
0 Rectangle with rounded corners*
0 $1 Rounding radius*
0 $2 $3 $4 $5 $6 $7 $8 $9 X,Y pos of 4 corners*
0 Add a 4 corners polygon primitive as box body*
4,1,4,$2,$3,$4,$5,$6,$7,$8,$9,$2,$3,0*
0 Add four circle primitives for the rounded corners*
1,1,$1+$1,$2,$3*
1,1,$1+$1,$4,$5*
1,1,$1+$1,$6,$7*
1,1,$1+$1,$8,$9*
0 Add four rect primitives between the rounded corners*
20,1,$1+$1,$2,$3,$4,$5,0*
20,1,$1+$1,$4,$5,$6,$7,0*
20,1,$1+$1,$6,$7,$8,$9,0*
20,1,$1+$1,$8,$9,$2,$3,0*%
G04 Aperture macros list end*
%TA.AperFunction,SMDPad,CuDef*%
%ADD10RoundRect,0.300000X-1.200000X-0.700000X1.200000X-0.700000X1.200000X0.700000X-1.200000X0.700000X0*%
%TD*%
%TA.AperFunction,ComponentPad*%
%ADD11R,1.350000X1.350000*%
%TD*%
%TA.AperFunction,ComponentPad*%
%ADD12C,1.350000*%
%TD*%
%TA.AperFunction,ComponentPad*%
%ADD13C,1.905000*%
%TD*%
%TA.AperFunction,ComponentPad*%
%ADD14C,1.879600*%
%TD*%
%TA.AperFunction,ViaPad*%
%ADD15C,0.600000*%
%TD*%
%TA.AperFunction,Conductor*%
%ADD16C,0.200000*%
%TD*%
G04 APERTURE END LIST*
D10*
%TO.P,,A*%
%TO.N,GND*%
X52900000Y-5275000D03*
%TD*%
%TO.P,PAD,A*%
%TO.N,COOLER_PIN*%
X52950000Y-15950000D03*
%TD*%
%TO.P,PAD,A*%
%TO.N,HEATER_PIN*%
X52950000Y-12050000D03*
%TD*%
D11*
%TO.P,Sensors,1*%
%TO.N,Sensors*%
X37525000Y-3900000D03*
D12*
%TO.P,Sensors,2*%
%TO.N,VCC*%
X35525000Y-3900000D03*
%TO.P,Sensors,3*%
%TO.N,GND*%
X33525000Y-3900000D03*
%TD*%
D10*
%TO.P,,A*%
%TO.N,feltier2*%
X53000000Y-19850000D03*
%TD*%
%TO.P,,A*%
%TO.N,VCC*%
X21650000Y-52600000D03*
%TD*%
%TO.P,,A*%
%TO.N,5V*%
X52900000Y-1850000D03*
%TD*%
%TO.P,PAD,A*%
%TO.N,ACTIVEPIN*%
X53000000Y-23550000D03*
%TD*%
D12*
%TO.P,Button,1*%
%TO.N,GND*%
X7080000Y-7160000D03*
%TO.P,Button,2*%
%TO.N,VCC*%
X7080000Y-9160000D03*
%TO.P,Button,3*%
%TO.N,BOOT*%
X7080000Y-11160000D03*
%TO.P,Button,4*%
%TO.N,UP*%
X7080000Y-13160000D03*
%TO.P,Button,5*%
%TO.N,DOWN*%
X7080000Y-15160000D03*
%TD*%
D10*
%TO.P,PAD,A*%
%TO.N,5V*%
X52550000Y-52600000D03*
%TD*%
D13*
%TO.P,ESP32-C3
SuperMini,0*%
%TO.N,feltier1*%
X29700000Y-25040000D03*
%TO.P,ESP32-C3
SuperMini,1*%
%TO.N,COOLER_PIN*%
X29700000Y-22500000D03*
%TO.P,ESP32-C3
SuperMini,2*%
%TO.N,HEATER_PIN*%
X29700000Y-19960000D03*
%TO.P,ESP32-C3
SuperMini,3*%
%TO.N,HPIN*%
X29700000Y-17420000D03*
%TO.P,ESP32-C3
SuperMini,3.3*%
%TO.N,VCC*%
X29700000Y-12340000D03*
%TO.P,ESP32-C3
SuperMini,4*%
%TO.N,Sensors*%
X29700000Y-14880000D03*
%TO.P,ESP32-C3
SuperMini,5*%
%TO.N,BOOT*%
X14460000Y-7260000D03*
%TO.P,ESP32-C3
SuperMini,5V*%
%TO.N,N/C*%
X29700000Y-7260000D03*
%TO.P,ESP32-C3
SuperMini,6*%
%TO.N,UP*%
X14460000Y-9800000D03*
%TO.P,ESP32-C3
SuperMini,7*%
%TO.N,DOWN*%
X14460000Y-12340000D03*
%TO.P,ESP32-C3
SuperMini,8*%
%TO.N,SDA*%
X14460000Y-14880000D03*
%TO.P,ESP32-C3
SuperMini,9*%
%TO.N,SCL*%
X14460000Y-17420000D03*
%TO.P,ESP32-C3
SuperMini,10*%
%TO.N,COOLING*%
X14460000Y-19960000D03*
%TO.P,ESP32-C3
SuperMini,20*%
%TO.N,feltier2*%
X14460000Y-22500000D03*
%TO.P,ESP32-C3
SuperMini,21*%
%TO.N,ACTIVEPIN*%
X14460000Y-25040000D03*
%TO.P,ESP32-C3
SuperMini,G*%
%TO.N,GND*%
X29700000Y-9800000D03*
%TD*%
D10*
%TO.P,,A*%
%TO.N,GND*%
X21650000Y-40000000D03*
%TD*%
D12*
%TO.P,Display / I2C Bus,1*%
%TO.N,GND*%
X7080000Y-22160000D03*
%TO.P,Display / I2C Bus,2*%
%TO.N,VCC*%
X7080000Y-24160000D03*
%TO.P,Display / I2C Bus,3*%
%TO.N,SDA*%
X7080000Y-26160000D03*
%TO.P,Display / I2C Bus,4*%
%TO.N,SCL*%
X7080000Y-28160000D03*
%TD*%
D10*
%TO.P,,A*%
%TO.N,HPIN*%
X52900000Y-8700000D03*
%TD*%
%TO.P,,A*%
%TO.N,GND*%
X52550000Y-40000000D03*
%TD*%
D14*
%TO.P,JP2,1*%
%TO.N,SDA*%
X5255000Y-45797673D03*
%TO.P,JP2,2*%
%TO.N,SCL*%
X5255000Y-43257673D03*
%TO.P,JP2,3*%
%TO.N,QST*%
X5255000Y-40717673D03*
%TD*%
%TO.P,JP4,1*%
%TO.N,VCC*%
X12875000Y-45797673D03*
%TO.P,JP4,2*%
%TO.N,GND*%
X12875000Y-43257673D03*
%TO.P,JP4,3*%
%TO.N,ALT*%
X12875000Y-40717673D03*
%TD*%
%TO.P,JP5,1*%
%TO.N,VCC*%
X7795000Y-48337673D03*
%TO.P,JP5,2*%
%TO.N,GND*%
X10335000Y-48337673D03*
%TD*%
D15*
%TO.N,VCC*%
X17400000Y-33900000D03*
X7100000Y-19600000D03*
%TO.N,SDA*%
X9450000Y-34525000D03*
%TO.N,GND*%
X46250000Y-24800000D03*
X46250000Y-6400000D03*
%TO.N,SCL*%
X7700000Y-34525000D03*
%TO.N,feltier2*%
X42550000Y-29525000D03*
%TO.N,HPIN*%
X40350000Y-8750000D03*
%TO.N,HEATER_PIN*%
X39000000Y-19960000D03*
%TO.N,COOLER_PIN*%
X40750000Y-22500000D03*
%TO.N,ACTIVEPIN*%
X43825000Y-30400000D03*
%TD*%
D16*
%TO.N,GND*%
X35675000Y-12000000D02*
X33475000Y-9800000D01*
X33475000Y-9800000D02*
X29700000Y-9800000D01*
X35675000Y-31925000D02*
X35675000Y-12000000D01*
%TO.N,ACTIVEPIN*%
X43825000Y-23550000D02*
X52300000Y-23550000D01*
X43825000Y-30400000D02*
X43825000Y-23550000D01*
%TO.N,VCC*%
X33900000Y-13700000D02*
X33900000Y-30200000D01*
X32540000Y-12340000D02*
X33900000Y-13700000D01*
X21000000Y-30300000D02*
X17400000Y-33900000D01*
X12307327Y-52850000D02*
X7795000Y-48337673D01*
X29700000Y-12340000D02*
X22160000Y-4800000D01*
X33800000Y-30300000D02*
X21000000Y-30300000D01*
X29700000Y-12340000D02*
X32540000Y-12340000D01*
X21400000Y-52850000D02*
X12307327Y-52850000D01*
X7100000Y-19600000D02*
X9000000Y-19600000D01*
X22160000Y-4800000D02*
X11440000Y-4800000D01*
X9000000Y-19600000D02*
X9000000Y-22400000D01*
X21650000Y-52600000D02*
X21400000Y-52850000D01*
X33900000Y-30200000D02*
X33800000Y-30300000D01*
X11440000Y-4800000D02*
X7080000Y-9160000D01*
X9000000Y-22400000D02*
X7200000Y-24200000D01*
%TO.N,SDA*%
X5702327Y-45797673D02*
X9450000Y-42050000D01*
X7080000Y-26160000D02*
X8360000Y-26160000D01*
X8360000Y-26160000D02*
X9720000Y-24800000D01*
X5255000Y-45797673D02*
X5702327Y-45797673D01*
X9720000Y-24800000D02*
X9720000Y-16800000D01*
X11640000Y-14880000D02*
X14460000Y-14880000D01*
X9720000Y-16800000D02*
X11640000Y-14880000D01*
X9450000Y-42050000D02*
X9450000Y-34525000D01*
%TO.N,GND*%
X15067327Y-43257673D02*
X16300000Y-42025000D01*
X20750000Y-31950000D02*
X35650000Y-31950000D01*
X16300000Y-42025000D02*
X16300000Y-36400000D01*
X16300000Y-36400000D02*
X20750000Y-31950000D01*
X19325000Y-51800000D02*
X19275000Y-51850000D01*
X46300000Y-40000000D02*
X51750000Y-40000000D01*
X19325000Y-42325000D02*
X19325000Y-51800000D01*
X11080000Y-3160000D02*
X23060000Y-3160000D01*
X46250000Y-6400000D02*
X47400000Y-5250000D01*
X47400000Y-5250000D02*
X51800000Y-5250000D01*
X21650000Y-40000000D02*
X19325000Y-42325000D01*
X33575000Y-3950000D02*
X33525000Y-3900000D01*
X46250000Y-39950000D02*
X46300000Y-40000000D01*
X19275000Y-51850000D02*
X13847327Y-51850000D01*
X12875000Y-43257673D02*
X15067327Y-43257673D01*
X7080000Y-7160000D02*
X11080000Y-3160000D01*
X12875000Y-43257673D02*
X12140346Y-43257673D01*
X46250000Y-24800000D02*
X46250000Y-39950000D01*
X13847327Y-51850000D02*
X10335000Y-48337673D01*
X29700000Y-9800000D02*
X23060000Y-3160000D01*
%TO.N,SCL*%
X5255000Y-43257673D02*
X5942327Y-43257673D01*
X11100000Y-17420000D02*
X14460000Y-17420000D01*
X10720000Y-17800000D02*
X11100000Y-17420000D01*
X10720000Y-25800000D02*
X10720000Y-17800000D01*
X7080000Y-28160000D02*
X8360000Y-28160000D01*
X7700000Y-41500000D02*
X7700000Y-34525000D01*
X5942327Y-43257673D02*
X7700000Y-41500000D01*
X8360000Y-28160000D02*
X10720000Y-25800000D01*
%TO.N,feltier2*%
X42550000Y-29525000D02*
X42550000Y-19800000D01*
X42550000Y-19800000D02*
X52950000Y-19800000D01*
%TO.N,HPIN*%
X40350000Y-8750000D02*
X52600000Y-8750000D01*
%TO.N,HEATER_PIN*%
X42700000Y-12100000D02*
X52900000Y-12100000D01*
X39000000Y-15800000D02*
X42700000Y-12100000D01*
X51850000Y-11950000D02*
X51950000Y-11850000D01*
X52900000Y-12100000D02*
X52950000Y-12050000D01*
X39000000Y-19960000D02*
X39000000Y-15800000D01*
%TO.N,COOLER_PIN*%
X53350000Y-15850000D02*
X53050000Y-15850000D01*
X40750000Y-15950000D02*
X52950000Y-15950000D01*
X53250000Y-15950000D02*
X53350000Y-15850000D01*
X40750000Y-22500000D02*
X40750000Y-15950000D01*
X29880000Y-22680000D02*
X29700000Y-22500000D01*
X53050000Y-15850000D02*
X52750000Y-16150000D01*
%TO.N,5V*%
X37400000Y-44025000D02*
X37400000Y-7225000D01*
X52050000Y-52500000D02*
X52050000Y-52750000D01*
X47400000Y-1850000D02*
X52900000Y-1850000D01*
X42025000Y-7225000D02*
X47400000Y-1850000D01*
X37400000Y-7225000D02*
X42025000Y-7225000D01*
X46350000Y-52975000D02*
X37400000Y-44025000D01*
X46375000Y-53000000D02*
X51550000Y-53000000D01*
%TO.N,DOWN*%
X9900000Y-12340000D02*
X14460000Y-12340000D01*
X7080000Y-15160000D02*
X9900000Y-12340000D01*
%TO.N,UP*%
X10440000Y-9800000D02*
X14460000Y-9800000D01*
X7080000Y-13160000D02*
X10440000Y-9800000D01*
%TO.N,BOOT*%
X7080000Y-11160000D02*
X10980000Y-7260000D01*
X10980000Y-7260000D02*
X14460000Y-7260000D01*
%TO.N,feltier1*%
X29765000Y-24975000D02*
X29700000Y-25040000D01*
%TD*%
M02*
