%TF.GenerationSoftware,KiCad,Pcbnew,9.0.2*%
%TF.CreationDate,2025-06-08T01:04:18+09:00*%
%TF.ProjectId,__,78912e6b-6963-4616-945f-706362585858,rev?*%
%TF.SameCoordinates,Original*%
%TF.FileFunction,Copper,L1,Top*%
%TF.FilePolarity,Positive*%
%FSLAX46Y46*%
G04 Gerber Fmt 4.6, Leading zero omitted, Abs format (unit mm)*
G04 Created by KiCad (PCBNEW 9.0.2) date 2025-06-08 01:04:18*
%MOMM*%
%LPD*%
G01*
G04 APERTURE LIST*
G04 Aperture macros list*
%AMRoundRect*
0 Rectangle with rounded corners*
0 $1 Rounding radius*
0 $2 $3 $4 $5 $6 $7 $8 $9 X,Y pos of 4 corners*
0 Add a 4 corners polygon primitive as box body*
4,1,4,$2,$3,$4,$5,$6,$7,$8,$9,$2,$3,0*
0 Add four circle primitives for the rounded corners*
1,1,$1+$1,$2,$3*
1,1,$1+$1,$4,$5*
1,1,$1+$1,$6,$7*
1,1,$1+$1,$8,$9*
0 Add four rect primitives between the rounded corners*
20,1,$1+$1,$2,$3,$4,$5,0*
20,1,$1+$1,$4,$5,$6,$7,0*
20,1,$1+$1,$6,$7,$8,$9,0*
20,1,$1+$1,$8,$9,$2,$3,0*%
G04 Aperture macros list end*
%TA.AperFunction,ComponentPad*%
%ADD10C,2.000000*%
%TD*%
%TA.AperFunction,ComponentPad*%
%ADD11C,1.879600*%
%TD*%
%TA.AperFunction,ComponentPad*%
%ADD12C,1.350000*%
%TD*%
%TA.AperFunction,ComponentPad*%
%ADD13R,1.350000X1.350000*%
%TD*%
%TA.AperFunction,SMDPad,CuDef*%
%ADD14RoundRect,0.300000X-1.200000X-0.700000X1.200000X-0.700000X1.200000X0.700000X-1.200000X0.700000X0*%
%TD*%
%TA.AperFunction,ComponentPad*%
%ADD15C,1.905000*%
%TD*%
%TA.AperFunction,ViaPad*%
%ADD16C,2.000000*%
%TD*%
%TA.AperFunction,Conductor*%
%ADD17C,0.200000*%
%TD*%
G04 APERTURE END LIST*
D10*
%TO.P,REF\u002A\u002A,Drain*%
%TO.N,N/C*%
X4855000Y-3520000D03*
%TO.P,REF\u002A\u002A,Gate*%
%TO.N,COOLING*%
X7355000Y-3520000D03*
%TO.P,REF\u002A\u002A,Source*%
%TO.N,N/C*%
X2355000Y-3520000D03*
%TD*%
%TO.P,REF\u002A\u002A,Drain*%
%TO.N,N/C*%
X4830000Y-13245000D03*
%TO.P,REF\u002A\u002A,Gate*%
%TO.N,feltier2*%
X7330000Y-13245000D03*
%TO.P,REF\u002A\u002A,Source*%
%TO.N,felPWM2*%
X2330000Y-13245000D03*
%TD*%
%TO.P,REF\u002A\u002A,Drain*%
%TO.N,N/C*%
X4805000Y-17845000D03*
%TO.P,REF\u002A\u002A,Gate*%
%TO.N,feltier3*%
X7305000Y-17845000D03*
%TO.P,REF\u002A\u002A,Source*%
%TO.N,felPWM3*%
X2305000Y-17845000D03*
%TD*%
%TO.P,REF\u002A\u002A,Drain*%
%TO.N,N/C*%
X4830000Y-8845000D03*
%TO.P,REF\u002A\u002A,Gate*%
%TO.N,feltier1*%
X7330000Y-8845000D03*
%TO.P,REF\u002A\u002A,Source*%
%TO.N,felPWM1*%
X2330000Y-8845000D03*
%TD*%
D11*
%TO.P,JP5,2*%
%TO.N,GND*%
X11470000Y-29275000D03*
%TO.P,JP5,1*%
%TO.N,VCC*%
X11470000Y-26735000D03*
%TD*%
%TO.P,JP4,3*%
%TO.N,ALT*%
X19090000Y-31815000D03*
%TO.P,JP4,2*%
%TO.N,GND*%
X16550000Y-31815000D03*
%TO.P,JP4,1*%
%TO.N,VCC*%
X14010000Y-31815000D03*
%TD*%
%TO.P,JP2,1*%
%TO.N,SDA*%
X14010000Y-24195000D03*
%TO.P,JP2,2*%
%TO.N,SCL*%
X16550000Y-24195000D03*
%TO.P,JP2,3*%
%TO.N,QST*%
X19090000Y-24195000D03*
%TD*%
D12*
%TO.P,Sensors,3*%
%TO.N,GND*%
X36705000Y-23170000D03*
%TO.P,Sensors,2*%
%TO.N,VCC*%
X34705000Y-23170000D03*
D13*
%TO.P,Sensors,1*%
%TO.N,Sensors*%
X32705000Y-23170000D03*
%TD*%
D12*
%TO.P,Button,1*%
%TO.N,GND*%
X36730000Y-27170000D03*
%TO.P,Button,2*%
%TO.N,VCC*%
X34730000Y-27170000D03*
%TO.P,Button,3*%
%TO.N,BOOT*%
X32730000Y-27170000D03*
%TO.P,Button,4*%
%TO.N,UP*%
X30730000Y-27170000D03*
%TO.P,Button,5*%
%TO.N,DOWN*%
X28730000Y-27170000D03*
%TD*%
D14*
%TO.P,,A*%
%TO.N,5V*%
X5905000Y-47495000D03*
%TD*%
%TO.P,,A*%
%TO.N,GND*%
X1955000Y-34895000D03*
%TD*%
%TO.P,,A*%
%TO.N,5V*%
X1955000Y-47495000D03*
%TD*%
%TO.P,PAD,A*%
%TO.N,VCC*%
X36805000Y-47495000D03*
%TD*%
%TO.P,,A*%
%TO.N,GND*%
X5905000Y-34895000D03*
%TD*%
D12*
%TO.P,Display / I2C Bus,1*%
%TO.N,GND*%
X36755000Y-31045000D03*
%TO.P,Display / I2C Bus,2*%
%TO.N,VCC*%
X34755000Y-31045000D03*
%TO.P,Display / I2C Bus,3*%
%TO.N,SDA*%
X32755000Y-31045000D03*
%TO.P,Display / I2C Bus,4*%
%TO.N,SCL*%
X30755000Y-31045000D03*
%TD*%
D14*
%TO.P,,A*%
%TO.N,GND*%
X36805000Y-34895000D03*
%TD*%
D15*
%TO.P,ESP32-C3
SuperMini,0*%
%TO.N,ACTIVEPIN*%
X19140000Y-19645000D03*
%TO.P,ESP32-C3
SuperMini,1*%
%TO.N,DOWN*%
X21680000Y-19645000D03*
%TO.P,ESP32-C3
SuperMini,2*%
%TO.N,UP*%
X24220000Y-19645000D03*
%TO.P,ESP32-C3
SuperMini,3*%
%TO.N,BOOT*%
X26760000Y-19645000D03*
%TO.P,ESP32-C3
SuperMini,3.3*%
%TO.N,VCC*%
X31840000Y-19645000D03*
%TO.P,ESP32-C3
SuperMini,4*%
%TO.N,Sensors*%
X29300000Y-19645000D03*
%TO.P,ESP32-C3
SuperMini,5*%
%TO.N,COOLER_PIN*%
X36920000Y-4405000D03*
%TO.P,ESP32-C3
SuperMini,5V*%
%TO.N,VCC*%
X36920000Y-19645000D03*
%TO.P,ESP32-C3
SuperMini,6*%
%TO.N,HEATER_PIN*%
X34380000Y-4405000D03*
%TO.P,ESP32-C3
SuperMini,7*%
%TO.N,COOLING*%
X31840000Y-4405000D03*
%TO.P,ESP32-C3
SuperMini,8*%
%TO.N,SDA*%
X29300000Y-4405000D03*
%TO.P,ESP32-C3
SuperMini,9*%
%TO.N,SCL*%
X26760000Y-4405000D03*
%TO.P,ESP32-C3
SuperMini,10*%
%TO.N,feltier3*%
X24220000Y-4405000D03*
%TO.P,ESP32-C3
SuperMini,20*%
%TO.N,feltier2*%
X21680000Y-4405000D03*
%TO.P,ESP32-C3
SuperMini,21*%
%TO.N,feltier1*%
X19140000Y-4405000D03*
%TO.P,ESP32-C3
SuperMini,G*%
%TO.N,GND*%
X34380000Y-19645000D03*
%TD*%
D16*
%TO.N,HEATER_PIN*%
X32730000Y-1420000D03*
%TO.N,ACTIVEPIN*%
X38180000Y-1470000D03*
%TO.N,COOLER_PIN*%
X35430000Y-1445000D03*
%TD*%
D17*
%TO.N,*%
X4805000Y-17845000D02*
X4830000Y-17820000D01*
X4855000Y-8820000D02*
X4830000Y-8845000D01*
X4855000Y-17795000D02*
X4805000Y-17845000D01*
%TO.N,COOLING*%
X28830000Y-1395000D02*
X9480000Y-1395000D01*
X9480000Y-1395000D02*
X7355000Y-3520000D01*
X31840000Y-4405000D02*
X28830000Y-1395000D01*
%TO.N,HEATER_PIN*%
X34380000Y-3070000D02*
X34380000Y-4405000D01*
X32730000Y-1420000D02*
X34380000Y-3070000D01*
%TO.N,COOLER_PIN*%
X36920000Y-2935000D02*
X36920000Y-4405000D01*
X35430000Y-1445000D02*
X36920000Y-2935000D01*
%TO.N,ACTIVEPIN*%
X38805000Y-5170000D02*
X38805000Y-2095000D01*
X38805000Y-2095000D02*
X38180000Y-1470000D01*
X31740000Y-7045000D02*
X36930000Y-7045000D01*
X19140000Y-19645000D02*
X31740000Y-7045000D01*
X36930000Y-7045000D02*
X38805000Y-5170000D01*
%TO.N,feltier1*%
X14700000Y-8845000D02*
X19140000Y-4405000D01*
X7330000Y-8845000D02*
X14700000Y-8845000D01*
%TO.N,feltier2*%
X7330000Y-13245000D02*
X12840000Y-13245000D01*
X12840000Y-13245000D02*
X21680000Y-4405000D01*
%TO.N,feltier3*%
X7305000Y-17845000D02*
X10780000Y-17845000D01*
%TO.N,feltier1*%
X7415000Y-8930000D02*
X7330000Y-8845000D01*
%TO.N,SDA*%
X19855000Y-21845000D02*
X16360000Y-21845000D01*
X30855000Y-29145000D02*
X27155000Y-29145000D01*
X32755000Y-31045000D02*
X30855000Y-29145000D01*
X27155000Y-29145000D02*
X19855000Y-21845000D01*
%TO.N,SCL*%
X12280000Y-24995000D02*
X12280000Y-18895000D01*
X12280000Y-18895000D02*
X26760000Y-4415000D01*
X13205000Y-25920000D02*
X12280000Y-24995000D01*
X14830000Y-25920000D02*
X13205000Y-25920000D01*
X16550000Y-24200000D02*
X14830000Y-25920000D01*
X16550000Y-24195000D02*
X16550000Y-24200000D01*
X26760000Y-4415000D02*
X26760000Y-4405000D01*
%TO.N,SDA*%
X16360000Y-17345000D02*
X29300000Y-4405000D01*
X16360000Y-21845000D02*
X16360000Y-17345000D01*
X16360000Y-21845000D02*
X14010000Y-24195000D01*
%TO.N,GND*%
X17705000Y-34895000D02*
X36805000Y-34895000D01*
X16550000Y-33740000D02*
X17705000Y-34895000D01*
X16550000Y-31815000D02*
X16550000Y-33740000D01*
%TO.N,VCC*%
X14010000Y-37750000D02*
X23705000Y-47445000D01*
X23705000Y-47445000D02*
X36755000Y-47445000D01*
X14010000Y-31815000D02*
X14010000Y-37750000D01*
X36755000Y-47445000D02*
X36805000Y-47495000D01*
%TO.N,SDA*%
X14010000Y-24200000D02*
X14010000Y-24195000D01*
%TO.N,SCL*%
X30755000Y-31045000D02*
X23400000Y-31045000D01*
X23400000Y-31045000D02*
X16550000Y-24195000D01*
%TO.N,UP*%
X24220000Y-20635000D02*
X24220000Y-19645000D01*
X30730000Y-27170000D02*
X30730000Y-27145000D01*
X30730000Y-27145000D02*
X24220000Y-20635000D01*
%TO.N,DOWN*%
X21680000Y-20120000D02*
X28730000Y-27170000D01*
X21680000Y-19645000D02*
X21680000Y-20120000D01*
%TO.N,BOOT*%
X26760000Y-21200000D02*
X32730000Y-27170000D01*
X26760000Y-19645000D02*
X26760000Y-21200000D01*
%TO.N,Sensors*%
X32705000Y-23050000D02*
X29300000Y-19645000D01*
X32705000Y-23170000D02*
X32705000Y-23050000D01*
%TO.N,GND*%
X36805000Y-31095000D02*
X36755000Y-31045000D01*
X36805000Y-34895000D02*
X36805000Y-31095000D01*
%TO.N,VCC*%
X31840000Y-20305000D02*
X34705000Y-23170000D01*
X31840000Y-19645000D02*
X31840000Y-20305000D01*
%TO.N,GND*%
X34380000Y-20845000D02*
X34380000Y-19645000D01*
X36705000Y-23170000D02*
X34380000Y-20845000D01*
%TO.N,VCC*%
X39305000Y-45120000D02*
X39305000Y-22045000D01*
X36920000Y-19660000D02*
X36920000Y-19645000D01*
X36930000Y-47495000D02*
X39305000Y-45120000D01*
X36805000Y-47495000D02*
X36930000Y-47495000D01*
X39305000Y-22045000D02*
X36920000Y-19660000D01*
%TO.N,SDA*%
X29300000Y-4425000D02*
X29300000Y-4405000D01*
%TO.N,GND*%
X36730000Y-31020000D02*
X36755000Y-31045000D01*
X36730000Y-27170000D02*
X36730000Y-31020000D01*
X36705000Y-27145000D02*
X36730000Y-27170000D01*
X36705000Y-23170000D02*
X36705000Y-27145000D01*
%TO.N,VCC*%
X34730000Y-31020000D02*
X34755000Y-31045000D01*
X34730000Y-27170000D02*
X34730000Y-31020000D01*
X34705000Y-27145000D02*
X34730000Y-27170000D01*
X34705000Y-23170000D02*
X34705000Y-27145000D01*
X36805000Y-47495000D02*
X36805000Y-46920000D01*
%TO.N,GND*%
X36801163Y-34898837D02*
X36805000Y-34895000D01*
X16550000Y-31815000D02*
X16550615Y-31814385D01*
%TO.N,VCC*%
X31840000Y-19645000D02*
X31840000Y-19155000D01*
%TO.N,feltier3*%
X24220000Y-4405000D02*
X24230000Y-4395000D01*
%TO.N,SCL*%
X16187673Y-24195000D02*
X16550000Y-24195000D01*
%TO.N,SDA*%
X14010000Y-24195000D02*
X14000615Y-24185615D01*
%TO.N,SCL*%
X16550000Y-24195000D02*
X16550000Y-24882327D01*
%TO.N,GND*%
X16470000Y-31895000D02*
X16550000Y-31815000D01*
%TO.N,VCC*%
X13930000Y-31895000D02*
X14010000Y-31815000D01*
%TO.N,GND*%
X16445000Y-31920000D02*
X16550000Y-31815000D01*
%TO.N,VCC*%
X14000000Y-31825000D02*
X14010000Y-31815000D01*
%TO.N,GND*%
X11460000Y-29285000D02*
X11470000Y-29275000D01*
%TO.N,VCC*%
X36920000Y-19705000D02*
X36930000Y-19695000D01*
%TO.N,GND*%
X34380000Y-19645000D02*
X34370000Y-19645000D01*
%TO.N,5V*%
X1955000Y-47495000D02*
X5905000Y-47495000D01*
%TO.N,GND*%
X1955000Y-34895000D02*
X5905000Y-34895000D01*
X34380000Y-19645000D02*
X34370000Y-19655000D01*
%TO.N,VCC*%
X36910000Y-19935000D02*
X36850000Y-19875000D01*
%TO.N,GND*%
X36805000Y-34895000D02*
X37055000Y-34645000D01*
X6405000Y-34995000D02*
X6405000Y-34745000D01*
%TO.N,feltier3*%
X24220000Y-4405000D02*
X10780000Y-17845000D01*
%TD*%
M02*
