M48
; DRILL file {KiCad 9.0.2} date 2025-06-09T22:50:50+0900
; FORMAT={-:-/ absolute / metric / decimal}
; #@! TF.CreationDate,2025-06-09T22:50:50+09:00
; #@! TF.GenerationSoftware,Kicad,Pcbnew,9.0.2
; #@! TF.FileFunction,Plated,1,2,PTH
FMAT,2
METRIC
; #@! TA.AperFunction,Plated,PTH,ViaDrill
T1C1.500
; #@! TA.AperFunction,Plated,PTH,ComponentDrill
T2C1.500
%
G90
G05
T1
X83.0Y-102.0
X85.5Y-102.0
X85.5Y-106.0
X88.0Y-98.75
X88.0Y-102.0
X88.0Y-106.0
X88.15Y-76.3
X90.5Y-98.75
X90.5Y-101.975
X90.5Y-106.0
X90.85Y-76.325
X93.0Y-98.75
X93.0Y-102.0
X93.0Y-106.0
X93.6Y-76.35
T2
X57.725Y-92.725
X57.75Y-83.725
X57.75Y-88.125
X57.775Y-78.4
X60.225Y-92.725
X60.25Y-83.725
X60.25Y-88.125
X60.275Y-78.4
X62.725Y-92.725
X62.75Y-83.725
X62.75Y-88.125
X62.775Y-78.4
X66.89Y-101.615
X66.89Y-104.155
X69.43Y-99.075
X69.43Y-106.695
X71.97Y-99.075
X71.97Y-106.695
X74.51Y-99.075
X74.51Y-106.695
X74.56Y-79.285
X74.56Y-94.525
X77.1Y-79.285
X77.1Y-94.525
X79.64Y-79.285
X79.64Y-94.525
X82.18Y-79.285
X82.18Y-94.525
X84.72Y-79.285
X84.72Y-94.525
X87.26Y-79.285
X87.26Y-94.525
X89.8Y-79.285
X89.8Y-94.525
X92.34Y-79.285
X92.34Y-94.525
M30
