%TF.GenerationSoftware,KiCad,Pcbnew,9.0.2*%
%TF.CreationDate,2025-06-09T22:50:47+09:00*%
%TF.ProjectId,__,78912e6b-6963-4616-945f-706362585858,3*%
%TF.SameCoordinates,Original*%
%TF.FileFunction,Copper,L2,Bot*%
%TF.FilePolarity,Positive*%
%FSLAX46Y46*%
G04 Gerber Fmt 4.6, Leading zero omitted, Abs format (unit mm)*
G04 Created by KiCad (PCBNEW 9.0.2) date 2025-06-09 22:50:47*
%MOMM*%
%LPD*%
G01*
G04 APERTURE LIST*
%TA.AperFunction,ComponentPad*%
%ADD10C,2.000000*%
%TD*%
%TA.AperFunction,ViaPad*%
%ADD11C,2.000000*%
%TD*%
%TA.AperFunction,Conductor*%
%ADD12C,0.200000*%
%TD*%
G04 APERTURE END LIST*
D10*
%TO.P,REF\u002A\u002A,Drain*%
%TO.N,N/C*%
X60275000Y-78400000D03*
%TO.P,REF\u002A\u002A,Gate*%
%TO.N,COOLING*%
X62775000Y-78400000D03*
%TO.P,REF\u002A\u002A,Source*%
%TO.N,N/C*%
X57775000Y-78400000D03*
%TD*%
%TO.P,REF\u002A\u002A,Drain*%
%TO.N,N/C*%
X60225000Y-92725000D03*
%TO.P,REF\u002A\u002A,Gate*%
%TO.N,feltier3*%
X62725000Y-92725000D03*
%TO.P,REF\u002A\u002A,Source*%
%TO.N,felPWM3*%
X57725000Y-92725000D03*
%TD*%
%TO.P,REF\u002A\u002A,Drain*%
%TO.N,N/C*%
X60250000Y-88125000D03*
%TO.P,REF\u002A\u002A,Gate*%
%TO.N,feltier2*%
X62750000Y-88125000D03*
%TO.P,REF\u002A\u002A,Source*%
%TO.N,felPWM2*%
X57750000Y-88125000D03*
%TD*%
%TO.P,REF\u002A\u002A,Drain*%
%TO.N,N/C*%
X60250000Y-83725000D03*
%TO.P,REF\u002A\u002A,Gate*%
%TO.N,feltier1*%
X62750000Y-83725000D03*
%TO.P,REF\u002A\u002A,Source*%
%TO.N,felPWM1*%
X57750000Y-83725000D03*
%TD*%
%TO.P,ESP32-C3
SuperMini,0*%
%TO.N,ACTIVEPIN*%
X74560000Y-94525000D03*
%TO.P,ESP32-C3
SuperMini,1*%
%TO.N,DOWN*%
X77100000Y-94525000D03*
%TO.P,ESP32-C3
SuperMini,2*%
%TO.N,UP*%
X79640000Y-94525000D03*
%TO.P,ESP32-C3
SuperMini,3*%
%TO.N,BOOT*%
X82180000Y-94525000D03*
%TO.P,ESP32-C3
SuperMini,3.3*%
%TO.N,VCC*%
X87260000Y-94525000D03*
%TO.P,ESP32-C3
SuperMini,4*%
%TO.N,Sensors*%
X84720000Y-94525000D03*
%TO.P,ESP32-C3
SuperMini,5*%
%TO.N,COOLER_PIN*%
X92340000Y-79285000D03*
%TO.P,ESP32-C3
SuperMini,5V*%
%TO.N,VCC*%
X92340000Y-94525000D03*
%TO.P,ESP32-C3
SuperMini,6*%
%TO.N,HEATER_PIN*%
X89800000Y-79285000D03*
%TO.P,ESP32-C3
SuperMini,7*%
%TO.N,COOLING*%
X87260000Y-79285000D03*
%TO.P,ESP32-C3
SuperMini,8*%
%TO.N,SDA*%
X84720000Y-79285000D03*
%TO.P,ESP32-C3
SuperMini,9*%
%TO.N,SCL*%
X82180000Y-79285000D03*
%TO.P,ESP32-C3
SuperMini,10*%
%TO.N,feltier3*%
X79640000Y-79285000D03*
%TO.P,ESP32-C3
SuperMini,20*%
%TO.N,feltier2*%
X77100000Y-79285000D03*
%TO.P,ESP32-C3
SuperMini,21*%
%TO.N,feltier1*%
X74560000Y-79285000D03*
%TO.P,ESP32-C3
SuperMini,G*%
%TO.N,GND*%
X89800000Y-94525000D03*
%TD*%
%TO.P,JP2,1*%
%TO.N,SDA*%
X69430000Y-99075000D03*
%TO.P,JP2,2*%
%TO.N,SCL*%
X71970000Y-99075000D03*
%TO.P,JP2,3*%
%TO.N,QST*%
X74510000Y-99075000D03*
%TD*%
%TO.P,JP4,1*%
%TO.N,VCC*%
X69430000Y-106695000D03*
%TO.P,JP4,2*%
%TO.N,GND*%
X71970000Y-106695000D03*
%TO.P,JP4,3*%
%TO.N,ALT*%
X74510000Y-106695000D03*
%TD*%
%TO.P,JP5,1*%
%TO.N,VCC*%
X66890000Y-101615000D03*
%TO.P,JP5,2*%
%TO.N,GND*%
X66890000Y-104155000D03*
%TD*%
D11*
%TO.N,VCC*%
X90500000Y-106000000D03*
X90500000Y-98750000D03*
X90500000Y-101975000D03*
%TO.N,SDA*%
X88000000Y-106000000D03*
%TO.N,GND*%
X93000000Y-106000000D03*
X93000000Y-102000000D03*
X93000000Y-98750000D03*
%TO.N,SCL*%
X85500000Y-106000000D03*
%TO.N,HEATER_PIN*%
X88150000Y-76300000D03*
%TO.N,COOLER_PIN*%
X90850000Y-76325000D03*
%TO.N,ACTIVEPIN*%
X93600000Y-76350000D03*
%TO.N,Sensors*%
X88000000Y-98750000D03*
%TO.N,DOWN*%
X83000000Y-102000000D03*
%TO.N,UP*%
X85500000Y-102000000D03*
%TO.N,BOOT*%
X88000000Y-102000000D03*
%TD*%
D12*
%TO.N,VCC*%
X69427673Y-106697327D02*
X69430000Y-106695000D01*
X87150000Y-94400000D02*
X87150000Y-94500000D01*
X87225000Y-94325000D02*
X87150000Y-94400000D01*
%TO.N,feltier2*%
X77105000Y-79295000D02*
X77030000Y-79295000D01*
X76800000Y-79525000D02*
X76800000Y-79585000D01*
X77030000Y-79295000D02*
X76800000Y-79525000D01*
%TD*%
M02*
