%TF.GenerationSoftware,KiCad,Pcbnew,9.0.2*%
%TF.CreationDate,2025-06-08T01:04:18+09:00*%
%TF.ProjectId,__,78912e6b-6963-4616-945f-706362585858,rev?*%
%TF.SameCoordinates,Original*%
%TF.FileFunction,Copper,L2,Bot*%
%TF.FilePolarity,Positive*%
%FSLAX46Y46*%
G04 Gerber Fmt 4.6, Leading zero omitted, Abs format (unit mm)*
G04 Created by KiCad (PCBNEW 9.0.2) date 2025-06-08 01:04:18*
%MOMM*%
%LPD*%
G01*
G04 APERTURE LIST*
%TA.AperFunction,ComponentPad*%
%ADD10C,2.000000*%
%TD*%
%TA.AperFunction,ComponentPad*%
%ADD11C,1.879600*%
%TD*%
%TA.AperFunction,ComponentPad*%
%ADD12C,1.350000*%
%TD*%
%TA.AperFunction,ComponentPad*%
%ADD13R,1.350000X1.350000*%
%TD*%
%TA.AperFunction,ComponentPad*%
%ADD14C,1.905000*%
%TD*%
%TA.AperFunction,ViaPad*%
%ADD15C,2.000000*%
%TD*%
%TA.AperFunction,Conductor*%
%ADD16C,0.200000*%
%TD*%
G04 APERTURE END LIST*
D10*
%TO.P,REF\u002A\u002A,Drain*%
%TO.N,N/C*%
X4855000Y-3520000D03*
%TO.P,REF\u002A\u002A,Gate*%
%TO.N,COOLING*%
X7355000Y-3520000D03*
%TO.P,REF\u002A\u002A,Source*%
%TO.N,N/C*%
X2355000Y-3520000D03*
%TD*%
%TO.P,REF\u002A\u002A,Drain*%
%TO.N,N/C*%
X4830000Y-13245000D03*
%TO.P,REF\u002A\u002A,Gate*%
%TO.N,feltier2*%
X7330000Y-13245000D03*
%TO.P,REF\u002A\u002A,Source*%
%TO.N,felPWM2*%
X2330000Y-13245000D03*
%TD*%
%TO.P,REF\u002A\u002A,Drain*%
%TO.N,N/C*%
X4805000Y-17845000D03*
%TO.P,REF\u002A\u002A,Gate*%
%TO.N,feltier3*%
X7305000Y-17845000D03*
%TO.P,REF\u002A\u002A,Source*%
%TO.N,felPWM3*%
X2305000Y-17845000D03*
%TD*%
%TO.P,REF\u002A\u002A,Drain*%
%TO.N,N/C*%
X4830000Y-8845000D03*
%TO.P,REF\u002A\u002A,Gate*%
%TO.N,feltier1*%
X7330000Y-8845000D03*
%TO.P,REF\u002A\u002A,Source*%
%TO.N,felPWM1*%
X2330000Y-8845000D03*
%TD*%
D11*
%TO.P,JP5,2*%
%TO.N,GND*%
X11470000Y-29275000D03*
%TO.P,JP5,1*%
%TO.N,VCC*%
X11470000Y-26735000D03*
%TD*%
%TO.P,JP4,3*%
%TO.N,ALT*%
X19090000Y-31815000D03*
%TO.P,JP4,2*%
%TO.N,GND*%
X16550000Y-31815000D03*
%TO.P,JP4,1*%
%TO.N,VCC*%
X14010000Y-31815000D03*
%TD*%
%TO.P,JP2,1*%
%TO.N,SDA*%
X14010000Y-24195000D03*
%TO.P,JP2,2*%
%TO.N,SCL*%
X16550000Y-24195000D03*
%TO.P,JP2,3*%
%TO.N,QST*%
X19090000Y-24195000D03*
%TD*%
D12*
%TO.P,Sensors,3*%
%TO.N,GND*%
X36705000Y-23170000D03*
%TO.P,Sensors,2*%
%TO.N,VCC*%
X34705000Y-23170000D03*
D13*
%TO.P,Sensors,1*%
%TO.N,Sensors*%
X32705000Y-23170000D03*
%TD*%
D12*
%TO.P,Button,1*%
%TO.N,GND*%
X36730000Y-27170000D03*
%TO.P,Button,2*%
%TO.N,VCC*%
X34730000Y-27170000D03*
%TO.P,Button,3*%
%TO.N,BOOT*%
X32730000Y-27170000D03*
%TO.P,Button,4*%
%TO.N,UP*%
X30730000Y-27170000D03*
%TO.P,Button,5*%
%TO.N,DOWN*%
X28730000Y-27170000D03*
%TD*%
%TO.P,Display / I2C Bus,1*%
%TO.N,GND*%
X36755000Y-31045000D03*
%TO.P,Display / I2C Bus,2*%
%TO.N,VCC*%
X34755000Y-31045000D03*
%TO.P,Display / I2C Bus,3*%
%TO.N,SDA*%
X32755000Y-31045000D03*
%TO.P,Display / I2C Bus,4*%
%TO.N,SCL*%
X30755000Y-31045000D03*
%TD*%
D14*
%TO.P,ESP32-C3
SuperMini,0*%
%TO.N,ACTIVEPIN*%
X19140000Y-19645000D03*
%TO.P,ESP32-C3
SuperMini,1*%
%TO.N,DOWN*%
X21680000Y-19645000D03*
%TO.P,ESP32-C3
SuperMini,2*%
%TO.N,UP*%
X24220000Y-19645000D03*
%TO.P,ESP32-C3
SuperMini,3*%
%TO.N,BOOT*%
X26760000Y-19645000D03*
%TO.P,ESP32-C3
SuperMini,3.3*%
%TO.N,VCC*%
X31840000Y-19645000D03*
%TO.P,ESP32-C3
SuperMini,4*%
%TO.N,Sensors*%
X29300000Y-19645000D03*
%TO.P,ESP32-C3
SuperMini,5*%
%TO.N,COOLER_PIN*%
X36920000Y-4405000D03*
%TO.P,ESP32-C3
SuperMini,5V*%
%TO.N,VCC*%
X36920000Y-19645000D03*
%TO.P,ESP32-C3
SuperMini,6*%
%TO.N,HEATER_PIN*%
X34380000Y-4405000D03*
%TO.P,ESP32-C3
SuperMini,7*%
%TO.N,COOLING*%
X31840000Y-4405000D03*
%TO.P,ESP32-C3
SuperMini,8*%
%TO.N,SDA*%
X29300000Y-4405000D03*
%TO.P,ESP32-C3
SuperMini,9*%
%TO.N,SCL*%
X26760000Y-4405000D03*
%TO.P,ESP32-C3
SuperMini,10*%
%TO.N,feltier3*%
X24220000Y-4405000D03*
%TO.P,ESP32-C3
SuperMini,20*%
%TO.N,feltier2*%
X21680000Y-4405000D03*
%TO.P,ESP32-C3
SuperMini,21*%
%TO.N,feltier1*%
X19140000Y-4405000D03*
%TO.P,ESP32-C3
SuperMini,G*%
%TO.N,GND*%
X34380000Y-19645000D03*
%TD*%
D15*
%TO.N,HEATER_PIN*%
X32730000Y-1420000D03*
%TO.N,ACTIVEPIN*%
X38180000Y-1470000D03*
%TO.N,COOLER_PIN*%
X35430000Y-1445000D03*
%TD*%
D16*
%TO.N,VCC*%
X14007673Y-31817327D02*
X14010000Y-31815000D01*
X31730000Y-19520000D02*
X31730000Y-19620000D01*
X31805000Y-19445000D02*
X31730000Y-19520000D01*
%TO.N,feltier2*%
X21380000Y-4645000D02*
X21380000Y-4705000D01*
X21610000Y-4415000D02*
X21380000Y-4645000D01*
X21685000Y-4415000D02*
X21610000Y-4415000D01*
%TD*%
M02*
