%TF.GenerationSoftware,KiCad,Pcbnew,9.0.2*%
%TF.CreationDate,2025-05-26T23:58:44+09:00*%
%TF.ProjectId,__,78912e6b-6963-4616-945f-706362585858,rev?*%
%TF.SameCoordinates,Original*%
%TF.FileFunction,Copper,L1,Top*%
%TF.FilePolarity,Positive*%
%FSLAX46Y46*%
G04 Gerber Fmt 4.6, Leading zero omitted, Abs format (unit mm)*
G04 Created by KiCad (PCBNEW 9.0.2) date 2025-05-26 23:58:44*
%MOMM*%
%LPD*%
G01*
G04 APERTURE LIST*
%TA.AperFunction,ComponentPad*%
%ADD10C,1.350000*%
%TD*%
%TA.AperFunction,ComponentPad*%
%ADD11R,1.350000X1.350000*%
%TD*%
%TA.AperFunction,ComponentPad*%
%ADD12C,1.905000*%
%TD*%
%TA.AperFunction,ComponentPad*%
%ADD13C,1.879600*%
%TD*%
%TA.AperFunction,ViaPad*%
%ADD14C,0.600000*%
%TD*%
%TA.AperFunction,ViaPad*%
%ADD15C,1.200000*%
%TD*%
%TA.AperFunction,Conductor*%
%ADD16C,0.200000*%
%TD*%
%TA.AperFunction,Conductor*%
%ADD17C,0.400000*%
%TD*%
G04 APERTURE END LIST*
D10*
%TO.P,Sensors,3*%
%TO.N,N/C*%
X33525000Y-3900000D03*
%TO.P,Sensors,2*%
X35525000Y-3900000D03*
D11*
%TO.P,Sensors,1*%
X37525000Y-3900000D03*
%TD*%
D10*
%TO.P,Button,1*%
%TO.N,N/C*%
X7080000Y-7160000D03*
%TO.P,Button,2*%
X7080000Y-9160000D03*
%TO.P,Button,3*%
X7080000Y-11160000D03*
%TO.P,Button,4*%
X7080000Y-13160000D03*
%TO.P,Button,5*%
X7080000Y-15160000D03*
%TD*%
D12*
%TO.P,ESP32-C3
SuperMini,0*%
%TO.N,N/C*%
X29700000Y-25040000D03*
%TO.P,ESP32-C3
SuperMini,1*%
X29700000Y-22500000D03*
%TO.P,ESP32-C3
SuperMini,2*%
X29700000Y-19960000D03*
%TO.P,ESP32-C3
SuperMini,3*%
X29700000Y-17420000D03*
%TO.P,ESP32-C3
SuperMini,3.3*%
X29700000Y-12340000D03*
%TO.P,ESP32-C3
SuperMini,4*%
X29700000Y-14880000D03*
%TO.P,ESP32-C3
SuperMini,5*%
X14460000Y-7260000D03*
%TO.P,ESP32-C3
SuperMini,5V*%
X29700000Y-7260000D03*
%TO.P,ESP32-C3
SuperMini,6*%
X14460000Y-9800000D03*
%TO.P,ESP32-C3
SuperMini,7*%
X14460000Y-12340000D03*
%TO.P,ESP32-C3
SuperMini,8*%
X14460000Y-14880000D03*
%TO.P,ESP32-C3
SuperMini,9*%
X14460000Y-17420000D03*
%TO.P,ESP32-C3
SuperMini,10*%
X14460000Y-19960000D03*
%TO.P,ESP32-C3
SuperMini,20*%
X14460000Y-22500000D03*
%TO.P,ESP32-C3
SuperMini,21*%
X14460000Y-25040000D03*
%TO.P,ESP32-C3
SuperMini,G*%
X29700000Y-9800000D03*
%TD*%
D10*
%TO.P,Display / I2C Bus,1*%
%TO.N,N/C*%
X7080000Y-22160000D03*
%TO.P,Display / I2C Bus,2*%
X7080000Y-24160000D03*
%TO.P,Display / I2C Bus,3*%
X7080000Y-26160000D03*
%TO.P,Display / I2C Bus,4*%
X7080000Y-28160000D03*
%TD*%
D13*
%TO.P,JP2,1*%
%TO.N,SDA*%
X5255000Y-45797673D03*
%TO.P,JP2,2*%
%TO.N,SCL*%
X5255000Y-43257673D03*
%TO.P,JP2,3*%
%TO.N,QST*%
X5255000Y-40717673D03*
%TD*%
%TO.P,JP4,1*%
%TO.N,VCC*%
X12875000Y-45797673D03*
%TO.P,JP4,2*%
%TO.N,GND*%
X12875000Y-43257673D03*
%TO.P,JP4,3*%
%TO.N,ALT*%
X12875000Y-40717673D03*
%TD*%
%TO.P,JP5,1*%
%TO.N,VCC*%
X7795000Y-48337673D03*
%TO.P,JP5,2*%
%TO.N,GND*%
X10335000Y-48337673D03*
%TD*%
D14*
%TO.N,SDA*%
X9450000Y-34525000D03*
%TO.N,SCL*%
X7700000Y-34525000D03*
%TO.N,GND*%
X7100000Y-19600000D03*
X39425000Y-13225000D03*
%TO.N,*%
X40750000Y-22500000D03*
%TO.N,GND*%
X36550000Y-13225000D03*
%TO.N,*%
X42550000Y-29525000D03*
X43825000Y-30400000D03*
D15*
X48825000Y-26200000D03*
X48825000Y-37400000D03*
X46225000Y-37400000D03*
X46225000Y-26200000D03*
%TD*%
D16*
%TO.N,SCL*%
X5942327Y-43257673D02*
X7700000Y-41500000D01*
X7700000Y-41500000D02*
X7700000Y-34525000D01*
%TO.N,SDA*%
X5702327Y-45797673D02*
X9450000Y-42050000D01*
X9450000Y-42050000D02*
X9450000Y-34525000D01*
X5255000Y-45797673D02*
X5702327Y-45797673D01*
%TO.N,SCL*%
X5255000Y-43257673D02*
X5942327Y-43257673D01*
%TO.N,GND*%
X9000000Y-22400000D02*
X7200000Y-24200000D01*
X9000000Y-19600000D02*
X9000000Y-22400000D01*
X7100000Y-19600000D02*
X9000000Y-19600000D01*
X36550000Y-13225000D02*
X35675000Y-13225000D01*
X35675000Y-13225000D02*
X35675000Y-12000000D01*
X33575000Y-9900000D02*
X30100000Y-9900000D01*
X35675000Y-12000000D02*
X33575000Y-9900000D01*
X35675000Y-31925000D02*
X35675000Y-13225000D01*
%TO.N,VCC*%
X46750000Y-2500000D02*
X49775000Y-2500000D01*
X39450000Y-9800000D02*
X46750000Y-2500000D01*
X37400000Y-9800000D02*
X39450000Y-9800000D01*
%TO.N,GND*%
X45075000Y-7575000D02*
X49975000Y-7575000D01*
X39425000Y-13225000D02*
X45075000Y-7575000D01*
%TO.N,*%
X41550000Y-12500000D02*
X50000000Y-12500000D01*
X40750000Y-13300000D02*
X41550000Y-12500000D01*
X40750000Y-22500000D02*
X40750000Y-13300000D01*
X48825000Y-40025000D02*
X51325000Y-40025000D01*
X48825000Y-37400000D02*
X48825000Y-40025000D01*
X46225000Y-26200000D02*
X48825000Y-26200000D01*
X46350000Y-52975000D02*
X51550000Y-52975000D01*
X46350000Y-37525000D02*
X46350000Y-52975000D01*
X46225000Y-37400000D02*
X46350000Y-37525000D01*
X43825000Y-23000000D02*
X50325000Y-23000000D01*
X43825000Y-30400000D02*
X43825000Y-23000000D01*
X42550000Y-18050000D02*
X50275000Y-18050000D01*
X42550000Y-29525000D02*
X42550000Y-18050000D01*
%TO.N,GND*%
X33575000Y-3950000D02*
X33525000Y-3900000D01*
X7080000Y-11160000D02*
X10980000Y-7260000D01*
%TO.N,*%
X29765000Y-24975000D02*
X29700000Y-25040000D01*
%TO.N,GND*%
X10980000Y-7260000D02*
X14460000Y-7260000D01*
X29700000Y-12340000D02*
X22160000Y-4800000D01*
X10440000Y-9800000D02*
X14460000Y-9800000D01*
X7080000Y-9160000D02*
X7360000Y-9160000D01*
%TO.N,*%
X29880000Y-22680000D02*
X29700000Y-22500000D01*
%TO.N,GND*%
X22160000Y-4800000D02*
X11440000Y-4800000D01*
X9900000Y-12340000D02*
X14460000Y-12340000D01*
X7080000Y-15160000D02*
X9900000Y-12340000D01*
X7080000Y-13160000D02*
X10440000Y-9800000D01*
X11440000Y-4800000D02*
X7080000Y-9160000D01*
%TO.N,VCC*%
X12307327Y-52850000D02*
X7795000Y-48337673D01*
X18075000Y-37125000D02*
X20975000Y-34225000D01*
X20975000Y-34225000D02*
X37400000Y-34225000D01*
X34825000Y-7225000D02*
X30385000Y-7225000D01*
X37400000Y-9800000D02*
X34825000Y-7225000D01*
X20350000Y-52850000D02*
X12307327Y-52850000D01*
X18075000Y-43175000D02*
X18075000Y-37125000D01*
X30320000Y-7160000D02*
X30200000Y-7280000D01*
X37400000Y-34225000D02*
X37400000Y-9800000D01*
X15452327Y-45797673D02*
X18075000Y-43175000D01*
D17*
X30385000Y-7225000D02*
X30320000Y-7160000D01*
D16*
X12875000Y-45797673D02*
X15452327Y-45797673D01*
%TO.N,SDA*%
X7080000Y-26160000D02*
X8360000Y-26160000D01*
X8360000Y-26160000D02*
X9720000Y-24800000D01*
X9720000Y-24800000D02*
X9720000Y-16800000D01*
X11640000Y-14880000D02*
X14460000Y-14880000D01*
X9720000Y-16800000D02*
X11640000Y-14880000D01*
%TO.N,GND*%
X15067327Y-43257673D02*
X16300000Y-42025000D01*
X20750000Y-31950000D02*
X35650000Y-31950000D01*
X16300000Y-42025000D02*
X16300000Y-36400000D01*
X16300000Y-36400000D02*
X20750000Y-31950000D01*
X19325000Y-51800000D02*
X19275000Y-51850000D01*
X6760000Y-6900000D02*
X7080000Y-6900000D01*
X20225000Y-39850000D02*
X19375000Y-39850000D01*
X6500000Y-7160000D02*
X6760000Y-6900000D01*
X23060000Y-3160000D02*
X22875000Y-3160000D01*
X10830000Y-3160000D02*
X23060000Y-3160000D01*
X19275000Y-51850000D02*
X13847327Y-51850000D01*
X12875000Y-43257673D02*
X15067327Y-43257673D01*
X12875000Y-43257673D02*
X12140346Y-43257673D01*
X19375000Y-39850000D02*
X19350000Y-39875000D01*
X19325000Y-39850000D02*
X19325000Y-51800000D01*
X7080000Y-6900000D02*
X7300000Y-6680000D01*
X13847327Y-51850000D02*
X10335000Y-48337673D01*
X7310000Y-6680000D02*
X10830000Y-3160000D01*
X29700000Y-9800000D02*
X23060000Y-3160000D01*
X7300000Y-6680000D02*
X7310000Y-6680000D01*
%TO.N,SCL*%
X11100000Y-17420000D02*
X14460000Y-17420000D01*
X10720000Y-17800000D02*
X11100000Y-17420000D01*
X10720000Y-25800000D02*
X10720000Y-17800000D01*
X7080000Y-28160000D02*
X8360000Y-28160000D01*
X8360000Y-28160000D02*
X10720000Y-25800000D01*
%TD*%
M02*
