%TF.GenerationSoftware,KiCad,Pcbnew,9.0.2*%
%TF.CreationDate,2025-06-08T01:04:18+09:00*%
%TF.ProjectId,__,78912e6b-6963-4616-945f-706362585858,rev?*%
%TF.SameCoordinates,Original*%
%TF.FileFunction,Legend,Top*%
%TF.FilePolarity,Positive*%
%FSLAX46Y46*%
G04 Gerber Fmt 4.6, Leading zero omitted, Abs format (unit mm)*
G04 Created by KiCad (PCBNEW 9.0.2) date 2025-06-08 01:04:18*
%MOMM*%
%LPD*%
G01*
G04 APERTURE LIST*
%ADD10C,0.200000*%
%ADD11C,0.100000*%
%ADD12C,0.000000*%
%ADD13C,0.120000*%
%ADD14C,0.127000*%
G04 APERTURE END LIST*
D10*
X10148019Y-2324761D02*
X10100400Y-2277142D01*
X10100400Y-2277142D02*
X10052780Y-2134285D01*
X10052780Y-2134285D02*
X10052780Y-2039047D01*
X10052780Y-2039047D02*
X10100400Y-1896190D01*
X10100400Y-1896190D02*
X10195638Y-1800952D01*
X10195638Y-1800952D02*
X10290876Y-1753333D01*
X10290876Y-1753333D02*
X10481352Y-1705714D01*
X10481352Y-1705714D02*
X10624209Y-1705714D01*
X10624209Y-1705714D02*
X10814685Y-1753333D01*
X10814685Y-1753333D02*
X10909923Y-1800952D01*
X10909923Y-1800952D02*
X11005161Y-1896190D01*
X11005161Y-1896190D02*
X11052780Y-2039047D01*
X11052780Y-2039047D02*
X11052780Y-2134285D01*
X11052780Y-2134285D02*
X11005161Y-2277142D01*
X11005161Y-2277142D02*
X10957542Y-2324761D01*
X11052780Y-2943809D02*
X11052780Y-3134285D01*
X11052780Y-3134285D02*
X11005161Y-3229523D01*
X11005161Y-3229523D02*
X10909923Y-3324761D01*
X10909923Y-3324761D02*
X10719447Y-3372380D01*
X10719447Y-3372380D02*
X10386114Y-3372380D01*
X10386114Y-3372380D02*
X10195638Y-3324761D01*
X10195638Y-3324761D02*
X10100400Y-3229523D01*
X10100400Y-3229523D02*
X10052780Y-3134285D01*
X10052780Y-3134285D02*
X10052780Y-2943809D01*
X10052780Y-2943809D02*
X10100400Y-2848571D01*
X10100400Y-2848571D02*
X10195638Y-2753333D01*
X10195638Y-2753333D02*
X10386114Y-2705714D01*
X10386114Y-2705714D02*
X10719447Y-2705714D01*
X10719447Y-2705714D02*
X10909923Y-2753333D01*
X10909923Y-2753333D02*
X11005161Y-2848571D01*
X11005161Y-2848571D02*
X11052780Y-2943809D01*
X11052780Y-3991428D02*
X11052780Y-4181904D01*
X11052780Y-4181904D02*
X11005161Y-4277142D01*
X11005161Y-4277142D02*
X10909923Y-4372380D01*
X10909923Y-4372380D02*
X10719447Y-4419999D01*
X10719447Y-4419999D02*
X10386114Y-4419999D01*
X10386114Y-4419999D02*
X10195638Y-4372380D01*
X10195638Y-4372380D02*
X10100400Y-4277142D01*
X10100400Y-4277142D02*
X10052780Y-4181904D01*
X10052780Y-4181904D02*
X10052780Y-3991428D01*
X10052780Y-3991428D02*
X10100400Y-3896190D01*
X10100400Y-3896190D02*
X10195638Y-3800952D01*
X10195638Y-3800952D02*
X10386114Y-3753333D01*
X10386114Y-3753333D02*
X10719447Y-3753333D01*
X10719447Y-3753333D02*
X10909923Y-3800952D01*
X10909923Y-3800952D02*
X11005161Y-3896190D01*
X11005161Y-3896190D02*
X11052780Y-3991428D01*
X10052780Y-5324761D02*
X10052780Y-4848571D01*
X10052780Y-4848571D02*
X11052780Y-4848571D01*
X10576590Y-5658095D02*
X10576590Y-5991428D01*
X10052780Y-6134285D02*
X10052780Y-5658095D01*
X10052780Y-5658095D02*
X11052780Y-5658095D01*
X11052780Y-5658095D02*
X11052780Y-6134285D01*
X10052780Y-7134285D02*
X10528971Y-6800952D01*
X10052780Y-6562857D02*
X11052780Y-6562857D01*
X11052780Y-6562857D02*
X11052780Y-6943809D01*
X11052780Y-6943809D02*
X11005161Y-7039047D01*
X11005161Y-7039047D02*
X10957542Y-7086666D01*
X10957542Y-7086666D02*
X10862304Y-7134285D01*
X10862304Y-7134285D02*
X10719447Y-7134285D01*
X10719447Y-7134285D02*
X10624209Y-7086666D01*
X10624209Y-7086666D02*
X10576590Y-7039047D01*
X10576590Y-7039047D02*
X10528971Y-6943809D01*
X10528971Y-6943809D02*
X10528971Y-6562857D01*
D11*
X470000Y-23005000D02*
X24470000Y-23005000D01*
X24470000Y-33005000D01*
X470000Y-33005000D01*
X470000Y-23005000D01*
D10*
X38605000Y-33595000D02*
X38565000Y-33595000D01*
X37765000Y-33595000D02*
X37725000Y-33595000D01*
X36925000Y-33595000D02*
X36885000Y-33595000D01*
X36085000Y-33595000D02*
X36045000Y-33595000D01*
X35245000Y-33595000D02*
X35205000Y-33595000D01*
X34405000Y-33595000D02*
X34365000Y-33595000D01*
X33565000Y-33595000D02*
X33525000Y-33595000D01*
X32725000Y-33595000D02*
X32685000Y-33595000D01*
X31885000Y-33595000D02*
X31845000Y-33595000D01*
X31045000Y-33595000D02*
X31005000Y-33595000D01*
X30205000Y-33595000D02*
X30165000Y-33595000D01*
X29365000Y-33595000D02*
X29325000Y-33595000D01*
X28525000Y-33595000D02*
X28485000Y-33595000D01*
X27685000Y-33595000D02*
X27645000Y-33595000D01*
X26845000Y-33595000D02*
X26805000Y-33595000D01*
X26005000Y-33595000D02*
X25965000Y-33595000D01*
X25165000Y-33595000D02*
X25125000Y-33595000D01*
X24325000Y-33595000D02*
X24285000Y-33595000D01*
X23485000Y-33595000D02*
X23445000Y-33595000D01*
X22645000Y-33595000D02*
X22605000Y-33595000D01*
X21805000Y-33595000D02*
X21765000Y-33595000D01*
X20965000Y-33595000D02*
X20925000Y-33595000D01*
X20125000Y-33595000D02*
X20085000Y-33595000D01*
X19285000Y-33595000D02*
X19245000Y-33595000D01*
X18445000Y-33595000D02*
X18405000Y-33595000D01*
X17605000Y-33595000D02*
X17565000Y-33595000D01*
X16765000Y-33595000D02*
X16725000Y-33595000D01*
X15925000Y-33595000D02*
X15885000Y-33595000D01*
X15085000Y-33595000D02*
X15045000Y-33595000D01*
X14245000Y-33595000D02*
X14205000Y-33595000D01*
X13405000Y-33595000D02*
X13365000Y-33595000D01*
X12565000Y-33595000D02*
X12525000Y-33595000D01*
X11725000Y-33595000D02*
X11685000Y-33595000D01*
X10885000Y-33595000D02*
X10845000Y-33595000D01*
X10045000Y-33595000D02*
X10005000Y-33595000D01*
X9205000Y-33595000D02*
X9165000Y-33595000D01*
X8365000Y-33595000D02*
X8325000Y-33595000D01*
X7525000Y-33595000D02*
X7485000Y-33595000D01*
X6685000Y-33595000D02*
X6645000Y-33595000D01*
X5845000Y-33595000D02*
X5805000Y-33595000D01*
X5005000Y-33595000D02*
X4965000Y-33595000D01*
X4165000Y-33595000D02*
X4125000Y-33595000D01*
X4105000Y-33595000D02*
X4105000Y-33635000D01*
X4105000Y-34435000D02*
X4105000Y-34475000D01*
X4105000Y-35275000D02*
X4105000Y-35315000D01*
X4105000Y-36115000D02*
X4105000Y-36155000D01*
X4105000Y-36955000D02*
X4105000Y-36995000D01*
X4105000Y-37795000D02*
X4105000Y-37835000D01*
X4105000Y-38635000D02*
X4105000Y-38675000D01*
X4105000Y-39475000D02*
X4105000Y-39515000D01*
X4105000Y-40315000D02*
X4105000Y-40355000D01*
X4105000Y-41155000D02*
X4105000Y-41195000D01*
X4105000Y-41995000D02*
X4105000Y-42035000D01*
X4105000Y-42835000D02*
X4105000Y-42875000D01*
X4105000Y-43675000D02*
X4105000Y-43715000D01*
X4105000Y-44515000D02*
X4105000Y-44555000D01*
X4105000Y-45355000D02*
X4105000Y-45395000D01*
X4105000Y-46195000D02*
X4105000Y-46235000D01*
X4105000Y-47035000D02*
X4105000Y-47075000D01*
X4105000Y-47875000D02*
X4105000Y-47915000D01*
X4105000Y-48715000D02*
X4105000Y-48755000D01*
X4105000Y-48795000D02*
X4145000Y-48795000D01*
X4945000Y-48795000D02*
X4985000Y-48795000D01*
X5785000Y-48795000D02*
X5825000Y-48795000D01*
X6625000Y-48795000D02*
X6665000Y-48795000D01*
X7465000Y-48795000D02*
X7505000Y-48795000D01*
X8305000Y-48795000D02*
X8345000Y-48795000D01*
X9145000Y-48795000D02*
X9185000Y-48795000D01*
X9985000Y-48795000D02*
X10025000Y-48795000D01*
X10825000Y-48795000D02*
X10865000Y-48795000D01*
X11665000Y-48795000D02*
X11705000Y-48795000D01*
X12505000Y-48795000D02*
X12545000Y-48795000D01*
X13345000Y-48795000D02*
X13385000Y-48795000D01*
X14185000Y-48795000D02*
X14225000Y-48795000D01*
X15025000Y-48795000D02*
X15065000Y-48795000D01*
X15865000Y-48795000D02*
X15905000Y-48795000D01*
X16705000Y-48795000D02*
X16745000Y-48795000D01*
X17545000Y-48795000D02*
X17585000Y-48795000D01*
X18385000Y-48795000D02*
X18425000Y-48795000D01*
X19225000Y-48795000D02*
X19265000Y-48795000D01*
X20065000Y-48795000D02*
X20105000Y-48795000D01*
X20905000Y-48795000D02*
X20945000Y-48795000D01*
X21745000Y-48795000D02*
X21785000Y-48795000D01*
X22585000Y-48795000D02*
X22625000Y-48795000D01*
X23425000Y-48795000D02*
X23465000Y-48795000D01*
X24265000Y-48795000D02*
X24305000Y-48795000D01*
X25105000Y-48795000D02*
X25145000Y-48795000D01*
X25945000Y-48795000D02*
X25985000Y-48795000D01*
X26785000Y-48795000D02*
X26825000Y-48795000D01*
X27625000Y-48795000D02*
X27665000Y-48795000D01*
X28465000Y-48795000D02*
X28505000Y-48795000D01*
X29305000Y-48795000D02*
X29345000Y-48795000D01*
X30145000Y-48795000D02*
X30185000Y-48795000D01*
X30985000Y-48795000D02*
X31025000Y-48795000D01*
X31825000Y-48795000D02*
X31865000Y-48795000D01*
X32665000Y-48795000D02*
X32705000Y-48795000D01*
X33505000Y-48795000D02*
X33545000Y-48795000D01*
X34345000Y-48795000D02*
X34385000Y-48795000D01*
X35185000Y-48795000D02*
X35225000Y-48795000D01*
X36025000Y-48795000D02*
X36065000Y-48795000D01*
X36865000Y-48795000D02*
X36905000Y-48795000D01*
X37705000Y-48795000D02*
X37745000Y-48795000D01*
X38545000Y-48795000D02*
X38585000Y-48795000D01*
X38605000Y-48795000D02*
X38605000Y-48755000D01*
X38605000Y-47955000D02*
X38605000Y-47915000D01*
X38605000Y-47115000D02*
X38605000Y-47075000D01*
X38605000Y-46275000D02*
X38605000Y-46235000D01*
X38605000Y-45435000D02*
X38605000Y-45395000D01*
X38605000Y-44595000D02*
X38605000Y-44555000D01*
X38605000Y-43755000D02*
X38605000Y-43715000D01*
X38605000Y-42915000D02*
X38605000Y-42875000D01*
X38605000Y-42075000D02*
X38605000Y-42035000D01*
X38605000Y-41235000D02*
X38605000Y-41195000D01*
X38605000Y-40395000D02*
X38605000Y-40355000D01*
X38605000Y-39555000D02*
X38605000Y-39515000D01*
X38605000Y-38715000D02*
X38605000Y-38675000D01*
X38605000Y-37875000D02*
X38605000Y-37835000D01*
X38605000Y-37035000D02*
X38605000Y-36995000D01*
X38605000Y-36195000D02*
X38605000Y-36155000D01*
X38605000Y-35355000D02*
X38605000Y-35315000D01*
X38605000Y-34515000D02*
X38605000Y-34475000D01*
X38605000Y-33675000D02*
X38605000Y-33635000D01*
D11*
X43597580Y-28028334D02*
X42597580Y-28195000D01*
X42597580Y-28195000D02*
X43597580Y-28361667D01*
X42692819Y-28814047D02*
X42645200Y-28790238D01*
X42645200Y-28790238D02*
X42597580Y-28718809D01*
X42597580Y-28718809D02*
X42597580Y-28671190D01*
X42597580Y-28671190D02*
X42645200Y-28599762D01*
X42645200Y-28599762D02*
X42740438Y-28552143D01*
X42740438Y-28552143D02*
X42835676Y-28528333D01*
X42835676Y-28528333D02*
X43026152Y-28504524D01*
X43026152Y-28504524D02*
X43169009Y-28504524D01*
X43169009Y-28504524D02*
X43359485Y-28528333D01*
X43359485Y-28528333D02*
X43454723Y-28552143D01*
X43454723Y-28552143D02*
X43549961Y-28599762D01*
X43549961Y-28599762D02*
X43597580Y-28671190D01*
X43597580Y-28671190D02*
X43597580Y-28718809D01*
X43597580Y-28718809D02*
X43549961Y-28790238D01*
X43549961Y-28790238D02*
X43502342Y-28814047D01*
X42692819Y-29314047D02*
X42645200Y-29290238D01*
X42645200Y-29290238D02*
X42597580Y-29218809D01*
X42597580Y-29218809D02*
X42597580Y-29171190D01*
X42597580Y-29171190D02*
X42645200Y-29099762D01*
X42645200Y-29099762D02*
X42740438Y-29052143D01*
X42740438Y-29052143D02*
X42835676Y-29028333D01*
X42835676Y-29028333D02*
X43026152Y-29004524D01*
X43026152Y-29004524D02*
X43169009Y-29004524D01*
X43169009Y-29004524D02*
X43359485Y-29028333D01*
X43359485Y-29028333D02*
X43454723Y-29052143D01*
X43454723Y-29052143D02*
X43549961Y-29099762D01*
X43549961Y-29099762D02*
X43597580Y-29171190D01*
X43597580Y-29171190D02*
X43597580Y-29218809D01*
X43597580Y-29218809D02*
X43549961Y-29290238D01*
X43549961Y-29290238D02*
X43502342Y-29314047D01*
X42612580Y-29945000D02*
X43612580Y-29945000D01*
X43612580Y-29945000D02*
X43612580Y-30064048D01*
X43612580Y-30064048D02*
X43564961Y-30135476D01*
X43564961Y-30135476D02*
X43469723Y-30183095D01*
X43469723Y-30183095D02*
X43374485Y-30206905D01*
X43374485Y-30206905D02*
X43184009Y-30230714D01*
X43184009Y-30230714D02*
X43041152Y-30230714D01*
X43041152Y-30230714D02*
X42850676Y-30206905D01*
X42850676Y-30206905D02*
X42755438Y-30183095D01*
X42755438Y-30183095D02*
X42660200Y-30135476D01*
X42660200Y-30135476D02*
X42612580Y-30064048D01*
X42612580Y-30064048D02*
X42612580Y-29945000D01*
X42898295Y-30421191D02*
X42898295Y-30659286D01*
X42612580Y-30373572D02*
X43612580Y-30540238D01*
X43612580Y-30540238D02*
X42612580Y-30706905D01*
X43612580Y-30802143D02*
X43612580Y-31087857D01*
X42612580Y-30945000D02*
X43612580Y-30945000D01*
X42898295Y-31230714D02*
X42898295Y-31468809D01*
X42612580Y-31183095D02*
X43612580Y-31349761D01*
X43612580Y-31349761D02*
X42612580Y-31516428D01*
X43549961Y-26189047D02*
X43597580Y-26141428D01*
X43597580Y-26141428D02*
X43597580Y-26069999D01*
X43597580Y-26069999D02*
X43549961Y-25998571D01*
X43549961Y-25998571D02*
X43454723Y-25950952D01*
X43454723Y-25950952D02*
X43359485Y-25927142D01*
X43359485Y-25927142D02*
X43169009Y-25903333D01*
X43169009Y-25903333D02*
X43026152Y-25903333D01*
X43026152Y-25903333D02*
X42835676Y-25927142D01*
X42835676Y-25927142D02*
X42740438Y-25950952D01*
X42740438Y-25950952D02*
X42645200Y-25998571D01*
X42645200Y-25998571D02*
X42597580Y-26069999D01*
X42597580Y-26069999D02*
X42597580Y-26117618D01*
X42597580Y-26117618D02*
X42645200Y-26189047D01*
X42645200Y-26189047D02*
X42692819Y-26212856D01*
X42692819Y-26212856D02*
X43026152Y-26212856D01*
X43026152Y-26212856D02*
X43026152Y-26117618D01*
X42597580Y-26427142D02*
X43597580Y-26427142D01*
X43597580Y-26427142D02*
X42597580Y-26712856D01*
X42597580Y-26712856D02*
X43597580Y-26712856D01*
X42597580Y-26950952D02*
X43597580Y-26950952D01*
X43597580Y-26950952D02*
X43597580Y-27070000D01*
X43597580Y-27070000D02*
X43549961Y-27141428D01*
X43549961Y-27141428D02*
X43454723Y-27189047D01*
X43454723Y-27189047D02*
X43359485Y-27212857D01*
X43359485Y-27212857D02*
X43169009Y-27236666D01*
X43169009Y-27236666D02*
X43026152Y-27236666D01*
X43026152Y-27236666D02*
X42835676Y-27212857D01*
X42835676Y-27212857D02*
X42740438Y-27189047D01*
X42740438Y-27189047D02*
X42645200Y-27141428D01*
X42645200Y-27141428D02*
X42597580Y-27070000D01*
X42597580Y-27070000D02*
X42597580Y-26950952D01*
X5550238Y-40752419D02*
X5074048Y-40752419D01*
X5074048Y-40752419D02*
X5026429Y-41228609D01*
X5026429Y-41228609D02*
X5074048Y-41180990D01*
X5074048Y-41180990D02*
X5169286Y-41133371D01*
X5169286Y-41133371D02*
X5407381Y-41133371D01*
X5407381Y-41133371D02*
X5502619Y-41180990D01*
X5502619Y-41180990D02*
X5550238Y-41228609D01*
X5550238Y-41228609D02*
X5597857Y-41323847D01*
X5597857Y-41323847D02*
X5597857Y-41561942D01*
X5597857Y-41561942D02*
X5550238Y-41657180D01*
X5550238Y-41657180D02*
X5502619Y-41704800D01*
X5502619Y-41704800D02*
X5407381Y-41752419D01*
X5407381Y-41752419D02*
X5169286Y-41752419D01*
X5169286Y-41752419D02*
X5074048Y-41704800D01*
X5074048Y-41704800D02*
X5026429Y-41657180D01*
X6026429Y-41657180D02*
X6074048Y-41704800D01*
X6074048Y-41704800D02*
X6026429Y-41752419D01*
X6026429Y-41752419D02*
X5978810Y-41704800D01*
X5978810Y-41704800D02*
X6026429Y-41657180D01*
X6026429Y-41657180D02*
X6026429Y-41752419D01*
X6978809Y-40752419D02*
X6502619Y-40752419D01*
X6502619Y-40752419D02*
X6455000Y-41228609D01*
X6455000Y-41228609D02*
X6502619Y-41180990D01*
X6502619Y-41180990D02*
X6597857Y-41133371D01*
X6597857Y-41133371D02*
X6835952Y-41133371D01*
X6835952Y-41133371D02*
X6931190Y-41180990D01*
X6931190Y-41180990D02*
X6978809Y-41228609D01*
X6978809Y-41228609D02*
X7026428Y-41323847D01*
X7026428Y-41323847D02*
X7026428Y-41561942D01*
X7026428Y-41561942D02*
X6978809Y-41657180D01*
X6978809Y-41657180D02*
X6931190Y-41704800D01*
X6931190Y-41704800D02*
X6835952Y-41752419D01*
X6835952Y-41752419D02*
X6597857Y-41752419D01*
X6597857Y-41752419D02*
X6502619Y-41704800D01*
X6502619Y-41704800D02*
X6455000Y-41657180D01*
X7312143Y-40752419D02*
X7645476Y-41752419D01*
X7645476Y-41752419D02*
X7978809Y-40752419D01*
D12*
X4642500Y-39820000D02*
X8267500Y-39820000D01*
X8267500Y-42770000D01*
X4642500Y-42770000D01*
X4642500Y-39820000D01*
D11*
X5444285Y-46052419D02*
X5444285Y-45052419D01*
X5682380Y-45385752D02*
X5682380Y-46052419D01*
X5682380Y-45480990D02*
X5706190Y-45433371D01*
X5706190Y-45433371D02*
X5753809Y-45385752D01*
X5753809Y-45385752D02*
X5825237Y-45385752D01*
X5825237Y-45385752D02*
X5872856Y-45433371D01*
X5872856Y-45433371D02*
X5896666Y-45528609D01*
X5896666Y-45528609D02*
X5896666Y-46052419D01*
X6134761Y-45671466D02*
X6515714Y-45671466D01*
D12*
X5155000Y-45145000D02*
X6805000Y-45145000D01*
X6805000Y-46045000D01*
X5155000Y-46045000D01*
X5155000Y-45145000D01*
D11*
X5369285Y-37252419D02*
X5369285Y-36252419D01*
X5607380Y-36585752D02*
X5607380Y-37252419D01*
X5607380Y-36680990D02*
X5631190Y-36633371D01*
X5631190Y-36633371D02*
X5678809Y-36585752D01*
X5678809Y-36585752D02*
X5750237Y-36585752D01*
X5750237Y-36585752D02*
X5797856Y-36633371D01*
X5797856Y-36633371D02*
X5821666Y-36728609D01*
X5821666Y-36728609D02*
X5821666Y-37252419D01*
X6059761Y-36871466D02*
X6440714Y-36871466D01*
X6250237Y-37252419D02*
X6250237Y-36490514D01*
D12*
X5080000Y-36345000D02*
X6730000Y-36345000D01*
X6730000Y-37245000D01*
X5080000Y-37245000D01*
X5080000Y-36345000D01*
D11*
X36381190Y-36728609D02*
X36452618Y-36776228D01*
X36452618Y-36776228D02*
X36476428Y-36823847D01*
X36476428Y-36823847D02*
X36500237Y-36919085D01*
X36500237Y-36919085D02*
X36500237Y-37061942D01*
X36500237Y-37061942D02*
X36476428Y-37157180D01*
X36476428Y-37157180D02*
X36452618Y-37204800D01*
X36452618Y-37204800D02*
X36404999Y-37252419D01*
X36404999Y-37252419D02*
X36214523Y-37252419D01*
X36214523Y-37252419D02*
X36214523Y-36252419D01*
X36214523Y-36252419D02*
X36381190Y-36252419D01*
X36381190Y-36252419D02*
X36428809Y-36300038D01*
X36428809Y-36300038D02*
X36452618Y-36347657D01*
X36452618Y-36347657D02*
X36476428Y-36442895D01*
X36476428Y-36442895D02*
X36476428Y-36538133D01*
X36476428Y-36538133D02*
X36452618Y-36633371D01*
X36452618Y-36633371D02*
X36428809Y-36680990D01*
X36428809Y-36680990D02*
X36381190Y-36728609D01*
X36381190Y-36728609D02*
X36214523Y-36728609D01*
X36714523Y-36871466D02*
X37095476Y-36871466D01*
X36904999Y-37252419D02*
X36904999Y-36490514D01*
D12*
X35830000Y-37245000D02*
X37480000Y-37245000D01*
X37480000Y-36345000D01*
X35830000Y-36345000D01*
X35830000Y-37245000D01*
D11*
X36656190Y-45378609D02*
X36727618Y-45426228D01*
X36727618Y-45426228D02*
X36751428Y-45473847D01*
X36751428Y-45473847D02*
X36775237Y-45569085D01*
X36775237Y-45569085D02*
X36775237Y-45711942D01*
X36775237Y-45711942D02*
X36751428Y-45807180D01*
X36751428Y-45807180D02*
X36727618Y-45854800D01*
X36727618Y-45854800D02*
X36679999Y-45902419D01*
X36679999Y-45902419D02*
X36489523Y-45902419D01*
X36489523Y-45902419D02*
X36489523Y-44902419D01*
X36489523Y-44902419D02*
X36656190Y-44902419D01*
X36656190Y-44902419D02*
X36703809Y-44950038D01*
X36703809Y-44950038D02*
X36727618Y-44997657D01*
X36727618Y-44997657D02*
X36751428Y-45092895D01*
X36751428Y-45092895D02*
X36751428Y-45188133D01*
X36751428Y-45188133D02*
X36727618Y-45283371D01*
X36727618Y-45283371D02*
X36703809Y-45330990D01*
X36703809Y-45330990D02*
X36656190Y-45378609D01*
X36656190Y-45378609D02*
X36489523Y-45378609D01*
X36989523Y-45521466D02*
X37370476Y-45521466D01*
D12*
X36105000Y-45895000D02*
X37755000Y-45895000D01*
X37755000Y-44995000D01*
X36105000Y-44995000D01*
X36105000Y-45895000D01*
D11*
X35277619Y-40235752D02*
X35277619Y-40902419D01*
X35039524Y-39854800D02*
X34801429Y-40569085D01*
X34801429Y-40569085D02*
X35420476Y-40569085D01*
X35801429Y-40807180D02*
X35849048Y-40854800D01*
X35849048Y-40854800D02*
X35801429Y-40902419D01*
X35801429Y-40902419D02*
X35753810Y-40854800D01*
X35753810Y-40854800D02*
X35801429Y-40807180D01*
X35801429Y-40807180D02*
X35801429Y-40902419D01*
X36230000Y-39997657D02*
X36277619Y-39950038D01*
X36277619Y-39950038D02*
X36372857Y-39902419D01*
X36372857Y-39902419D02*
X36610952Y-39902419D01*
X36610952Y-39902419D02*
X36706190Y-39950038D01*
X36706190Y-39950038D02*
X36753809Y-39997657D01*
X36753809Y-39997657D02*
X36801428Y-40092895D01*
X36801428Y-40092895D02*
X36801428Y-40188133D01*
X36801428Y-40188133D02*
X36753809Y-40330990D01*
X36753809Y-40330990D02*
X36182381Y-40902419D01*
X36182381Y-40902419D02*
X36801428Y-40902419D01*
X37087143Y-39902419D02*
X37420476Y-40902419D01*
X37420476Y-40902419D02*
X37753809Y-39902419D01*
D12*
X34417500Y-41920000D02*
X38042500Y-41920000D01*
X38042500Y-38970000D01*
X34417500Y-38970000D01*
X34417500Y-41920000D01*
D11*
X16932379Y-36978609D02*
X17075236Y-37026228D01*
X17075236Y-37026228D02*
X17122855Y-37073847D01*
X17122855Y-37073847D02*
X17170474Y-37169085D01*
X17170474Y-37169085D02*
X17170474Y-37311942D01*
X17170474Y-37311942D02*
X17122855Y-37407180D01*
X17122855Y-37407180D02*
X17075236Y-37454800D01*
X17075236Y-37454800D02*
X16979998Y-37502419D01*
X16979998Y-37502419D02*
X16599046Y-37502419D01*
X16599046Y-37502419D02*
X16599046Y-36502419D01*
X16599046Y-36502419D02*
X16932379Y-36502419D01*
X16932379Y-36502419D02*
X17027617Y-36550038D01*
X17027617Y-36550038D02*
X17075236Y-36597657D01*
X17075236Y-36597657D02*
X17122855Y-36692895D01*
X17122855Y-36692895D02*
X17122855Y-36788133D01*
X17122855Y-36788133D02*
X17075236Y-36883371D01*
X17075236Y-36883371D02*
X17027617Y-36930990D01*
X17027617Y-36930990D02*
X16932379Y-36978609D01*
X16932379Y-36978609D02*
X16599046Y-36978609D01*
X18027617Y-37502419D02*
X18027617Y-36978609D01*
X18027617Y-36978609D02*
X17979998Y-36883371D01*
X17979998Y-36883371D02*
X17884760Y-36835752D01*
X17884760Y-36835752D02*
X17694284Y-36835752D01*
X17694284Y-36835752D02*
X17599046Y-36883371D01*
X18027617Y-37454800D02*
X17932379Y-37502419D01*
X17932379Y-37502419D02*
X17694284Y-37502419D01*
X17694284Y-37502419D02*
X17599046Y-37454800D01*
X17599046Y-37454800D02*
X17551427Y-37359561D01*
X17551427Y-37359561D02*
X17551427Y-37264323D01*
X17551427Y-37264323D02*
X17599046Y-37169085D01*
X17599046Y-37169085D02*
X17694284Y-37121466D01*
X17694284Y-37121466D02*
X17932379Y-37121466D01*
X17932379Y-37121466D02*
X18027617Y-37073847D01*
X18360951Y-36835752D02*
X18741903Y-36835752D01*
X18503808Y-36502419D02*
X18503808Y-37359561D01*
X18503808Y-37359561D02*
X18551427Y-37454800D01*
X18551427Y-37454800D02*
X18646665Y-37502419D01*
X18646665Y-37502419D02*
X18741903Y-37502419D01*
X18932380Y-36835752D02*
X19313332Y-36835752D01*
X19075237Y-36502419D02*
X19075237Y-37359561D01*
X19075237Y-37359561D02*
X19122856Y-37454800D01*
X19122856Y-37454800D02*
X19218094Y-37502419D01*
X19218094Y-37502419D02*
X19313332Y-37502419D01*
X20027618Y-37454800D02*
X19932380Y-37502419D01*
X19932380Y-37502419D02*
X19741904Y-37502419D01*
X19741904Y-37502419D02*
X19646666Y-37454800D01*
X19646666Y-37454800D02*
X19599047Y-37359561D01*
X19599047Y-37359561D02*
X19599047Y-36978609D01*
X19599047Y-36978609D02*
X19646666Y-36883371D01*
X19646666Y-36883371D02*
X19741904Y-36835752D01*
X19741904Y-36835752D02*
X19932380Y-36835752D01*
X19932380Y-36835752D02*
X20027618Y-36883371D01*
X20027618Y-36883371D02*
X20075237Y-36978609D01*
X20075237Y-36978609D02*
X20075237Y-37073847D01*
X20075237Y-37073847D02*
X19599047Y-37169085D01*
X20503809Y-37502419D02*
X20503809Y-36835752D01*
X20503809Y-37026228D02*
X20551428Y-36930990D01*
X20551428Y-36930990D02*
X20599047Y-36883371D01*
X20599047Y-36883371D02*
X20694285Y-36835752D01*
X20694285Y-36835752D02*
X20789523Y-36835752D01*
X21027619Y-36835752D02*
X21265714Y-37502419D01*
X21503809Y-36835752D02*
X21265714Y-37502419D01*
X21265714Y-37502419D02*
X21170476Y-37740514D01*
X21170476Y-37740514D02*
X21122857Y-37788133D01*
X21122857Y-37788133D02*
X21027619Y-37835752D01*
X23218095Y-37407180D02*
X23170476Y-37454800D01*
X23170476Y-37454800D02*
X23027619Y-37502419D01*
X23027619Y-37502419D02*
X22932381Y-37502419D01*
X22932381Y-37502419D02*
X22789524Y-37454800D01*
X22789524Y-37454800D02*
X22694286Y-37359561D01*
X22694286Y-37359561D02*
X22646667Y-37264323D01*
X22646667Y-37264323D02*
X22599048Y-37073847D01*
X22599048Y-37073847D02*
X22599048Y-36930990D01*
X22599048Y-36930990D02*
X22646667Y-36740514D01*
X22646667Y-36740514D02*
X22694286Y-36645276D01*
X22694286Y-36645276D02*
X22789524Y-36550038D01*
X22789524Y-36550038D02*
X22932381Y-36502419D01*
X22932381Y-36502419D02*
X23027619Y-36502419D01*
X23027619Y-36502419D02*
X23170476Y-36550038D01*
X23170476Y-36550038D02*
X23218095Y-36597657D01*
X23646667Y-37502419D02*
X23646667Y-36502419D01*
X24075238Y-37502419D02*
X24075238Y-36978609D01*
X24075238Y-36978609D02*
X24027619Y-36883371D01*
X24027619Y-36883371D02*
X23932381Y-36835752D01*
X23932381Y-36835752D02*
X23789524Y-36835752D01*
X23789524Y-36835752D02*
X23694286Y-36883371D01*
X23694286Y-36883371D02*
X23646667Y-36930990D01*
X24980000Y-37502419D02*
X24980000Y-36978609D01*
X24980000Y-36978609D02*
X24932381Y-36883371D01*
X24932381Y-36883371D02*
X24837143Y-36835752D01*
X24837143Y-36835752D02*
X24646667Y-36835752D01*
X24646667Y-36835752D02*
X24551429Y-36883371D01*
X24980000Y-37454800D02*
X24884762Y-37502419D01*
X24884762Y-37502419D02*
X24646667Y-37502419D01*
X24646667Y-37502419D02*
X24551429Y-37454800D01*
X24551429Y-37454800D02*
X24503810Y-37359561D01*
X24503810Y-37359561D02*
X24503810Y-37264323D01*
X24503810Y-37264323D02*
X24551429Y-37169085D01*
X24551429Y-37169085D02*
X24646667Y-37121466D01*
X24646667Y-37121466D02*
X24884762Y-37121466D01*
X24884762Y-37121466D02*
X24980000Y-37073847D01*
X25456191Y-37502419D02*
X25456191Y-36835752D01*
X25456191Y-37026228D02*
X25503810Y-36930990D01*
X25503810Y-36930990D02*
X25551429Y-36883371D01*
X25551429Y-36883371D02*
X25646667Y-36835752D01*
X25646667Y-36835752D02*
X25741905Y-36835752D01*
X26503810Y-36835752D02*
X26503810Y-37645276D01*
X26503810Y-37645276D02*
X26456191Y-37740514D01*
X26456191Y-37740514D02*
X26408572Y-37788133D01*
X26408572Y-37788133D02*
X26313334Y-37835752D01*
X26313334Y-37835752D02*
X26170477Y-37835752D01*
X26170477Y-37835752D02*
X26075239Y-37788133D01*
X26503810Y-37454800D02*
X26408572Y-37502419D01*
X26408572Y-37502419D02*
X26218096Y-37502419D01*
X26218096Y-37502419D02*
X26122858Y-37454800D01*
X26122858Y-37454800D02*
X26075239Y-37407180D01*
X26075239Y-37407180D02*
X26027620Y-37311942D01*
X26027620Y-37311942D02*
X26027620Y-37026228D01*
X26027620Y-37026228D02*
X26075239Y-36930990D01*
X26075239Y-36930990D02*
X26122858Y-36883371D01*
X26122858Y-36883371D02*
X26218096Y-36835752D01*
X26218096Y-36835752D02*
X26408572Y-36835752D01*
X26408572Y-36835752D02*
X26503810Y-36883371D01*
X27360953Y-37454800D02*
X27265715Y-37502419D01*
X27265715Y-37502419D02*
X27075239Y-37502419D01*
X27075239Y-37502419D02*
X26980001Y-37454800D01*
X26980001Y-37454800D02*
X26932382Y-37359561D01*
X26932382Y-37359561D02*
X26932382Y-36978609D01*
X26932382Y-36978609D02*
X26980001Y-36883371D01*
X26980001Y-36883371D02*
X27075239Y-36835752D01*
X27075239Y-36835752D02*
X27265715Y-36835752D01*
X27265715Y-36835752D02*
X27360953Y-36883371D01*
X27360953Y-36883371D02*
X27408572Y-36978609D01*
X27408572Y-36978609D02*
X27408572Y-37073847D01*
X27408572Y-37073847D02*
X26932382Y-37169085D01*
X28599049Y-37502419D02*
X28599049Y-36502419D01*
X28599049Y-36502419D02*
X28932382Y-37216704D01*
X28932382Y-37216704D02*
X29265715Y-36502419D01*
X29265715Y-36502419D02*
X29265715Y-37502419D01*
X29884763Y-37502419D02*
X29789525Y-37454800D01*
X29789525Y-37454800D02*
X29741906Y-37407180D01*
X29741906Y-37407180D02*
X29694287Y-37311942D01*
X29694287Y-37311942D02*
X29694287Y-37026228D01*
X29694287Y-37026228D02*
X29741906Y-36930990D01*
X29741906Y-36930990D02*
X29789525Y-36883371D01*
X29789525Y-36883371D02*
X29884763Y-36835752D01*
X29884763Y-36835752D02*
X30027620Y-36835752D01*
X30027620Y-36835752D02*
X30122858Y-36883371D01*
X30122858Y-36883371D02*
X30170477Y-36930990D01*
X30170477Y-36930990D02*
X30218096Y-37026228D01*
X30218096Y-37026228D02*
X30218096Y-37311942D01*
X30218096Y-37311942D02*
X30170477Y-37407180D01*
X30170477Y-37407180D02*
X30122858Y-37454800D01*
X30122858Y-37454800D02*
X30027620Y-37502419D01*
X30027620Y-37502419D02*
X29884763Y-37502419D01*
X31075239Y-37502419D02*
X31075239Y-36502419D01*
X31075239Y-37454800D02*
X30980001Y-37502419D01*
X30980001Y-37502419D02*
X30789525Y-37502419D01*
X30789525Y-37502419D02*
X30694287Y-37454800D01*
X30694287Y-37454800D02*
X30646668Y-37407180D01*
X30646668Y-37407180D02*
X30599049Y-37311942D01*
X30599049Y-37311942D02*
X30599049Y-37026228D01*
X30599049Y-37026228D02*
X30646668Y-36930990D01*
X30646668Y-36930990D02*
X30694287Y-36883371D01*
X30694287Y-36883371D02*
X30789525Y-36835752D01*
X30789525Y-36835752D02*
X30980001Y-36835752D01*
X30980001Y-36835752D02*
X31075239Y-36883371D01*
X31980001Y-36835752D02*
X31980001Y-37502419D01*
X31551430Y-36835752D02*
X31551430Y-37359561D01*
X31551430Y-37359561D02*
X31599049Y-37454800D01*
X31599049Y-37454800D02*
X31694287Y-37502419D01*
X31694287Y-37502419D02*
X31837144Y-37502419D01*
X31837144Y-37502419D02*
X31932382Y-37454800D01*
X31932382Y-37454800D02*
X31980001Y-37407180D01*
X32599049Y-37502419D02*
X32503811Y-37454800D01*
X32503811Y-37454800D02*
X32456192Y-37359561D01*
X32456192Y-37359561D02*
X32456192Y-36502419D01*
X33360954Y-37454800D02*
X33265716Y-37502419D01*
X33265716Y-37502419D02*
X33075240Y-37502419D01*
X33075240Y-37502419D02*
X32980002Y-37454800D01*
X32980002Y-37454800D02*
X32932383Y-37359561D01*
X32932383Y-37359561D02*
X32932383Y-36978609D01*
X32932383Y-36978609D02*
X32980002Y-36883371D01*
X32980002Y-36883371D02*
X33075240Y-36835752D01*
X33075240Y-36835752D02*
X33265716Y-36835752D01*
X33265716Y-36835752D02*
X33360954Y-36883371D01*
X33360954Y-36883371D02*
X33408573Y-36978609D01*
X33408573Y-36978609D02*
X33408573Y-37073847D01*
X33408573Y-37073847D02*
X32932383Y-37169085D01*
%TO.C,REF\u002A\u002A*%
X9355000Y-5520000D02*
X355000Y-5520000D01*
X355000Y-1520000D01*
X9355000Y-1520000D01*
X9355000Y-5520000D01*
X9330000Y-15245000D02*
X330000Y-15245000D01*
X330000Y-11245000D01*
X9330000Y-11245000D01*
X9330000Y-15245000D01*
X9305000Y-19845000D02*
X305000Y-19845000D01*
X305000Y-15845000D01*
X9305000Y-15845000D01*
X9305000Y-19845000D01*
X9330000Y-10845000D02*
X330000Y-10845000D01*
X330000Y-6845000D01*
X9330000Y-6845000D01*
X9330000Y-10845000D01*
D13*
%TO.C,Sensors*%
X31595000Y-24280000D02*
X31595000Y-23170000D01*
X32705000Y-24280000D02*
X31595000Y-24280000D01*
X33705000Y-22060000D02*
X37815000Y-22060000D01*
X33705000Y-24280000D02*
X33705000Y-22060000D01*
X33705000Y-24280000D02*
X37815000Y-24280000D01*
X37815000Y-24280000D02*
X37815000Y-22060000D01*
%TO.C,Button*%
X37840000Y-26060000D02*
X37840000Y-27170000D01*
X36730000Y-26060000D02*
X37840000Y-26060000D01*
X35730000Y-26060000D02*
X27620000Y-26060000D01*
X35730000Y-26060000D02*
X35730000Y-28280000D01*
X27620000Y-26060000D02*
X27620000Y-28280000D01*
X35730000Y-28280000D02*
X27620000Y-28280000D01*
%TO.C,Display / I2C Bus*%
X37865000Y-29935000D02*
X37865000Y-31045000D01*
X36755000Y-29935000D02*
X37865000Y-29935000D01*
X35755000Y-29935000D02*
X29645000Y-29935000D01*
X35755000Y-29935000D02*
X35755000Y-32155000D01*
X29645000Y-29935000D02*
X29645000Y-32155000D01*
X35755000Y-32155000D02*
X29645000Y-32155000D01*
D14*
%TO.C,ESP32-C3
SuperMini*%
X15670000Y-3025000D02*
X38370000Y-3025000D01*
X39670000Y-7525000D02*
X38370000Y-7525000D01*
X38370000Y-7525000D02*
X38370000Y-3025000D01*
X39670000Y-16525000D02*
X39670000Y-7525000D01*
X39670000Y-16525000D02*
X38370000Y-16525000D01*
X38370000Y-21025000D02*
X38370000Y-16525000D01*
X15670000Y-21025000D02*
X15670000Y-3025000D01*
X15670000Y-21025000D02*
X38370000Y-21025000D01*
%TD*%
M02*
