M48
; DRILL file {KiCad 9.0.2} date 2025-05-26T23:59:09+0900
; FORMAT={-:-/ absolute / metric / decimal}
; #@! TF.CreationDate,2025-05-26T23:59:09+09:00
; #@! TF.GenerationSoftware,Kicad,Pcbnew,9.0.2
; #@! TF.FileFunction,Plated,1,2,PTH
FMAT,2
METRIC
; #@! TA.AperFunction,Plated,PTH,ViaDrill
T1C0.300
; #@! TA.AperFunction,Plated,PTH,ComponentDrill
T2C0.800
; #@! TA.AperFunction,Plated,PTH,ViaDrill
T3C1.000
; #@! TA.AperFunction,Plated,PTH,ComponentDrill
T4C1.016
; #@! TA.AperFunction,Plated,PTH,ComponentDrill
T5C1.270
%
G90
G05
T1
X7.1Y-19.6
X7.7Y-34.525
X9.45Y-34.525
X36.55Y-13.225
X39.425Y-13.225
X40.75Y-22.5
X42.55Y-29.525
X43.825Y-30.4
T2
X7.08Y-7.16
X7.08Y-9.16
X7.08Y-11.16
X7.08Y-13.16
X7.08Y-15.16
X7.08Y-22.16
X7.08Y-24.16
X7.08Y-26.16
X7.08Y-28.16
X33.525Y-3.9
X35.525Y-3.9
X37.525Y-3.9
T3
X46.225Y-26.2
X46.225Y-37.4
X48.825Y-26.2
X48.825Y-37.4
T4
X5.255Y-40.718
X5.255Y-43.258
X5.255Y-45.798
X7.795Y-48.338
X10.335Y-48.338
X12.875Y-40.718
X12.875Y-43.258
X12.875Y-45.798
T5
X14.46Y-7.26
X14.46Y-9.8
X14.46Y-12.34
X14.46Y-14.88
X14.46Y-17.42
X14.46Y-19.96
X14.46Y-22.5
X14.46Y-25.04
X29.7Y-7.26
X29.7Y-9.8
X29.7Y-12.34
X29.7Y-14.88
X29.7Y-17.42
X29.7Y-19.96
X29.7Y-22.5
X29.7Y-25.04
M30
