M48
; DRILL file {KiCad 9.0.2} date 2025-06-08T01:04:21+0900
; FORMAT={-:-/ absolute / metric / decimal}
; #@! TF.CreationDate,2025-06-08T01:04:21+09:00
; #@! TF.GenerationSoftware,Kicad,Pcbnew,9.0.2
; #@! TF.FileFunction,Plated,1,2,PTH
FMAT,2
METRIC
; #@! TA.AperFunction,Plated,PTH,ComponentDrill
T1C0.800
; #@! TA.AperFunction,Plated,PTH,ComponentDrill
T2C1.016
; #@! TA.AperFunction,Plated,PTH,ComponentDrill
T3C1.270
; #@! TA.AperFunction,Plated,PTH,ViaDrill
T4C1.500
; #@! TA.AperFunction,Plated,PTH,ComponentDrill
T5C1.500
%
G90
G05
T1
X28.73Y-27.17
X30.73Y-27.17
X30.755Y-31.045
X32.705Y-23.17
X32.73Y-27.17
X32.755Y-31.045
X34.705Y-23.17
X34.73Y-27.17
X34.755Y-31.045
X36.705Y-23.17
X36.73Y-27.17
X36.755Y-31.045
T2
X11.47Y-26.735
X11.47Y-29.275
X14.01Y-24.195
X14.01Y-31.815
X16.55Y-24.195
X16.55Y-31.815
X19.09Y-24.195
X19.09Y-31.815
T3
X19.14Y-4.405
X19.14Y-19.645
X21.68Y-4.405
X21.68Y-19.645
X24.22Y-4.405
X24.22Y-19.645
X26.76Y-4.405
X26.76Y-19.645
X29.3Y-4.405
X29.3Y-19.645
X31.84Y-4.405
X31.84Y-19.645
X34.38Y-4.405
X34.38Y-19.645
X36.92Y-4.405
X36.92Y-19.645
T4
X32.73Y-1.42
X35.43Y-1.445
X38.18Y-1.47
T5
X2.305Y-17.845
X2.33Y-8.845
X2.33Y-13.245
X2.355Y-3.52
X4.805Y-17.845
X4.83Y-8.845
X4.83Y-13.245
X4.855Y-3.52
X7.305Y-17.845
X7.33Y-8.845
X7.33Y-13.245
X7.355Y-3.52
M30
