%TF.GenerationSoftware,KiCad,Pcbnew,9.0.2*%
%TF.CreationDate,2025-06-08T01:04:18+09:00*%
%TF.ProjectId,__,78912e6b-6963-4616-945f-706362585858,rev?*%
%TF.SameCoordinates,Original*%
%TF.FileFunction,Soldermask,Top*%
%TF.FilePolarity,Negative*%
%FSLAX46Y46*%
G04 Gerber Fmt 4.6, Leading zero omitted, Abs format (unit mm)*
G04 Created by KiCad (PCBNEW 9.0.2) date 2025-06-08 01:04:18*
%MOMM*%
%LPD*%
G01*
G04 APERTURE LIST*
G04 Aperture macros list*
%AMRoundRect*
0 Rectangle with rounded corners*
0 $1 Rounding radius*
0 $2 $3 $4 $5 $6 $7 $8 $9 X,Y pos of 4 corners*
0 Add a 4 corners polygon primitive as box body*
4,1,4,$2,$3,$4,$5,$6,$7,$8,$9,$2,$3,0*
0 Add four circle primitives for the rounded corners*
1,1,$1+$1,$2,$3*
1,1,$1+$1,$4,$5*
1,1,$1+$1,$6,$7*
1,1,$1+$1,$8,$9*
0 Add four rect primitives between the rounded corners*
20,1,$1+$1,$2,$3,$4,$5,0*
20,1,$1+$1,$4,$5,$6,$7,0*
20,1,$1+$1,$6,$7,$8,$9,0*
20,1,$1+$1,$8,$9,$2,$3,0*%
G04 Aperture macros list end*
%ADD10C,2.000000*%
%ADD11C,2.082800*%
%ADD12C,1.350000*%
%ADD13R,1.350000X1.350000*%
%ADD14RoundRect,0.300000X-1.200000X-0.700000X1.200000X-0.700000X1.200000X0.700000X-1.200000X0.700000X0*%
%ADD15C,2.109000*%
%ADD16C,0.200000*%
G04 APERTURE END LIST*
D10*
%TO.C,REF\u002A\u002A*%
X4855000Y-3520000D03*
X7355000Y-3520000D03*
X2355000Y-3520000D03*
%TD*%
%TO.C,REF\u002A\u002A*%
X4830000Y-13245000D03*
X7330000Y-13245000D03*
X2330000Y-13245000D03*
%TD*%
%TO.C,REF\u002A\u002A*%
X4805000Y-17845000D03*
X7305000Y-17845000D03*
X2305000Y-17845000D03*
%TD*%
%TO.C,REF\u002A\u002A*%
X4830000Y-8845000D03*
X7330000Y-8845000D03*
X2330000Y-8845000D03*
%TD*%
D11*
%TO.C,JP5*%
X11470000Y-29275000D03*
X11470000Y-26735000D03*
%TD*%
%TO.C,JP4*%
X19090000Y-31815000D03*
X16550000Y-31815000D03*
X14010000Y-31815000D03*
%TD*%
%TO.C,JP2*%
X14010000Y-24195000D03*
X16550000Y-24195000D03*
X19090000Y-24195000D03*
%TD*%
D12*
%TO.C,Sensors*%
X36705000Y-23170000D03*
X34705000Y-23170000D03*
D13*
X32705000Y-23170000D03*
%TD*%
D12*
%TO.C,Button*%
X36730000Y-27170000D03*
X34730000Y-27170000D03*
X32730000Y-27170000D03*
X30730000Y-27170000D03*
X28730000Y-27170000D03*
%TD*%
D14*
%TO.C,*%
X5905000Y-47495000D03*
%TD*%
%TO.C,*%
X1955000Y-34895000D03*
%TD*%
%TO.C,*%
X1955000Y-47495000D03*
%TD*%
%TO.C,PAD*%
X36805000Y-47495000D03*
%TD*%
%TO.C,*%
X5905000Y-34895000D03*
%TD*%
D12*
%TO.C,Display / I2C Bus*%
X36755000Y-31045000D03*
X34755000Y-31045000D03*
X32755000Y-31045000D03*
X30755000Y-31045000D03*
%TD*%
D14*
%TO.C,*%
X36805000Y-34895000D03*
%TD*%
D15*
%TO.C,ESP32-C3
SuperMini*%
X19140000Y-19645000D03*
X21680000Y-19645000D03*
X24220000Y-19645000D03*
X26760000Y-19645000D03*
X31840000Y-19645000D03*
X29300000Y-19645000D03*
X36920000Y-4405000D03*
X36920000Y-19645000D03*
X34380000Y-4405000D03*
X31840000Y-4405000D03*
X29300000Y-4405000D03*
X26760000Y-4405000D03*
X24220000Y-4405000D03*
X21680000Y-4405000D03*
X19140000Y-4405000D03*
X34380000Y-19645000D03*
%TD*%
D10*
X32730000Y-1420000D03*
X38180000Y-1470000D03*
X35430000Y-1445000D03*
D16*
X28830000Y-1395000D02*
X9480000Y-1395000D01*
X9480000Y-1395000D02*
X7355000Y-3520000D01*
X31840000Y-4405000D02*
X28830000Y-1395000D01*
X34380000Y-3070000D02*
X34380000Y-4405000D01*
X32730000Y-1420000D02*
X34380000Y-3070000D01*
X36920000Y-2935000D02*
X36920000Y-4405000D01*
X35430000Y-1445000D02*
X36920000Y-2935000D01*
X38805000Y-5170000D02*
X38805000Y-2095000D01*
X38805000Y-2095000D02*
X38180000Y-1470000D01*
X31740000Y-7045000D02*
X36930000Y-7045000D01*
X19140000Y-19645000D02*
X31740000Y-7045000D01*
X36930000Y-7045000D02*
X38805000Y-5170000D01*
X14700000Y-8845000D02*
X19140000Y-4405000D01*
X7330000Y-8845000D02*
X14700000Y-8845000D01*
X7330000Y-13245000D02*
X12840000Y-13245000D01*
X12840000Y-13245000D02*
X21680000Y-4405000D01*
X7305000Y-17845000D02*
X10780000Y-17845000D01*
X19855000Y-21845000D02*
X16360000Y-21845000D01*
X30855000Y-29145000D02*
X27155000Y-29145000D01*
X32755000Y-31045000D02*
X30855000Y-29145000D01*
X27155000Y-29145000D02*
X19855000Y-21845000D01*
X12280000Y-24995000D02*
X12280000Y-18895000D01*
X12280000Y-18895000D02*
X26760000Y-4415000D01*
X13205000Y-25920000D02*
X12280000Y-24995000D01*
X14830000Y-25920000D02*
X13205000Y-25920000D01*
X16550000Y-24200000D02*
X14830000Y-25920000D01*
X16360000Y-17345000D02*
X29300000Y-4405000D01*
X16360000Y-21845000D02*
X16360000Y-17345000D01*
X16360000Y-21845000D02*
X14010000Y-24195000D01*
X17705000Y-34895000D02*
X36805000Y-34895000D01*
X16550000Y-33740000D02*
X17705000Y-34895000D01*
X16550000Y-31815000D02*
X16550000Y-33740000D01*
X14010000Y-37750000D02*
X23705000Y-47445000D01*
X23705000Y-47445000D02*
X36755000Y-47445000D01*
X14010000Y-31815000D02*
X14010000Y-37750000D01*
X30755000Y-31045000D02*
X23400000Y-31045000D01*
X23400000Y-31045000D02*
X16550000Y-24195000D01*
X24220000Y-20635000D02*
X24220000Y-19645000D01*
X30730000Y-27145000D02*
X24220000Y-20635000D01*
X21680000Y-20120000D02*
X28730000Y-27170000D01*
X26760000Y-21200000D02*
X32730000Y-27170000D01*
X26760000Y-19645000D02*
X26760000Y-21200000D01*
X32705000Y-23050000D02*
X29300000Y-19645000D01*
X36805000Y-34895000D02*
X36805000Y-31095000D01*
X31840000Y-20305000D02*
X34705000Y-23170000D01*
X34380000Y-20845000D02*
X34380000Y-19645000D01*
X36705000Y-23170000D02*
X34380000Y-20845000D01*
X39305000Y-45120000D02*
X39305000Y-22045000D01*
X36930000Y-47495000D02*
X39305000Y-45120000D01*
X39305000Y-22045000D02*
X36920000Y-19660000D01*
X36730000Y-27170000D02*
X36730000Y-31020000D01*
X36705000Y-23170000D02*
X36705000Y-27145000D01*
X34730000Y-27170000D02*
X34730000Y-31020000D01*
X34705000Y-23170000D02*
X34705000Y-27145000D01*
X36805000Y-34895000D02*
X37055000Y-34645000D01*
X6405000Y-34995000D02*
X6405000Y-34745000D01*
X24220000Y-4405000D02*
X10780000Y-17845000D01*
M02*
