%TF.GenerationSoftware,KiCad,Pcbnew,9.0.2*%
%TF.CreationDate,2025-05-31T13:39:49+09:00*%
%TF.ProjectId,__,78912e6b-6963-4616-945f-706362585858,rev?*%
%TF.SameCoordinates,Original*%
%TF.FileFunction,Legend,Bot*%
%TF.FilePolarity,Positive*%
%FSLAX46Y46*%
G04 Gerber Fmt 4.6, Leading zero omitted, Abs format (unit mm)*
G04 Created by KiCad (PCBNEW 9.0.2) date 2025-05-31 13:39:49*
%MOMM*%
%LPD*%
G01*
G04 APERTURE LIST*
%ADD10C,0.100000*%
%ADD11C,0.200000*%
%ADD12C,0.114300*%
%ADD13C,0.203200*%
G04 APERTURE END LIST*
D10*
X27309523Y-20382419D02*
X27184523Y-19382419D01*
X27184523Y-19382419D02*
X26803570Y-19382419D01*
X26803570Y-19382419D02*
X26714285Y-19430038D01*
X26714285Y-19430038D02*
X26672618Y-19477657D01*
X26672618Y-19477657D02*
X26636904Y-19572895D01*
X26636904Y-19572895D02*
X26654761Y-19715752D01*
X26654761Y-19715752D02*
X26714285Y-19810990D01*
X26714285Y-19810990D02*
X26767856Y-19858609D01*
X26767856Y-19858609D02*
X26869046Y-19906228D01*
X26869046Y-19906228D02*
X27249999Y-19906228D01*
X26309523Y-20382419D02*
X26226189Y-19715752D01*
X26184523Y-19382419D02*
X26238094Y-19430038D01*
X26238094Y-19430038D02*
X26196427Y-19477657D01*
X26196427Y-19477657D02*
X26142856Y-19430038D01*
X26142856Y-19430038D02*
X26184523Y-19382419D01*
X26184523Y-19382419D02*
X26196427Y-19477657D01*
X25749999Y-19715752D02*
X25833333Y-20382419D01*
X25761904Y-19810990D02*
X25708333Y-19763371D01*
X25708333Y-19763371D02*
X25607142Y-19715752D01*
X25607142Y-19715752D02*
X25464285Y-19715752D01*
X25464285Y-19715752D02*
X25374999Y-19763371D01*
X25374999Y-19763371D02*
X25339285Y-19858609D01*
X25339285Y-19858609D02*
X25404761Y-20382419D01*
X24863094Y-19477657D02*
X24809523Y-19430038D01*
X24809523Y-19430038D02*
X24708333Y-19382419D01*
X24708333Y-19382419D02*
X24470237Y-19382419D01*
X24470237Y-19382419D02*
X24380952Y-19430038D01*
X24380952Y-19430038D02*
X24339285Y-19477657D01*
X24339285Y-19477657D02*
X24303571Y-19572895D01*
X24303571Y-19572895D02*
X24315475Y-19668133D01*
X24315475Y-19668133D02*
X24380952Y-19810990D01*
X24380952Y-19810990D02*
X25023809Y-20382419D01*
X25023809Y-20382419D02*
X24404761Y-20382419D01*
X23500000Y-19050000D02*
X23520000Y-19050000D01*
X23920000Y-19050000D02*
X23940000Y-19050000D01*
X24340000Y-19050000D02*
X24360000Y-19050000D01*
X24760000Y-19050000D02*
X24780000Y-19050000D01*
X25180000Y-19050000D02*
X25200000Y-19050000D01*
X25600000Y-19050000D02*
X25620000Y-19050000D01*
X26020000Y-19050000D02*
X26040000Y-19050000D01*
X26440000Y-19050000D02*
X26460000Y-19050000D01*
X26860000Y-19050000D02*
X26880000Y-19050000D01*
X27280000Y-19050000D02*
X27300000Y-19050000D01*
X27700000Y-19050000D02*
X27720000Y-19050000D01*
X28120000Y-19050000D02*
X28140000Y-19050000D01*
X28250000Y-19050000D02*
X28250000Y-19070000D01*
X28250000Y-19470000D02*
X28250000Y-19490000D01*
X28250000Y-19890000D02*
X28250000Y-19910000D01*
X28250000Y-20310000D02*
X28250000Y-20330000D01*
X28250000Y-20730000D02*
X28250000Y-20750000D01*
X28250000Y-20800000D02*
X28230000Y-20800000D01*
X27830000Y-20800000D02*
X27810000Y-20800000D01*
X27410000Y-20800000D02*
X27390000Y-20800000D01*
X26990000Y-20800000D02*
X26970000Y-20800000D01*
X26570000Y-20800000D02*
X26550000Y-20800000D01*
X26150000Y-20800000D02*
X26130000Y-20800000D01*
X25730000Y-20800000D02*
X25710000Y-20800000D01*
X25310000Y-20800000D02*
X25290000Y-20800000D01*
X24890000Y-20800000D02*
X24870000Y-20800000D01*
X24470000Y-20800000D02*
X24450000Y-20800000D01*
X24050000Y-20800000D02*
X24030000Y-20800000D01*
X23630000Y-20800000D02*
X23610000Y-20800000D01*
X23500000Y-20800000D02*
X23500000Y-20780000D01*
X23500000Y-20380000D02*
X23500000Y-20360000D01*
X23500000Y-19960000D02*
X23500000Y-19940000D01*
X23500000Y-19540000D02*
X23500000Y-19520000D01*
X23500000Y-19120000D02*
X23500000Y-19100000D01*
X27309523Y-22982419D02*
X27184523Y-21982419D01*
X27184523Y-21982419D02*
X26803570Y-21982419D01*
X26803570Y-21982419D02*
X26714285Y-22030038D01*
X26714285Y-22030038D02*
X26672618Y-22077657D01*
X26672618Y-22077657D02*
X26636904Y-22172895D01*
X26636904Y-22172895D02*
X26654761Y-22315752D01*
X26654761Y-22315752D02*
X26714285Y-22410990D01*
X26714285Y-22410990D02*
X26767856Y-22458609D01*
X26767856Y-22458609D02*
X26869046Y-22506228D01*
X26869046Y-22506228D02*
X27249999Y-22506228D01*
X26309523Y-22982419D02*
X26226189Y-22315752D01*
X26184523Y-21982419D02*
X26238094Y-22030038D01*
X26238094Y-22030038D02*
X26196427Y-22077657D01*
X26196427Y-22077657D02*
X26142856Y-22030038D01*
X26142856Y-22030038D02*
X26184523Y-21982419D01*
X26184523Y-21982419D02*
X26196427Y-22077657D01*
X25749999Y-22315752D02*
X25833333Y-22982419D01*
X25761904Y-22410990D02*
X25708333Y-22363371D01*
X25708333Y-22363371D02*
X25607142Y-22315752D01*
X25607142Y-22315752D02*
X25464285Y-22315752D01*
X25464285Y-22315752D02*
X25374999Y-22363371D01*
X25374999Y-22363371D02*
X25339285Y-22458609D01*
X25339285Y-22458609D02*
X25404761Y-22982419D01*
X24863094Y-22077657D02*
X24809523Y-22030038D01*
X24809523Y-22030038D02*
X24708333Y-21982419D01*
X24708333Y-21982419D02*
X24470237Y-21982419D01*
X24470237Y-21982419D02*
X24380952Y-22030038D01*
X24380952Y-22030038D02*
X24339285Y-22077657D01*
X24339285Y-22077657D02*
X24303571Y-22172895D01*
X24303571Y-22172895D02*
X24315475Y-22268133D01*
X24315475Y-22268133D02*
X24380952Y-22410990D01*
X24380952Y-22410990D02*
X25023809Y-22982419D01*
X25023809Y-22982419D02*
X24404761Y-22982419D01*
X23500000Y-21650000D02*
X23520000Y-21650000D01*
X23920000Y-21650000D02*
X23940000Y-21650000D01*
X24340000Y-21650000D02*
X24360000Y-21650000D01*
X24760000Y-21650000D02*
X24780000Y-21650000D01*
X25180000Y-21650000D02*
X25200000Y-21650000D01*
X25600000Y-21650000D02*
X25620000Y-21650000D01*
X26020000Y-21650000D02*
X26040000Y-21650000D01*
X26440000Y-21650000D02*
X26460000Y-21650000D01*
X26860000Y-21650000D02*
X26880000Y-21650000D01*
X27280000Y-21650000D02*
X27300000Y-21650000D01*
X27700000Y-21650000D02*
X27720000Y-21650000D01*
X28120000Y-21650000D02*
X28140000Y-21650000D01*
X28250000Y-21650000D02*
X28250000Y-21670000D01*
X28250000Y-22070000D02*
X28250000Y-22090000D01*
X28250000Y-22490000D02*
X28250000Y-22510000D01*
X28250000Y-22910000D02*
X28250000Y-22930000D01*
X28250000Y-23330000D02*
X28250000Y-23350000D01*
X28250000Y-23400000D02*
X28230000Y-23400000D01*
X27830000Y-23400000D02*
X27810000Y-23400000D01*
X27410000Y-23400000D02*
X27390000Y-23400000D01*
X26990000Y-23400000D02*
X26970000Y-23400000D01*
X26570000Y-23400000D02*
X26550000Y-23400000D01*
X26150000Y-23400000D02*
X26130000Y-23400000D01*
X25730000Y-23400000D02*
X25710000Y-23400000D01*
X25310000Y-23400000D02*
X25290000Y-23400000D01*
X24890000Y-23400000D02*
X24870000Y-23400000D01*
X24470000Y-23400000D02*
X24450000Y-23400000D01*
X24050000Y-23400000D02*
X24030000Y-23400000D01*
X23630000Y-23400000D02*
X23610000Y-23400000D01*
X23500000Y-23400000D02*
X23500000Y-23380000D01*
X23500000Y-22980000D02*
X23500000Y-22960000D01*
X23500000Y-22560000D02*
X23500000Y-22540000D01*
X23500000Y-22140000D02*
X23500000Y-22120000D01*
X23500000Y-21720000D02*
X23500000Y-21700000D01*
D11*
X20752380Y-20306980D02*
X20799999Y-20354600D01*
X20799999Y-20354600D02*
X20942856Y-20402219D01*
X20942856Y-20402219D02*
X21038094Y-20402219D01*
X21038094Y-20402219D02*
X21180951Y-20354600D01*
X21180951Y-20354600D02*
X21276189Y-20259361D01*
X21276189Y-20259361D02*
X21323808Y-20164123D01*
X21323808Y-20164123D02*
X21371427Y-19973647D01*
X21371427Y-19973647D02*
X21371427Y-19830790D01*
X21371427Y-19830790D02*
X21323808Y-19640314D01*
X21323808Y-19640314D02*
X21276189Y-19545076D01*
X21276189Y-19545076D02*
X21180951Y-19449838D01*
X21180951Y-19449838D02*
X21038094Y-19402219D01*
X21038094Y-19402219D02*
X20942856Y-19402219D01*
X20942856Y-19402219D02*
X20799999Y-19449838D01*
X20799999Y-19449838D02*
X20752380Y-19497457D01*
X20323808Y-20021266D02*
X19561904Y-20021266D01*
X19085713Y-20402219D02*
X19085713Y-19402219D01*
X19085713Y-19402219D02*
X18704761Y-19402219D01*
X18704761Y-19402219D02*
X18609523Y-19449838D01*
X18609523Y-19449838D02*
X18561904Y-19497457D01*
X18561904Y-19497457D02*
X18514285Y-19592695D01*
X18514285Y-19592695D02*
X18514285Y-19735552D01*
X18514285Y-19735552D02*
X18561904Y-19830790D01*
X18561904Y-19830790D02*
X18609523Y-19878409D01*
X18609523Y-19878409D02*
X18704761Y-19926028D01*
X18704761Y-19926028D02*
X19085713Y-19926028D01*
X18180951Y-19402219D02*
X17942856Y-20402219D01*
X17942856Y-20402219D02*
X17752380Y-19687933D01*
X17752380Y-19687933D02*
X17561904Y-20402219D01*
X17561904Y-20402219D02*
X17323809Y-19402219D01*
X16942856Y-20402219D02*
X16942856Y-19402219D01*
X16942856Y-19402219D02*
X16609523Y-20116504D01*
X16609523Y-20116504D02*
X16276190Y-19402219D01*
X16276190Y-19402219D02*
X16276190Y-20402219D01*
D10*
X16000000Y-19100000D02*
X16020000Y-19100000D01*
X16420000Y-19100000D02*
X16440000Y-19100000D01*
X16840000Y-19100000D02*
X16860000Y-19100000D01*
X17260000Y-19100000D02*
X17280000Y-19100000D01*
X17680000Y-19100000D02*
X17700000Y-19100000D01*
X18100000Y-19100000D02*
X18120000Y-19100000D01*
X18520000Y-19100000D02*
X18540000Y-19100000D01*
X18940000Y-19100000D02*
X18960000Y-19100000D01*
X19360000Y-19100000D02*
X19380000Y-19100000D01*
X19780000Y-19100000D02*
X19800000Y-19100000D01*
X20200000Y-19100000D02*
X20220000Y-19100000D01*
X20620000Y-19100000D02*
X20640000Y-19100000D01*
X21040000Y-19100000D02*
X21060000Y-19100000D01*
X21460000Y-19100000D02*
X21480000Y-19100000D01*
X21600000Y-19100000D02*
X21600000Y-19120000D01*
X21600000Y-19520000D02*
X21600000Y-19540000D01*
X21600000Y-19940000D02*
X21600000Y-19960000D01*
X21600000Y-20360000D02*
X21600000Y-20380000D01*
X21600000Y-20780000D02*
X21600000Y-20800000D01*
X21600000Y-20800000D02*
X21580000Y-20800000D01*
X21180000Y-20800000D02*
X21160000Y-20800000D01*
X20760000Y-20800000D02*
X20740000Y-20800000D01*
X20340000Y-20800000D02*
X20320000Y-20800000D01*
X19920000Y-20800000D02*
X19900000Y-20800000D01*
X19500000Y-20800000D02*
X19480000Y-20800000D01*
X19080000Y-20800000D02*
X19060000Y-20800000D01*
X18660000Y-20800000D02*
X18640000Y-20800000D01*
X18240000Y-20800000D02*
X18220000Y-20800000D01*
X17820000Y-20800000D02*
X17800000Y-20800000D01*
X17400000Y-20800000D02*
X17380000Y-20800000D01*
X16980000Y-20800000D02*
X16960000Y-20800000D01*
X16560000Y-20800000D02*
X16540000Y-20800000D01*
X16140000Y-20800000D02*
X16120000Y-20800000D01*
X16000000Y-20800000D02*
X16000000Y-20780000D01*
X16000000Y-20380000D02*
X16000000Y-20360000D01*
X16000000Y-19960000D02*
X16000000Y-19940000D01*
X16000000Y-19540000D02*
X16000000Y-19520000D01*
X16000000Y-19120000D02*
X16000000Y-19100000D01*
D11*
X4536904Y-6604838D02*
X4632142Y-6557219D01*
X4632142Y-6557219D02*
X4774999Y-6557219D01*
X4774999Y-6557219D02*
X4917856Y-6604838D01*
X4917856Y-6604838D02*
X5013094Y-6700076D01*
X5013094Y-6700076D02*
X5060713Y-6795314D01*
X5060713Y-6795314D02*
X5108332Y-6985790D01*
X5108332Y-6985790D02*
X5108332Y-7128647D01*
X5108332Y-7128647D02*
X5060713Y-7319123D01*
X5060713Y-7319123D02*
X5013094Y-7414361D01*
X5013094Y-7414361D02*
X4917856Y-7509600D01*
X4917856Y-7509600D02*
X4774999Y-7557219D01*
X4774999Y-7557219D02*
X4679761Y-7557219D01*
X4679761Y-7557219D02*
X4536904Y-7509600D01*
X4536904Y-7509600D02*
X4489285Y-7461980D01*
X4489285Y-7461980D02*
X4489285Y-7128647D01*
X4489285Y-7128647D02*
X4679761Y-7128647D01*
X4060713Y-7557219D02*
X4060713Y-6557219D01*
X4060713Y-6557219D02*
X3489285Y-7557219D01*
X3489285Y-7557219D02*
X3489285Y-6557219D01*
X3013094Y-7557219D02*
X3013094Y-6557219D01*
X3013094Y-6557219D02*
X2774999Y-6557219D01*
X2774999Y-6557219D02*
X2632142Y-6604838D01*
X2632142Y-6604838D02*
X2536904Y-6700076D01*
X2536904Y-6700076D02*
X2489285Y-6795314D01*
X2489285Y-6795314D02*
X2441666Y-6985790D01*
X2441666Y-6985790D02*
X2441666Y-7128647D01*
X2441666Y-7128647D02*
X2489285Y-7319123D01*
X2489285Y-7319123D02*
X2536904Y-7414361D01*
X2536904Y-7414361D02*
X2632142Y-7509600D01*
X2632142Y-7509600D02*
X2774999Y-7557219D01*
X2774999Y-7557219D02*
X3013094Y-7557219D01*
D10*
X2025000Y-6230000D02*
X2045000Y-6230000D01*
X2445000Y-6230000D02*
X2465000Y-6230000D01*
X2865000Y-6230000D02*
X2885000Y-6230000D01*
X3285000Y-6230000D02*
X3305000Y-6230000D01*
X3705000Y-6230000D02*
X3725000Y-6230000D01*
X4125000Y-6230000D02*
X4145000Y-6230000D01*
X4545000Y-6230000D02*
X4565000Y-6230000D01*
X4965000Y-6230000D02*
X4985000Y-6230000D01*
X5385000Y-6230000D02*
X5405000Y-6230000D01*
X5525000Y-6230000D02*
X5525000Y-6250000D01*
X5525000Y-6650000D02*
X5525000Y-6670000D01*
X5525000Y-7070000D02*
X5525000Y-7090000D01*
X5525000Y-7490000D02*
X5525000Y-7510000D01*
X5525000Y-7910000D02*
X5525000Y-7930000D01*
X5525000Y-7980000D02*
X5505000Y-7980000D01*
X5105000Y-7980000D02*
X5085000Y-7980000D01*
X4685000Y-7980000D02*
X4665000Y-7980000D01*
X4265000Y-7980000D02*
X4245000Y-7980000D01*
X3845000Y-7980000D02*
X3825000Y-7980000D01*
X3425000Y-7980000D02*
X3405000Y-7980000D01*
X3005000Y-7980000D02*
X2985000Y-7980000D01*
X2585000Y-7980000D02*
X2565000Y-7980000D01*
X2165000Y-7980000D02*
X2145000Y-7980000D01*
X2025000Y-7980000D02*
X2025000Y-7960000D01*
X2025000Y-7560000D02*
X2025000Y-7540000D01*
X2025000Y-7140000D02*
X2025000Y-7120000D01*
X2025000Y-6720000D02*
X2025000Y-6700000D01*
X2025000Y-6300000D02*
X2025000Y-6280000D01*
D11*
X5179761Y-11557219D02*
X5179761Y-10557219D01*
X5179761Y-10938171D02*
X5084523Y-10890552D01*
X5084523Y-10890552D02*
X4894047Y-10890552D01*
X4894047Y-10890552D02*
X4798809Y-10938171D01*
X4798809Y-10938171D02*
X4751190Y-10985790D01*
X4751190Y-10985790D02*
X4703571Y-11081028D01*
X4703571Y-11081028D02*
X4703571Y-11366742D01*
X4703571Y-11366742D02*
X4751190Y-11461980D01*
X4751190Y-11461980D02*
X4798809Y-11509600D01*
X4798809Y-11509600D02*
X4894047Y-11557219D01*
X4894047Y-11557219D02*
X5084523Y-11557219D01*
X5084523Y-11557219D02*
X5179761Y-11509600D01*
X4132142Y-11557219D02*
X4227380Y-11509600D01*
X4227380Y-11509600D02*
X4274999Y-11461980D01*
X4274999Y-11461980D02*
X4322618Y-11366742D01*
X4322618Y-11366742D02*
X4322618Y-11081028D01*
X4322618Y-11081028D02*
X4274999Y-10985790D01*
X4274999Y-10985790D02*
X4227380Y-10938171D01*
X4227380Y-10938171D02*
X4132142Y-10890552D01*
X4132142Y-10890552D02*
X3989285Y-10890552D01*
X3989285Y-10890552D02*
X3894047Y-10938171D01*
X3894047Y-10938171D02*
X3846428Y-10985790D01*
X3846428Y-10985790D02*
X3798809Y-11081028D01*
X3798809Y-11081028D02*
X3798809Y-11366742D01*
X3798809Y-11366742D02*
X3846428Y-11461980D01*
X3846428Y-11461980D02*
X3894047Y-11509600D01*
X3894047Y-11509600D02*
X3989285Y-11557219D01*
X3989285Y-11557219D02*
X4132142Y-11557219D01*
X3227380Y-11557219D02*
X3322618Y-11509600D01*
X3322618Y-11509600D02*
X3370237Y-11461980D01*
X3370237Y-11461980D02*
X3417856Y-11366742D01*
X3417856Y-11366742D02*
X3417856Y-11081028D01*
X3417856Y-11081028D02*
X3370237Y-10985790D01*
X3370237Y-10985790D02*
X3322618Y-10938171D01*
X3322618Y-10938171D02*
X3227380Y-10890552D01*
X3227380Y-10890552D02*
X3084523Y-10890552D01*
X3084523Y-10890552D02*
X2989285Y-10938171D01*
X2989285Y-10938171D02*
X2941666Y-10985790D01*
X2941666Y-10985790D02*
X2894047Y-11081028D01*
X2894047Y-11081028D02*
X2894047Y-11366742D01*
X2894047Y-11366742D02*
X2941666Y-11461980D01*
X2941666Y-11461980D02*
X2989285Y-11509600D01*
X2989285Y-11509600D02*
X3084523Y-11557219D01*
X3084523Y-11557219D02*
X3227380Y-11557219D01*
X2608332Y-10890552D02*
X2227380Y-10890552D01*
X2465475Y-10557219D02*
X2465475Y-11414361D01*
X2465475Y-11414361D02*
X2417856Y-11509600D01*
X2417856Y-11509600D02*
X2322618Y-11557219D01*
X2322618Y-11557219D02*
X2227380Y-11557219D01*
D10*
X2025000Y-10230000D02*
X2045000Y-10230000D01*
X2445000Y-10230000D02*
X2465000Y-10230000D01*
X2865000Y-10230000D02*
X2885000Y-10230000D01*
X3285000Y-10230000D02*
X3305000Y-10230000D01*
X3705000Y-10230000D02*
X3725000Y-10230000D01*
X4125000Y-10230000D02*
X4145000Y-10230000D01*
X4545000Y-10230000D02*
X4565000Y-10230000D01*
X4965000Y-10230000D02*
X4985000Y-10230000D01*
X5385000Y-10230000D02*
X5405000Y-10230000D01*
X5525000Y-10230000D02*
X5525000Y-10250000D01*
X5525000Y-10650000D02*
X5525000Y-10670000D01*
X5525000Y-11070000D02*
X5525000Y-11090000D01*
X5525000Y-11490000D02*
X5525000Y-11510000D01*
X5525000Y-11910000D02*
X5525000Y-11930000D01*
X5525000Y-11980000D02*
X5505000Y-11980000D01*
X5105000Y-11980000D02*
X5085000Y-11980000D01*
X4685000Y-11980000D02*
X4665000Y-11980000D01*
X4265000Y-11980000D02*
X4245000Y-11980000D01*
X3845000Y-11980000D02*
X3825000Y-11980000D01*
X3425000Y-11980000D02*
X3405000Y-11980000D01*
X3005000Y-11980000D02*
X2985000Y-11980000D01*
X2585000Y-11980000D02*
X2565000Y-11980000D01*
X2165000Y-11980000D02*
X2145000Y-11980000D01*
X2025000Y-11980000D02*
X2025000Y-11960000D01*
X2025000Y-11560000D02*
X2025000Y-11540000D01*
X2025000Y-11140000D02*
X2025000Y-11120000D01*
X2025000Y-10720000D02*
X2025000Y-10700000D01*
X2025000Y-10300000D02*
X2025000Y-10280000D01*
D11*
X4833332Y-23307219D02*
X4499999Y-24307219D01*
X4499999Y-24307219D02*
X4166666Y-23307219D01*
X3261904Y-24211980D02*
X3309523Y-24259600D01*
X3309523Y-24259600D02*
X3452380Y-24307219D01*
X3452380Y-24307219D02*
X3547618Y-24307219D01*
X3547618Y-24307219D02*
X3690475Y-24259600D01*
X3690475Y-24259600D02*
X3785713Y-24164361D01*
X3785713Y-24164361D02*
X3833332Y-24069123D01*
X3833332Y-24069123D02*
X3880951Y-23878647D01*
X3880951Y-23878647D02*
X3880951Y-23735790D01*
X3880951Y-23735790D02*
X3833332Y-23545314D01*
X3833332Y-23545314D02*
X3785713Y-23450076D01*
X3785713Y-23450076D02*
X3690475Y-23354838D01*
X3690475Y-23354838D02*
X3547618Y-23307219D01*
X3547618Y-23307219D02*
X3452380Y-23307219D01*
X3452380Y-23307219D02*
X3309523Y-23354838D01*
X3309523Y-23354838D02*
X3261904Y-23402457D01*
X2261904Y-24211980D02*
X2309523Y-24259600D01*
X2309523Y-24259600D02*
X2452380Y-24307219D01*
X2452380Y-24307219D02*
X2547618Y-24307219D01*
X2547618Y-24307219D02*
X2690475Y-24259600D01*
X2690475Y-24259600D02*
X2785713Y-24164361D01*
X2785713Y-24164361D02*
X2833332Y-24069123D01*
X2833332Y-24069123D02*
X2880951Y-23878647D01*
X2880951Y-23878647D02*
X2880951Y-23735790D01*
X2880951Y-23735790D02*
X2833332Y-23545314D01*
X2833332Y-23545314D02*
X2785713Y-23450076D01*
X2785713Y-23450076D02*
X2690475Y-23354838D01*
X2690475Y-23354838D02*
X2547618Y-23307219D01*
X2547618Y-23307219D02*
X2452380Y-23307219D01*
X2452380Y-23307219D02*
X2309523Y-23354838D01*
X2309523Y-23354838D02*
X2261904Y-23402457D01*
D10*
X1750000Y-22980000D02*
X1770000Y-22980000D01*
X2170000Y-22980000D02*
X2190000Y-22980000D01*
X2590000Y-22980000D02*
X2610000Y-22980000D01*
X3010000Y-22980000D02*
X3030000Y-22980000D01*
X3430000Y-22980000D02*
X3450000Y-22980000D01*
X3850000Y-22980000D02*
X3870000Y-22980000D01*
X4270000Y-22980000D02*
X4290000Y-22980000D01*
X4690000Y-22980000D02*
X4710000Y-22980000D01*
X5110000Y-22980000D02*
X5130000Y-22980000D01*
X5250000Y-22980000D02*
X5250000Y-23000000D01*
X5250000Y-23400000D02*
X5250000Y-23420000D01*
X5250000Y-23820000D02*
X5250000Y-23840000D01*
X5250000Y-24240000D02*
X5250000Y-24260000D01*
X5250000Y-24660000D02*
X5250000Y-24680000D01*
X5250000Y-24730000D02*
X5230000Y-24730000D01*
X4830000Y-24730000D02*
X4810000Y-24730000D01*
X4410000Y-24730000D02*
X4390000Y-24730000D01*
X3990000Y-24730000D02*
X3970000Y-24730000D01*
X3570000Y-24730000D02*
X3550000Y-24730000D01*
X3150000Y-24730000D02*
X3130000Y-24730000D01*
X2730000Y-24730000D02*
X2710000Y-24730000D01*
X2310000Y-24730000D02*
X2290000Y-24730000D01*
X1890000Y-24730000D02*
X1870000Y-24730000D01*
X1750000Y-24730000D02*
X1750000Y-24710000D01*
X1750000Y-24310000D02*
X1750000Y-24290000D01*
X1750000Y-23890000D02*
X1750000Y-23870000D01*
X1750000Y-23470000D02*
X1750000Y-23450000D01*
X1750000Y-23050000D02*
X1750000Y-23030000D01*
D11*
X27913095Y-17779600D02*
X27770238Y-17827219D01*
X27770238Y-17827219D02*
X27532143Y-17827219D01*
X27532143Y-17827219D02*
X27436905Y-17779600D01*
X27436905Y-17779600D02*
X27389286Y-17731980D01*
X27389286Y-17731980D02*
X27341667Y-17636742D01*
X27341667Y-17636742D02*
X27341667Y-17541504D01*
X27341667Y-17541504D02*
X27389286Y-17446266D01*
X27389286Y-17446266D02*
X27436905Y-17398647D01*
X27436905Y-17398647D02*
X27532143Y-17351028D01*
X27532143Y-17351028D02*
X27722619Y-17303409D01*
X27722619Y-17303409D02*
X27817857Y-17255790D01*
X27817857Y-17255790D02*
X27865476Y-17208171D01*
X27865476Y-17208171D02*
X27913095Y-17112933D01*
X27913095Y-17112933D02*
X27913095Y-17017695D01*
X27913095Y-17017695D02*
X27865476Y-16922457D01*
X27865476Y-16922457D02*
X27817857Y-16874838D01*
X27817857Y-16874838D02*
X27722619Y-16827219D01*
X27722619Y-16827219D02*
X27484524Y-16827219D01*
X27484524Y-16827219D02*
X27341667Y-16874838D01*
X26532143Y-17779600D02*
X26627381Y-17827219D01*
X26627381Y-17827219D02*
X26817857Y-17827219D01*
X26817857Y-17827219D02*
X26913095Y-17779600D01*
X26913095Y-17779600D02*
X26960714Y-17684361D01*
X26960714Y-17684361D02*
X26960714Y-17303409D01*
X26960714Y-17303409D02*
X26913095Y-17208171D01*
X26913095Y-17208171D02*
X26817857Y-17160552D01*
X26817857Y-17160552D02*
X26627381Y-17160552D01*
X26627381Y-17160552D02*
X26532143Y-17208171D01*
X26532143Y-17208171D02*
X26484524Y-17303409D01*
X26484524Y-17303409D02*
X26484524Y-17398647D01*
X26484524Y-17398647D02*
X26960714Y-17493885D01*
X26055952Y-17160552D02*
X26055952Y-17827219D01*
X26055952Y-17255790D02*
X26008333Y-17208171D01*
X26008333Y-17208171D02*
X25913095Y-17160552D01*
X25913095Y-17160552D02*
X25770238Y-17160552D01*
X25770238Y-17160552D02*
X25675000Y-17208171D01*
X25675000Y-17208171D02*
X25627381Y-17303409D01*
X25627381Y-17303409D02*
X25627381Y-17827219D01*
X25198809Y-17779600D02*
X25103571Y-17827219D01*
X25103571Y-17827219D02*
X24913095Y-17827219D01*
X24913095Y-17827219D02*
X24817857Y-17779600D01*
X24817857Y-17779600D02*
X24770238Y-17684361D01*
X24770238Y-17684361D02*
X24770238Y-17636742D01*
X24770238Y-17636742D02*
X24817857Y-17541504D01*
X24817857Y-17541504D02*
X24913095Y-17493885D01*
X24913095Y-17493885D02*
X25055952Y-17493885D01*
X25055952Y-17493885D02*
X25151190Y-17446266D01*
X25151190Y-17446266D02*
X25198809Y-17351028D01*
X25198809Y-17351028D02*
X25198809Y-17303409D01*
X25198809Y-17303409D02*
X25151190Y-17208171D01*
X25151190Y-17208171D02*
X25055952Y-17160552D01*
X25055952Y-17160552D02*
X24913095Y-17160552D01*
X24913095Y-17160552D02*
X24817857Y-17208171D01*
X24198809Y-17827219D02*
X24294047Y-17779600D01*
X24294047Y-17779600D02*
X24341666Y-17731980D01*
X24341666Y-17731980D02*
X24389285Y-17636742D01*
X24389285Y-17636742D02*
X24389285Y-17351028D01*
X24389285Y-17351028D02*
X24341666Y-17255790D01*
X24341666Y-17255790D02*
X24294047Y-17208171D01*
X24294047Y-17208171D02*
X24198809Y-17160552D01*
X24198809Y-17160552D02*
X24055952Y-17160552D01*
X24055952Y-17160552D02*
X23960714Y-17208171D01*
X23960714Y-17208171D02*
X23913095Y-17255790D01*
X23913095Y-17255790D02*
X23865476Y-17351028D01*
X23865476Y-17351028D02*
X23865476Y-17636742D01*
X23865476Y-17636742D02*
X23913095Y-17731980D01*
X23913095Y-17731980D02*
X23960714Y-17779600D01*
X23960714Y-17779600D02*
X24055952Y-17827219D01*
X24055952Y-17827219D02*
X24198809Y-17827219D01*
X23436904Y-17827219D02*
X23436904Y-17160552D01*
X23436904Y-17351028D02*
X23389285Y-17255790D01*
X23389285Y-17255790D02*
X23341666Y-17208171D01*
X23341666Y-17208171D02*
X23246428Y-17160552D01*
X23246428Y-17160552D02*
X23151190Y-17160552D01*
X22865475Y-17779600D02*
X22770237Y-17827219D01*
X22770237Y-17827219D02*
X22579761Y-17827219D01*
X22579761Y-17827219D02*
X22484523Y-17779600D01*
X22484523Y-17779600D02*
X22436904Y-17684361D01*
X22436904Y-17684361D02*
X22436904Y-17636742D01*
X22436904Y-17636742D02*
X22484523Y-17541504D01*
X22484523Y-17541504D02*
X22579761Y-17493885D01*
X22579761Y-17493885D02*
X22722618Y-17493885D01*
X22722618Y-17493885D02*
X22817856Y-17446266D01*
X22817856Y-17446266D02*
X22865475Y-17351028D01*
X22865475Y-17351028D02*
X22865475Y-17303409D01*
X22865475Y-17303409D02*
X22817856Y-17208171D01*
X22817856Y-17208171D02*
X22722618Y-17160552D01*
X22722618Y-17160552D02*
X22579761Y-17160552D01*
X22579761Y-17160552D02*
X22484523Y-17208171D01*
D10*
X22200000Y-16550000D02*
X22220000Y-16550000D01*
X22620000Y-16550000D02*
X22640000Y-16550000D01*
X23040000Y-16550000D02*
X23060000Y-16550000D01*
X23460000Y-16550000D02*
X23480000Y-16550000D01*
X23880000Y-16550000D02*
X23900000Y-16550000D01*
X24300000Y-16550000D02*
X24320000Y-16550000D01*
X24720000Y-16550000D02*
X24740000Y-16550000D01*
X25140000Y-16550000D02*
X25160000Y-16550000D01*
X25560000Y-16550000D02*
X25580000Y-16550000D01*
X25980000Y-16550000D02*
X26000000Y-16550000D01*
X26400000Y-16550000D02*
X26420000Y-16550000D01*
X26820000Y-16550000D02*
X26840000Y-16550000D01*
X27240000Y-16550000D02*
X27260000Y-16550000D01*
X27660000Y-16550000D02*
X27680000Y-16550000D01*
X28080000Y-16550000D02*
X28100000Y-16550000D01*
X28150000Y-16550000D02*
X28150000Y-16570000D01*
X28150000Y-16970000D02*
X28150000Y-16990000D01*
X28150000Y-17390000D02*
X28150000Y-17410000D01*
X28150000Y-17810000D02*
X28150000Y-17830000D01*
X28150000Y-18200000D02*
X28130000Y-18200000D01*
X27730000Y-18200000D02*
X27710000Y-18200000D01*
X27310000Y-18200000D02*
X27290000Y-18200000D01*
X26890000Y-18200000D02*
X26870000Y-18200000D01*
X26470000Y-18200000D02*
X26450000Y-18200000D01*
X26050000Y-18200000D02*
X26030000Y-18200000D01*
X25630000Y-18200000D02*
X25610000Y-18200000D01*
X25210000Y-18200000D02*
X25190000Y-18200000D01*
X24790000Y-18200000D02*
X24770000Y-18200000D01*
X24370000Y-18200000D02*
X24350000Y-18200000D01*
X23950000Y-18200000D02*
X23930000Y-18200000D01*
X23530000Y-18200000D02*
X23510000Y-18200000D01*
X23110000Y-18200000D02*
X23090000Y-18200000D01*
X22690000Y-18200000D02*
X22670000Y-18200000D01*
X22270000Y-18200000D02*
X22250000Y-18200000D01*
X22200000Y-18200000D02*
X22200000Y-18180000D01*
X22200000Y-17780000D02*
X22200000Y-17760000D01*
X22200000Y-17360000D02*
X22200000Y-17340000D01*
X22200000Y-16940000D02*
X22200000Y-16920000D01*
D11*
X3214285Y-46154600D02*
X3071428Y-46202219D01*
X3071428Y-46202219D02*
X2833333Y-46202219D01*
X2833333Y-46202219D02*
X2738095Y-46154600D01*
X2738095Y-46154600D02*
X2690476Y-46106980D01*
X2690476Y-46106980D02*
X2642857Y-46011742D01*
X2642857Y-46011742D02*
X2642857Y-45916504D01*
X2642857Y-45916504D02*
X2690476Y-45821266D01*
X2690476Y-45821266D02*
X2738095Y-45773647D01*
X2738095Y-45773647D02*
X2833333Y-45726028D01*
X2833333Y-45726028D02*
X3023809Y-45678409D01*
X3023809Y-45678409D02*
X3119047Y-45630790D01*
X3119047Y-45630790D02*
X3166666Y-45583171D01*
X3166666Y-45583171D02*
X3214285Y-45487933D01*
X3214285Y-45487933D02*
X3214285Y-45392695D01*
X3214285Y-45392695D02*
X3166666Y-45297457D01*
X3166666Y-45297457D02*
X3119047Y-45249838D01*
X3119047Y-45249838D02*
X3023809Y-45202219D01*
X3023809Y-45202219D02*
X2785714Y-45202219D01*
X2785714Y-45202219D02*
X2642857Y-45249838D01*
X2214285Y-46202219D02*
X2214285Y-45202219D01*
X2214285Y-45202219D02*
X1976190Y-45202219D01*
X1976190Y-45202219D02*
X1833333Y-45249838D01*
X1833333Y-45249838D02*
X1738095Y-45345076D01*
X1738095Y-45345076D02*
X1690476Y-45440314D01*
X1690476Y-45440314D02*
X1642857Y-45630790D01*
X1642857Y-45630790D02*
X1642857Y-45773647D01*
X1642857Y-45773647D02*
X1690476Y-45964123D01*
X1690476Y-45964123D02*
X1738095Y-46059361D01*
X1738095Y-46059361D02*
X1833333Y-46154600D01*
X1833333Y-46154600D02*
X1976190Y-46202219D01*
X1976190Y-46202219D02*
X2214285Y-46202219D01*
X1261904Y-45916504D02*
X785714Y-45916504D01*
X1357142Y-46202219D02*
X1023809Y-45202219D01*
X1023809Y-45202219D02*
X690476Y-46202219D01*
D10*
X250000Y-44875000D02*
X270000Y-44875000D01*
X670000Y-44875000D02*
X690000Y-44875000D01*
X1090000Y-44875000D02*
X1110000Y-44875000D01*
X1510000Y-44875000D02*
X1530000Y-44875000D01*
X1930000Y-44875000D02*
X1950000Y-44875000D01*
X2350000Y-44875000D02*
X2370000Y-44875000D01*
X2770000Y-44875000D02*
X2790000Y-44875000D01*
X3190000Y-44875000D02*
X3210000Y-44875000D01*
X3610000Y-44875000D02*
X3630000Y-44875000D01*
X3750000Y-44875000D02*
X3750000Y-44895000D01*
X3750000Y-45295000D02*
X3750000Y-45315000D01*
X3750000Y-45715000D02*
X3750000Y-45735000D01*
X3750000Y-46135000D02*
X3750000Y-46155000D01*
X3750000Y-46555000D02*
X3750000Y-46575000D01*
X3750000Y-46625000D02*
X3730000Y-46625000D01*
X3330000Y-46625000D02*
X3310000Y-46625000D01*
X2910000Y-46625000D02*
X2890000Y-46625000D01*
X2490000Y-46625000D02*
X2470000Y-46625000D01*
X2070000Y-46625000D02*
X2050000Y-46625000D01*
X1650000Y-46625000D02*
X1630000Y-46625000D01*
X1230000Y-46625000D02*
X1210000Y-46625000D01*
X810000Y-46625000D02*
X790000Y-46625000D01*
X390000Y-46625000D02*
X370000Y-46625000D01*
X250000Y-46625000D02*
X250000Y-46605000D01*
X250000Y-46205000D02*
X250000Y-46185000D01*
X250000Y-45785000D02*
X250000Y-45765000D01*
X250000Y-45365000D02*
X250000Y-45345000D01*
X250000Y-44945000D02*
X250000Y-44925000D01*
X53584523Y-11157419D02*
X53459523Y-10157419D01*
X53459523Y-10157419D02*
X53078570Y-10157419D01*
X53078570Y-10157419D02*
X52989285Y-10205038D01*
X52989285Y-10205038D02*
X52947618Y-10252657D01*
X52947618Y-10252657D02*
X52911904Y-10347895D01*
X52911904Y-10347895D02*
X52929761Y-10490752D01*
X52929761Y-10490752D02*
X52989285Y-10585990D01*
X52989285Y-10585990D02*
X53042856Y-10633609D01*
X53042856Y-10633609D02*
X53144046Y-10681228D01*
X53144046Y-10681228D02*
X53524999Y-10681228D01*
X52584523Y-11157419D02*
X52501189Y-10490752D01*
X52459523Y-10157419D02*
X52513094Y-10205038D01*
X52513094Y-10205038D02*
X52471427Y-10252657D01*
X52471427Y-10252657D02*
X52417856Y-10205038D01*
X52417856Y-10205038D02*
X52459523Y-10157419D01*
X52459523Y-10157419D02*
X52471427Y-10252657D01*
X52024999Y-10490752D02*
X52108333Y-11157419D01*
X52036904Y-10585990D02*
X51983333Y-10538371D01*
X51983333Y-10538371D02*
X51882142Y-10490752D01*
X51882142Y-10490752D02*
X51739285Y-10490752D01*
X51739285Y-10490752D02*
X51649999Y-10538371D01*
X51649999Y-10538371D02*
X51614285Y-10633609D01*
X51614285Y-10633609D02*
X51679761Y-11157419D01*
X50679761Y-11157419D02*
X51251190Y-11157419D01*
X50965475Y-11157419D02*
X50840475Y-10157419D01*
X50840475Y-10157419D02*
X50953571Y-10300276D01*
X50953571Y-10300276D02*
X51060714Y-10395514D01*
X51060714Y-10395514D02*
X51161904Y-10443133D01*
X49775000Y-9825000D02*
X49795000Y-9825000D01*
X50195000Y-9825000D02*
X50215000Y-9825000D01*
X50615000Y-9825000D02*
X50635000Y-9825000D01*
X51035000Y-9825000D02*
X51055000Y-9825000D01*
X51455000Y-9825000D02*
X51475000Y-9825000D01*
X51875000Y-9825000D02*
X51895000Y-9825000D01*
X52295000Y-9825000D02*
X52315000Y-9825000D01*
X52715000Y-9825000D02*
X52735000Y-9825000D01*
X53135000Y-9825000D02*
X53155000Y-9825000D01*
X53555000Y-9825000D02*
X53575000Y-9825000D01*
X53975000Y-9825000D02*
X53995000Y-9825000D01*
X54395000Y-9825000D02*
X54415000Y-9825000D01*
X54525000Y-9825000D02*
X54525000Y-9845000D01*
X54525000Y-10245000D02*
X54525000Y-10265000D01*
X54525000Y-10665000D02*
X54525000Y-10685000D01*
X54525000Y-11085000D02*
X54525000Y-11105000D01*
X54525000Y-11505000D02*
X54525000Y-11525000D01*
X54525000Y-11575000D02*
X54505000Y-11575000D01*
X54105000Y-11575000D02*
X54085000Y-11575000D01*
X53685000Y-11575000D02*
X53665000Y-11575000D01*
X53265000Y-11575000D02*
X53245000Y-11575000D01*
X52845000Y-11575000D02*
X52825000Y-11575000D01*
X52425000Y-11575000D02*
X52405000Y-11575000D01*
X52005000Y-11575000D02*
X51985000Y-11575000D01*
X51585000Y-11575000D02*
X51565000Y-11575000D01*
X51165000Y-11575000D02*
X51145000Y-11575000D01*
X50745000Y-11575000D02*
X50725000Y-11575000D01*
X50325000Y-11575000D02*
X50305000Y-11575000D01*
X49905000Y-11575000D02*
X49885000Y-11575000D01*
X49775000Y-11575000D02*
X49775000Y-11555000D01*
X49775000Y-11155000D02*
X49775000Y-11135000D01*
X49775000Y-10735000D02*
X49775000Y-10715000D01*
X49775000Y-10315000D02*
X49775000Y-10295000D01*
X49775000Y-9895000D02*
X49775000Y-9875000D01*
D11*
X4740475Y-28709600D02*
X4597618Y-28757219D01*
X4597618Y-28757219D02*
X4359523Y-28757219D01*
X4359523Y-28757219D02*
X4264285Y-28709600D01*
X4264285Y-28709600D02*
X4216666Y-28661980D01*
X4216666Y-28661980D02*
X4169047Y-28566742D01*
X4169047Y-28566742D02*
X4169047Y-28471504D01*
X4169047Y-28471504D02*
X4216666Y-28376266D01*
X4216666Y-28376266D02*
X4264285Y-28328647D01*
X4264285Y-28328647D02*
X4359523Y-28281028D01*
X4359523Y-28281028D02*
X4549999Y-28233409D01*
X4549999Y-28233409D02*
X4645237Y-28185790D01*
X4645237Y-28185790D02*
X4692856Y-28138171D01*
X4692856Y-28138171D02*
X4740475Y-28042933D01*
X4740475Y-28042933D02*
X4740475Y-27947695D01*
X4740475Y-27947695D02*
X4692856Y-27852457D01*
X4692856Y-27852457D02*
X4645237Y-27804838D01*
X4645237Y-27804838D02*
X4549999Y-27757219D01*
X4549999Y-27757219D02*
X4311904Y-27757219D01*
X4311904Y-27757219D02*
X4169047Y-27804838D01*
X3169047Y-28661980D02*
X3216666Y-28709600D01*
X3216666Y-28709600D02*
X3359523Y-28757219D01*
X3359523Y-28757219D02*
X3454761Y-28757219D01*
X3454761Y-28757219D02*
X3597618Y-28709600D01*
X3597618Y-28709600D02*
X3692856Y-28614361D01*
X3692856Y-28614361D02*
X3740475Y-28519123D01*
X3740475Y-28519123D02*
X3788094Y-28328647D01*
X3788094Y-28328647D02*
X3788094Y-28185790D01*
X3788094Y-28185790D02*
X3740475Y-27995314D01*
X3740475Y-27995314D02*
X3692856Y-27900076D01*
X3692856Y-27900076D02*
X3597618Y-27804838D01*
X3597618Y-27804838D02*
X3454761Y-27757219D01*
X3454761Y-27757219D02*
X3359523Y-27757219D01*
X3359523Y-27757219D02*
X3216666Y-27804838D01*
X3216666Y-27804838D02*
X3169047Y-27852457D01*
X2264285Y-28757219D02*
X2740475Y-28757219D01*
X2740475Y-28757219D02*
X2740475Y-27757219D01*
D10*
X1800000Y-27430000D02*
X1820000Y-27430000D01*
X2220000Y-27430000D02*
X2240000Y-27430000D01*
X2640000Y-27430000D02*
X2660000Y-27430000D01*
X3060000Y-27430000D02*
X3080000Y-27430000D01*
X3480000Y-27430000D02*
X3500000Y-27430000D01*
X3900000Y-27430000D02*
X3920000Y-27430000D01*
X4320000Y-27430000D02*
X4340000Y-27430000D01*
X4740000Y-27430000D02*
X4760000Y-27430000D01*
X5160000Y-27430000D02*
X5180000Y-27430000D01*
X5300000Y-27430000D02*
X5300000Y-27450000D01*
X5300000Y-27850000D02*
X5300000Y-27870000D01*
X5300000Y-28270000D02*
X5300000Y-28290000D01*
X5300000Y-28690000D02*
X5300000Y-28710000D01*
X5300000Y-29110000D02*
X5300000Y-29130000D01*
X5300000Y-29180000D02*
X5280000Y-29180000D01*
X4880000Y-29180000D02*
X4860000Y-29180000D01*
X4460000Y-29180000D02*
X4440000Y-29180000D01*
X4040000Y-29180000D02*
X4020000Y-29180000D01*
X3620000Y-29180000D02*
X3600000Y-29180000D01*
X3200000Y-29180000D02*
X3180000Y-29180000D01*
X2780000Y-29180000D02*
X2760000Y-29180000D01*
X2360000Y-29180000D02*
X2340000Y-29180000D01*
X1940000Y-29180000D02*
X1920000Y-29180000D01*
X1800000Y-29180000D02*
X1800000Y-29160000D01*
X1800000Y-28760000D02*
X1800000Y-28740000D01*
X1800000Y-28340000D02*
X1800000Y-28320000D01*
X1800000Y-27920000D02*
X1800000Y-27900000D01*
X1800000Y-27500000D02*
X1800000Y-27480000D01*
D11*
X4560713Y-12557219D02*
X4560713Y-13366742D01*
X4560713Y-13366742D02*
X4513094Y-13461980D01*
X4513094Y-13461980D02*
X4465475Y-13509600D01*
X4465475Y-13509600D02*
X4370237Y-13557219D01*
X4370237Y-13557219D02*
X4179761Y-13557219D01*
X4179761Y-13557219D02*
X4084523Y-13509600D01*
X4084523Y-13509600D02*
X4036904Y-13461980D01*
X4036904Y-13461980D02*
X3989285Y-13366742D01*
X3989285Y-13366742D02*
X3989285Y-12557219D01*
X3513094Y-13557219D02*
X3513094Y-12557219D01*
X3513094Y-12557219D02*
X3132142Y-12557219D01*
X3132142Y-12557219D02*
X3036904Y-12604838D01*
X3036904Y-12604838D02*
X2989285Y-12652457D01*
X2989285Y-12652457D02*
X2941666Y-12747695D01*
X2941666Y-12747695D02*
X2941666Y-12890552D01*
X2941666Y-12890552D02*
X2989285Y-12985790D01*
X2989285Y-12985790D02*
X3036904Y-13033409D01*
X3036904Y-13033409D02*
X3132142Y-13081028D01*
X3132142Y-13081028D02*
X3513094Y-13081028D01*
D10*
X2025000Y-12230000D02*
X2045000Y-12230000D01*
X2445000Y-12230000D02*
X2465000Y-12230000D01*
X2865000Y-12230000D02*
X2885000Y-12230000D01*
X3285000Y-12230000D02*
X3305000Y-12230000D01*
X3705000Y-12230000D02*
X3725000Y-12230000D01*
X4125000Y-12230000D02*
X4145000Y-12230000D01*
X4545000Y-12230000D02*
X4565000Y-12230000D01*
X4965000Y-12230000D02*
X4985000Y-12230000D01*
X5385000Y-12230000D02*
X5405000Y-12230000D01*
X5525000Y-12230000D02*
X5525000Y-12250000D01*
X5525000Y-12650000D02*
X5525000Y-12670000D01*
X5525000Y-13070000D02*
X5525000Y-13090000D01*
X5525000Y-13490000D02*
X5525000Y-13510000D01*
X5525000Y-13910000D02*
X5525000Y-13930000D01*
X5525000Y-13980000D02*
X5505000Y-13980000D01*
X5105000Y-13980000D02*
X5085000Y-13980000D01*
X4685000Y-13980000D02*
X4665000Y-13980000D01*
X4265000Y-13980000D02*
X4245000Y-13980000D01*
X3845000Y-13980000D02*
X3825000Y-13980000D01*
X3425000Y-13980000D02*
X3405000Y-13980000D01*
X3005000Y-13980000D02*
X2985000Y-13980000D01*
X2585000Y-13980000D02*
X2565000Y-13980000D01*
X2165000Y-13980000D02*
X2145000Y-13980000D01*
X2025000Y-13980000D02*
X2025000Y-13960000D01*
X2025000Y-13560000D02*
X2025000Y-13540000D01*
X2025000Y-13140000D02*
X2025000Y-13120000D01*
X2025000Y-12720000D02*
X2025000Y-12700000D01*
X2025000Y-12300000D02*
X2025000Y-12280000D01*
D11*
X53458332Y-822247D02*
X53124999Y-1822247D01*
X53124999Y-1822247D02*
X52791666Y-822247D01*
X51886904Y-1727008D02*
X51934523Y-1774628D01*
X51934523Y-1774628D02*
X52077380Y-1822247D01*
X52077380Y-1822247D02*
X52172618Y-1822247D01*
X52172618Y-1822247D02*
X52315475Y-1774628D01*
X52315475Y-1774628D02*
X52410713Y-1679389D01*
X52410713Y-1679389D02*
X52458332Y-1584151D01*
X52458332Y-1584151D02*
X52505951Y-1393675D01*
X52505951Y-1393675D02*
X52505951Y-1250818D01*
X52505951Y-1250818D02*
X52458332Y-1060342D01*
X52458332Y-1060342D02*
X52410713Y-965104D01*
X52410713Y-965104D02*
X52315475Y-869866D01*
X52315475Y-869866D02*
X52172618Y-822247D01*
X52172618Y-822247D02*
X52077380Y-822247D01*
X52077380Y-822247D02*
X51934523Y-869866D01*
X51934523Y-869866D02*
X51886904Y-917485D01*
X50886904Y-1727008D02*
X50934523Y-1774628D01*
X50934523Y-1774628D02*
X51077380Y-1822247D01*
X51077380Y-1822247D02*
X51172618Y-1822247D01*
X51172618Y-1822247D02*
X51315475Y-1774628D01*
X51315475Y-1774628D02*
X51410713Y-1679389D01*
X51410713Y-1679389D02*
X51458332Y-1584151D01*
X51458332Y-1584151D02*
X51505951Y-1393675D01*
X51505951Y-1393675D02*
X51505951Y-1250818D01*
X51505951Y-1250818D02*
X51458332Y-1060342D01*
X51458332Y-1060342D02*
X51410713Y-965104D01*
X51410713Y-965104D02*
X51315475Y-869866D01*
X51315475Y-869866D02*
X51172618Y-822247D01*
X51172618Y-822247D02*
X51077380Y-822247D01*
X51077380Y-822247D02*
X50934523Y-869866D01*
X50934523Y-869866D02*
X50886904Y-917485D01*
X52315476Y-2432191D02*
X52791666Y-2432191D01*
X52791666Y-2432191D02*
X52839285Y-2908381D01*
X52839285Y-2908381D02*
X52791666Y-2860762D01*
X52791666Y-2860762D02*
X52696428Y-2813143D01*
X52696428Y-2813143D02*
X52458333Y-2813143D01*
X52458333Y-2813143D02*
X52363095Y-2860762D01*
X52363095Y-2860762D02*
X52315476Y-2908381D01*
X52315476Y-2908381D02*
X52267857Y-3003619D01*
X52267857Y-3003619D02*
X52267857Y-3241714D01*
X52267857Y-3241714D02*
X52315476Y-3336952D01*
X52315476Y-3336952D02*
X52363095Y-3384572D01*
X52363095Y-3384572D02*
X52458333Y-3432191D01*
X52458333Y-3432191D02*
X52696428Y-3432191D01*
X52696428Y-3432191D02*
X52791666Y-3384572D01*
X52791666Y-3384572D02*
X52839285Y-3336952D01*
X51982142Y-2432191D02*
X51648809Y-3432191D01*
X51648809Y-3432191D02*
X51315476Y-2432191D01*
D10*
X49975000Y-1300000D02*
X49995000Y-1300000D01*
X50395000Y-1300000D02*
X50415000Y-1300000D01*
X50815000Y-1300000D02*
X50835000Y-1300000D01*
X51235000Y-1300000D02*
X51255000Y-1300000D01*
X51655000Y-1300000D02*
X51675000Y-1300000D01*
X52075000Y-1300000D02*
X52095000Y-1300000D01*
X52495000Y-1300000D02*
X52515000Y-1300000D01*
X52915000Y-1300000D02*
X52935000Y-1300000D01*
X53335000Y-1300000D02*
X53355000Y-1300000D01*
X53755000Y-1300000D02*
X53775000Y-1300000D01*
X54175000Y-1300000D02*
X54195000Y-1300000D01*
X54275000Y-1300000D02*
X54275000Y-1320000D01*
X54275000Y-1720000D02*
X54275000Y-1740000D01*
X54275000Y-2140000D02*
X54275000Y-2160000D01*
X54275000Y-2560000D02*
X54275000Y-2580000D01*
X54275000Y-2980000D02*
X54275000Y-3000000D01*
X54275000Y-3050000D02*
X54255000Y-3050000D01*
X53855000Y-3050000D02*
X53835000Y-3050000D01*
X53435000Y-3050000D02*
X53415000Y-3050000D01*
X53015000Y-3050000D02*
X52995000Y-3050000D01*
X52595000Y-3050000D02*
X52575000Y-3050000D01*
X52175000Y-3050000D02*
X52155000Y-3050000D01*
X51755000Y-3050000D02*
X51735000Y-3050000D01*
X51335000Y-3050000D02*
X51315000Y-3050000D01*
X50915000Y-3050000D02*
X50895000Y-3050000D01*
X50495000Y-3050000D02*
X50475000Y-3050000D01*
X50075000Y-3050000D02*
X50055000Y-3050000D01*
X49975000Y-3050000D02*
X49975000Y-3030000D01*
X49975000Y-2630000D02*
X49975000Y-2610000D01*
X49975000Y-2210000D02*
X49975000Y-2190000D01*
X49975000Y-1790000D02*
X49975000Y-1770000D01*
X49975000Y-1370000D02*
X49975000Y-1350000D01*
D11*
X19014285Y-15229600D02*
X18871428Y-15277219D01*
X18871428Y-15277219D02*
X18633333Y-15277219D01*
X18633333Y-15277219D02*
X18538095Y-15229600D01*
X18538095Y-15229600D02*
X18490476Y-15181980D01*
X18490476Y-15181980D02*
X18442857Y-15086742D01*
X18442857Y-15086742D02*
X18442857Y-14991504D01*
X18442857Y-14991504D02*
X18490476Y-14896266D01*
X18490476Y-14896266D02*
X18538095Y-14848647D01*
X18538095Y-14848647D02*
X18633333Y-14801028D01*
X18633333Y-14801028D02*
X18823809Y-14753409D01*
X18823809Y-14753409D02*
X18919047Y-14705790D01*
X18919047Y-14705790D02*
X18966666Y-14658171D01*
X18966666Y-14658171D02*
X19014285Y-14562933D01*
X19014285Y-14562933D02*
X19014285Y-14467695D01*
X19014285Y-14467695D02*
X18966666Y-14372457D01*
X18966666Y-14372457D02*
X18919047Y-14324838D01*
X18919047Y-14324838D02*
X18823809Y-14277219D01*
X18823809Y-14277219D02*
X18585714Y-14277219D01*
X18585714Y-14277219D02*
X18442857Y-14324838D01*
X18014285Y-15277219D02*
X18014285Y-14277219D01*
X18014285Y-14277219D02*
X17776190Y-14277219D01*
X17776190Y-14277219D02*
X17633333Y-14324838D01*
X17633333Y-14324838D02*
X17538095Y-14420076D01*
X17538095Y-14420076D02*
X17490476Y-14515314D01*
X17490476Y-14515314D02*
X17442857Y-14705790D01*
X17442857Y-14705790D02*
X17442857Y-14848647D01*
X17442857Y-14848647D02*
X17490476Y-15039123D01*
X17490476Y-15039123D02*
X17538095Y-15134361D01*
X17538095Y-15134361D02*
X17633333Y-15229600D01*
X17633333Y-15229600D02*
X17776190Y-15277219D01*
X17776190Y-15277219D02*
X18014285Y-15277219D01*
X17061904Y-14991504D02*
X16585714Y-14991504D01*
X17157142Y-15277219D02*
X16823809Y-14277219D01*
X16823809Y-14277219D02*
X16490476Y-15277219D01*
D10*
X16050000Y-13950000D02*
X16070000Y-13950000D01*
X16470000Y-13950000D02*
X16490000Y-13950000D01*
X16890000Y-13950000D02*
X16910000Y-13950000D01*
X17310000Y-13950000D02*
X17330000Y-13950000D01*
X17730000Y-13950000D02*
X17750000Y-13950000D01*
X18150000Y-13950000D02*
X18170000Y-13950000D01*
X18570000Y-13950000D02*
X18590000Y-13950000D01*
X18990000Y-13950000D02*
X19010000Y-13950000D01*
X19410000Y-13950000D02*
X19430000Y-13950000D01*
X19550000Y-13950000D02*
X19550000Y-13970000D01*
X19550000Y-14370000D02*
X19550000Y-14390000D01*
X19550000Y-14790000D02*
X19550000Y-14810000D01*
X19550000Y-15210000D02*
X19550000Y-15230000D01*
X19550000Y-15630000D02*
X19550000Y-15650000D01*
X19550000Y-15700000D02*
X19530000Y-15700000D01*
X19130000Y-15700000D02*
X19110000Y-15700000D01*
X18710000Y-15700000D02*
X18690000Y-15700000D01*
X18290000Y-15700000D02*
X18270000Y-15700000D01*
X17870000Y-15700000D02*
X17850000Y-15700000D01*
X17450000Y-15700000D02*
X17430000Y-15700000D01*
X17030000Y-15700000D02*
X17010000Y-15700000D01*
X16610000Y-15700000D02*
X16590000Y-15700000D01*
X16190000Y-15700000D02*
X16170000Y-15700000D01*
X16050000Y-15700000D02*
X16050000Y-15680000D01*
X16050000Y-15280000D02*
X16050000Y-15260000D01*
X16050000Y-14860000D02*
X16050000Y-14840000D01*
X16050000Y-14440000D02*
X16050000Y-14420000D01*
X16050000Y-14020000D02*
X16050000Y-14000000D01*
D11*
X26340476Y-6732219D02*
X26816666Y-6732219D01*
X26816666Y-6732219D02*
X26864285Y-7208409D01*
X26864285Y-7208409D02*
X26816666Y-7160790D01*
X26816666Y-7160790D02*
X26721428Y-7113171D01*
X26721428Y-7113171D02*
X26483333Y-7113171D01*
X26483333Y-7113171D02*
X26388095Y-7160790D01*
X26388095Y-7160790D02*
X26340476Y-7208409D01*
X26340476Y-7208409D02*
X26292857Y-7303647D01*
X26292857Y-7303647D02*
X26292857Y-7541742D01*
X26292857Y-7541742D02*
X26340476Y-7636980D01*
X26340476Y-7636980D02*
X26388095Y-7684600D01*
X26388095Y-7684600D02*
X26483333Y-7732219D01*
X26483333Y-7732219D02*
X26721428Y-7732219D01*
X26721428Y-7732219D02*
X26816666Y-7684600D01*
X26816666Y-7684600D02*
X26864285Y-7636980D01*
X26007142Y-6732219D02*
X25673809Y-7732219D01*
X25673809Y-7732219D02*
X25340476Y-6732219D01*
D10*
X24400000Y-6405000D02*
X24420000Y-6405000D01*
X24820000Y-6405000D02*
X24840000Y-6405000D01*
X25240000Y-6405000D02*
X25260000Y-6405000D01*
X25660000Y-6405000D02*
X25680000Y-6405000D01*
X26080000Y-6405000D02*
X26100000Y-6405000D01*
X26500000Y-6405000D02*
X26520000Y-6405000D01*
X26920000Y-6405000D02*
X26940000Y-6405000D01*
X27340000Y-6405000D02*
X27360000Y-6405000D01*
X27760000Y-6405000D02*
X27780000Y-6405000D01*
X27900000Y-6405000D02*
X27900000Y-6425000D01*
X27900000Y-6825000D02*
X27900000Y-6845000D01*
X27900000Y-7245000D02*
X27900000Y-7265000D01*
X27900000Y-7665000D02*
X27900000Y-7685000D01*
X27900000Y-8085000D02*
X27900000Y-8105000D01*
X27900000Y-8155000D02*
X27880000Y-8155000D01*
X27480000Y-8155000D02*
X27460000Y-8155000D01*
X27060000Y-8155000D02*
X27040000Y-8155000D01*
X26640000Y-8155000D02*
X26620000Y-8155000D01*
X26220000Y-8155000D02*
X26200000Y-8155000D01*
X25800000Y-8155000D02*
X25780000Y-8155000D01*
X25380000Y-8155000D02*
X25360000Y-8155000D01*
X24960000Y-8155000D02*
X24940000Y-8155000D01*
X24540000Y-8155000D02*
X24520000Y-8155000D01*
X24400000Y-8155000D02*
X24400000Y-8135000D01*
X24400000Y-7735000D02*
X24400000Y-7715000D01*
X24400000Y-7315000D02*
X24400000Y-7295000D01*
X24400000Y-6895000D02*
X24400000Y-6875000D01*
X24400000Y-6475000D02*
X24400000Y-6455000D01*
D11*
X19930951Y-22877219D02*
X19930951Y-21877219D01*
X19930951Y-21877219D02*
X19549999Y-21877219D01*
X19549999Y-21877219D02*
X19454761Y-21924838D01*
X19454761Y-21924838D02*
X19407142Y-21972457D01*
X19407142Y-21972457D02*
X19359523Y-22067695D01*
X19359523Y-22067695D02*
X19359523Y-22210552D01*
X19359523Y-22210552D02*
X19407142Y-22305790D01*
X19407142Y-22305790D02*
X19454761Y-22353409D01*
X19454761Y-22353409D02*
X19549999Y-22401028D01*
X19549999Y-22401028D02*
X19930951Y-22401028D01*
X19026189Y-21877219D02*
X18788094Y-22877219D01*
X18788094Y-22877219D02*
X18597618Y-22162933D01*
X18597618Y-22162933D02*
X18407142Y-22877219D01*
X18407142Y-22877219D02*
X18169047Y-21877219D01*
X17788094Y-22877219D02*
X17788094Y-21877219D01*
X17788094Y-21877219D02*
X17454761Y-22591504D01*
X17454761Y-22591504D02*
X17121428Y-21877219D01*
X17121428Y-21877219D02*
X17121428Y-22877219D01*
X16121428Y-22877219D02*
X16692856Y-22877219D01*
X16407142Y-22877219D02*
X16407142Y-21877219D01*
X16407142Y-21877219D02*
X16502380Y-22020076D01*
X16502380Y-22020076D02*
X16597618Y-22115314D01*
X16597618Y-22115314D02*
X16692856Y-22162933D01*
D10*
X15900000Y-21550000D02*
X15920000Y-21550000D01*
X16320000Y-21550000D02*
X16340000Y-21550000D01*
X16740000Y-21550000D02*
X16760000Y-21550000D01*
X17160000Y-21550000D02*
X17180000Y-21550000D01*
X17580000Y-21550000D02*
X17600000Y-21550000D01*
X18000000Y-21550000D02*
X18020000Y-21550000D01*
X18420000Y-21550000D02*
X18440000Y-21550000D01*
X18840000Y-21550000D02*
X18860000Y-21550000D01*
X19260000Y-21550000D02*
X19280000Y-21550000D01*
X19680000Y-21550000D02*
X19700000Y-21550000D01*
X20100000Y-21550000D02*
X20120000Y-21550000D01*
X20200000Y-21550000D02*
X20200000Y-21570000D01*
X20200000Y-21970000D02*
X20200000Y-21990000D01*
X20200000Y-22390000D02*
X20200000Y-22410000D01*
X20200000Y-22810000D02*
X20200000Y-22830000D01*
X20200000Y-23230000D02*
X20200000Y-23250000D01*
X20200000Y-23300000D02*
X20180000Y-23300000D01*
X19780000Y-23300000D02*
X19760000Y-23300000D01*
X19360000Y-23300000D02*
X19340000Y-23300000D01*
X18940000Y-23300000D02*
X18920000Y-23300000D01*
X18520000Y-23300000D02*
X18500000Y-23300000D01*
X18100000Y-23300000D02*
X18080000Y-23300000D01*
X17680000Y-23300000D02*
X17660000Y-23300000D01*
X17260000Y-23300000D02*
X17240000Y-23300000D01*
X16840000Y-23300000D02*
X16820000Y-23300000D01*
X16420000Y-23300000D02*
X16400000Y-23300000D01*
X16000000Y-23300000D02*
X15980000Y-23300000D01*
X15900000Y-23300000D02*
X15900000Y-23280000D01*
X15900000Y-22880000D02*
X15900000Y-22860000D01*
X15900000Y-22460000D02*
X15900000Y-22440000D01*
X15900000Y-22040000D02*
X15900000Y-22020000D01*
X15900000Y-21620000D02*
X15900000Y-21600000D01*
D11*
X54080951Y-23652219D02*
X54080951Y-22652219D01*
X54080951Y-22652219D02*
X53699999Y-22652219D01*
X53699999Y-22652219D02*
X53604761Y-22699838D01*
X53604761Y-22699838D02*
X53557142Y-22747457D01*
X53557142Y-22747457D02*
X53509523Y-22842695D01*
X53509523Y-22842695D02*
X53509523Y-22985552D01*
X53509523Y-22985552D02*
X53557142Y-23080790D01*
X53557142Y-23080790D02*
X53604761Y-23128409D01*
X53604761Y-23128409D02*
X53699999Y-23176028D01*
X53699999Y-23176028D02*
X54080951Y-23176028D01*
X53176189Y-22652219D02*
X52938094Y-23652219D01*
X52938094Y-23652219D02*
X52747618Y-22937933D01*
X52747618Y-22937933D02*
X52557142Y-23652219D01*
X52557142Y-23652219D02*
X52319047Y-22652219D01*
X51938094Y-23652219D02*
X51938094Y-22652219D01*
X51938094Y-22652219D02*
X51604761Y-23366504D01*
X51604761Y-23366504D02*
X51271428Y-22652219D01*
X51271428Y-22652219D02*
X51271428Y-23652219D01*
X50842856Y-22747457D02*
X50795237Y-22699838D01*
X50795237Y-22699838D02*
X50699999Y-22652219D01*
X50699999Y-22652219D02*
X50461904Y-22652219D01*
X50461904Y-22652219D02*
X50366666Y-22699838D01*
X50366666Y-22699838D02*
X50319047Y-22747457D01*
X50319047Y-22747457D02*
X50271428Y-22842695D01*
X50271428Y-22842695D02*
X50271428Y-22937933D01*
X50271428Y-22937933D02*
X50319047Y-23080790D01*
X50319047Y-23080790D02*
X50890475Y-23652219D01*
X50890475Y-23652219D02*
X50271428Y-23652219D01*
D10*
X50050000Y-22325000D02*
X50070000Y-22325000D01*
X50470000Y-22325000D02*
X50490000Y-22325000D01*
X50890000Y-22325000D02*
X50910000Y-22325000D01*
X51310000Y-22325000D02*
X51330000Y-22325000D01*
X51730000Y-22325000D02*
X51750000Y-22325000D01*
X52150000Y-22325000D02*
X52170000Y-22325000D01*
X52570000Y-22325000D02*
X52590000Y-22325000D01*
X52990000Y-22325000D02*
X53010000Y-22325000D01*
X53410000Y-22325000D02*
X53430000Y-22325000D01*
X53830000Y-22325000D02*
X53850000Y-22325000D01*
X54250000Y-22325000D02*
X54270000Y-22325000D01*
X54350000Y-22325000D02*
X54350000Y-22345000D01*
X54350000Y-22745000D02*
X54350000Y-22765000D01*
X54350000Y-23165000D02*
X54350000Y-23185000D01*
X54350000Y-23585000D02*
X54350000Y-23605000D01*
X54350000Y-24005000D02*
X54350000Y-24025000D01*
X54350000Y-24075000D02*
X54330000Y-24075000D01*
X53930000Y-24075000D02*
X53910000Y-24075000D01*
X53510000Y-24075000D02*
X53490000Y-24075000D01*
X53090000Y-24075000D02*
X53070000Y-24075000D01*
X52670000Y-24075000D02*
X52650000Y-24075000D01*
X52250000Y-24075000D02*
X52230000Y-24075000D01*
X51830000Y-24075000D02*
X51810000Y-24075000D01*
X51410000Y-24075000D02*
X51390000Y-24075000D01*
X50990000Y-24075000D02*
X50970000Y-24075000D01*
X50570000Y-24075000D02*
X50550000Y-24075000D01*
X50150000Y-24075000D02*
X50130000Y-24075000D01*
X50050000Y-24075000D02*
X50050000Y-24055000D01*
X50050000Y-23655000D02*
X50050000Y-23635000D01*
X50050000Y-23235000D02*
X50050000Y-23215000D01*
X50050000Y-22815000D02*
X50050000Y-22795000D01*
X50050000Y-22395000D02*
X50050000Y-22375000D01*
D11*
X54080951Y-19552219D02*
X54080951Y-18552219D01*
X54080951Y-18552219D02*
X53699999Y-18552219D01*
X53699999Y-18552219D02*
X53604761Y-18599838D01*
X53604761Y-18599838D02*
X53557142Y-18647457D01*
X53557142Y-18647457D02*
X53509523Y-18742695D01*
X53509523Y-18742695D02*
X53509523Y-18885552D01*
X53509523Y-18885552D02*
X53557142Y-18980790D01*
X53557142Y-18980790D02*
X53604761Y-19028409D01*
X53604761Y-19028409D02*
X53699999Y-19076028D01*
X53699999Y-19076028D02*
X54080951Y-19076028D01*
X53176189Y-18552219D02*
X52938094Y-19552219D01*
X52938094Y-19552219D02*
X52747618Y-18837933D01*
X52747618Y-18837933D02*
X52557142Y-19552219D01*
X52557142Y-19552219D02*
X52319047Y-18552219D01*
X51938094Y-19552219D02*
X51938094Y-18552219D01*
X51938094Y-18552219D02*
X51604761Y-19266504D01*
X51604761Y-19266504D02*
X51271428Y-18552219D01*
X51271428Y-18552219D02*
X51271428Y-19552219D01*
X50271428Y-19552219D02*
X50842856Y-19552219D01*
X50557142Y-19552219D02*
X50557142Y-18552219D01*
X50557142Y-18552219D02*
X50652380Y-18695076D01*
X50652380Y-18695076D02*
X50747618Y-18790314D01*
X50747618Y-18790314D02*
X50842856Y-18837933D01*
D10*
X50050000Y-18225000D02*
X50070000Y-18225000D01*
X50470000Y-18225000D02*
X50490000Y-18225000D01*
X50890000Y-18225000D02*
X50910000Y-18225000D01*
X51310000Y-18225000D02*
X51330000Y-18225000D01*
X51730000Y-18225000D02*
X51750000Y-18225000D01*
X52150000Y-18225000D02*
X52170000Y-18225000D01*
X52570000Y-18225000D02*
X52590000Y-18225000D01*
X52990000Y-18225000D02*
X53010000Y-18225000D01*
X53410000Y-18225000D02*
X53430000Y-18225000D01*
X53830000Y-18225000D02*
X53850000Y-18225000D01*
X54250000Y-18225000D02*
X54270000Y-18225000D01*
X54350000Y-18225000D02*
X54350000Y-18245000D01*
X54350000Y-18645000D02*
X54350000Y-18665000D01*
X54350000Y-19065000D02*
X54350000Y-19085000D01*
X54350000Y-19485000D02*
X54350000Y-19505000D01*
X54350000Y-19905000D02*
X54350000Y-19925000D01*
X54350000Y-19975000D02*
X54330000Y-19975000D01*
X53930000Y-19975000D02*
X53910000Y-19975000D01*
X53510000Y-19975000D02*
X53490000Y-19975000D01*
X53090000Y-19975000D02*
X53070000Y-19975000D01*
X52670000Y-19975000D02*
X52650000Y-19975000D01*
X52250000Y-19975000D02*
X52230000Y-19975000D01*
X51830000Y-19975000D02*
X51810000Y-19975000D01*
X51410000Y-19975000D02*
X51390000Y-19975000D01*
X50990000Y-19975000D02*
X50970000Y-19975000D01*
X50570000Y-19975000D02*
X50550000Y-19975000D01*
X50150000Y-19975000D02*
X50130000Y-19975000D01*
X50050000Y-19975000D02*
X50050000Y-19955000D01*
X50050000Y-19555000D02*
X50050000Y-19535000D01*
X50050000Y-19135000D02*
X50050000Y-19115000D01*
X50050000Y-18715000D02*
X50050000Y-18695000D01*
X50050000Y-18295000D02*
X50050000Y-18275000D01*
D11*
X5655951Y-15557219D02*
X5655951Y-14557219D01*
X5655951Y-14557219D02*
X5417856Y-14557219D01*
X5417856Y-14557219D02*
X5274999Y-14604838D01*
X5274999Y-14604838D02*
X5179761Y-14700076D01*
X5179761Y-14700076D02*
X5132142Y-14795314D01*
X5132142Y-14795314D02*
X5084523Y-14985790D01*
X5084523Y-14985790D02*
X5084523Y-15128647D01*
X5084523Y-15128647D02*
X5132142Y-15319123D01*
X5132142Y-15319123D02*
X5179761Y-15414361D01*
X5179761Y-15414361D02*
X5274999Y-15509600D01*
X5274999Y-15509600D02*
X5417856Y-15557219D01*
X5417856Y-15557219D02*
X5655951Y-15557219D01*
X4465475Y-14557219D02*
X4274999Y-14557219D01*
X4274999Y-14557219D02*
X4179761Y-14604838D01*
X4179761Y-14604838D02*
X4084523Y-14700076D01*
X4084523Y-14700076D02*
X4036904Y-14890552D01*
X4036904Y-14890552D02*
X4036904Y-15223885D01*
X4036904Y-15223885D02*
X4084523Y-15414361D01*
X4084523Y-15414361D02*
X4179761Y-15509600D01*
X4179761Y-15509600D02*
X4274999Y-15557219D01*
X4274999Y-15557219D02*
X4465475Y-15557219D01*
X4465475Y-15557219D02*
X4560713Y-15509600D01*
X4560713Y-15509600D02*
X4655951Y-15414361D01*
X4655951Y-15414361D02*
X4703570Y-15223885D01*
X4703570Y-15223885D02*
X4703570Y-14890552D01*
X4703570Y-14890552D02*
X4655951Y-14700076D01*
X4655951Y-14700076D02*
X4560713Y-14604838D01*
X4560713Y-14604838D02*
X4465475Y-14557219D01*
X3703570Y-14557219D02*
X3465475Y-15557219D01*
X3465475Y-15557219D02*
X3274999Y-14842933D01*
X3274999Y-14842933D02*
X3084523Y-15557219D01*
X3084523Y-15557219D02*
X2846428Y-14557219D01*
X2465475Y-15557219D02*
X2465475Y-14557219D01*
X2465475Y-14557219D02*
X1894047Y-15557219D01*
X1894047Y-15557219D02*
X1894047Y-14557219D01*
D10*
X2150000Y-14230000D02*
X2170000Y-14230000D01*
X2570000Y-14230000D02*
X2590000Y-14230000D01*
X2990000Y-14230000D02*
X3010000Y-14230000D01*
X3410000Y-14230000D02*
X3430000Y-14230000D01*
X3830000Y-14230000D02*
X3850000Y-14230000D01*
X4250000Y-14230000D02*
X4270000Y-14230000D01*
X4670000Y-14230000D02*
X4690000Y-14230000D01*
X5090000Y-14230000D02*
X5110000Y-14230000D01*
X5400000Y-14230000D02*
X5400000Y-14250000D01*
X5400000Y-14650000D02*
X5400000Y-14670000D01*
X5400000Y-15070000D02*
X5400000Y-15090000D01*
X5400000Y-15490000D02*
X5400000Y-15510000D01*
X5400000Y-15910000D02*
X5400000Y-15930000D01*
X5400000Y-15980000D02*
X5380000Y-15980000D01*
X4980000Y-15980000D02*
X4960000Y-15980000D01*
X4560000Y-15980000D02*
X4540000Y-15980000D01*
X4140000Y-15980000D02*
X4120000Y-15980000D01*
X3720000Y-15980000D02*
X3700000Y-15980000D01*
X3300000Y-15980000D02*
X3280000Y-15980000D01*
X2880000Y-15980000D02*
X2860000Y-15980000D01*
X2460000Y-15980000D02*
X2440000Y-15980000D01*
X2150000Y-15980000D02*
X2150000Y-15960000D01*
X2150000Y-15560000D02*
X2150000Y-15540000D01*
X2150000Y-15140000D02*
X2150000Y-15120000D01*
X2150000Y-14720000D02*
X2150000Y-14700000D01*
X2150000Y-14300000D02*
X2150000Y-14280000D01*
D11*
X4764285Y-26584600D02*
X4621428Y-26632219D01*
X4621428Y-26632219D02*
X4383333Y-26632219D01*
X4383333Y-26632219D02*
X4288095Y-26584600D01*
X4288095Y-26584600D02*
X4240476Y-26536980D01*
X4240476Y-26536980D02*
X4192857Y-26441742D01*
X4192857Y-26441742D02*
X4192857Y-26346504D01*
X4192857Y-26346504D02*
X4240476Y-26251266D01*
X4240476Y-26251266D02*
X4288095Y-26203647D01*
X4288095Y-26203647D02*
X4383333Y-26156028D01*
X4383333Y-26156028D02*
X4573809Y-26108409D01*
X4573809Y-26108409D02*
X4669047Y-26060790D01*
X4669047Y-26060790D02*
X4716666Y-26013171D01*
X4716666Y-26013171D02*
X4764285Y-25917933D01*
X4764285Y-25917933D02*
X4764285Y-25822695D01*
X4764285Y-25822695D02*
X4716666Y-25727457D01*
X4716666Y-25727457D02*
X4669047Y-25679838D01*
X4669047Y-25679838D02*
X4573809Y-25632219D01*
X4573809Y-25632219D02*
X4335714Y-25632219D01*
X4335714Y-25632219D02*
X4192857Y-25679838D01*
X3764285Y-26632219D02*
X3764285Y-25632219D01*
X3764285Y-25632219D02*
X3526190Y-25632219D01*
X3526190Y-25632219D02*
X3383333Y-25679838D01*
X3383333Y-25679838D02*
X3288095Y-25775076D01*
X3288095Y-25775076D02*
X3240476Y-25870314D01*
X3240476Y-25870314D02*
X3192857Y-26060790D01*
X3192857Y-26060790D02*
X3192857Y-26203647D01*
X3192857Y-26203647D02*
X3240476Y-26394123D01*
X3240476Y-26394123D02*
X3288095Y-26489361D01*
X3288095Y-26489361D02*
X3383333Y-26584600D01*
X3383333Y-26584600D02*
X3526190Y-26632219D01*
X3526190Y-26632219D02*
X3764285Y-26632219D01*
X2811904Y-26346504D02*
X2335714Y-26346504D01*
X2907142Y-26632219D02*
X2573809Y-25632219D01*
X2573809Y-25632219D02*
X2240476Y-26632219D01*
D10*
X1800000Y-25305000D02*
X1820000Y-25305000D01*
X2220000Y-25305000D02*
X2240000Y-25305000D01*
X2640000Y-25305000D02*
X2660000Y-25305000D01*
X3060000Y-25305000D02*
X3080000Y-25305000D01*
X3480000Y-25305000D02*
X3500000Y-25305000D01*
X3900000Y-25305000D02*
X3920000Y-25305000D01*
X4320000Y-25305000D02*
X4340000Y-25305000D01*
X4740000Y-25305000D02*
X4760000Y-25305000D01*
X5160000Y-25305000D02*
X5180000Y-25305000D01*
X5300000Y-25305000D02*
X5300000Y-25325000D01*
X5300000Y-25725000D02*
X5300000Y-25745000D01*
X5300000Y-26145000D02*
X5300000Y-26165000D01*
X5300000Y-26565000D02*
X5300000Y-26585000D01*
X5300000Y-26985000D02*
X5300000Y-27005000D01*
X5300000Y-27055000D02*
X5280000Y-27055000D01*
X4880000Y-27055000D02*
X4860000Y-27055000D01*
X4460000Y-27055000D02*
X4440000Y-27055000D01*
X4040000Y-27055000D02*
X4020000Y-27055000D01*
X3620000Y-27055000D02*
X3600000Y-27055000D01*
X3200000Y-27055000D02*
X3180000Y-27055000D01*
X2780000Y-27055000D02*
X2760000Y-27055000D01*
X2360000Y-27055000D02*
X2340000Y-27055000D01*
X1940000Y-27055000D02*
X1920000Y-27055000D01*
X1800000Y-27055000D02*
X1800000Y-27035000D01*
X1800000Y-26635000D02*
X1800000Y-26615000D01*
X1800000Y-26215000D02*
X1800000Y-26195000D01*
X1800000Y-25795000D02*
X1800000Y-25775000D01*
X1800000Y-25375000D02*
X1800000Y-25355000D01*
D11*
X22480951Y-25377219D02*
X22480951Y-24377219D01*
X22480951Y-24377219D02*
X22099999Y-24377219D01*
X22099999Y-24377219D02*
X22004761Y-24424838D01*
X22004761Y-24424838D02*
X21957142Y-24472457D01*
X21957142Y-24472457D02*
X21909523Y-24567695D01*
X21909523Y-24567695D02*
X21909523Y-24710552D01*
X21909523Y-24710552D02*
X21957142Y-24805790D01*
X21957142Y-24805790D02*
X22004761Y-24853409D01*
X22004761Y-24853409D02*
X22099999Y-24901028D01*
X22099999Y-24901028D02*
X22480951Y-24901028D01*
X21576189Y-24377219D02*
X21338094Y-25377219D01*
X21338094Y-25377219D02*
X21147618Y-24662933D01*
X21147618Y-24662933D02*
X20957142Y-25377219D01*
X20957142Y-25377219D02*
X20719047Y-24377219D01*
X20338094Y-25377219D02*
X20338094Y-24377219D01*
X20338094Y-24377219D02*
X20004761Y-25091504D01*
X20004761Y-25091504D02*
X19671428Y-24377219D01*
X19671428Y-24377219D02*
X19671428Y-25377219D01*
X19242856Y-24472457D02*
X19195237Y-24424838D01*
X19195237Y-24424838D02*
X19099999Y-24377219D01*
X19099999Y-24377219D02*
X18861904Y-24377219D01*
X18861904Y-24377219D02*
X18766666Y-24424838D01*
X18766666Y-24424838D02*
X18719047Y-24472457D01*
X18719047Y-24472457D02*
X18671428Y-24567695D01*
X18671428Y-24567695D02*
X18671428Y-24662933D01*
X18671428Y-24662933D02*
X18719047Y-24805790D01*
X18719047Y-24805790D02*
X19290475Y-25377219D01*
X19290475Y-25377219D02*
X18671428Y-25377219D01*
D10*
X18450000Y-24050000D02*
X18470000Y-24050000D01*
X18870000Y-24050000D02*
X18890000Y-24050000D01*
X19290000Y-24050000D02*
X19310000Y-24050000D01*
X19710000Y-24050000D02*
X19730000Y-24050000D01*
X20130000Y-24050000D02*
X20150000Y-24050000D01*
X20550000Y-24050000D02*
X20570000Y-24050000D01*
X20970000Y-24050000D02*
X20990000Y-24050000D01*
X21390000Y-24050000D02*
X21410000Y-24050000D01*
X21810000Y-24050000D02*
X21830000Y-24050000D01*
X22230000Y-24050000D02*
X22250000Y-24050000D01*
X22650000Y-24050000D02*
X22670000Y-24050000D01*
X22750000Y-24050000D02*
X22750000Y-24070000D01*
X22750000Y-24470000D02*
X22750000Y-24490000D01*
X22750000Y-24890000D02*
X22750000Y-24910000D01*
X22750000Y-25310000D02*
X22750000Y-25330000D01*
X22750000Y-25730000D02*
X22750000Y-25750000D01*
X22750000Y-25800000D02*
X22730000Y-25800000D01*
X22330000Y-25800000D02*
X22310000Y-25800000D01*
X21910000Y-25800000D02*
X21890000Y-25800000D01*
X21490000Y-25800000D02*
X21470000Y-25800000D01*
X21070000Y-25800000D02*
X21050000Y-25800000D01*
X20650000Y-25800000D02*
X20630000Y-25800000D01*
X20230000Y-25800000D02*
X20210000Y-25800000D01*
X19810000Y-25800000D02*
X19790000Y-25800000D01*
X19390000Y-25800000D02*
X19370000Y-25800000D01*
X18970000Y-25800000D02*
X18950000Y-25800000D01*
X18550000Y-25800000D02*
X18530000Y-25800000D01*
X18450000Y-25800000D02*
X18450000Y-25780000D01*
X18450000Y-25380000D02*
X18450000Y-25360000D01*
X18450000Y-24960000D02*
X18450000Y-24940000D01*
X18450000Y-24540000D02*
X18450000Y-24520000D01*
X18450000Y-24120000D02*
X18450000Y-24100000D01*
D11*
X18990475Y-17829600D02*
X18847618Y-17877219D01*
X18847618Y-17877219D02*
X18609523Y-17877219D01*
X18609523Y-17877219D02*
X18514285Y-17829600D01*
X18514285Y-17829600D02*
X18466666Y-17781980D01*
X18466666Y-17781980D02*
X18419047Y-17686742D01*
X18419047Y-17686742D02*
X18419047Y-17591504D01*
X18419047Y-17591504D02*
X18466666Y-17496266D01*
X18466666Y-17496266D02*
X18514285Y-17448647D01*
X18514285Y-17448647D02*
X18609523Y-17401028D01*
X18609523Y-17401028D02*
X18799999Y-17353409D01*
X18799999Y-17353409D02*
X18895237Y-17305790D01*
X18895237Y-17305790D02*
X18942856Y-17258171D01*
X18942856Y-17258171D02*
X18990475Y-17162933D01*
X18990475Y-17162933D02*
X18990475Y-17067695D01*
X18990475Y-17067695D02*
X18942856Y-16972457D01*
X18942856Y-16972457D02*
X18895237Y-16924838D01*
X18895237Y-16924838D02*
X18799999Y-16877219D01*
X18799999Y-16877219D02*
X18561904Y-16877219D01*
X18561904Y-16877219D02*
X18419047Y-16924838D01*
X17419047Y-17781980D02*
X17466666Y-17829600D01*
X17466666Y-17829600D02*
X17609523Y-17877219D01*
X17609523Y-17877219D02*
X17704761Y-17877219D01*
X17704761Y-17877219D02*
X17847618Y-17829600D01*
X17847618Y-17829600D02*
X17942856Y-17734361D01*
X17942856Y-17734361D02*
X17990475Y-17639123D01*
X17990475Y-17639123D02*
X18038094Y-17448647D01*
X18038094Y-17448647D02*
X18038094Y-17305790D01*
X18038094Y-17305790D02*
X17990475Y-17115314D01*
X17990475Y-17115314D02*
X17942856Y-17020076D01*
X17942856Y-17020076D02*
X17847618Y-16924838D01*
X17847618Y-16924838D02*
X17704761Y-16877219D01*
X17704761Y-16877219D02*
X17609523Y-16877219D01*
X17609523Y-16877219D02*
X17466666Y-16924838D01*
X17466666Y-16924838D02*
X17419047Y-16972457D01*
X16514285Y-17877219D02*
X16990475Y-17877219D01*
X16990475Y-17877219D02*
X16990475Y-16877219D01*
D10*
X16050000Y-16550000D02*
X16070000Y-16550000D01*
X16470000Y-16550000D02*
X16490000Y-16550000D01*
X16890000Y-16550000D02*
X16910000Y-16550000D01*
X17310000Y-16550000D02*
X17330000Y-16550000D01*
X17730000Y-16550000D02*
X17750000Y-16550000D01*
X18150000Y-16550000D02*
X18170000Y-16550000D01*
X18570000Y-16550000D02*
X18590000Y-16550000D01*
X18990000Y-16550000D02*
X19010000Y-16550000D01*
X19410000Y-16550000D02*
X19430000Y-16550000D01*
X19550000Y-16550000D02*
X19550000Y-16570000D01*
X19550000Y-16970000D02*
X19550000Y-16990000D01*
X19550000Y-17390000D02*
X19550000Y-17410000D01*
X19550000Y-17810000D02*
X19550000Y-17830000D01*
X19550000Y-18230000D02*
X19550000Y-18250000D01*
X19550000Y-18300000D02*
X19530000Y-18300000D01*
X19130000Y-18300000D02*
X19110000Y-18300000D01*
X18710000Y-18300000D02*
X18690000Y-18300000D01*
X18290000Y-18300000D02*
X18270000Y-18300000D01*
X17870000Y-18300000D02*
X17850000Y-18300000D01*
X17450000Y-18300000D02*
X17430000Y-18300000D01*
X17030000Y-18300000D02*
X17010000Y-18300000D01*
X16610000Y-18300000D02*
X16590000Y-18300000D01*
X16190000Y-18300000D02*
X16170000Y-18300000D01*
X16050000Y-18300000D02*
X16050000Y-18280000D01*
X16050000Y-17880000D02*
X16050000Y-17860000D01*
X16050000Y-17460000D02*
X16050000Y-17440000D01*
X16050000Y-17040000D02*
X16050000Y-17020000D01*
X16050000Y-16620000D02*
X16050000Y-16600000D01*
X53584523Y-15357419D02*
X53459523Y-14357419D01*
X53459523Y-14357419D02*
X53078570Y-14357419D01*
X53078570Y-14357419D02*
X52989285Y-14405038D01*
X52989285Y-14405038D02*
X52947618Y-14452657D01*
X52947618Y-14452657D02*
X52911904Y-14547895D01*
X52911904Y-14547895D02*
X52929761Y-14690752D01*
X52929761Y-14690752D02*
X52989285Y-14785990D01*
X52989285Y-14785990D02*
X53042856Y-14833609D01*
X53042856Y-14833609D02*
X53144046Y-14881228D01*
X53144046Y-14881228D02*
X53524999Y-14881228D01*
X52584523Y-15357419D02*
X52501189Y-14690752D01*
X52459523Y-14357419D02*
X52513094Y-14405038D01*
X52513094Y-14405038D02*
X52471427Y-14452657D01*
X52471427Y-14452657D02*
X52417856Y-14405038D01*
X52417856Y-14405038D02*
X52459523Y-14357419D01*
X52459523Y-14357419D02*
X52471427Y-14452657D01*
X52024999Y-14690752D02*
X52108333Y-15357419D01*
X52036904Y-14785990D02*
X51983333Y-14738371D01*
X51983333Y-14738371D02*
X51882142Y-14690752D01*
X51882142Y-14690752D02*
X51739285Y-14690752D01*
X51739285Y-14690752D02*
X51649999Y-14738371D01*
X51649999Y-14738371D02*
X51614285Y-14833609D01*
X51614285Y-14833609D02*
X51679761Y-15357419D01*
X51138094Y-14452657D02*
X51084523Y-14405038D01*
X51084523Y-14405038D02*
X50983333Y-14357419D01*
X50983333Y-14357419D02*
X50745237Y-14357419D01*
X50745237Y-14357419D02*
X50655952Y-14405038D01*
X50655952Y-14405038D02*
X50614285Y-14452657D01*
X50614285Y-14452657D02*
X50578571Y-14547895D01*
X50578571Y-14547895D02*
X50590475Y-14643133D01*
X50590475Y-14643133D02*
X50655952Y-14785990D01*
X50655952Y-14785990D02*
X51298809Y-15357419D01*
X51298809Y-15357419D02*
X50679761Y-15357419D01*
X49775000Y-14025000D02*
X49795000Y-14025000D01*
X50195000Y-14025000D02*
X50215000Y-14025000D01*
X50615000Y-14025000D02*
X50635000Y-14025000D01*
X51035000Y-14025000D02*
X51055000Y-14025000D01*
X51455000Y-14025000D02*
X51475000Y-14025000D01*
X51875000Y-14025000D02*
X51895000Y-14025000D01*
X52295000Y-14025000D02*
X52315000Y-14025000D01*
X52715000Y-14025000D02*
X52735000Y-14025000D01*
X53135000Y-14025000D02*
X53155000Y-14025000D01*
X53555000Y-14025000D02*
X53575000Y-14025000D01*
X53975000Y-14025000D02*
X53995000Y-14025000D01*
X54395000Y-14025000D02*
X54415000Y-14025000D01*
X54525000Y-14025000D02*
X54525000Y-14045000D01*
X54525000Y-14445000D02*
X54525000Y-14465000D01*
X54525000Y-14865000D02*
X54525000Y-14885000D01*
X54525000Y-15285000D02*
X54525000Y-15305000D01*
X54525000Y-15705000D02*
X54525000Y-15725000D01*
X54525000Y-15775000D02*
X54505000Y-15775000D01*
X54105000Y-15775000D02*
X54085000Y-15775000D01*
X53685000Y-15775000D02*
X53665000Y-15775000D01*
X53265000Y-15775000D02*
X53245000Y-15775000D01*
X52845000Y-15775000D02*
X52825000Y-15775000D01*
X52425000Y-15775000D02*
X52405000Y-15775000D01*
X52005000Y-15775000D02*
X51985000Y-15775000D01*
X51585000Y-15775000D02*
X51565000Y-15775000D01*
X51165000Y-15775000D02*
X51145000Y-15775000D01*
X50745000Y-15775000D02*
X50725000Y-15775000D01*
X50325000Y-15775000D02*
X50305000Y-15775000D01*
X49905000Y-15775000D02*
X49885000Y-15775000D01*
X49775000Y-15775000D02*
X49775000Y-15755000D01*
X49775000Y-15355000D02*
X49775000Y-15335000D01*
X49775000Y-14935000D02*
X49775000Y-14915000D01*
X49775000Y-14515000D02*
X49775000Y-14495000D01*
X49775000Y-14095000D02*
X49775000Y-14075000D01*
D11*
X17604761Y-7153409D02*
X17461904Y-7201028D01*
X17461904Y-7201028D02*
X17414285Y-7248647D01*
X17414285Y-7248647D02*
X17366666Y-7343885D01*
X17366666Y-7343885D02*
X17366666Y-7486742D01*
X17366666Y-7486742D02*
X17414285Y-7581980D01*
X17414285Y-7581980D02*
X17461904Y-7629600D01*
X17461904Y-7629600D02*
X17557142Y-7677219D01*
X17557142Y-7677219D02*
X17938094Y-7677219D01*
X17938094Y-7677219D02*
X17938094Y-6677219D01*
X17938094Y-6677219D02*
X17604761Y-6677219D01*
X17604761Y-6677219D02*
X17509523Y-6724838D01*
X17509523Y-6724838D02*
X17461904Y-6772457D01*
X17461904Y-6772457D02*
X17414285Y-6867695D01*
X17414285Y-6867695D02*
X17414285Y-6962933D01*
X17414285Y-6962933D02*
X17461904Y-7058171D01*
X17461904Y-7058171D02*
X17509523Y-7105790D01*
X17509523Y-7105790D02*
X17604761Y-7153409D01*
X17604761Y-7153409D02*
X17938094Y-7153409D01*
X16414285Y-7677219D02*
X16985713Y-7677219D01*
X16699999Y-7677219D02*
X16699999Y-6677219D01*
X16699999Y-6677219D02*
X16795237Y-6820076D01*
X16795237Y-6820076D02*
X16890475Y-6915314D01*
X16890475Y-6915314D02*
X16985713Y-6962933D01*
D10*
X16050000Y-6350000D02*
X16070000Y-6350000D01*
X16470000Y-6350000D02*
X16490000Y-6350000D01*
X16890000Y-6350000D02*
X16910000Y-6350000D01*
X17310000Y-6350000D02*
X17330000Y-6350000D01*
X17730000Y-6350000D02*
X17750000Y-6350000D01*
X18150000Y-6350000D02*
X18170000Y-6350000D01*
X18350000Y-6350000D02*
X18350000Y-6370000D01*
X18350000Y-6770000D02*
X18350000Y-6790000D01*
X18350000Y-7190000D02*
X18350000Y-7210000D01*
X18350000Y-7610000D02*
X18350000Y-7630000D01*
X18350000Y-8030000D02*
X18350000Y-8050000D01*
X18350000Y-8100000D02*
X18330000Y-8100000D01*
X17930000Y-8100000D02*
X17910000Y-8100000D01*
X17510000Y-8100000D02*
X17490000Y-8100000D01*
X17090000Y-8100000D02*
X17070000Y-8100000D01*
X16670000Y-8100000D02*
X16650000Y-8100000D01*
X16250000Y-8100000D02*
X16230000Y-8100000D01*
X16050000Y-8100000D02*
X16050000Y-8080000D01*
X16050000Y-7680000D02*
X16050000Y-7660000D01*
X16050000Y-7260000D02*
X16050000Y-7240000D01*
X16050000Y-6840000D02*
X16050000Y-6820000D01*
X16050000Y-6420000D02*
X16050000Y-6400000D01*
D11*
X27111904Y-9304838D02*
X27207142Y-9257219D01*
X27207142Y-9257219D02*
X27349999Y-9257219D01*
X27349999Y-9257219D02*
X27492856Y-9304838D01*
X27492856Y-9304838D02*
X27588094Y-9400076D01*
X27588094Y-9400076D02*
X27635713Y-9495314D01*
X27635713Y-9495314D02*
X27683332Y-9685790D01*
X27683332Y-9685790D02*
X27683332Y-9828647D01*
X27683332Y-9828647D02*
X27635713Y-10019123D01*
X27635713Y-10019123D02*
X27588094Y-10114361D01*
X27588094Y-10114361D02*
X27492856Y-10209600D01*
X27492856Y-10209600D02*
X27349999Y-10257219D01*
X27349999Y-10257219D02*
X27254761Y-10257219D01*
X27254761Y-10257219D02*
X27111904Y-10209600D01*
X27111904Y-10209600D02*
X27064285Y-10161980D01*
X27064285Y-10161980D02*
X27064285Y-9828647D01*
X27064285Y-9828647D02*
X27254761Y-9828647D01*
X26635713Y-10257219D02*
X26635713Y-9257219D01*
X26635713Y-9257219D02*
X26064285Y-10257219D01*
X26064285Y-10257219D02*
X26064285Y-9257219D01*
X25588094Y-10257219D02*
X25588094Y-9257219D01*
X25588094Y-9257219D02*
X25349999Y-9257219D01*
X25349999Y-9257219D02*
X25207142Y-9304838D01*
X25207142Y-9304838D02*
X25111904Y-9400076D01*
X25111904Y-9400076D02*
X25064285Y-9495314D01*
X25064285Y-9495314D02*
X25016666Y-9685790D01*
X25016666Y-9685790D02*
X25016666Y-9828647D01*
X25016666Y-9828647D02*
X25064285Y-10019123D01*
X25064285Y-10019123D02*
X25111904Y-10114361D01*
X25111904Y-10114361D02*
X25207142Y-10209600D01*
X25207142Y-10209600D02*
X25349999Y-10257219D01*
X25349999Y-10257219D02*
X25588094Y-10257219D01*
D10*
X24600000Y-8930000D02*
X24620000Y-8930000D01*
X25020000Y-8930000D02*
X25040000Y-8930000D01*
X25440000Y-8930000D02*
X25460000Y-8930000D01*
X25860000Y-8930000D02*
X25880000Y-8930000D01*
X26280000Y-8930000D02*
X26300000Y-8930000D01*
X26700000Y-8930000D02*
X26720000Y-8930000D01*
X27120000Y-8930000D02*
X27140000Y-8930000D01*
X27540000Y-8930000D02*
X27560000Y-8930000D01*
X27960000Y-8930000D02*
X27980000Y-8930000D01*
X28100000Y-8930000D02*
X28100000Y-8950000D01*
X28100000Y-9350000D02*
X28100000Y-9370000D01*
X28100000Y-9770000D02*
X28100000Y-9790000D01*
X28100000Y-10190000D02*
X28100000Y-10210000D01*
X28100000Y-10610000D02*
X28100000Y-10630000D01*
X28100000Y-10680000D02*
X28080000Y-10680000D01*
X27680000Y-10680000D02*
X27660000Y-10680000D01*
X27260000Y-10680000D02*
X27240000Y-10680000D01*
X26840000Y-10680000D02*
X26820000Y-10680000D01*
X26420000Y-10680000D02*
X26400000Y-10680000D01*
X26000000Y-10680000D02*
X25980000Y-10680000D01*
X25580000Y-10680000D02*
X25560000Y-10680000D01*
X25160000Y-10680000D02*
X25140000Y-10680000D01*
X24740000Y-10680000D02*
X24720000Y-10680000D01*
X24600000Y-10680000D02*
X24600000Y-10660000D01*
X24600000Y-10260000D02*
X24600000Y-10240000D01*
X24600000Y-9840000D02*
X24600000Y-9820000D01*
X24600000Y-9420000D02*
X24600000Y-9400000D01*
X24600000Y-9000000D02*
X24600000Y-8980000D01*
D11*
X27776189Y-11777219D02*
X27157142Y-11777219D01*
X27157142Y-11777219D02*
X27490475Y-12158171D01*
X27490475Y-12158171D02*
X27347618Y-12158171D01*
X27347618Y-12158171D02*
X27252380Y-12205790D01*
X27252380Y-12205790D02*
X27204761Y-12253409D01*
X27204761Y-12253409D02*
X27157142Y-12348647D01*
X27157142Y-12348647D02*
X27157142Y-12586742D01*
X27157142Y-12586742D02*
X27204761Y-12681980D01*
X27204761Y-12681980D02*
X27252380Y-12729600D01*
X27252380Y-12729600D02*
X27347618Y-12777219D01*
X27347618Y-12777219D02*
X27633332Y-12777219D01*
X27633332Y-12777219D02*
X27728570Y-12729600D01*
X27728570Y-12729600D02*
X27776189Y-12681980D01*
X26728570Y-12681980D02*
X26680951Y-12729600D01*
X26680951Y-12729600D02*
X26728570Y-12777219D01*
X26728570Y-12777219D02*
X26776189Y-12729600D01*
X26776189Y-12729600D02*
X26728570Y-12681980D01*
X26728570Y-12681980D02*
X26728570Y-12777219D01*
X26347618Y-11777219D02*
X25728571Y-11777219D01*
X25728571Y-11777219D02*
X26061904Y-12158171D01*
X26061904Y-12158171D02*
X25919047Y-12158171D01*
X25919047Y-12158171D02*
X25823809Y-12205790D01*
X25823809Y-12205790D02*
X25776190Y-12253409D01*
X25776190Y-12253409D02*
X25728571Y-12348647D01*
X25728571Y-12348647D02*
X25728571Y-12586742D01*
X25728571Y-12586742D02*
X25776190Y-12681980D01*
X25776190Y-12681980D02*
X25823809Y-12729600D01*
X25823809Y-12729600D02*
X25919047Y-12777219D01*
X25919047Y-12777219D02*
X26204761Y-12777219D01*
X26204761Y-12777219D02*
X26299999Y-12729600D01*
X26299999Y-12729600D02*
X26347618Y-12681980D01*
X25442856Y-11777219D02*
X25109523Y-12777219D01*
X25109523Y-12777219D02*
X24776190Y-11777219D01*
D10*
X24550000Y-11450000D02*
X24570000Y-11450000D01*
X24970000Y-11450000D02*
X24990000Y-11450000D01*
X25390000Y-11450000D02*
X25410000Y-11450000D01*
X25810000Y-11450000D02*
X25830000Y-11450000D01*
X26230000Y-11450000D02*
X26250000Y-11450000D01*
X26650000Y-11450000D02*
X26670000Y-11450000D01*
X27070000Y-11450000D02*
X27090000Y-11450000D01*
X27490000Y-11450000D02*
X27510000Y-11450000D01*
X27910000Y-11450000D02*
X27930000Y-11450000D01*
X28050000Y-11450000D02*
X28050000Y-11470000D01*
X28050000Y-11870000D02*
X28050000Y-11890000D01*
X28050000Y-12290000D02*
X28050000Y-12310000D01*
X28050000Y-12710000D02*
X28050000Y-12730000D01*
X28050000Y-13130000D02*
X28050000Y-13150000D01*
X28050000Y-13200000D02*
X28030000Y-13200000D01*
X27630000Y-13200000D02*
X27610000Y-13200000D01*
X27210000Y-13200000D02*
X27190000Y-13200000D01*
X26790000Y-13200000D02*
X26770000Y-13200000D01*
X26370000Y-13200000D02*
X26350000Y-13200000D01*
X25950000Y-13200000D02*
X25930000Y-13200000D01*
X25530000Y-13200000D02*
X25510000Y-13200000D01*
X25110000Y-13200000D02*
X25090000Y-13200000D01*
X24690000Y-13200000D02*
X24670000Y-13200000D01*
X24550000Y-13200000D02*
X24550000Y-13180000D01*
X24550000Y-12780000D02*
X24550000Y-12760000D01*
X24550000Y-12360000D02*
X24550000Y-12340000D01*
X24550000Y-11940000D02*
X24550000Y-11920000D01*
X24550000Y-11520000D02*
X24550000Y-11500000D01*
D11*
X3165475Y-43604600D02*
X3022618Y-43652219D01*
X3022618Y-43652219D02*
X2784523Y-43652219D01*
X2784523Y-43652219D02*
X2689285Y-43604600D01*
X2689285Y-43604600D02*
X2641666Y-43556980D01*
X2641666Y-43556980D02*
X2594047Y-43461742D01*
X2594047Y-43461742D02*
X2594047Y-43366504D01*
X2594047Y-43366504D02*
X2641666Y-43271266D01*
X2641666Y-43271266D02*
X2689285Y-43223647D01*
X2689285Y-43223647D02*
X2784523Y-43176028D01*
X2784523Y-43176028D02*
X2974999Y-43128409D01*
X2974999Y-43128409D02*
X3070237Y-43080790D01*
X3070237Y-43080790D02*
X3117856Y-43033171D01*
X3117856Y-43033171D02*
X3165475Y-42937933D01*
X3165475Y-42937933D02*
X3165475Y-42842695D01*
X3165475Y-42842695D02*
X3117856Y-42747457D01*
X3117856Y-42747457D02*
X3070237Y-42699838D01*
X3070237Y-42699838D02*
X2974999Y-42652219D01*
X2974999Y-42652219D02*
X2736904Y-42652219D01*
X2736904Y-42652219D02*
X2594047Y-42699838D01*
X1594047Y-43556980D02*
X1641666Y-43604600D01*
X1641666Y-43604600D02*
X1784523Y-43652219D01*
X1784523Y-43652219D02*
X1879761Y-43652219D01*
X1879761Y-43652219D02*
X2022618Y-43604600D01*
X2022618Y-43604600D02*
X2117856Y-43509361D01*
X2117856Y-43509361D02*
X2165475Y-43414123D01*
X2165475Y-43414123D02*
X2213094Y-43223647D01*
X2213094Y-43223647D02*
X2213094Y-43080790D01*
X2213094Y-43080790D02*
X2165475Y-42890314D01*
X2165475Y-42890314D02*
X2117856Y-42795076D01*
X2117856Y-42795076D02*
X2022618Y-42699838D01*
X2022618Y-42699838D02*
X1879761Y-42652219D01*
X1879761Y-42652219D02*
X1784523Y-42652219D01*
X1784523Y-42652219D02*
X1641666Y-42699838D01*
X1641666Y-42699838D02*
X1594047Y-42747457D01*
X689285Y-43652219D02*
X1165475Y-43652219D01*
X1165475Y-43652219D02*
X1165475Y-42652219D01*
D10*
X225000Y-42325000D02*
X245000Y-42325000D01*
X645000Y-42325000D02*
X665000Y-42325000D01*
X1065000Y-42325000D02*
X1085000Y-42325000D01*
X1485000Y-42325000D02*
X1505000Y-42325000D01*
X1905000Y-42325000D02*
X1925000Y-42325000D01*
X2325000Y-42325000D02*
X2345000Y-42325000D01*
X2745000Y-42325000D02*
X2765000Y-42325000D01*
X3165000Y-42325000D02*
X3185000Y-42325000D01*
X3585000Y-42325000D02*
X3605000Y-42325000D01*
X3725000Y-42325000D02*
X3725000Y-42345000D01*
X3725000Y-42745000D02*
X3725000Y-42765000D01*
X3725000Y-43165000D02*
X3725000Y-43185000D01*
X3725000Y-43585000D02*
X3725000Y-43605000D01*
X3725000Y-44005000D02*
X3725000Y-44025000D01*
X3725000Y-44075000D02*
X3705000Y-44075000D01*
X3305000Y-44075000D02*
X3285000Y-44075000D01*
X2885000Y-44075000D02*
X2865000Y-44075000D01*
X2465000Y-44075000D02*
X2445000Y-44075000D01*
X2045000Y-44075000D02*
X2025000Y-44075000D01*
X1625000Y-44075000D02*
X1605000Y-44075000D01*
X1205000Y-44075000D02*
X1185000Y-44075000D01*
X785000Y-44075000D02*
X765000Y-44075000D01*
X365000Y-44075000D02*
X345000Y-44075000D01*
X225000Y-44075000D02*
X225000Y-44055000D01*
X225000Y-43655000D02*
X225000Y-43635000D01*
X225000Y-43235000D02*
X225000Y-43215000D01*
X225000Y-42815000D02*
X225000Y-42795000D01*
X225000Y-42395000D02*
X225000Y-42375000D01*
D11*
X52861904Y-5899838D02*
X52957142Y-5852219D01*
X52957142Y-5852219D02*
X53099999Y-5852219D01*
X53099999Y-5852219D02*
X53242856Y-5899838D01*
X53242856Y-5899838D02*
X53338094Y-5995076D01*
X53338094Y-5995076D02*
X53385713Y-6090314D01*
X53385713Y-6090314D02*
X53433332Y-6280790D01*
X53433332Y-6280790D02*
X53433332Y-6423647D01*
X53433332Y-6423647D02*
X53385713Y-6614123D01*
X53385713Y-6614123D02*
X53338094Y-6709361D01*
X53338094Y-6709361D02*
X53242856Y-6804600D01*
X53242856Y-6804600D02*
X53099999Y-6852219D01*
X53099999Y-6852219D02*
X53004761Y-6852219D01*
X53004761Y-6852219D02*
X52861904Y-6804600D01*
X52861904Y-6804600D02*
X52814285Y-6756980D01*
X52814285Y-6756980D02*
X52814285Y-6423647D01*
X52814285Y-6423647D02*
X53004761Y-6423647D01*
X52385713Y-6852219D02*
X52385713Y-5852219D01*
X52385713Y-5852219D02*
X51814285Y-6852219D01*
X51814285Y-6852219D02*
X51814285Y-5852219D01*
X51338094Y-6852219D02*
X51338094Y-5852219D01*
X51338094Y-5852219D02*
X51099999Y-5852219D01*
X51099999Y-5852219D02*
X50957142Y-5899838D01*
X50957142Y-5899838D02*
X50861904Y-5995076D01*
X50861904Y-5995076D02*
X50814285Y-6090314D01*
X50814285Y-6090314D02*
X50766666Y-6280790D01*
X50766666Y-6280790D02*
X50766666Y-6423647D01*
X50766666Y-6423647D02*
X50814285Y-6614123D01*
X50814285Y-6614123D02*
X50861904Y-6709361D01*
X50861904Y-6709361D02*
X50957142Y-6804600D01*
X50957142Y-6804600D02*
X51099999Y-6852219D01*
X51099999Y-6852219D02*
X51338094Y-6852219D01*
D10*
X49950000Y-5525000D02*
X49970000Y-5525000D01*
X50370000Y-5525000D02*
X50390000Y-5525000D01*
X50790000Y-5525000D02*
X50810000Y-5525000D01*
X51210000Y-5525000D02*
X51230000Y-5525000D01*
X51630000Y-5525000D02*
X51650000Y-5525000D01*
X52050000Y-5525000D02*
X52070000Y-5525000D01*
X52470000Y-5525000D02*
X52490000Y-5525000D01*
X52890000Y-5525000D02*
X52910000Y-5525000D01*
X53310000Y-5525000D02*
X53330000Y-5525000D01*
X53730000Y-5525000D02*
X53750000Y-5525000D01*
X54150000Y-5525000D02*
X54170000Y-5525000D01*
X54250000Y-5525000D02*
X54250000Y-5545000D01*
X54250000Y-5945000D02*
X54250000Y-5965000D01*
X54250000Y-6365000D02*
X54250000Y-6385000D01*
X54250000Y-6785000D02*
X54250000Y-6805000D01*
X54250000Y-7205000D02*
X54250000Y-7225000D01*
X54250000Y-7275000D02*
X54230000Y-7275000D01*
X53830000Y-7275000D02*
X53810000Y-7275000D01*
X53410000Y-7275000D02*
X53390000Y-7275000D01*
X52990000Y-7275000D02*
X52970000Y-7275000D01*
X52570000Y-7275000D02*
X52550000Y-7275000D01*
X52150000Y-7275000D02*
X52130000Y-7275000D01*
X51730000Y-7275000D02*
X51710000Y-7275000D01*
X51310000Y-7275000D02*
X51290000Y-7275000D01*
X50890000Y-7275000D02*
X50870000Y-7275000D01*
X50470000Y-7275000D02*
X50450000Y-7275000D01*
X50050000Y-7275000D02*
X50030000Y-7275000D01*
X49950000Y-7275000D02*
X49950000Y-7255000D01*
X49950000Y-6855000D02*
X49950000Y-6835000D01*
X49950000Y-6435000D02*
X49950000Y-6415000D01*
X49950000Y-6015000D02*
X49950000Y-5995000D01*
X49950000Y-5595000D02*
X49950000Y-5575000D01*
D11*
X4261904Y-21229838D02*
X4357142Y-21182219D01*
X4357142Y-21182219D02*
X4499999Y-21182219D01*
X4499999Y-21182219D02*
X4642856Y-21229838D01*
X4642856Y-21229838D02*
X4738094Y-21325076D01*
X4738094Y-21325076D02*
X4785713Y-21420314D01*
X4785713Y-21420314D02*
X4833332Y-21610790D01*
X4833332Y-21610790D02*
X4833332Y-21753647D01*
X4833332Y-21753647D02*
X4785713Y-21944123D01*
X4785713Y-21944123D02*
X4738094Y-22039361D01*
X4738094Y-22039361D02*
X4642856Y-22134600D01*
X4642856Y-22134600D02*
X4499999Y-22182219D01*
X4499999Y-22182219D02*
X4404761Y-22182219D01*
X4404761Y-22182219D02*
X4261904Y-22134600D01*
X4261904Y-22134600D02*
X4214285Y-22086980D01*
X4214285Y-22086980D02*
X4214285Y-21753647D01*
X4214285Y-21753647D02*
X4404761Y-21753647D01*
X3785713Y-22182219D02*
X3785713Y-21182219D01*
X3785713Y-21182219D02*
X3214285Y-22182219D01*
X3214285Y-22182219D02*
X3214285Y-21182219D01*
X2738094Y-22182219D02*
X2738094Y-21182219D01*
X2738094Y-21182219D02*
X2499999Y-21182219D01*
X2499999Y-21182219D02*
X2357142Y-21229838D01*
X2357142Y-21229838D02*
X2261904Y-21325076D01*
X2261904Y-21325076D02*
X2214285Y-21420314D01*
X2214285Y-21420314D02*
X2166666Y-21610790D01*
X2166666Y-21610790D02*
X2166666Y-21753647D01*
X2166666Y-21753647D02*
X2214285Y-21944123D01*
X2214285Y-21944123D02*
X2261904Y-22039361D01*
X2261904Y-22039361D02*
X2357142Y-22134600D01*
X2357142Y-22134600D02*
X2499999Y-22182219D01*
X2499999Y-22182219D02*
X2738094Y-22182219D01*
D10*
X1750000Y-20855000D02*
X1770000Y-20855000D01*
X2170000Y-20855000D02*
X2190000Y-20855000D01*
X2590000Y-20855000D02*
X2610000Y-20855000D01*
X3010000Y-20855000D02*
X3030000Y-20855000D01*
X3430000Y-20855000D02*
X3450000Y-20855000D01*
X3850000Y-20855000D02*
X3870000Y-20855000D01*
X4270000Y-20855000D02*
X4290000Y-20855000D01*
X4690000Y-20855000D02*
X4710000Y-20855000D01*
X5110000Y-20855000D02*
X5130000Y-20855000D01*
X5250000Y-20855000D02*
X5250000Y-20875000D01*
X5250000Y-21275000D02*
X5250000Y-21295000D01*
X5250000Y-21695000D02*
X5250000Y-21715000D01*
X5250000Y-22115000D02*
X5250000Y-22135000D01*
X5250000Y-22535000D02*
X5250000Y-22555000D01*
X5250000Y-22605000D02*
X5230000Y-22605000D01*
X4830000Y-22605000D02*
X4810000Y-22605000D01*
X4410000Y-22605000D02*
X4390000Y-22605000D01*
X3990000Y-22605000D02*
X3970000Y-22605000D01*
X3570000Y-22605000D02*
X3550000Y-22605000D01*
X3150000Y-22605000D02*
X3130000Y-22605000D01*
X2730000Y-22605000D02*
X2710000Y-22605000D01*
X2310000Y-22605000D02*
X2290000Y-22605000D01*
X1890000Y-22605000D02*
X1870000Y-22605000D01*
X1750000Y-22605000D02*
X1750000Y-22585000D01*
X1750000Y-22185000D02*
X1750000Y-22165000D01*
X1750000Y-21765000D02*
X1750000Y-21745000D01*
X1750000Y-21345000D02*
X1750000Y-21325000D01*
X1750000Y-20925000D02*
X1750000Y-20905000D01*
D11*
X17604761Y-9753409D02*
X17461904Y-9801028D01*
X17461904Y-9801028D02*
X17414285Y-9848647D01*
X17414285Y-9848647D02*
X17366666Y-9943885D01*
X17366666Y-9943885D02*
X17366666Y-10086742D01*
X17366666Y-10086742D02*
X17414285Y-10181980D01*
X17414285Y-10181980D02*
X17461904Y-10229600D01*
X17461904Y-10229600D02*
X17557142Y-10277219D01*
X17557142Y-10277219D02*
X17938094Y-10277219D01*
X17938094Y-10277219D02*
X17938094Y-9277219D01*
X17938094Y-9277219D02*
X17604761Y-9277219D01*
X17604761Y-9277219D02*
X17509523Y-9324838D01*
X17509523Y-9324838D02*
X17461904Y-9372457D01*
X17461904Y-9372457D02*
X17414285Y-9467695D01*
X17414285Y-9467695D02*
X17414285Y-9562933D01*
X17414285Y-9562933D02*
X17461904Y-9658171D01*
X17461904Y-9658171D02*
X17509523Y-9705790D01*
X17509523Y-9705790D02*
X17604761Y-9753409D01*
X17604761Y-9753409D02*
X17938094Y-9753409D01*
X16985713Y-9372457D02*
X16938094Y-9324838D01*
X16938094Y-9324838D02*
X16842856Y-9277219D01*
X16842856Y-9277219D02*
X16604761Y-9277219D01*
X16604761Y-9277219D02*
X16509523Y-9324838D01*
X16509523Y-9324838D02*
X16461904Y-9372457D01*
X16461904Y-9372457D02*
X16414285Y-9467695D01*
X16414285Y-9467695D02*
X16414285Y-9562933D01*
X16414285Y-9562933D02*
X16461904Y-9705790D01*
X16461904Y-9705790D02*
X17033332Y-10277219D01*
X17033332Y-10277219D02*
X16414285Y-10277219D01*
D10*
X16050000Y-8950000D02*
X16070000Y-8950000D01*
X16470000Y-8950000D02*
X16490000Y-8950000D01*
X16890000Y-8950000D02*
X16910000Y-8950000D01*
X17310000Y-8950000D02*
X17330000Y-8950000D01*
X17730000Y-8950000D02*
X17750000Y-8950000D01*
X18150000Y-8950000D02*
X18170000Y-8950000D01*
X18350000Y-8950000D02*
X18350000Y-8970000D01*
X18350000Y-9370000D02*
X18350000Y-9390000D01*
X18350000Y-9790000D02*
X18350000Y-9810000D01*
X18350000Y-10210000D02*
X18350000Y-10230000D01*
X18350000Y-10630000D02*
X18350000Y-10650000D01*
X18350000Y-10700000D02*
X18330000Y-10700000D01*
X17930000Y-10700000D02*
X17910000Y-10700000D01*
X17510000Y-10700000D02*
X17490000Y-10700000D01*
X17090000Y-10700000D02*
X17070000Y-10700000D01*
X16670000Y-10700000D02*
X16650000Y-10700000D01*
X16250000Y-10700000D02*
X16230000Y-10700000D01*
X16050000Y-10700000D02*
X16050000Y-10680000D01*
X16050000Y-10280000D02*
X16050000Y-10260000D01*
X16050000Y-9860000D02*
X16050000Y-9840000D01*
X16050000Y-9440000D02*
X16050000Y-9420000D01*
X16050000Y-9020000D02*
X16050000Y-9000000D01*
D11*
X17604761Y-12253409D02*
X17461904Y-12301028D01*
X17461904Y-12301028D02*
X17414285Y-12348647D01*
X17414285Y-12348647D02*
X17366666Y-12443885D01*
X17366666Y-12443885D02*
X17366666Y-12586742D01*
X17366666Y-12586742D02*
X17414285Y-12681980D01*
X17414285Y-12681980D02*
X17461904Y-12729600D01*
X17461904Y-12729600D02*
X17557142Y-12777219D01*
X17557142Y-12777219D02*
X17938094Y-12777219D01*
X17938094Y-12777219D02*
X17938094Y-11777219D01*
X17938094Y-11777219D02*
X17604761Y-11777219D01*
X17604761Y-11777219D02*
X17509523Y-11824838D01*
X17509523Y-11824838D02*
X17461904Y-11872457D01*
X17461904Y-11872457D02*
X17414285Y-11967695D01*
X17414285Y-11967695D02*
X17414285Y-12062933D01*
X17414285Y-12062933D02*
X17461904Y-12158171D01*
X17461904Y-12158171D02*
X17509523Y-12205790D01*
X17509523Y-12205790D02*
X17604761Y-12253409D01*
X17604761Y-12253409D02*
X17938094Y-12253409D01*
X17033332Y-11777219D02*
X16414285Y-11777219D01*
X16414285Y-11777219D02*
X16747618Y-12158171D01*
X16747618Y-12158171D02*
X16604761Y-12158171D01*
X16604761Y-12158171D02*
X16509523Y-12205790D01*
X16509523Y-12205790D02*
X16461904Y-12253409D01*
X16461904Y-12253409D02*
X16414285Y-12348647D01*
X16414285Y-12348647D02*
X16414285Y-12586742D01*
X16414285Y-12586742D02*
X16461904Y-12681980D01*
X16461904Y-12681980D02*
X16509523Y-12729600D01*
X16509523Y-12729600D02*
X16604761Y-12777219D01*
X16604761Y-12777219D02*
X16890475Y-12777219D01*
X16890475Y-12777219D02*
X16985713Y-12729600D01*
X16985713Y-12729600D02*
X17033332Y-12681980D01*
D10*
X16050000Y-11450000D02*
X16070000Y-11450000D01*
X16470000Y-11450000D02*
X16490000Y-11450000D01*
X16890000Y-11450000D02*
X16910000Y-11450000D01*
X17310000Y-11450000D02*
X17330000Y-11450000D01*
X17730000Y-11450000D02*
X17750000Y-11450000D01*
X18150000Y-11450000D02*
X18170000Y-11450000D01*
X18350000Y-11450000D02*
X18350000Y-11470000D01*
X18350000Y-11870000D02*
X18350000Y-11890000D01*
X18350000Y-12290000D02*
X18350000Y-12310000D01*
X18350000Y-12710000D02*
X18350000Y-12730000D01*
X18350000Y-13130000D02*
X18350000Y-13150000D01*
X18350000Y-13200000D02*
X18330000Y-13200000D01*
X17930000Y-13200000D02*
X17910000Y-13200000D01*
X17510000Y-13200000D02*
X17490000Y-13200000D01*
X17090000Y-13200000D02*
X17070000Y-13200000D01*
X16670000Y-13200000D02*
X16650000Y-13200000D01*
X16250000Y-13200000D02*
X16230000Y-13200000D01*
X16050000Y-13200000D02*
X16050000Y-13180000D01*
X16050000Y-12780000D02*
X16050000Y-12760000D01*
X16050000Y-12360000D02*
X16050000Y-12340000D01*
X16050000Y-11940000D02*
X16050000Y-11920000D01*
X16050000Y-11520000D02*
X16050000Y-11500000D01*
D11*
X4983332Y-8682219D02*
X4649999Y-9682219D01*
X4649999Y-9682219D02*
X4316666Y-8682219D01*
X3411904Y-9586980D02*
X3459523Y-9634600D01*
X3459523Y-9634600D02*
X3602380Y-9682219D01*
X3602380Y-9682219D02*
X3697618Y-9682219D01*
X3697618Y-9682219D02*
X3840475Y-9634600D01*
X3840475Y-9634600D02*
X3935713Y-9539361D01*
X3935713Y-9539361D02*
X3983332Y-9444123D01*
X3983332Y-9444123D02*
X4030951Y-9253647D01*
X4030951Y-9253647D02*
X4030951Y-9110790D01*
X4030951Y-9110790D02*
X3983332Y-8920314D01*
X3983332Y-8920314D02*
X3935713Y-8825076D01*
X3935713Y-8825076D02*
X3840475Y-8729838D01*
X3840475Y-8729838D02*
X3697618Y-8682219D01*
X3697618Y-8682219D02*
X3602380Y-8682219D01*
X3602380Y-8682219D02*
X3459523Y-8729838D01*
X3459523Y-8729838D02*
X3411904Y-8777457D01*
X2411904Y-9586980D02*
X2459523Y-9634600D01*
X2459523Y-9634600D02*
X2602380Y-9682219D01*
X2602380Y-9682219D02*
X2697618Y-9682219D01*
X2697618Y-9682219D02*
X2840475Y-9634600D01*
X2840475Y-9634600D02*
X2935713Y-9539361D01*
X2935713Y-9539361D02*
X2983332Y-9444123D01*
X2983332Y-9444123D02*
X3030951Y-9253647D01*
X3030951Y-9253647D02*
X3030951Y-9110790D01*
X3030951Y-9110790D02*
X2983332Y-8920314D01*
X2983332Y-8920314D02*
X2935713Y-8825076D01*
X2935713Y-8825076D02*
X2840475Y-8729838D01*
X2840475Y-8729838D02*
X2697618Y-8682219D01*
X2697618Y-8682219D02*
X2602380Y-8682219D01*
X2602380Y-8682219D02*
X2459523Y-8729838D01*
X2459523Y-8729838D02*
X2411904Y-8777457D01*
D10*
X1900000Y-8355000D02*
X1920000Y-8355000D01*
X2320000Y-8355000D02*
X2340000Y-8355000D01*
X2740000Y-8355000D02*
X2760000Y-8355000D01*
X3160000Y-8355000D02*
X3180000Y-8355000D01*
X3580000Y-8355000D02*
X3600000Y-8355000D01*
X4000000Y-8355000D02*
X4020000Y-8355000D01*
X4420000Y-8355000D02*
X4440000Y-8355000D01*
X4840000Y-8355000D02*
X4860000Y-8355000D01*
X5260000Y-8355000D02*
X5280000Y-8355000D01*
X5400000Y-8355000D02*
X5400000Y-8375000D01*
X5400000Y-8775000D02*
X5400000Y-8795000D01*
X5400000Y-9195000D02*
X5400000Y-9215000D01*
X5400000Y-9615000D02*
X5400000Y-9635000D01*
X5400000Y-10035000D02*
X5400000Y-10055000D01*
X5400000Y-10105000D02*
X5380000Y-10105000D01*
X4980000Y-10105000D02*
X4960000Y-10105000D01*
X4560000Y-10105000D02*
X4540000Y-10105000D01*
X4140000Y-10105000D02*
X4120000Y-10105000D01*
X3720000Y-10105000D02*
X3700000Y-10105000D01*
X3300000Y-10105000D02*
X3280000Y-10105000D01*
X2880000Y-10105000D02*
X2860000Y-10105000D01*
X2460000Y-10105000D02*
X2440000Y-10105000D01*
X2040000Y-10105000D02*
X2020000Y-10105000D01*
X1900000Y-10105000D02*
X1900000Y-10085000D01*
X1900000Y-9685000D02*
X1900000Y-9665000D01*
X1900000Y-9265000D02*
X1900000Y-9245000D01*
X1900000Y-8845000D02*
X1900000Y-8825000D01*
X1900000Y-8425000D02*
X1900000Y-8405000D01*
D12*
X7132889Y-44537142D02*
X7958389Y-44537142D01*
X7958389Y-44537142D02*
X8123489Y-44482109D01*
X8123489Y-44482109D02*
X8233556Y-44372042D01*
X8233556Y-44372042D02*
X8288589Y-44206942D01*
X8288589Y-44206942D02*
X8288589Y-44096876D01*
X8288589Y-45087475D02*
X7132889Y-45087475D01*
X7132889Y-45087475D02*
X7132889Y-45527742D01*
X7132889Y-45527742D02*
X7187922Y-45637809D01*
X7187922Y-45637809D02*
X7242956Y-45692842D01*
X7242956Y-45692842D02*
X7353022Y-45747875D01*
X7353022Y-45747875D02*
X7518122Y-45747875D01*
X7518122Y-45747875D02*
X7628189Y-45692842D01*
X7628189Y-45692842D02*
X7683222Y-45637809D01*
X7683222Y-45637809D02*
X7738256Y-45527742D01*
X7738256Y-45527742D02*
X7738256Y-45087475D01*
X7242956Y-46188142D02*
X7187922Y-46243175D01*
X7187922Y-46243175D02*
X7132889Y-46353242D01*
X7132889Y-46353242D02*
X7132889Y-46628409D01*
X7132889Y-46628409D02*
X7187922Y-46738475D01*
X7187922Y-46738475D02*
X7242956Y-46793509D01*
X7242956Y-46793509D02*
X7353022Y-46848542D01*
X7353022Y-46848542D02*
X7463089Y-46848542D01*
X7463089Y-46848542D02*
X7628189Y-46793509D01*
X7628189Y-46793509D02*
X8288589Y-46133109D01*
X8288589Y-46133109D02*
X8288589Y-46848542D01*
X7129363Y-51469552D02*
X7129363Y-50644052D01*
X7129363Y-50644052D02*
X7074330Y-50478952D01*
X7074330Y-50478952D02*
X6964263Y-50368886D01*
X6964263Y-50368886D02*
X6799163Y-50313852D01*
X6799163Y-50313852D02*
X6689097Y-50313852D01*
X7679696Y-50313852D02*
X7679696Y-51469552D01*
X7679696Y-51469552D02*
X8119963Y-51469552D01*
X8119963Y-51469552D02*
X8230030Y-51414519D01*
X8230030Y-51414519D02*
X8285063Y-51359486D01*
X8285063Y-51359486D02*
X8340096Y-51249419D01*
X8340096Y-51249419D02*
X8340096Y-51084319D01*
X8340096Y-51084319D02*
X8285063Y-50974252D01*
X8285063Y-50974252D02*
X8230030Y-50919219D01*
X8230030Y-50919219D02*
X8119963Y-50864186D01*
X8119963Y-50864186D02*
X7679696Y-50864186D01*
X9385730Y-51469552D02*
X8835396Y-51469552D01*
X8835396Y-51469552D02*
X8780363Y-50919219D01*
X8780363Y-50919219D02*
X8835396Y-50974252D01*
X8835396Y-50974252D02*
X8945463Y-51029286D01*
X8945463Y-51029286D02*
X9220630Y-51029286D01*
X9220630Y-51029286D02*
X9330696Y-50974252D01*
X9330696Y-50974252D02*
X9385730Y-50919219D01*
X9385730Y-50919219D02*
X9440763Y-50809152D01*
X9440763Y-50809152D02*
X9440763Y-50533986D01*
X9440763Y-50533986D02*
X9385730Y-50423919D01*
X9385730Y-50423919D02*
X9330696Y-50368886D01*
X9330696Y-50368886D02*
X9220630Y-50313852D01*
X9220630Y-50313852D02*
X8945463Y-50313852D01*
X8945463Y-50313852D02*
X8835396Y-50368886D01*
X8835396Y-50368886D02*
X8780363Y-50423919D01*
D13*
%TO.C,JP2*%
X3985000Y-40082673D02*
X3985000Y-41352673D01*
X3985000Y-41352673D02*
X4620000Y-41987673D01*
X3985000Y-42622673D02*
X3985000Y-43892673D01*
X3985000Y-43892673D02*
X4620000Y-44527673D01*
X3985000Y-45162673D02*
X3985000Y-46432673D01*
X4620000Y-39447673D02*
X3985000Y-40082673D01*
X4620000Y-41987673D02*
X3985000Y-42622673D01*
X4620000Y-44527673D02*
X3985000Y-45162673D01*
X4620000Y-47067673D02*
X3985000Y-46432673D01*
X5890000Y-39447673D02*
X4620000Y-39447673D01*
X5890000Y-41987673D02*
X6525000Y-41352673D01*
X5890000Y-44527673D02*
X6525000Y-43892673D01*
X5890000Y-47067673D02*
X4620000Y-47067673D01*
X6525000Y-40082673D02*
X5890000Y-39447673D01*
X6525000Y-41352673D02*
X6525000Y-40082673D01*
X6525000Y-42622673D02*
X5890000Y-41987673D01*
X6525000Y-43892673D02*
X6525000Y-42622673D01*
X6525000Y-45162673D02*
X5890000Y-44527673D01*
X6525000Y-46432673D02*
X5890000Y-47067673D01*
X6525000Y-46432673D02*
X6525000Y-45162673D01*
%TO.C,JP4*%
X11605000Y-40082673D02*
X11605000Y-41352673D01*
X11605000Y-41352673D02*
X12240000Y-41987673D01*
X11605000Y-42622673D02*
X11605000Y-43892673D01*
X11605000Y-43892673D02*
X12240000Y-44527673D01*
X11605000Y-45162673D02*
X11605000Y-46432673D01*
X12240000Y-39447673D02*
X11605000Y-40082673D01*
X12240000Y-41987673D02*
X11605000Y-42622673D01*
X12240000Y-44527673D02*
X11605000Y-45162673D01*
X12240000Y-47067673D02*
X11605000Y-46432673D01*
X13510000Y-39447673D02*
X12240000Y-39447673D01*
X13510000Y-41987673D02*
X14145000Y-41352673D01*
X13510000Y-44527673D02*
X14145000Y-43892673D01*
X13510000Y-47067673D02*
X12240000Y-47067673D01*
X14145000Y-40082673D02*
X13510000Y-39447673D01*
X14145000Y-41352673D02*
X14145000Y-40082673D01*
X14145000Y-42622673D02*
X13510000Y-41987673D01*
X14145000Y-43892673D02*
X14145000Y-42622673D01*
X14145000Y-45162673D02*
X13510000Y-44527673D01*
X14145000Y-46432673D02*
X13510000Y-47067673D01*
X14145000Y-46432673D02*
X14145000Y-45162673D01*
%TO.C,JP5*%
X6525000Y-47702673D02*
X7160000Y-47067673D01*
X6525000Y-48972673D02*
X6525000Y-47702673D01*
X7160000Y-49607673D02*
X6525000Y-48972673D01*
X7160000Y-49607673D02*
X8430000Y-49607673D01*
X8430000Y-47067673D02*
X7160000Y-47067673D01*
X8430000Y-49607673D02*
X9065000Y-48972673D01*
X9065000Y-47702673D02*
X8430000Y-47067673D01*
X9065000Y-48972673D02*
X9700000Y-49607673D01*
X9700000Y-47067673D02*
X9065000Y-47702673D01*
X9700000Y-49607673D02*
X10970000Y-49607673D01*
X10970000Y-47067673D02*
X9700000Y-47067673D01*
X10970000Y-49607673D02*
X11605000Y-48972673D01*
X11605000Y-47702673D02*
X10970000Y-47067673D01*
X11605000Y-48972673D02*
X11605000Y-47702673D01*
%TD*%
M02*
