%TF.GenerationSoftware,KiCad,Pcbnew,9.0.2*%
%TF.CreationDate,2025-06-09T22:50:47+09:00*%
%TF.ProjectId,__,78912e6b-6963-4616-945f-706362585858,3*%
%TF.SameCoordinates,Original*%
%TF.FileFunction,Legend,Top*%
%TF.FilePolarity,Positive*%
%FSLAX46Y46*%
G04 Gerber Fmt 4.6, Leading zero omitted, Abs format (unit mm)*
G04 Created by KiCad (PCBNEW 9.0.2) date 2025-06-09 22:50:47*
%MOMM*%
%LPD*%
G01*
G04 APERTURE LIST*
%ADD10C,0.200000*%
%ADD11C,0.100000*%
%ADD12C,0.000000*%
%ADD13C,0.127000*%
G04 APERTURE END LIST*
D10*
X59525000Y-108475000D02*
X59565000Y-108475000D01*
X60365000Y-108475000D02*
X60405000Y-108475000D01*
X61205000Y-108475000D02*
X61245000Y-108475000D01*
X62045000Y-108475000D02*
X62085000Y-108475000D01*
X62885000Y-108475000D02*
X62925000Y-108475000D01*
X63725000Y-108475000D02*
X63765000Y-108475000D01*
X64565000Y-108475000D02*
X64605000Y-108475000D01*
X65405000Y-108475000D02*
X65445000Y-108475000D01*
X66245000Y-108475000D02*
X66285000Y-108475000D01*
X67085000Y-108475000D02*
X67125000Y-108475000D01*
X67925000Y-108475000D02*
X67965000Y-108475000D01*
X68765000Y-108475000D02*
X68805000Y-108475000D01*
X69605000Y-108475000D02*
X69645000Y-108475000D01*
X70445000Y-108475000D02*
X70485000Y-108475000D01*
X71285000Y-108475000D02*
X71325000Y-108475000D01*
X72125000Y-108475000D02*
X72165000Y-108475000D01*
X72965000Y-108475000D02*
X73005000Y-108475000D01*
X73805000Y-108475000D02*
X73845000Y-108475000D01*
X74645000Y-108475000D02*
X74685000Y-108475000D01*
X75485000Y-108475000D02*
X75525000Y-108475000D01*
X76325000Y-108475000D02*
X76365000Y-108475000D01*
X77165000Y-108475000D02*
X77205000Y-108475000D01*
X78005000Y-108475000D02*
X78045000Y-108475000D01*
X78845000Y-108475000D02*
X78885000Y-108475000D01*
X79685000Y-108475000D02*
X79725000Y-108475000D01*
X80525000Y-108475000D02*
X80565000Y-108475000D01*
X81365000Y-108475000D02*
X81405000Y-108475000D01*
X82205000Y-108475000D02*
X82245000Y-108475000D01*
X83045000Y-108475000D02*
X83085000Y-108475000D01*
X83885000Y-108475000D02*
X83925000Y-108475000D01*
X84725000Y-108475000D02*
X84765000Y-108475000D01*
X85565000Y-108475000D02*
X85605000Y-108475000D01*
X86405000Y-108475000D02*
X86445000Y-108475000D01*
X87245000Y-108475000D02*
X87285000Y-108475000D01*
X88085000Y-108475000D02*
X88125000Y-108475000D01*
X88925000Y-108475000D02*
X88965000Y-108475000D01*
X89765000Y-108475000D02*
X89805000Y-108475000D01*
X90605000Y-108475000D02*
X90645000Y-108475000D01*
X91445000Y-108475000D02*
X91485000Y-108475000D01*
X92285000Y-108475000D02*
X92325000Y-108475000D01*
X93125000Y-108475000D02*
X93165000Y-108475000D01*
X93965000Y-108475000D02*
X94005000Y-108475000D01*
X94025000Y-108475000D02*
X94025000Y-108515000D01*
X94025000Y-109315000D02*
X94025000Y-109355000D01*
X94025000Y-110155000D02*
X94025000Y-110195000D01*
X94025000Y-110995000D02*
X94025000Y-111035000D01*
X94025000Y-111835000D02*
X94025000Y-111875000D01*
X94025000Y-112675000D02*
X94025000Y-112715000D01*
X94025000Y-113515000D02*
X94025000Y-113555000D01*
X94025000Y-114355000D02*
X94025000Y-114395000D01*
X94025000Y-115195000D02*
X94025000Y-115235000D01*
X94025000Y-116035000D02*
X94025000Y-116075000D01*
X94025000Y-116875000D02*
X94025000Y-116915000D01*
X94025000Y-117715000D02*
X94025000Y-117755000D01*
X94025000Y-118555000D02*
X94025000Y-118595000D01*
X94025000Y-119395000D02*
X94025000Y-119435000D01*
X94025000Y-120235000D02*
X94025000Y-120275000D01*
X94025000Y-121075000D02*
X94025000Y-121115000D01*
X94025000Y-121915000D02*
X94025000Y-121955000D01*
X94025000Y-122755000D02*
X94025000Y-122795000D01*
X94025000Y-123595000D02*
X94025000Y-123635000D01*
X94025000Y-123675000D02*
X93985000Y-123675000D01*
X93185000Y-123675000D02*
X93145000Y-123675000D01*
X92345000Y-123675000D02*
X92305000Y-123675000D01*
X91505000Y-123675000D02*
X91465000Y-123675000D01*
X90665000Y-123675000D02*
X90625000Y-123675000D01*
X89825000Y-123675000D02*
X89785000Y-123675000D01*
X88985000Y-123675000D02*
X88945000Y-123675000D01*
X88145000Y-123675000D02*
X88105000Y-123675000D01*
X87305000Y-123675000D02*
X87265000Y-123675000D01*
X86465000Y-123675000D02*
X86425000Y-123675000D01*
X85625000Y-123675000D02*
X85585000Y-123675000D01*
X84785000Y-123675000D02*
X84745000Y-123675000D01*
X83945000Y-123675000D02*
X83905000Y-123675000D01*
X83105000Y-123675000D02*
X83065000Y-123675000D01*
X82265000Y-123675000D02*
X82225000Y-123675000D01*
X81425000Y-123675000D02*
X81385000Y-123675000D01*
X80585000Y-123675000D02*
X80545000Y-123675000D01*
X79745000Y-123675000D02*
X79705000Y-123675000D01*
X78905000Y-123675000D02*
X78865000Y-123675000D01*
X78065000Y-123675000D02*
X78025000Y-123675000D01*
X77225000Y-123675000D02*
X77185000Y-123675000D01*
X76385000Y-123675000D02*
X76345000Y-123675000D01*
X75545000Y-123675000D02*
X75505000Y-123675000D01*
X74705000Y-123675000D02*
X74665000Y-123675000D01*
X73865000Y-123675000D02*
X73825000Y-123675000D01*
X73025000Y-123675000D02*
X72985000Y-123675000D01*
X72185000Y-123675000D02*
X72145000Y-123675000D01*
X71345000Y-123675000D02*
X71305000Y-123675000D01*
X70505000Y-123675000D02*
X70465000Y-123675000D01*
X69665000Y-123675000D02*
X69625000Y-123675000D01*
X68825000Y-123675000D02*
X68785000Y-123675000D01*
X67985000Y-123675000D02*
X67945000Y-123675000D01*
X67145000Y-123675000D02*
X67105000Y-123675000D01*
X66305000Y-123675000D02*
X66265000Y-123675000D01*
X65465000Y-123675000D02*
X65425000Y-123675000D01*
X64625000Y-123675000D02*
X64585000Y-123675000D01*
X63785000Y-123675000D02*
X63745000Y-123675000D01*
X62945000Y-123675000D02*
X62905000Y-123675000D01*
X62105000Y-123675000D02*
X62065000Y-123675000D01*
X61265000Y-123675000D02*
X61225000Y-123675000D01*
X60425000Y-123675000D02*
X60385000Y-123675000D01*
X59585000Y-123675000D02*
X59545000Y-123675000D01*
X59525000Y-123675000D02*
X59525000Y-123635000D01*
X59525000Y-122835000D02*
X59525000Y-122795000D01*
X59525000Y-121995000D02*
X59525000Y-121955000D01*
X59525000Y-121155000D02*
X59525000Y-121115000D01*
X59525000Y-120315000D02*
X59525000Y-120275000D01*
X59525000Y-119475000D02*
X59525000Y-119435000D01*
X59525000Y-118635000D02*
X59525000Y-118595000D01*
X59525000Y-117795000D02*
X59525000Y-117755000D01*
X59525000Y-116955000D02*
X59525000Y-116915000D01*
X59525000Y-116115000D02*
X59525000Y-116075000D01*
X59525000Y-115275000D02*
X59525000Y-115235000D01*
X59525000Y-114435000D02*
X59525000Y-114395000D01*
X59525000Y-113595000D02*
X59525000Y-113555000D01*
X59525000Y-112755000D02*
X59525000Y-112715000D01*
X59525000Y-111915000D02*
X59525000Y-111875000D01*
X59525000Y-111075000D02*
X59525000Y-111035000D01*
X59525000Y-110235000D02*
X59525000Y-110195000D01*
X59525000Y-109395000D02*
X59525000Y-109355000D01*
X59525000Y-108555000D02*
X59525000Y-108515000D01*
D11*
X55890000Y-97885000D02*
X79890000Y-97885000D01*
X79890000Y-107885000D01*
X55890000Y-107885000D01*
X55890000Y-97885000D01*
X72352379Y-111858609D02*
X72495236Y-111906228D01*
X72495236Y-111906228D02*
X72542855Y-111953847D01*
X72542855Y-111953847D02*
X72590474Y-112049085D01*
X72590474Y-112049085D02*
X72590474Y-112191942D01*
X72590474Y-112191942D02*
X72542855Y-112287180D01*
X72542855Y-112287180D02*
X72495236Y-112334800D01*
X72495236Y-112334800D02*
X72399998Y-112382419D01*
X72399998Y-112382419D02*
X72019046Y-112382419D01*
X72019046Y-112382419D02*
X72019046Y-111382419D01*
X72019046Y-111382419D02*
X72352379Y-111382419D01*
X72352379Y-111382419D02*
X72447617Y-111430038D01*
X72447617Y-111430038D02*
X72495236Y-111477657D01*
X72495236Y-111477657D02*
X72542855Y-111572895D01*
X72542855Y-111572895D02*
X72542855Y-111668133D01*
X72542855Y-111668133D02*
X72495236Y-111763371D01*
X72495236Y-111763371D02*
X72447617Y-111810990D01*
X72447617Y-111810990D02*
X72352379Y-111858609D01*
X72352379Y-111858609D02*
X72019046Y-111858609D01*
X73447617Y-112382419D02*
X73447617Y-111858609D01*
X73447617Y-111858609D02*
X73399998Y-111763371D01*
X73399998Y-111763371D02*
X73304760Y-111715752D01*
X73304760Y-111715752D02*
X73114284Y-111715752D01*
X73114284Y-111715752D02*
X73019046Y-111763371D01*
X73447617Y-112334800D02*
X73352379Y-112382419D01*
X73352379Y-112382419D02*
X73114284Y-112382419D01*
X73114284Y-112382419D02*
X73019046Y-112334800D01*
X73019046Y-112334800D02*
X72971427Y-112239561D01*
X72971427Y-112239561D02*
X72971427Y-112144323D01*
X72971427Y-112144323D02*
X73019046Y-112049085D01*
X73019046Y-112049085D02*
X73114284Y-112001466D01*
X73114284Y-112001466D02*
X73352379Y-112001466D01*
X73352379Y-112001466D02*
X73447617Y-111953847D01*
X73780951Y-111715752D02*
X74161903Y-111715752D01*
X73923808Y-111382419D02*
X73923808Y-112239561D01*
X73923808Y-112239561D02*
X73971427Y-112334800D01*
X73971427Y-112334800D02*
X74066665Y-112382419D01*
X74066665Y-112382419D02*
X74161903Y-112382419D01*
X74352380Y-111715752D02*
X74733332Y-111715752D01*
X74495237Y-111382419D02*
X74495237Y-112239561D01*
X74495237Y-112239561D02*
X74542856Y-112334800D01*
X74542856Y-112334800D02*
X74638094Y-112382419D01*
X74638094Y-112382419D02*
X74733332Y-112382419D01*
X75447618Y-112334800D02*
X75352380Y-112382419D01*
X75352380Y-112382419D02*
X75161904Y-112382419D01*
X75161904Y-112382419D02*
X75066666Y-112334800D01*
X75066666Y-112334800D02*
X75019047Y-112239561D01*
X75019047Y-112239561D02*
X75019047Y-111858609D01*
X75019047Y-111858609D02*
X75066666Y-111763371D01*
X75066666Y-111763371D02*
X75161904Y-111715752D01*
X75161904Y-111715752D02*
X75352380Y-111715752D01*
X75352380Y-111715752D02*
X75447618Y-111763371D01*
X75447618Y-111763371D02*
X75495237Y-111858609D01*
X75495237Y-111858609D02*
X75495237Y-111953847D01*
X75495237Y-111953847D02*
X75019047Y-112049085D01*
X75923809Y-112382419D02*
X75923809Y-111715752D01*
X75923809Y-111906228D02*
X75971428Y-111810990D01*
X75971428Y-111810990D02*
X76019047Y-111763371D01*
X76019047Y-111763371D02*
X76114285Y-111715752D01*
X76114285Y-111715752D02*
X76209523Y-111715752D01*
X76447619Y-111715752D02*
X76685714Y-112382419D01*
X76923809Y-111715752D02*
X76685714Y-112382419D01*
X76685714Y-112382419D02*
X76590476Y-112620514D01*
X76590476Y-112620514D02*
X76542857Y-112668133D01*
X76542857Y-112668133D02*
X76447619Y-112715752D01*
X78638095Y-112287180D02*
X78590476Y-112334800D01*
X78590476Y-112334800D02*
X78447619Y-112382419D01*
X78447619Y-112382419D02*
X78352381Y-112382419D01*
X78352381Y-112382419D02*
X78209524Y-112334800D01*
X78209524Y-112334800D02*
X78114286Y-112239561D01*
X78114286Y-112239561D02*
X78066667Y-112144323D01*
X78066667Y-112144323D02*
X78019048Y-111953847D01*
X78019048Y-111953847D02*
X78019048Y-111810990D01*
X78019048Y-111810990D02*
X78066667Y-111620514D01*
X78066667Y-111620514D02*
X78114286Y-111525276D01*
X78114286Y-111525276D02*
X78209524Y-111430038D01*
X78209524Y-111430038D02*
X78352381Y-111382419D01*
X78352381Y-111382419D02*
X78447619Y-111382419D01*
X78447619Y-111382419D02*
X78590476Y-111430038D01*
X78590476Y-111430038D02*
X78638095Y-111477657D01*
X79066667Y-112382419D02*
X79066667Y-111382419D01*
X79495238Y-112382419D02*
X79495238Y-111858609D01*
X79495238Y-111858609D02*
X79447619Y-111763371D01*
X79447619Y-111763371D02*
X79352381Y-111715752D01*
X79352381Y-111715752D02*
X79209524Y-111715752D01*
X79209524Y-111715752D02*
X79114286Y-111763371D01*
X79114286Y-111763371D02*
X79066667Y-111810990D01*
X80400000Y-112382419D02*
X80400000Y-111858609D01*
X80400000Y-111858609D02*
X80352381Y-111763371D01*
X80352381Y-111763371D02*
X80257143Y-111715752D01*
X80257143Y-111715752D02*
X80066667Y-111715752D01*
X80066667Y-111715752D02*
X79971429Y-111763371D01*
X80400000Y-112334800D02*
X80304762Y-112382419D01*
X80304762Y-112382419D02*
X80066667Y-112382419D01*
X80066667Y-112382419D02*
X79971429Y-112334800D01*
X79971429Y-112334800D02*
X79923810Y-112239561D01*
X79923810Y-112239561D02*
X79923810Y-112144323D01*
X79923810Y-112144323D02*
X79971429Y-112049085D01*
X79971429Y-112049085D02*
X80066667Y-112001466D01*
X80066667Y-112001466D02*
X80304762Y-112001466D01*
X80304762Y-112001466D02*
X80400000Y-111953847D01*
X80876191Y-112382419D02*
X80876191Y-111715752D01*
X80876191Y-111906228D02*
X80923810Y-111810990D01*
X80923810Y-111810990D02*
X80971429Y-111763371D01*
X80971429Y-111763371D02*
X81066667Y-111715752D01*
X81066667Y-111715752D02*
X81161905Y-111715752D01*
X81923810Y-111715752D02*
X81923810Y-112525276D01*
X81923810Y-112525276D02*
X81876191Y-112620514D01*
X81876191Y-112620514D02*
X81828572Y-112668133D01*
X81828572Y-112668133D02*
X81733334Y-112715752D01*
X81733334Y-112715752D02*
X81590477Y-112715752D01*
X81590477Y-112715752D02*
X81495239Y-112668133D01*
X81923810Y-112334800D02*
X81828572Y-112382419D01*
X81828572Y-112382419D02*
X81638096Y-112382419D01*
X81638096Y-112382419D02*
X81542858Y-112334800D01*
X81542858Y-112334800D02*
X81495239Y-112287180D01*
X81495239Y-112287180D02*
X81447620Y-112191942D01*
X81447620Y-112191942D02*
X81447620Y-111906228D01*
X81447620Y-111906228D02*
X81495239Y-111810990D01*
X81495239Y-111810990D02*
X81542858Y-111763371D01*
X81542858Y-111763371D02*
X81638096Y-111715752D01*
X81638096Y-111715752D02*
X81828572Y-111715752D01*
X81828572Y-111715752D02*
X81923810Y-111763371D01*
X82780953Y-112334800D02*
X82685715Y-112382419D01*
X82685715Y-112382419D02*
X82495239Y-112382419D01*
X82495239Y-112382419D02*
X82400001Y-112334800D01*
X82400001Y-112334800D02*
X82352382Y-112239561D01*
X82352382Y-112239561D02*
X82352382Y-111858609D01*
X82352382Y-111858609D02*
X82400001Y-111763371D01*
X82400001Y-111763371D02*
X82495239Y-111715752D01*
X82495239Y-111715752D02*
X82685715Y-111715752D01*
X82685715Y-111715752D02*
X82780953Y-111763371D01*
X82780953Y-111763371D02*
X82828572Y-111858609D01*
X82828572Y-111858609D02*
X82828572Y-111953847D01*
X82828572Y-111953847D02*
X82352382Y-112049085D01*
X84019049Y-112382419D02*
X84019049Y-111382419D01*
X84019049Y-111382419D02*
X84352382Y-112096704D01*
X84352382Y-112096704D02*
X84685715Y-111382419D01*
X84685715Y-111382419D02*
X84685715Y-112382419D01*
X85304763Y-112382419D02*
X85209525Y-112334800D01*
X85209525Y-112334800D02*
X85161906Y-112287180D01*
X85161906Y-112287180D02*
X85114287Y-112191942D01*
X85114287Y-112191942D02*
X85114287Y-111906228D01*
X85114287Y-111906228D02*
X85161906Y-111810990D01*
X85161906Y-111810990D02*
X85209525Y-111763371D01*
X85209525Y-111763371D02*
X85304763Y-111715752D01*
X85304763Y-111715752D02*
X85447620Y-111715752D01*
X85447620Y-111715752D02*
X85542858Y-111763371D01*
X85542858Y-111763371D02*
X85590477Y-111810990D01*
X85590477Y-111810990D02*
X85638096Y-111906228D01*
X85638096Y-111906228D02*
X85638096Y-112191942D01*
X85638096Y-112191942D02*
X85590477Y-112287180D01*
X85590477Y-112287180D02*
X85542858Y-112334800D01*
X85542858Y-112334800D02*
X85447620Y-112382419D01*
X85447620Y-112382419D02*
X85304763Y-112382419D01*
X86495239Y-112382419D02*
X86495239Y-111382419D01*
X86495239Y-112334800D02*
X86400001Y-112382419D01*
X86400001Y-112382419D02*
X86209525Y-112382419D01*
X86209525Y-112382419D02*
X86114287Y-112334800D01*
X86114287Y-112334800D02*
X86066668Y-112287180D01*
X86066668Y-112287180D02*
X86019049Y-112191942D01*
X86019049Y-112191942D02*
X86019049Y-111906228D01*
X86019049Y-111906228D02*
X86066668Y-111810990D01*
X86066668Y-111810990D02*
X86114287Y-111763371D01*
X86114287Y-111763371D02*
X86209525Y-111715752D01*
X86209525Y-111715752D02*
X86400001Y-111715752D01*
X86400001Y-111715752D02*
X86495239Y-111763371D01*
X87400001Y-111715752D02*
X87400001Y-112382419D01*
X86971430Y-111715752D02*
X86971430Y-112239561D01*
X86971430Y-112239561D02*
X87019049Y-112334800D01*
X87019049Y-112334800D02*
X87114287Y-112382419D01*
X87114287Y-112382419D02*
X87257144Y-112382419D01*
X87257144Y-112382419D02*
X87352382Y-112334800D01*
X87352382Y-112334800D02*
X87400001Y-112287180D01*
X88019049Y-112382419D02*
X87923811Y-112334800D01*
X87923811Y-112334800D02*
X87876192Y-112239561D01*
X87876192Y-112239561D02*
X87876192Y-111382419D01*
X88780954Y-112334800D02*
X88685716Y-112382419D01*
X88685716Y-112382419D02*
X88495240Y-112382419D01*
X88495240Y-112382419D02*
X88400002Y-112334800D01*
X88400002Y-112334800D02*
X88352383Y-112239561D01*
X88352383Y-112239561D02*
X88352383Y-111858609D01*
X88352383Y-111858609D02*
X88400002Y-111763371D01*
X88400002Y-111763371D02*
X88495240Y-111715752D01*
X88495240Y-111715752D02*
X88685716Y-111715752D01*
X88685716Y-111715752D02*
X88780954Y-111763371D01*
X88780954Y-111763371D02*
X88828573Y-111858609D01*
X88828573Y-111858609D02*
X88828573Y-111953847D01*
X88828573Y-111953847D02*
X88352383Y-112049085D01*
X92076190Y-120258609D02*
X92147618Y-120306228D01*
X92147618Y-120306228D02*
X92171428Y-120353847D01*
X92171428Y-120353847D02*
X92195237Y-120449085D01*
X92195237Y-120449085D02*
X92195237Y-120591942D01*
X92195237Y-120591942D02*
X92171428Y-120687180D01*
X92171428Y-120687180D02*
X92147618Y-120734800D01*
X92147618Y-120734800D02*
X92099999Y-120782419D01*
X92099999Y-120782419D02*
X91909523Y-120782419D01*
X91909523Y-120782419D02*
X91909523Y-119782419D01*
X91909523Y-119782419D02*
X92076190Y-119782419D01*
X92076190Y-119782419D02*
X92123809Y-119830038D01*
X92123809Y-119830038D02*
X92147618Y-119877657D01*
X92147618Y-119877657D02*
X92171428Y-119972895D01*
X92171428Y-119972895D02*
X92171428Y-120068133D01*
X92171428Y-120068133D02*
X92147618Y-120163371D01*
X92147618Y-120163371D02*
X92123809Y-120210990D01*
X92123809Y-120210990D02*
X92076190Y-120258609D01*
X92076190Y-120258609D02*
X91909523Y-120258609D01*
X92409523Y-120401466D02*
X92790476Y-120401466D01*
D12*
X91525000Y-120775000D02*
X93175000Y-120775000D01*
X93175000Y-119875000D01*
X91525000Y-119875000D01*
X91525000Y-120775000D01*
D11*
X60789285Y-112132419D02*
X60789285Y-111132419D01*
X61027380Y-111465752D02*
X61027380Y-112132419D01*
X61027380Y-111560990D02*
X61051190Y-111513371D01*
X61051190Y-111513371D02*
X61098809Y-111465752D01*
X61098809Y-111465752D02*
X61170237Y-111465752D01*
X61170237Y-111465752D02*
X61217856Y-111513371D01*
X61217856Y-111513371D02*
X61241666Y-111608609D01*
X61241666Y-111608609D02*
X61241666Y-112132419D01*
X61479761Y-111751466D02*
X61860714Y-111751466D01*
X61670237Y-112132419D02*
X61670237Y-111370514D01*
D12*
X60500000Y-111225000D02*
X62150000Y-111225000D01*
X62150000Y-112125000D01*
X60500000Y-112125000D01*
X60500000Y-111225000D01*
D11*
X90697619Y-115115752D02*
X90697619Y-115782419D01*
X90459524Y-114734800D02*
X90221429Y-115449085D01*
X90221429Y-115449085D02*
X90840476Y-115449085D01*
X91221429Y-115687180D02*
X91269048Y-115734800D01*
X91269048Y-115734800D02*
X91221429Y-115782419D01*
X91221429Y-115782419D02*
X91173810Y-115734800D01*
X91173810Y-115734800D02*
X91221429Y-115687180D01*
X91221429Y-115687180D02*
X91221429Y-115782419D01*
X91650000Y-114877657D02*
X91697619Y-114830038D01*
X91697619Y-114830038D02*
X91792857Y-114782419D01*
X91792857Y-114782419D02*
X92030952Y-114782419D01*
X92030952Y-114782419D02*
X92126190Y-114830038D01*
X92126190Y-114830038D02*
X92173809Y-114877657D01*
X92173809Y-114877657D02*
X92221428Y-114972895D01*
X92221428Y-114972895D02*
X92221428Y-115068133D01*
X92221428Y-115068133D02*
X92173809Y-115210990D01*
X92173809Y-115210990D02*
X91602381Y-115782419D01*
X91602381Y-115782419D02*
X92221428Y-115782419D01*
X92507143Y-114782419D02*
X92840476Y-115782419D01*
X92840476Y-115782419D02*
X93173809Y-114782419D01*
D12*
X89837500Y-116800000D02*
X93462500Y-116800000D01*
X93462500Y-113850000D01*
X89837500Y-113850000D01*
X89837500Y-116800000D01*
D11*
X60970238Y-115632419D02*
X60494048Y-115632419D01*
X60494048Y-115632419D02*
X60446429Y-116108609D01*
X60446429Y-116108609D02*
X60494048Y-116060990D01*
X60494048Y-116060990D02*
X60589286Y-116013371D01*
X60589286Y-116013371D02*
X60827381Y-116013371D01*
X60827381Y-116013371D02*
X60922619Y-116060990D01*
X60922619Y-116060990D02*
X60970238Y-116108609D01*
X60970238Y-116108609D02*
X61017857Y-116203847D01*
X61017857Y-116203847D02*
X61017857Y-116441942D01*
X61017857Y-116441942D02*
X60970238Y-116537180D01*
X60970238Y-116537180D02*
X60922619Y-116584800D01*
X60922619Y-116584800D02*
X60827381Y-116632419D01*
X60827381Y-116632419D02*
X60589286Y-116632419D01*
X60589286Y-116632419D02*
X60494048Y-116584800D01*
X60494048Y-116584800D02*
X60446429Y-116537180D01*
X61446429Y-116537180D02*
X61494048Y-116584800D01*
X61494048Y-116584800D02*
X61446429Y-116632419D01*
X61446429Y-116632419D02*
X61398810Y-116584800D01*
X61398810Y-116584800D02*
X61446429Y-116537180D01*
X61446429Y-116537180D02*
X61446429Y-116632419D01*
X62398809Y-115632419D02*
X61922619Y-115632419D01*
X61922619Y-115632419D02*
X61875000Y-116108609D01*
X61875000Y-116108609D02*
X61922619Y-116060990D01*
X61922619Y-116060990D02*
X62017857Y-116013371D01*
X62017857Y-116013371D02*
X62255952Y-116013371D01*
X62255952Y-116013371D02*
X62351190Y-116060990D01*
X62351190Y-116060990D02*
X62398809Y-116108609D01*
X62398809Y-116108609D02*
X62446428Y-116203847D01*
X62446428Y-116203847D02*
X62446428Y-116441942D01*
X62446428Y-116441942D02*
X62398809Y-116537180D01*
X62398809Y-116537180D02*
X62351190Y-116584800D01*
X62351190Y-116584800D02*
X62255952Y-116632419D01*
X62255952Y-116632419D02*
X62017857Y-116632419D01*
X62017857Y-116632419D02*
X61922619Y-116584800D01*
X61922619Y-116584800D02*
X61875000Y-116537180D01*
X62732143Y-115632419D02*
X63065476Y-116632419D01*
X63065476Y-116632419D02*
X63398809Y-115632419D01*
D12*
X60062500Y-114700000D02*
X63687500Y-114700000D01*
X63687500Y-117650000D01*
X60062500Y-117650000D01*
X60062500Y-114700000D01*
D11*
X91801190Y-111608609D02*
X91872618Y-111656228D01*
X91872618Y-111656228D02*
X91896428Y-111703847D01*
X91896428Y-111703847D02*
X91920237Y-111799085D01*
X91920237Y-111799085D02*
X91920237Y-111941942D01*
X91920237Y-111941942D02*
X91896428Y-112037180D01*
X91896428Y-112037180D02*
X91872618Y-112084800D01*
X91872618Y-112084800D02*
X91824999Y-112132419D01*
X91824999Y-112132419D02*
X91634523Y-112132419D01*
X91634523Y-112132419D02*
X91634523Y-111132419D01*
X91634523Y-111132419D02*
X91801190Y-111132419D01*
X91801190Y-111132419D02*
X91848809Y-111180038D01*
X91848809Y-111180038D02*
X91872618Y-111227657D01*
X91872618Y-111227657D02*
X91896428Y-111322895D01*
X91896428Y-111322895D02*
X91896428Y-111418133D01*
X91896428Y-111418133D02*
X91872618Y-111513371D01*
X91872618Y-111513371D02*
X91848809Y-111560990D01*
X91848809Y-111560990D02*
X91801190Y-111608609D01*
X91801190Y-111608609D02*
X91634523Y-111608609D01*
X92134523Y-111751466D02*
X92515476Y-111751466D01*
X92324999Y-112132419D02*
X92324999Y-111370514D01*
D12*
X91250000Y-112125000D02*
X92900000Y-112125000D01*
X92900000Y-111225000D01*
X91250000Y-111225000D01*
X91250000Y-112125000D01*
D11*
X60864285Y-120932419D02*
X60864285Y-119932419D01*
X61102380Y-120265752D02*
X61102380Y-120932419D01*
X61102380Y-120360990D02*
X61126190Y-120313371D01*
X61126190Y-120313371D02*
X61173809Y-120265752D01*
X61173809Y-120265752D02*
X61245237Y-120265752D01*
X61245237Y-120265752D02*
X61292856Y-120313371D01*
X61292856Y-120313371D02*
X61316666Y-120408609D01*
X61316666Y-120408609D02*
X61316666Y-120932419D01*
X61554761Y-120551466D02*
X61935714Y-120551466D01*
D12*
X60575000Y-120025000D02*
X62225000Y-120025000D01*
X62225000Y-120925000D01*
X60575000Y-120925000D01*
X60575000Y-120025000D01*
D10*
X65568019Y-77204761D02*
X65520400Y-77157142D01*
X65520400Y-77157142D02*
X65472780Y-77014285D01*
X65472780Y-77014285D02*
X65472780Y-76919047D01*
X65472780Y-76919047D02*
X65520400Y-76776190D01*
X65520400Y-76776190D02*
X65615638Y-76680952D01*
X65615638Y-76680952D02*
X65710876Y-76633333D01*
X65710876Y-76633333D02*
X65901352Y-76585714D01*
X65901352Y-76585714D02*
X66044209Y-76585714D01*
X66044209Y-76585714D02*
X66234685Y-76633333D01*
X66234685Y-76633333D02*
X66329923Y-76680952D01*
X66329923Y-76680952D02*
X66425161Y-76776190D01*
X66425161Y-76776190D02*
X66472780Y-76919047D01*
X66472780Y-76919047D02*
X66472780Y-77014285D01*
X66472780Y-77014285D02*
X66425161Y-77157142D01*
X66425161Y-77157142D02*
X66377542Y-77204761D01*
X66472780Y-77823809D02*
X66472780Y-78014285D01*
X66472780Y-78014285D02*
X66425161Y-78109523D01*
X66425161Y-78109523D02*
X66329923Y-78204761D01*
X66329923Y-78204761D02*
X66139447Y-78252380D01*
X66139447Y-78252380D02*
X65806114Y-78252380D01*
X65806114Y-78252380D02*
X65615638Y-78204761D01*
X65615638Y-78204761D02*
X65520400Y-78109523D01*
X65520400Y-78109523D02*
X65472780Y-78014285D01*
X65472780Y-78014285D02*
X65472780Y-77823809D01*
X65472780Y-77823809D02*
X65520400Y-77728571D01*
X65520400Y-77728571D02*
X65615638Y-77633333D01*
X65615638Y-77633333D02*
X65806114Y-77585714D01*
X65806114Y-77585714D02*
X66139447Y-77585714D01*
X66139447Y-77585714D02*
X66329923Y-77633333D01*
X66329923Y-77633333D02*
X66425161Y-77728571D01*
X66425161Y-77728571D02*
X66472780Y-77823809D01*
X66472780Y-78871428D02*
X66472780Y-79061904D01*
X66472780Y-79061904D02*
X66425161Y-79157142D01*
X66425161Y-79157142D02*
X66329923Y-79252380D01*
X66329923Y-79252380D02*
X66139447Y-79299999D01*
X66139447Y-79299999D02*
X65806114Y-79299999D01*
X65806114Y-79299999D02*
X65615638Y-79252380D01*
X65615638Y-79252380D02*
X65520400Y-79157142D01*
X65520400Y-79157142D02*
X65472780Y-79061904D01*
X65472780Y-79061904D02*
X65472780Y-78871428D01*
X65472780Y-78871428D02*
X65520400Y-78776190D01*
X65520400Y-78776190D02*
X65615638Y-78680952D01*
X65615638Y-78680952D02*
X65806114Y-78633333D01*
X65806114Y-78633333D02*
X66139447Y-78633333D01*
X66139447Y-78633333D02*
X66329923Y-78680952D01*
X66329923Y-78680952D02*
X66425161Y-78776190D01*
X66425161Y-78776190D02*
X66472780Y-78871428D01*
X65472780Y-80204761D02*
X65472780Y-79728571D01*
X65472780Y-79728571D02*
X66472780Y-79728571D01*
X65996590Y-80538095D02*
X65996590Y-80871428D01*
X65472780Y-81014285D02*
X65472780Y-80538095D01*
X65472780Y-80538095D02*
X66472780Y-80538095D01*
X66472780Y-80538095D02*
X66472780Y-81014285D01*
X65472780Y-82014285D02*
X65948971Y-81680952D01*
X65472780Y-81442857D02*
X66472780Y-81442857D01*
X66472780Y-81442857D02*
X66472780Y-81823809D01*
X66472780Y-81823809D02*
X66425161Y-81919047D01*
X66425161Y-81919047D02*
X66377542Y-81966666D01*
X66377542Y-81966666D02*
X66282304Y-82014285D01*
X66282304Y-82014285D02*
X66139447Y-82014285D01*
X66139447Y-82014285D02*
X66044209Y-81966666D01*
X66044209Y-81966666D02*
X65996590Y-81919047D01*
X65996590Y-81919047D02*
X65948971Y-81823809D01*
X65948971Y-81823809D02*
X65948971Y-81442857D01*
%TO.C,REF\u002A\u002A*%
D11*
X64775000Y-80400000D02*
X55775000Y-80400000D01*
X55775000Y-76400000D01*
X64775000Y-76400000D01*
X64775000Y-80400000D01*
X64725000Y-94725000D02*
X55725000Y-94725000D01*
X55725000Y-90725000D01*
X64725000Y-90725000D01*
X64725000Y-94725000D01*
X64750000Y-90125000D02*
X55750000Y-90125000D01*
X55750000Y-86125000D01*
X64750000Y-86125000D01*
X64750000Y-90125000D01*
X64750000Y-85725000D02*
X55750000Y-85725000D01*
X55750000Y-81725000D01*
X64750000Y-81725000D01*
X64750000Y-85725000D01*
D13*
%TO.C,ESP32-C3
SuperMini*%
X71090000Y-77905000D02*
X93790000Y-77905000D01*
X71090000Y-95905000D02*
X71090000Y-77905000D01*
X71090000Y-95905000D02*
X93790000Y-95905000D01*
X93790000Y-82405000D02*
X93790000Y-77905000D01*
X93790000Y-95905000D02*
X93790000Y-91405000D01*
X95090000Y-82405000D02*
X93790000Y-82405000D01*
X95090000Y-91405000D02*
X93790000Y-91405000D01*
X95090000Y-91405000D02*
X95090000Y-82405000D01*
%TD*%
M02*
