%TF.GenerationSoftware,KiCad,Pcbnew,9.0.2*%
%TF.CreationDate,2025-06-09T22:50:48+09:00*%
%TF.ProjectId,__,78912e6b-6963-4616-945f-706362585858,3*%
%TF.SameCoordinates,Original*%
%TF.FileFunction,Soldermask,Bot*%
%TF.FilePolarity,Negative*%
%FSLAX46Y46*%
G04 Gerber Fmt 4.6, Leading zero omitted, Abs format (unit mm)*
G04 Created by KiCad (PCBNEW 9.0.2) date 2025-06-09 22:50:48*
%MOMM*%
%LPD*%
G01*
G04 APERTURE LIST*
%ADD10C,2.000000*%
%ADD11C,2.204000*%
%ADD12C,2.203200*%
%ADD13C,0.200000*%
G04 APERTURE END LIST*
D10*
%TO.C,REF\u002A\u002A*%
X60275000Y-78400000D03*
X62775000Y-78400000D03*
X57775000Y-78400000D03*
%TD*%
%TO.C,REF\u002A\u002A*%
X60225000Y-92725000D03*
X62725000Y-92725000D03*
X57725000Y-92725000D03*
%TD*%
%TO.C,REF\u002A\u002A*%
X60250000Y-88125000D03*
X62750000Y-88125000D03*
X57750000Y-88125000D03*
%TD*%
%TO.C,REF\u002A\u002A*%
X60250000Y-83725000D03*
X62750000Y-83725000D03*
X57750000Y-83725000D03*
%TD*%
D11*
%TO.C,ESP32-C3
SuperMini*%
X74560000Y-94525000D03*
X77100000Y-94525000D03*
X79640000Y-94525000D03*
X82180000Y-94525000D03*
X87260000Y-94525000D03*
X84720000Y-94525000D03*
X92340000Y-79285000D03*
X92340000Y-94525000D03*
X89800000Y-79285000D03*
X87260000Y-79285000D03*
X84720000Y-79285000D03*
X82180000Y-79285000D03*
X79640000Y-79285000D03*
X77100000Y-79285000D03*
X74560000Y-79285000D03*
X89800000Y-94525000D03*
%TD*%
D12*
%TO.C,JP2*%
X69430000Y-99075000D03*
X71970000Y-99075000D03*
X74510000Y-99075000D03*
%TD*%
%TO.C,JP4*%
X69430000Y-106695000D03*
X71970000Y-106695000D03*
X74510000Y-106695000D03*
%TD*%
%TO.C,JP5*%
X66890000Y-101615000D03*
X66890000Y-104155000D03*
%TD*%
D10*
X90500000Y-106000000D03*
X90500000Y-98750000D03*
X90500000Y-101975000D03*
X88000000Y-106000000D03*
X93000000Y-106000000D03*
X93000000Y-102000000D03*
X93000000Y-98750000D03*
X85500000Y-106000000D03*
X88150000Y-76300000D03*
X90850000Y-76325000D03*
X93600000Y-76350000D03*
X88000000Y-98750000D03*
X83000000Y-102000000D03*
X85500000Y-102000000D03*
X88000000Y-102000000D03*
D13*
X69427673Y-106697327D02*
X69430000Y-106695000D01*
X77105000Y-79295000D02*
X77030000Y-79295000D01*
X76800000Y-79525000D02*
X76800000Y-79585000D01*
X77030000Y-79295000D02*
X76800000Y-79525000D01*
M02*
