%TF.GenerationSoftware,KiCad,Pcbnew,9.0.2*%
%TF.CreationDate,2025-05-23T14:51:07+09:00*%
%TF.ProjectId,__,78912e6b-6963-4616-945f-706362585858,rev?*%
%TF.SameCoordinates,Original*%
%TF.FileFunction,Legend,Top*%
%TF.FilePolarity,Positive*%
%FSLAX46Y46*%
G04 Gerber Fmt 4.6, Leading zero omitted, Abs format (unit mm)*
G04 Created by KiCad (PCBNEW 9.0.2) date 2025-05-23 14:51:07*
%MOMM*%
%LPD*%
G01*
G04 APERTURE LIST*
%ADD10C,0.150000*%
%ADD11C,0.100000*%
%ADD12C,0.120000*%
%ADD13C,0.127000*%
%ADD14R,2.000000X2.000000*%
G04 APERTURE END LIST*
D10*
X48161904Y-24187200D02*
X48304761Y-24234819D01*
X48304761Y-24234819D02*
X48542856Y-24234819D01*
X48542856Y-24234819D02*
X48638094Y-24187200D01*
X48638094Y-24187200D02*
X48685713Y-24139580D01*
X48685713Y-24139580D02*
X48733332Y-24044342D01*
X48733332Y-24044342D02*
X48733332Y-23949104D01*
X48733332Y-23949104D02*
X48685713Y-23853866D01*
X48685713Y-23853866D02*
X48638094Y-23806247D01*
X48638094Y-23806247D02*
X48542856Y-23758628D01*
X48542856Y-23758628D02*
X48352380Y-23711009D01*
X48352380Y-23711009D02*
X48257142Y-23663390D01*
X48257142Y-23663390D02*
X48209523Y-23615771D01*
X48209523Y-23615771D02*
X48161904Y-23520533D01*
X48161904Y-23520533D02*
X48161904Y-23425295D01*
X48161904Y-23425295D02*
X48209523Y-23330057D01*
X48209523Y-23330057D02*
X48257142Y-23282438D01*
X48257142Y-23282438D02*
X48352380Y-23234819D01*
X48352380Y-23234819D02*
X48590475Y-23234819D01*
X48590475Y-23234819D02*
X48733332Y-23282438D01*
X49542856Y-24187200D02*
X49447618Y-24234819D01*
X49447618Y-24234819D02*
X49257142Y-24234819D01*
X49257142Y-24234819D02*
X49161904Y-24187200D01*
X49161904Y-24187200D02*
X49114285Y-24091961D01*
X49114285Y-24091961D02*
X49114285Y-23711009D01*
X49114285Y-23711009D02*
X49161904Y-23615771D01*
X49161904Y-23615771D02*
X49257142Y-23568152D01*
X49257142Y-23568152D02*
X49447618Y-23568152D01*
X49447618Y-23568152D02*
X49542856Y-23615771D01*
X49542856Y-23615771D02*
X49590475Y-23711009D01*
X49590475Y-23711009D02*
X49590475Y-23806247D01*
X49590475Y-23806247D02*
X49114285Y-23901485D01*
X50019047Y-23568152D02*
X50019047Y-24234819D01*
X50019047Y-23663390D02*
X50066666Y-23615771D01*
X50066666Y-23615771D02*
X50161904Y-23568152D01*
X50161904Y-23568152D02*
X50304761Y-23568152D01*
X50304761Y-23568152D02*
X50399999Y-23615771D01*
X50399999Y-23615771D02*
X50447618Y-23711009D01*
X50447618Y-23711009D02*
X50447618Y-24234819D01*
X50876190Y-24187200D02*
X50971428Y-24234819D01*
X50971428Y-24234819D02*
X51161904Y-24234819D01*
X51161904Y-24234819D02*
X51257142Y-24187200D01*
X51257142Y-24187200D02*
X51304761Y-24091961D01*
X51304761Y-24091961D02*
X51304761Y-24044342D01*
X51304761Y-24044342D02*
X51257142Y-23949104D01*
X51257142Y-23949104D02*
X51161904Y-23901485D01*
X51161904Y-23901485D02*
X51019047Y-23901485D01*
X51019047Y-23901485D02*
X50923809Y-23853866D01*
X50923809Y-23853866D02*
X50876190Y-23758628D01*
X50876190Y-23758628D02*
X50876190Y-23711009D01*
X50876190Y-23711009D02*
X50923809Y-23615771D01*
X50923809Y-23615771D02*
X51019047Y-23568152D01*
X51019047Y-23568152D02*
X51161904Y-23568152D01*
X51161904Y-23568152D02*
X51257142Y-23615771D01*
X51876190Y-24234819D02*
X51780952Y-24187200D01*
X51780952Y-24187200D02*
X51733333Y-24139580D01*
X51733333Y-24139580D02*
X51685714Y-24044342D01*
X51685714Y-24044342D02*
X51685714Y-23758628D01*
X51685714Y-23758628D02*
X51733333Y-23663390D01*
X51733333Y-23663390D02*
X51780952Y-23615771D01*
X51780952Y-23615771D02*
X51876190Y-23568152D01*
X51876190Y-23568152D02*
X52019047Y-23568152D01*
X52019047Y-23568152D02*
X52114285Y-23615771D01*
X52114285Y-23615771D02*
X52161904Y-23663390D01*
X52161904Y-23663390D02*
X52209523Y-23758628D01*
X52209523Y-23758628D02*
X52209523Y-24044342D01*
X52209523Y-24044342D02*
X52161904Y-24139580D01*
X52161904Y-24139580D02*
X52114285Y-24187200D01*
X52114285Y-24187200D02*
X52019047Y-24234819D01*
X52019047Y-24234819D02*
X51876190Y-24234819D01*
X52638095Y-24234819D02*
X52638095Y-23568152D01*
X52638095Y-23758628D02*
X52685714Y-23663390D01*
X52685714Y-23663390D02*
X52733333Y-23615771D01*
X52733333Y-23615771D02*
X52828571Y-23568152D01*
X52828571Y-23568152D02*
X52923809Y-23568152D01*
X53209524Y-24187200D02*
X53304762Y-24234819D01*
X53304762Y-24234819D02*
X53495238Y-24234819D01*
X53495238Y-24234819D02*
X53590476Y-24187200D01*
X53590476Y-24187200D02*
X53638095Y-24091961D01*
X53638095Y-24091961D02*
X53638095Y-24044342D01*
X53638095Y-24044342D02*
X53590476Y-23949104D01*
X53590476Y-23949104D02*
X53495238Y-23901485D01*
X53495238Y-23901485D02*
X53352381Y-23901485D01*
X53352381Y-23901485D02*
X53257143Y-23853866D01*
X53257143Y-23853866D02*
X53209524Y-23758628D01*
X53209524Y-23758628D02*
X53209524Y-23711009D01*
X53209524Y-23711009D02*
X53257143Y-23615771D01*
X53257143Y-23615771D02*
X53352381Y-23568152D01*
X53352381Y-23568152D02*
X53495238Y-23568152D01*
X53495238Y-23568152D02*
X53590476Y-23615771D01*
D11*
X17357142Y-47757419D02*
X17357142Y-46757419D01*
X17357142Y-46757419D02*
X17595237Y-46757419D01*
X17595237Y-46757419D02*
X17738094Y-46805038D01*
X17738094Y-46805038D02*
X17833332Y-46900276D01*
X17833332Y-46900276D02*
X17880951Y-46995514D01*
X17880951Y-46995514D02*
X17928570Y-47185990D01*
X17928570Y-47185990D02*
X17928570Y-47328847D01*
X17928570Y-47328847D02*
X17880951Y-47519323D01*
X17880951Y-47519323D02*
X17833332Y-47614561D01*
X17833332Y-47614561D02*
X17738094Y-47709800D01*
X17738094Y-47709800D02*
X17595237Y-47757419D01*
X17595237Y-47757419D02*
X17357142Y-47757419D01*
X18928570Y-47757419D02*
X18595237Y-47281228D01*
X18357142Y-47757419D02*
X18357142Y-46757419D01*
X18357142Y-46757419D02*
X18738094Y-46757419D01*
X18738094Y-46757419D02*
X18833332Y-46805038D01*
X18833332Y-46805038D02*
X18880951Y-46852657D01*
X18880951Y-46852657D02*
X18928570Y-46947895D01*
X18928570Y-46947895D02*
X18928570Y-47090752D01*
X18928570Y-47090752D02*
X18880951Y-47185990D01*
X18880951Y-47185990D02*
X18833332Y-47233609D01*
X18833332Y-47233609D02*
X18738094Y-47281228D01*
X18738094Y-47281228D02*
X18357142Y-47281228D01*
X19214285Y-46757419D02*
X19547618Y-47757419D01*
X19547618Y-47757419D02*
X19880951Y-46757419D01*
X20357142Y-47185990D02*
X20261904Y-47138371D01*
X20261904Y-47138371D02*
X20214285Y-47090752D01*
X20214285Y-47090752D02*
X20166666Y-46995514D01*
X20166666Y-46995514D02*
X20166666Y-46947895D01*
X20166666Y-46947895D02*
X20214285Y-46852657D01*
X20214285Y-46852657D02*
X20261904Y-46805038D01*
X20261904Y-46805038D02*
X20357142Y-46757419D01*
X20357142Y-46757419D02*
X20547618Y-46757419D01*
X20547618Y-46757419D02*
X20642856Y-46805038D01*
X20642856Y-46805038D02*
X20690475Y-46852657D01*
X20690475Y-46852657D02*
X20738094Y-46947895D01*
X20738094Y-46947895D02*
X20738094Y-46995514D01*
X20738094Y-46995514D02*
X20690475Y-47090752D01*
X20690475Y-47090752D02*
X20642856Y-47138371D01*
X20642856Y-47138371D02*
X20547618Y-47185990D01*
X20547618Y-47185990D02*
X20357142Y-47185990D01*
X20357142Y-47185990D02*
X20261904Y-47233609D01*
X20261904Y-47233609D02*
X20214285Y-47281228D01*
X20214285Y-47281228D02*
X20166666Y-47376466D01*
X20166666Y-47376466D02*
X20166666Y-47566942D01*
X20166666Y-47566942D02*
X20214285Y-47662180D01*
X20214285Y-47662180D02*
X20261904Y-47709800D01*
X20261904Y-47709800D02*
X20357142Y-47757419D01*
X20357142Y-47757419D02*
X20547618Y-47757419D01*
X20547618Y-47757419D02*
X20642856Y-47709800D01*
X20642856Y-47709800D02*
X20690475Y-47662180D01*
X20690475Y-47662180D02*
X20738094Y-47566942D01*
X20738094Y-47566942D02*
X20738094Y-47376466D01*
X20738094Y-47376466D02*
X20690475Y-47281228D01*
X20690475Y-47281228D02*
X20642856Y-47233609D01*
X20642856Y-47233609D02*
X20547618Y-47185990D01*
X21309523Y-47185990D02*
X21214285Y-47138371D01*
X21214285Y-47138371D02*
X21166666Y-47090752D01*
X21166666Y-47090752D02*
X21119047Y-46995514D01*
X21119047Y-46995514D02*
X21119047Y-46947895D01*
X21119047Y-46947895D02*
X21166666Y-46852657D01*
X21166666Y-46852657D02*
X21214285Y-46805038D01*
X21214285Y-46805038D02*
X21309523Y-46757419D01*
X21309523Y-46757419D02*
X21499999Y-46757419D01*
X21499999Y-46757419D02*
X21595237Y-46805038D01*
X21595237Y-46805038D02*
X21642856Y-46852657D01*
X21642856Y-46852657D02*
X21690475Y-46947895D01*
X21690475Y-46947895D02*
X21690475Y-46995514D01*
X21690475Y-46995514D02*
X21642856Y-47090752D01*
X21642856Y-47090752D02*
X21595237Y-47138371D01*
X21595237Y-47138371D02*
X21499999Y-47185990D01*
X21499999Y-47185990D02*
X21309523Y-47185990D01*
X21309523Y-47185990D02*
X21214285Y-47233609D01*
X21214285Y-47233609D02*
X21166666Y-47281228D01*
X21166666Y-47281228D02*
X21119047Y-47376466D01*
X21119047Y-47376466D02*
X21119047Y-47566942D01*
X21119047Y-47566942D02*
X21166666Y-47662180D01*
X21166666Y-47662180D02*
X21214285Y-47709800D01*
X21214285Y-47709800D02*
X21309523Y-47757419D01*
X21309523Y-47757419D02*
X21499999Y-47757419D01*
X21499999Y-47757419D02*
X21595237Y-47709800D01*
X21595237Y-47709800D02*
X21642856Y-47662180D01*
X21642856Y-47662180D02*
X21690475Y-47566942D01*
X21690475Y-47566942D02*
X21690475Y-47376466D01*
X21690475Y-47376466D02*
X21642856Y-47281228D01*
X21642856Y-47281228D02*
X21595237Y-47233609D01*
X21595237Y-47233609D02*
X21499999Y-47185990D01*
X22023809Y-46757419D02*
X22642856Y-46757419D01*
X22642856Y-46757419D02*
X22309523Y-47138371D01*
X22309523Y-47138371D02*
X22452380Y-47138371D01*
X22452380Y-47138371D02*
X22547618Y-47185990D01*
X22547618Y-47185990D02*
X22595237Y-47233609D01*
X22595237Y-47233609D02*
X22642856Y-47328847D01*
X22642856Y-47328847D02*
X22642856Y-47566942D01*
X22642856Y-47566942D02*
X22595237Y-47662180D01*
X22595237Y-47662180D02*
X22547618Y-47709800D01*
X22547618Y-47709800D02*
X22452380Y-47757419D01*
X22452380Y-47757419D02*
X22166666Y-47757419D01*
X22166666Y-47757419D02*
X22071428Y-47709800D01*
X22071428Y-47709800D02*
X22023809Y-47662180D01*
X22976190Y-46757419D02*
X23595237Y-46757419D01*
X23595237Y-46757419D02*
X23261904Y-47138371D01*
X23261904Y-47138371D02*
X23404761Y-47138371D01*
X23404761Y-47138371D02*
X23499999Y-47185990D01*
X23499999Y-47185990D02*
X23547618Y-47233609D01*
X23547618Y-47233609D02*
X23595237Y-47328847D01*
X23595237Y-47328847D02*
X23595237Y-47566942D01*
X23595237Y-47566942D02*
X23547618Y-47662180D01*
X23547618Y-47662180D02*
X23499999Y-47709800D01*
X23499999Y-47709800D02*
X23404761Y-47757419D01*
X23404761Y-47757419D02*
X23119047Y-47757419D01*
X23119047Y-47757419D02*
X23023809Y-47709800D01*
X23023809Y-47709800D02*
X22976190Y-47662180D01*
X24785714Y-47757419D02*
X24785714Y-46757419D01*
X24785714Y-46757419D02*
X25023809Y-46757419D01*
X25023809Y-46757419D02*
X25166666Y-46805038D01*
X25166666Y-46805038D02*
X25261904Y-46900276D01*
X25261904Y-46900276D02*
X25309523Y-46995514D01*
X25309523Y-46995514D02*
X25357142Y-47185990D01*
X25357142Y-47185990D02*
X25357142Y-47328847D01*
X25357142Y-47328847D02*
X25309523Y-47519323D01*
X25309523Y-47519323D02*
X25261904Y-47614561D01*
X25261904Y-47614561D02*
X25166666Y-47709800D01*
X25166666Y-47709800D02*
X25023809Y-47757419D01*
X25023809Y-47757419D02*
X24785714Y-47757419D01*
X25785714Y-47757419D02*
X25785714Y-47090752D01*
X25785714Y-47281228D02*
X25833333Y-47185990D01*
X25833333Y-47185990D02*
X25880952Y-47138371D01*
X25880952Y-47138371D02*
X25976190Y-47090752D01*
X25976190Y-47090752D02*
X26071428Y-47090752D01*
X26404762Y-47757419D02*
X26404762Y-47090752D01*
X26404762Y-46757419D02*
X26357143Y-46805038D01*
X26357143Y-46805038D02*
X26404762Y-46852657D01*
X26404762Y-46852657D02*
X26452381Y-46805038D01*
X26452381Y-46805038D02*
X26404762Y-46757419D01*
X26404762Y-46757419D02*
X26404762Y-46852657D01*
X26785714Y-47090752D02*
X27023809Y-47757419D01*
X27023809Y-47757419D02*
X27261904Y-47090752D01*
X28023809Y-47709800D02*
X27928571Y-47757419D01*
X27928571Y-47757419D02*
X27738095Y-47757419D01*
X27738095Y-47757419D02*
X27642857Y-47709800D01*
X27642857Y-47709800D02*
X27595238Y-47614561D01*
X27595238Y-47614561D02*
X27595238Y-47233609D01*
X27595238Y-47233609D02*
X27642857Y-47138371D01*
X27642857Y-47138371D02*
X27738095Y-47090752D01*
X27738095Y-47090752D02*
X27928571Y-47090752D01*
X27928571Y-47090752D02*
X28023809Y-47138371D01*
X28023809Y-47138371D02*
X28071428Y-47233609D01*
X28071428Y-47233609D02*
X28071428Y-47328847D01*
X28071428Y-47328847D02*
X27595238Y-47424085D01*
X28500000Y-47757419D02*
X28500000Y-47090752D01*
X28500000Y-47281228D02*
X28547619Y-47185990D01*
X28547619Y-47185990D02*
X28595238Y-47138371D01*
X28595238Y-47138371D02*
X28690476Y-47090752D01*
X28690476Y-47090752D02*
X28785714Y-47090752D01*
D10*
X38985713Y-50134819D02*
X38985713Y-49134819D01*
X38985713Y-49134819D02*
X39223808Y-49134819D01*
X39223808Y-49134819D02*
X39366665Y-49182438D01*
X39366665Y-49182438D02*
X39461903Y-49277676D01*
X39461903Y-49277676D02*
X39509522Y-49372914D01*
X39509522Y-49372914D02*
X39557141Y-49563390D01*
X39557141Y-49563390D02*
X39557141Y-49706247D01*
X39557141Y-49706247D02*
X39509522Y-49896723D01*
X39509522Y-49896723D02*
X39461903Y-49991961D01*
X39461903Y-49991961D02*
X39366665Y-50087200D01*
X39366665Y-50087200D02*
X39223808Y-50134819D01*
X39223808Y-50134819D02*
X38985713Y-50134819D01*
X40557141Y-50039580D02*
X40509522Y-50087200D01*
X40509522Y-50087200D02*
X40366665Y-50134819D01*
X40366665Y-50134819D02*
X40271427Y-50134819D01*
X40271427Y-50134819D02*
X40128570Y-50087200D01*
X40128570Y-50087200D02*
X40033332Y-49991961D01*
X40033332Y-49991961D02*
X39985713Y-49896723D01*
X39985713Y-49896723D02*
X39938094Y-49706247D01*
X39938094Y-49706247D02*
X39938094Y-49563390D01*
X39938094Y-49563390D02*
X39985713Y-49372914D01*
X39985713Y-49372914D02*
X40033332Y-49277676D01*
X40033332Y-49277676D02*
X40128570Y-49182438D01*
X40128570Y-49182438D02*
X40271427Y-49134819D01*
X40271427Y-49134819D02*
X40366665Y-49134819D01*
X40366665Y-49134819D02*
X40509522Y-49182438D01*
X40509522Y-49182438D02*
X40557141Y-49230057D01*
X41699998Y-49087200D02*
X40842856Y-50372914D01*
X42033332Y-50134819D02*
X42033332Y-49134819D01*
X42033332Y-49134819D02*
X42271427Y-49134819D01*
X42271427Y-49134819D02*
X42414284Y-49182438D01*
X42414284Y-49182438D02*
X42509522Y-49277676D01*
X42509522Y-49277676D02*
X42557141Y-49372914D01*
X42557141Y-49372914D02*
X42604760Y-49563390D01*
X42604760Y-49563390D02*
X42604760Y-49706247D01*
X42604760Y-49706247D02*
X42557141Y-49896723D01*
X42557141Y-49896723D02*
X42509522Y-49991961D01*
X42509522Y-49991961D02*
X42414284Y-50087200D01*
X42414284Y-50087200D02*
X42271427Y-50134819D01*
X42271427Y-50134819D02*
X42033332Y-50134819D01*
X43604760Y-50039580D02*
X43557141Y-50087200D01*
X43557141Y-50087200D02*
X43414284Y-50134819D01*
X43414284Y-50134819D02*
X43319046Y-50134819D01*
X43319046Y-50134819D02*
X43176189Y-50087200D01*
X43176189Y-50087200D02*
X43080951Y-49991961D01*
X43080951Y-49991961D02*
X43033332Y-49896723D01*
X43033332Y-49896723D02*
X42985713Y-49706247D01*
X42985713Y-49706247D02*
X42985713Y-49563390D01*
X42985713Y-49563390D02*
X43033332Y-49372914D01*
X43033332Y-49372914D02*
X43080951Y-49277676D01*
X43080951Y-49277676D02*
X43176189Y-49182438D01*
X43176189Y-49182438D02*
X43319046Y-49134819D01*
X43319046Y-49134819D02*
X43414284Y-49134819D01*
X43414284Y-49134819D02*
X43557141Y-49182438D01*
X43557141Y-49182438D02*
X43604760Y-49230057D01*
X45366665Y-50039580D02*
X45319046Y-50087200D01*
X45319046Y-50087200D02*
X45176189Y-50134819D01*
X45176189Y-50134819D02*
X45080951Y-50134819D01*
X45080951Y-50134819D02*
X44938094Y-50087200D01*
X44938094Y-50087200D02*
X44842856Y-49991961D01*
X44842856Y-49991961D02*
X44795237Y-49896723D01*
X44795237Y-49896723D02*
X44747618Y-49706247D01*
X44747618Y-49706247D02*
X44747618Y-49563390D01*
X44747618Y-49563390D02*
X44795237Y-49372914D01*
X44795237Y-49372914D02*
X44842856Y-49277676D01*
X44842856Y-49277676D02*
X44938094Y-49182438D01*
X44938094Y-49182438D02*
X45080951Y-49134819D01*
X45080951Y-49134819D02*
X45176189Y-49134819D01*
X45176189Y-49134819D02*
X45319046Y-49182438D01*
X45319046Y-49182438D02*
X45366665Y-49230057D01*
X45938094Y-50134819D02*
X45842856Y-50087200D01*
X45842856Y-50087200D02*
X45795237Y-50039580D01*
X45795237Y-50039580D02*
X45747618Y-49944342D01*
X45747618Y-49944342D02*
X45747618Y-49658628D01*
X45747618Y-49658628D02*
X45795237Y-49563390D01*
X45795237Y-49563390D02*
X45842856Y-49515771D01*
X45842856Y-49515771D02*
X45938094Y-49468152D01*
X45938094Y-49468152D02*
X46080951Y-49468152D01*
X46080951Y-49468152D02*
X46176189Y-49515771D01*
X46176189Y-49515771D02*
X46223808Y-49563390D01*
X46223808Y-49563390D02*
X46271427Y-49658628D01*
X46271427Y-49658628D02*
X46271427Y-49944342D01*
X46271427Y-49944342D02*
X46223808Y-50039580D01*
X46223808Y-50039580D02*
X46176189Y-50087200D01*
X46176189Y-50087200D02*
X46080951Y-50134819D01*
X46080951Y-50134819D02*
X45938094Y-50134819D01*
X46699999Y-49468152D02*
X46699999Y-50134819D01*
X46699999Y-49563390D02*
X46747618Y-49515771D01*
X46747618Y-49515771D02*
X46842856Y-49468152D01*
X46842856Y-49468152D02*
X46985713Y-49468152D01*
X46985713Y-49468152D02*
X47080951Y-49515771D01*
X47080951Y-49515771D02*
X47128570Y-49611009D01*
X47128570Y-49611009D02*
X47128570Y-50134819D01*
X47509523Y-49468152D02*
X47747618Y-50134819D01*
X47747618Y-50134819D02*
X47985713Y-49468152D01*
X48747618Y-50087200D02*
X48652380Y-50134819D01*
X48652380Y-50134819D02*
X48461904Y-50134819D01*
X48461904Y-50134819D02*
X48366666Y-50087200D01*
X48366666Y-50087200D02*
X48319047Y-49991961D01*
X48319047Y-49991961D02*
X48319047Y-49611009D01*
X48319047Y-49611009D02*
X48366666Y-49515771D01*
X48366666Y-49515771D02*
X48461904Y-49468152D01*
X48461904Y-49468152D02*
X48652380Y-49468152D01*
X48652380Y-49468152D02*
X48747618Y-49515771D01*
X48747618Y-49515771D02*
X48795237Y-49611009D01*
X48795237Y-49611009D02*
X48795237Y-49706247D01*
X48795237Y-49706247D02*
X48319047Y-49801485D01*
X49223809Y-50134819D02*
X49223809Y-49468152D01*
X49223809Y-49658628D02*
X49271428Y-49563390D01*
X49271428Y-49563390D02*
X49319047Y-49515771D01*
X49319047Y-49515771D02*
X49414285Y-49468152D01*
X49414285Y-49468152D02*
X49509523Y-49468152D01*
X49700000Y-49468152D02*
X50080952Y-49468152D01*
X49842857Y-49134819D02*
X49842857Y-49991961D01*
X49842857Y-49991961D02*
X49890476Y-50087200D01*
X49890476Y-50087200D02*
X49985714Y-50134819D01*
X49985714Y-50134819D02*
X50080952Y-50134819D01*
X50795238Y-50087200D02*
X50700000Y-50134819D01*
X50700000Y-50134819D02*
X50509524Y-50134819D01*
X50509524Y-50134819D02*
X50414286Y-50087200D01*
X50414286Y-50087200D02*
X50366667Y-49991961D01*
X50366667Y-49991961D02*
X50366667Y-49611009D01*
X50366667Y-49611009D02*
X50414286Y-49515771D01*
X50414286Y-49515771D02*
X50509524Y-49468152D01*
X50509524Y-49468152D02*
X50700000Y-49468152D01*
X50700000Y-49468152D02*
X50795238Y-49515771D01*
X50795238Y-49515771D02*
X50842857Y-49611009D01*
X50842857Y-49611009D02*
X50842857Y-49706247D01*
X50842857Y-49706247D02*
X50366667Y-49801485D01*
X51271429Y-50134819D02*
X51271429Y-49468152D01*
X51271429Y-49658628D02*
X51319048Y-49563390D01*
X51319048Y-49563390D02*
X51366667Y-49515771D01*
X51366667Y-49515771D02*
X51461905Y-49468152D01*
X51461905Y-49468152D02*
X51557143Y-49468152D01*
X1290475Y-40611009D02*
X957142Y-40611009D01*
X957142Y-41134819D02*
X957142Y-40134819D01*
X957142Y-40134819D02*
X1433332Y-40134819D01*
X2195237Y-41087200D02*
X2099999Y-41134819D01*
X2099999Y-41134819D02*
X1909523Y-41134819D01*
X1909523Y-41134819D02*
X1814285Y-41087200D01*
X1814285Y-41087200D02*
X1766666Y-40991961D01*
X1766666Y-40991961D02*
X1766666Y-40611009D01*
X1766666Y-40611009D02*
X1814285Y-40515771D01*
X1814285Y-40515771D02*
X1909523Y-40468152D01*
X1909523Y-40468152D02*
X2099999Y-40468152D01*
X2099999Y-40468152D02*
X2195237Y-40515771D01*
X2195237Y-40515771D02*
X2242856Y-40611009D01*
X2242856Y-40611009D02*
X2242856Y-40706247D01*
X2242856Y-40706247D02*
X1766666Y-40801485D01*
X2814285Y-41134819D02*
X2719047Y-41087200D01*
X2719047Y-41087200D02*
X2671428Y-40991961D01*
X2671428Y-40991961D02*
X2671428Y-40134819D01*
X3052381Y-40468152D02*
X3433333Y-40468152D01*
X3195238Y-40134819D02*
X3195238Y-40991961D01*
X3195238Y-40991961D02*
X3242857Y-41087200D01*
X3242857Y-41087200D02*
X3338095Y-41134819D01*
X3338095Y-41134819D02*
X3433333Y-41134819D01*
X3766667Y-41134819D02*
X3766667Y-40468152D01*
X3766667Y-40134819D02*
X3719048Y-40182438D01*
X3719048Y-40182438D02*
X3766667Y-40230057D01*
X3766667Y-40230057D02*
X3814286Y-40182438D01*
X3814286Y-40182438D02*
X3766667Y-40134819D01*
X3766667Y-40134819D02*
X3766667Y-40230057D01*
X4623809Y-41087200D02*
X4528571Y-41134819D01*
X4528571Y-41134819D02*
X4338095Y-41134819D01*
X4338095Y-41134819D02*
X4242857Y-41087200D01*
X4242857Y-41087200D02*
X4195238Y-40991961D01*
X4195238Y-40991961D02*
X4195238Y-40611009D01*
X4195238Y-40611009D02*
X4242857Y-40515771D01*
X4242857Y-40515771D02*
X4338095Y-40468152D01*
X4338095Y-40468152D02*
X4528571Y-40468152D01*
X4528571Y-40468152D02*
X4623809Y-40515771D01*
X4623809Y-40515771D02*
X4671428Y-40611009D01*
X4671428Y-40611009D02*
X4671428Y-40706247D01*
X4671428Y-40706247D02*
X4195238Y-40801485D01*
X5100000Y-41134819D02*
X5100000Y-40468152D01*
X5100000Y-40658628D02*
X5147619Y-40563390D01*
X5147619Y-40563390D02*
X5195238Y-40515771D01*
X5195238Y-40515771D02*
X5290476Y-40468152D01*
X5290476Y-40468152D02*
X5385714Y-40468152D01*
X6480953Y-40753866D02*
X7242858Y-40753866D01*
X6861905Y-41134819D02*
X6861905Y-40372914D01*
X5222856Y-4981009D02*
X5365713Y-5028628D01*
X5365713Y-5028628D02*
X5413332Y-5076247D01*
X5413332Y-5076247D02*
X5460951Y-5171485D01*
X5460951Y-5171485D02*
X5460951Y-5314342D01*
X5460951Y-5314342D02*
X5413332Y-5409580D01*
X5413332Y-5409580D02*
X5365713Y-5457200D01*
X5365713Y-5457200D02*
X5270475Y-5504819D01*
X5270475Y-5504819D02*
X4889523Y-5504819D01*
X4889523Y-5504819D02*
X4889523Y-4504819D01*
X4889523Y-4504819D02*
X5222856Y-4504819D01*
X5222856Y-4504819D02*
X5318094Y-4552438D01*
X5318094Y-4552438D02*
X5365713Y-4600057D01*
X5365713Y-4600057D02*
X5413332Y-4695295D01*
X5413332Y-4695295D02*
X5413332Y-4790533D01*
X5413332Y-4790533D02*
X5365713Y-4885771D01*
X5365713Y-4885771D02*
X5318094Y-4933390D01*
X5318094Y-4933390D02*
X5222856Y-4981009D01*
X5222856Y-4981009D02*
X4889523Y-4981009D01*
X6318094Y-4838152D02*
X6318094Y-5504819D01*
X5889523Y-4838152D02*
X5889523Y-5361961D01*
X5889523Y-5361961D02*
X5937142Y-5457200D01*
X5937142Y-5457200D02*
X6032380Y-5504819D01*
X6032380Y-5504819D02*
X6175237Y-5504819D01*
X6175237Y-5504819D02*
X6270475Y-5457200D01*
X6270475Y-5457200D02*
X6318094Y-5409580D01*
X6651428Y-4838152D02*
X7032380Y-4838152D01*
X6794285Y-4504819D02*
X6794285Y-5361961D01*
X6794285Y-5361961D02*
X6841904Y-5457200D01*
X6841904Y-5457200D02*
X6937142Y-5504819D01*
X6937142Y-5504819D02*
X7032380Y-5504819D01*
X7222857Y-4838152D02*
X7603809Y-4838152D01*
X7365714Y-4504819D02*
X7365714Y-5361961D01*
X7365714Y-5361961D02*
X7413333Y-5457200D01*
X7413333Y-5457200D02*
X7508571Y-5504819D01*
X7508571Y-5504819D02*
X7603809Y-5504819D01*
X8080000Y-5504819D02*
X7984762Y-5457200D01*
X7984762Y-5457200D02*
X7937143Y-5409580D01*
X7937143Y-5409580D02*
X7889524Y-5314342D01*
X7889524Y-5314342D02*
X7889524Y-5028628D01*
X7889524Y-5028628D02*
X7937143Y-4933390D01*
X7937143Y-4933390D02*
X7984762Y-4885771D01*
X7984762Y-4885771D02*
X8080000Y-4838152D01*
X8080000Y-4838152D02*
X8222857Y-4838152D01*
X8222857Y-4838152D02*
X8318095Y-4885771D01*
X8318095Y-4885771D02*
X8365714Y-4933390D01*
X8365714Y-4933390D02*
X8413333Y-5028628D01*
X8413333Y-5028628D02*
X8413333Y-5314342D01*
X8413333Y-5314342D02*
X8365714Y-5409580D01*
X8365714Y-5409580D02*
X8318095Y-5457200D01*
X8318095Y-5457200D02*
X8222857Y-5504819D01*
X8222857Y-5504819D02*
X8080000Y-5504819D01*
X8841905Y-4838152D02*
X8841905Y-5504819D01*
X8841905Y-4933390D02*
X8889524Y-4885771D01*
X8889524Y-4885771D02*
X8984762Y-4838152D01*
X8984762Y-4838152D02*
X9127619Y-4838152D01*
X9127619Y-4838152D02*
X9222857Y-4885771D01*
X9222857Y-4885771D02*
X9270476Y-4981009D01*
X9270476Y-4981009D02*
X9270476Y-5504819D01*
X18261905Y-13206037D02*
X18595238Y-13206037D01*
X18738095Y-13729847D02*
X18261905Y-13729847D01*
X18261905Y-13729847D02*
X18261905Y-12729847D01*
X18261905Y-12729847D02*
X18738095Y-12729847D01*
X19119048Y-13682228D02*
X19261905Y-13729847D01*
X19261905Y-13729847D02*
X19500000Y-13729847D01*
X19500000Y-13729847D02*
X19595238Y-13682228D01*
X19595238Y-13682228D02*
X19642857Y-13634608D01*
X19642857Y-13634608D02*
X19690476Y-13539370D01*
X19690476Y-13539370D02*
X19690476Y-13444132D01*
X19690476Y-13444132D02*
X19642857Y-13348894D01*
X19642857Y-13348894D02*
X19595238Y-13301275D01*
X19595238Y-13301275D02*
X19500000Y-13253656D01*
X19500000Y-13253656D02*
X19309524Y-13206037D01*
X19309524Y-13206037D02*
X19214286Y-13158418D01*
X19214286Y-13158418D02*
X19166667Y-13110799D01*
X19166667Y-13110799D02*
X19119048Y-13015561D01*
X19119048Y-13015561D02*
X19119048Y-12920323D01*
X19119048Y-12920323D02*
X19166667Y-12825085D01*
X19166667Y-12825085D02*
X19214286Y-12777466D01*
X19214286Y-12777466D02*
X19309524Y-12729847D01*
X19309524Y-12729847D02*
X19547619Y-12729847D01*
X19547619Y-12729847D02*
X19690476Y-12777466D01*
X20119048Y-13729847D02*
X20119048Y-12729847D01*
X20119048Y-12729847D02*
X20500000Y-12729847D01*
X20500000Y-12729847D02*
X20595238Y-12777466D01*
X20595238Y-12777466D02*
X20642857Y-12825085D01*
X20642857Y-12825085D02*
X20690476Y-12920323D01*
X20690476Y-12920323D02*
X20690476Y-13063180D01*
X20690476Y-13063180D02*
X20642857Y-13158418D01*
X20642857Y-13158418D02*
X20595238Y-13206037D01*
X20595238Y-13206037D02*
X20500000Y-13253656D01*
X20500000Y-13253656D02*
X20119048Y-13253656D01*
X21023810Y-12729847D02*
X21642857Y-12729847D01*
X21642857Y-12729847D02*
X21309524Y-13110799D01*
X21309524Y-13110799D02*
X21452381Y-13110799D01*
X21452381Y-13110799D02*
X21547619Y-13158418D01*
X21547619Y-13158418D02*
X21595238Y-13206037D01*
X21595238Y-13206037D02*
X21642857Y-13301275D01*
X21642857Y-13301275D02*
X21642857Y-13539370D01*
X21642857Y-13539370D02*
X21595238Y-13634608D01*
X21595238Y-13634608D02*
X21547619Y-13682228D01*
X21547619Y-13682228D02*
X21452381Y-13729847D01*
X21452381Y-13729847D02*
X21166667Y-13729847D01*
X21166667Y-13729847D02*
X21071429Y-13682228D01*
X21071429Y-13682228D02*
X21023810Y-13634608D01*
X22023810Y-12825085D02*
X22071429Y-12777466D01*
X22071429Y-12777466D02*
X22166667Y-12729847D01*
X22166667Y-12729847D02*
X22404762Y-12729847D01*
X22404762Y-12729847D02*
X22500000Y-12777466D01*
X22500000Y-12777466D02*
X22547619Y-12825085D01*
X22547619Y-12825085D02*
X22595238Y-12920323D01*
X22595238Y-12920323D02*
X22595238Y-13015561D01*
X22595238Y-13015561D02*
X22547619Y-13158418D01*
X22547619Y-13158418D02*
X21976191Y-13729847D01*
X21976191Y-13729847D02*
X22595238Y-13729847D01*
X23023810Y-13348894D02*
X23785715Y-13348894D01*
X24833333Y-13634608D02*
X24785714Y-13682228D01*
X24785714Y-13682228D02*
X24642857Y-13729847D01*
X24642857Y-13729847D02*
X24547619Y-13729847D01*
X24547619Y-13729847D02*
X24404762Y-13682228D01*
X24404762Y-13682228D02*
X24309524Y-13586989D01*
X24309524Y-13586989D02*
X24261905Y-13491751D01*
X24261905Y-13491751D02*
X24214286Y-13301275D01*
X24214286Y-13301275D02*
X24214286Y-13158418D01*
X24214286Y-13158418D02*
X24261905Y-12967942D01*
X24261905Y-12967942D02*
X24309524Y-12872704D01*
X24309524Y-12872704D02*
X24404762Y-12777466D01*
X24404762Y-12777466D02*
X24547619Y-12729847D01*
X24547619Y-12729847D02*
X24642857Y-12729847D01*
X24642857Y-12729847D02*
X24785714Y-12777466D01*
X24785714Y-12777466D02*
X24833333Y-12825085D01*
X25166667Y-12729847D02*
X25785714Y-12729847D01*
X25785714Y-12729847D02*
X25452381Y-13110799D01*
X25452381Y-13110799D02*
X25595238Y-13110799D01*
X25595238Y-13110799D02*
X25690476Y-13158418D01*
X25690476Y-13158418D02*
X25738095Y-13206037D01*
X25738095Y-13206037D02*
X25785714Y-13301275D01*
X25785714Y-13301275D02*
X25785714Y-13539370D01*
X25785714Y-13539370D02*
X25738095Y-13634608D01*
X25738095Y-13634608D02*
X25690476Y-13682228D01*
X25690476Y-13682228D02*
X25595238Y-13729847D01*
X25595238Y-13729847D02*
X25309524Y-13729847D01*
X25309524Y-13729847D02*
X25214286Y-13682228D01*
X25214286Y-13682228D02*
X25166667Y-13634608D01*
X18571429Y-15292172D02*
X18714286Y-15339791D01*
X18714286Y-15339791D02*
X18952381Y-15339791D01*
X18952381Y-15339791D02*
X19047619Y-15292172D01*
X19047619Y-15292172D02*
X19095238Y-15244552D01*
X19095238Y-15244552D02*
X19142857Y-15149314D01*
X19142857Y-15149314D02*
X19142857Y-15054076D01*
X19142857Y-15054076D02*
X19095238Y-14958838D01*
X19095238Y-14958838D02*
X19047619Y-14911219D01*
X19047619Y-14911219D02*
X18952381Y-14863600D01*
X18952381Y-14863600D02*
X18761905Y-14815981D01*
X18761905Y-14815981D02*
X18666667Y-14768362D01*
X18666667Y-14768362D02*
X18619048Y-14720743D01*
X18619048Y-14720743D02*
X18571429Y-14625505D01*
X18571429Y-14625505D02*
X18571429Y-14530267D01*
X18571429Y-14530267D02*
X18619048Y-14435029D01*
X18619048Y-14435029D02*
X18666667Y-14387410D01*
X18666667Y-14387410D02*
X18761905Y-14339791D01*
X18761905Y-14339791D02*
X19000000Y-14339791D01*
X19000000Y-14339791D02*
X19142857Y-14387410D01*
X20000000Y-14673124D02*
X20000000Y-15339791D01*
X19571429Y-14673124D02*
X19571429Y-15196933D01*
X19571429Y-15196933D02*
X19619048Y-15292172D01*
X19619048Y-15292172D02*
X19714286Y-15339791D01*
X19714286Y-15339791D02*
X19857143Y-15339791D01*
X19857143Y-15339791D02*
X19952381Y-15292172D01*
X19952381Y-15292172D02*
X20000000Y-15244552D01*
X20476191Y-14673124D02*
X20476191Y-15673124D01*
X20476191Y-14720743D02*
X20571429Y-14673124D01*
X20571429Y-14673124D02*
X20761905Y-14673124D01*
X20761905Y-14673124D02*
X20857143Y-14720743D01*
X20857143Y-14720743D02*
X20904762Y-14768362D01*
X20904762Y-14768362D02*
X20952381Y-14863600D01*
X20952381Y-14863600D02*
X20952381Y-15149314D01*
X20952381Y-15149314D02*
X20904762Y-15244552D01*
X20904762Y-15244552D02*
X20857143Y-15292172D01*
X20857143Y-15292172D02*
X20761905Y-15339791D01*
X20761905Y-15339791D02*
X20571429Y-15339791D01*
X20571429Y-15339791D02*
X20476191Y-15292172D01*
X21761905Y-15292172D02*
X21666667Y-15339791D01*
X21666667Y-15339791D02*
X21476191Y-15339791D01*
X21476191Y-15339791D02*
X21380953Y-15292172D01*
X21380953Y-15292172D02*
X21333334Y-15196933D01*
X21333334Y-15196933D02*
X21333334Y-14815981D01*
X21333334Y-14815981D02*
X21380953Y-14720743D01*
X21380953Y-14720743D02*
X21476191Y-14673124D01*
X21476191Y-14673124D02*
X21666667Y-14673124D01*
X21666667Y-14673124D02*
X21761905Y-14720743D01*
X21761905Y-14720743D02*
X21809524Y-14815981D01*
X21809524Y-14815981D02*
X21809524Y-14911219D01*
X21809524Y-14911219D02*
X21333334Y-15006457D01*
X22238096Y-15339791D02*
X22238096Y-14673124D01*
X22238096Y-14863600D02*
X22285715Y-14768362D01*
X22285715Y-14768362D02*
X22333334Y-14720743D01*
X22333334Y-14720743D02*
X22428572Y-14673124D01*
X22428572Y-14673124D02*
X22523810Y-14673124D01*
X22857144Y-15339791D02*
X22857144Y-14339791D01*
X22857144Y-14339791D02*
X23190477Y-15054076D01*
X23190477Y-15054076D02*
X23523810Y-14339791D01*
X23523810Y-14339791D02*
X23523810Y-15339791D01*
X24000001Y-15339791D02*
X24000001Y-14673124D01*
X24000001Y-14339791D02*
X23952382Y-14387410D01*
X23952382Y-14387410D02*
X24000001Y-14435029D01*
X24000001Y-14435029D02*
X24047620Y-14387410D01*
X24047620Y-14387410D02*
X24000001Y-14339791D01*
X24000001Y-14339791D02*
X24000001Y-14435029D01*
X24476191Y-14673124D02*
X24476191Y-15339791D01*
X24476191Y-14768362D02*
X24523810Y-14720743D01*
X24523810Y-14720743D02*
X24619048Y-14673124D01*
X24619048Y-14673124D02*
X24761905Y-14673124D01*
X24761905Y-14673124D02*
X24857143Y-14720743D01*
X24857143Y-14720743D02*
X24904762Y-14815981D01*
X24904762Y-14815981D02*
X24904762Y-15339791D01*
X25380953Y-15339791D02*
X25380953Y-14673124D01*
X25380953Y-14339791D02*
X25333334Y-14387410D01*
X25333334Y-14387410D02*
X25380953Y-14435029D01*
X25380953Y-14435029D02*
X25428572Y-14387410D01*
X25428572Y-14387410D02*
X25380953Y-14339791D01*
X25380953Y-14339791D02*
X25380953Y-14435029D01*
X409523Y-30534819D02*
X409523Y-29534819D01*
X409523Y-29534819D02*
X647618Y-29534819D01*
X647618Y-29534819D02*
X790475Y-29582438D01*
X790475Y-29582438D02*
X885713Y-29677676D01*
X885713Y-29677676D02*
X933332Y-29772914D01*
X933332Y-29772914D02*
X980951Y-29963390D01*
X980951Y-29963390D02*
X980951Y-30106247D01*
X980951Y-30106247D02*
X933332Y-30296723D01*
X933332Y-30296723D02*
X885713Y-30391961D01*
X885713Y-30391961D02*
X790475Y-30487200D01*
X790475Y-30487200D02*
X647618Y-30534819D01*
X647618Y-30534819D02*
X409523Y-30534819D01*
X1409523Y-30534819D02*
X1409523Y-29868152D01*
X1409523Y-29534819D02*
X1361904Y-29582438D01*
X1361904Y-29582438D02*
X1409523Y-29630057D01*
X1409523Y-29630057D02*
X1457142Y-29582438D01*
X1457142Y-29582438D02*
X1409523Y-29534819D01*
X1409523Y-29534819D02*
X1409523Y-29630057D01*
X1838094Y-30487200D02*
X1933332Y-30534819D01*
X1933332Y-30534819D02*
X2123808Y-30534819D01*
X2123808Y-30534819D02*
X2219046Y-30487200D01*
X2219046Y-30487200D02*
X2266665Y-30391961D01*
X2266665Y-30391961D02*
X2266665Y-30344342D01*
X2266665Y-30344342D02*
X2219046Y-30249104D01*
X2219046Y-30249104D02*
X2123808Y-30201485D01*
X2123808Y-30201485D02*
X1980951Y-30201485D01*
X1980951Y-30201485D02*
X1885713Y-30153866D01*
X1885713Y-30153866D02*
X1838094Y-30058628D01*
X1838094Y-30058628D02*
X1838094Y-30011009D01*
X1838094Y-30011009D02*
X1885713Y-29915771D01*
X1885713Y-29915771D02*
X1980951Y-29868152D01*
X1980951Y-29868152D02*
X2123808Y-29868152D01*
X2123808Y-29868152D02*
X2219046Y-29915771D01*
X2695237Y-29868152D02*
X2695237Y-30868152D01*
X2695237Y-29915771D02*
X2790475Y-29868152D01*
X2790475Y-29868152D02*
X2980951Y-29868152D01*
X2980951Y-29868152D02*
X3076189Y-29915771D01*
X3076189Y-29915771D02*
X3123808Y-29963390D01*
X3123808Y-29963390D02*
X3171427Y-30058628D01*
X3171427Y-30058628D02*
X3171427Y-30344342D01*
X3171427Y-30344342D02*
X3123808Y-30439580D01*
X3123808Y-30439580D02*
X3076189Y-30487200D01*
X3076189Y-30487200D02*
X2980951Y-30534819D01*
X2980951Y-30534819D02*
X2790475Y-30534819D01*
X2790475Y-30534819D02*
X2695237Y-30487200D01*
X3742856Y-30534819D02*
X3647618Y-30487200D01*
X3647618Y-30487200D02*
X3599999Y-30391961D01*
X3599999Y-30391961D02*
X3599999Y-29534819D01*
X4552380Y-30534819D02*
X4552380Y-30011009D01*
X4552380Y-30011009D02*
X4504761Y-29915771D01*
X4504761Y-29915771D02*
X4409523Y-29868152D01*
X4409523Y-29868152D02*
X4219047Y-29868152D01*
X4219047Y-29868152D02*
X4123809Y-29915771D01*
X4552380Y-30487200D02*
X4457142Y-30534819D01*
X4457142Y-30534819D02*
X4219047Y-30534819D01*
X4219047Y-30534819D02*
X4123809Y-30487200D01*
X4123809Y-30487200D02*
X4076190Y-30391961D01*
X4076190Y-30391961D02*
X4076190Y-30296723D01*
X4076190Y-30296723D02*
X4123809Y-30201485D01*
X4123809Y-30201485D02*
X4219047Y-30153866D01*
X4219047Y-30153866D02*
X4457142Y-30153866D01*
X4457142Y-30153866D02*
X4552380Y-30106247D01*
X4933333Y-29868152D02*
X5171428Y-30534819D01*
X5409523Y-29868152D02*
X5171428Y-30534819D01*
X5171428Y-30534819D02*
X5076190Y-30772914D01*
X5076190Y-30772914D02*
X5028571Y-30820533D01*
X5028571Y-30820533D02*
X4933333Y-30868152D01*
X7266666Y-29487200D02*
X6409524Y-30772914D01*
X8361905Y-30534819D02*
X8361905Y-29534819D01*
X8790476Y-29630057D02*
X8838095Y-29582438D01*
X8838095Y-29582438D02*
X8933333Y-29534819D01*
X8933333Y-29534819D02*
X9171428Y-29534819D01*
X9171428Y-29534819D02*
X9266666Y-29582438D01*
X9266666Y-29582438D02*
X9314285Y-29630057D01*
X9314285Y-29630057D02*
X9361904Y-29725295D01*
X9361904Y-29725295D02*
X9361904Y-29820533D01*
X9361904Y-29820533D02*
X9314285Y-29963390D01*
X9314285Y-29963390D02*
X8742857Y-30534819D01*
X8742857Y-30534819D02*
X9361904Y-30534819D01*
X10361904Y-30439580D02*
X10314285Y-30487200D01*
X10314285Y-30487200D02*
X10171428Y-30534819D01*
X10171428Y-30534819D02*
X10076190Y-30534819D01*
X10076190Y-30534819D02*
X9933333Y-30487200D01*
X9933333Y-30487200D02*
X9838095Y-30391961D01*
X9838095Y-30391961D02*
X9790476Y-30296723D01*
X9790476Y-30296723D02*
X9742857Y-30106247D01*
X9742857Y-30106247D02*
X9742857Y-29963390D01*
X9742857Y-29963390D02*
X9790476Y-29772914D01*
X9790476Y-29772914D02*
X9838095Y-29677676D01*
X9838095Y-29677676D02*
X9933333Y-29582438D01*
X9933333Y-29582438D02*
X10076190Y-29534819D01*
X10076190Y-29534819D02*
X10171428Y-29534819D01*
X10171428Y-29534819D02*
X10314285Y-29582438D01*
X10314285Y-29582438D02*
X10361904Y-29630057D01*
X11885714Y-30011009D02*
X12028571Y-30058628D01*
X12028571Y-30058628D02*
X12076190Y-30106247D01*
X12076190Y-30106247D02*
X12123809Y-30201485D01*
X12123809Y-30201485D02*
X12123809Y-30344342D01*
X12123809Y-30344342D02*
X12076190Y-30439580D01*
X12076190Y-30439580D02*
X12028571Y-30487200D01*
X12028571Y-30487200D02*
X11933333Y-30534819D01*
X11933333Y-30534819D02*
X11552381Y-30534819D01*
X11552381Y-30534819D02*
X11552381Y-29534819D01*
X11552381Y-29534819D02*
X11885714Y-29534819D01*
X11885714Y-29534819D02*
X11980952Y-29582438D01*
X11980952Y-29582438D02*
X12028571Y-29630057D01*
X12028571Y-29630057D02*
X12076190Y-29725295D01*
X12076190Y-29725295D02*
X12076190Y-29820533D01*
X12076190Y-29820533D02*
X12028571Y-29915771D01*
X12028571Y-29915771D02*
X11980952Y-29963390D01*
X11980952Y-29963390D02*
X11885714Y-30011009D01*
X11885714Y-30011009D02*
X11552381Y-30011009D01*
X12980952Y-29868152D02*
X12980952Y-30534819D01*
X12552381Y-29868152D02*
X12552381Y-30391961D01*
X12552381Y-30391961D02*
X12600000Y-30487200D01*
X12600000Y-30487200D02*
X12695238Y-30534819D01*
X12695238Y-30534819D02*
X12838095Y-30534819D01*
X12838095Y-30534819D02*
X12933333Y-30487200D01*
X12933333Y-30487200D02*
X12980952Y-30439580D01*
X13409524Y-30487200D02*
X13504762Y-30534819D01*
X13504762Y-30534819D02*
X13695238Y-30534819D01*
X13695238Y-30534819D02*
X13790476Y-30487200D01*
X13790476Y-30487200D02*
X13838095Y-30391961D01*
X13838095Y-30391961D02*
X13838095Y-30344342D01*
X13838095Y-30344342D02*
X13790476Y-30249104D01*
X13790476Y-30249104D02*
X13695238Y-30201485D01*
X13695238Y-30201485D02*
X13552381Y-30201485D01*
X13552381Y-30201485D02*
X13457143Y-30153866D01*
X13457143Y-30153866D02*
X13409524Y-30058628D01*
X13409524Y-30058628D02*
X13409524Y-30011009D01*
X13409524Y-30011009D02*
X13457143Y-29915771D01*
X13457143Y-29915771D02*
X13552381Y-29868152D01*
X13552381Y-29868152D02*
X13695238Y-29868152D01*
X13695238Y-29868152D02*
X13790476Y-29915771D01*
X8990475Y-45811009D02*
X8657142Y-45811009D01*
X8657142Y-46334819D02*
X8657142Y-45334819D01*
X8657142Y-45334819D02*
X9133332Y-45334819D01*
X9895237Y-46287200D02*
X9799999Y-46334819D01*
X9799999Y-46334819D02*
X9609523Y-46334819D01*
X9609523Y-46334819D02*
X9514285Y-46287200D01*
X9514285Y-46287200D02*
X9466666Y-46191961D01*
X9466666Y-46191961D02*
X9466666Y-45811009D01*
X9466666Y-45811009D02*
X9514285Y-45715771D01*
X9514285Y-45715771D02*
X9609523Y-45668152D01*
X9609523Y-45668152D02*
X9799999Y-45668152D01*
X9799999Y-45668152D02*
X9895237Y-45715771D01*
X9895237Y-45715771D02*
X9942856Y-45811009D01*
X9942856Y-45811009D02*
X9942856Y-45906247D01*
X9942856Y-45906247D02*
X9466666Y-46001485D01*
X10514285Y-46334819D02*
X10419047Y-46287200D01*
X10419047Y-46287200D02*
X10371428Y-46191961D01*
X10371428Y-46191961D02*
X10371428Y-45334819D01*
X10752381Y-45668152D02*
X11133333Y-45668152D01*
X10895238Y-45334819D02*
X10895238Y-46191961D01*
X10895238Y-46191961D02*
X10942857Y-46287200D01*
X10942857Y-46287200D02*
X11038095Y-46334819D01*
X11038095Y-46334819D02*
X11133333Y-46334819D01*
X11466667Y-46334819D02*
X11466667Y-45668152D01*
X11466667Y-45334819D02*
X11419048Y-45382438D01*
X11419048Y-45382438D02*
X11466667Y-45430057D01*
X11466667Y-45430057D02*
X11514286Y-45382438D01*
X11514286Y-45382438D02*
X11466667Y-45334819D01*
X11466667Y-45334819D02*
X11466667Y-45430057D01*
X12323809Y-46287200D02*
X12228571Y-46334819D01*
X12228571Y-46334819D02*
X12038095Y-46334819D01*
X12038095Y-46334819D02*
X11942857Y-46287200D01*
X11942857Y-46287200D02*
X11895238Y-46191961D01*
X11895238Y-46191961D02*
X11895238Y-45811009D01*
X11895238Y-45811009D02*
X11942857Y-45715771D01*
X11942857Y-45715771D02*
X12038095Y-45668152D01*
X12038095Y-45668152D02*
X12228571Y-45668152D01*
X12228571Y-45668152D02*
X12323809Y-45715771D01*
X12323809Y-45715771D02*
X12371428Y-45811009D01*
X12371428Y-45811009D02*
X12371428Y-45906247D01*
X12371428Y-45906247D02*
X11895238Y-46001485D01*
X12800000Y-46334819D02*
X12800000Y-45668152D01*
X12800000Y-45858628D02*
X12847619Y-45763390D01*
X12847619Y-45763390D02*
X12895238Y-45715771D01*
X12895238Y-45715771D02*
X12990476Y-45668152D01*
X12990476Y-45668152D02*
X13085714Y-45668152D01*
X14180953Y-45953866D02*
X14942858Y-45953866D01*
D12*
%TO.C,Sensors*%
X53410000Y-27480000D02*
X53410000Y-31590000D01*
X51190000Y-31590000D02*
X53410000Y-31590000D01*
X51190000Y-27480000D02*
X53410000Y-27480000D01*
X51190000Y-27480000D02*
X51190000Y-31590000D01*
X51190000Y-26480000D02*
X51190000Y-25370000D01*
X51190000Y-25370000D02*
X52300000Y-25370000D01*
%TO.C,DRV8833 Driver*%
D11*
X13885000Y-32730000D02*
X32285000Y-32730000D01*
X32285000Y-48730000D01*
X13885000Y-48730000D01*
X13885000Y-32730000D01*
D12*
%TO.C,REF\u002A\u002A*%
X51200000Y-18280000D02*
X53600000Y-18280000D01*
X51200000Y-20680000D02*
X51200000Y-18280000D01*
X53600000Y-18280000D02*
X53600000Y-20680000D01*
X53600000Y-20680000D02*
X51200000Y-20680000D01*
%TO.C,DC/DC Converter*%
X33400000Y-51280000D02*
X35800000Y-51280000D01*
X33400000Y-53680000D02*
X33400000Y-51280000D01*
X35800000Y-51280000D02*
X35800000Y-53680000D01*
X35800000Y-53680000D02*
X33400000Y-53680000D01*
%TO.C,Feltier +*%
X3185000Y-51745000D02*
X5585000Y-51745000D01*
X3185000Y-54145000D02*
X3185000Y-51745000D01*
X5585000Y-51745000D02*
X5585000Y-54145000D01*
X5585000Y-54145000D02*
X3185000Y-54145000D01*
%TO.C,REF\u002A\u002A*%
X51200000Y-15280000D02*
X53600000Y-15280000D01*
X51200000Y-17680000D02*
X51200000Y-15280000D01*
X53600000Y-15280000D02*
X53600000Y-17680000D01*
X53600000Y-17680000D02*
X51200000Y-17680000D01*
%TO.C,Button*%
X5970000Y-6050000D02*
X7080000Y-6050000D01*
X5970000Y-7160000D02*
X5970000Y-6050000D01*
X5970000Y-8160000D02*
X5970000Y-16270000D01*
X5970000Y-8160000D02*
X8190000Y-8160000D01*
X5970000Y-16270000D02*
X8190000Y-16270000D01*
X8190000Y-8160000D02*
X8190000Y-16270000D01*
D13*
%TO.C,ESP32-C3
SuperMini*%
X13080000Y-28510000D02*
X13080000Y-5810000D01*
X17580000Y-4510000D02*
X17580000Y-5810000D01*
X17580000Y-5810000D02*
X13080000Y-5810000D01*
X26580000Y-4510000D02*
X17580000Y-4510000D01*
X26580000Y-4510000D02*
X26580000Y-5810000D01*
X31080000Y-5810000D02*
X26580000Y-5810000D01*
X31080000Y-28510000D02*
X13080000Y-28510000D01*
X31080000Y-28510000D02*
X31080000Y-5810000D01*
D12*
%TO.C,Display / I2C Bus*%
X5970000Y-21050000D02*
X7080000Y-21050000D01*
X5970000Y-22160000D02*
X5970000Y-21050000D01*
X5970000Y-23160000D02*
X5970000Y-29270000D01*
X5970000Y-23160000D02*
X8190000Y-23160000D01*
X5970000Y-29270000D02*
X8190000Y-29270000D01*
X8190000Y-23160000D02*
X8190000Y-29270000D01*
%TO.C,Feltier -*%
X6785000Y-51745000D02*
X9185000Y-51745000D01*
X6785000Y-54145000D02*
X6785000Y-51745000D01*
X9185000Y-51745000D02*
X9185000Y-54145000D01*
X9185000Y-54145000D02*
X6785000Y-54145000D01*
%TO.C,REF\u002A\u002A*%
X37000000Y-51280000D02*
X39400000Y-51280000D01*
X37000000Y-53680000D02*
X37000000Y-51280000D01*
X39400000Y-51280000D02*
X39400000Y-53680000D01*
X39400000Y-53680000D02*
X37000000Y-53680000D01*
%TD*%
D14*
%TO.C,Feltier +*%
X4385000Y-52945000D03*
%TD*%
%TO.C,Feltier -*%
X7985000Y-52945000D03*
%TD*%
M02*
