%TF.GenerationSoftware,KiCad,Pcbnew,9.0.2*%
%TF.CreationDate,2025-05-23T14:51:07+09:00*%
%TF.ProjectId,__,78912e6b-6963-4616-945f-706362585858,rev?*%
%TF.SameCoordinates,Original*%
%TF.FileFunction,Copper,L2,Bot*%
%TF.FilePolarity,Positive*%
%FSLAX46Y46*%
G04 Gerber Fmt 4.6, Leading zero omitted, Abs format (unit mm)*
G04 Created by KiCad (PCBNEW 9.0.2) date 2025-05-23 14:51:07*
%MOMM*%
%LPD*%
G01*
G04 APERTURE LIST*
%TA.AperFunction,CastellatedPad*%
%ADD10C,1.350000*%
%TD*%
%TA.AperFunction,CastellatedPad*%
%ADD11C,1.905000*%
%TD*%
%TA.AperFunction,BGAPad,CuDef*%
%ADD12R,2.000000X2.000000*%
%TD*%
%TA.AperFunction,ComponentPad*%
%ADD13C,1.350000*%
%TD*%
%TA.AperFunction,ComponentPad*%
%ADD14C,1.905000*%
%TD*%
%TA.AperFunction,ComponentPad*%
%ADD15C,1.879600*%
%TD*%
%TA.AperFunction,Conductor*%
%ADD16C,0.200000*%
%TD*%
%TA.AperFunction,Conductor*%
%ADD17C,0.400000*%
%TD*%
G04 APERTURE END LIST*
D10*
%TO.P,Sensors,VCC*%
%TO.N,N/C*%
X52300000Y-28480000D03*
%TO.P,Sensors,GND*%
X52300000Y-26480000D03*
%TO.P,Sensors,DAT*%
X52300000Y-30480000D03*
%TD*%
D11*
%TO.P,DRV8833 Driver,EEP*%
%TO.N,N/C*%
X15300000Y-34065000D03*
%TO.P,DRV8833 Driver,GND*%
X30870000Y-39412500D03*
%TO.P,DRV8833 Driver,IN1*%
X30870000Y-47395000D03*
%TO.P,DRV8833 Driver,IN2*%
X30870000Y-44725000D03*
%TO.P,DRV8833 Driver,IN3*%
X30870000Y-36735000D03*
%TO.P,DRV8833 Driver,IN4*%
X30870000Y-34065000D03*
%TO.P,DRV8833 Driver,OUT1*%
X15300000Y-36735000D03*
%TO.P,DRV8833 Driver,OUT2*%
X15300000Y-39380000D03*
%TO.P,DRV8833 Driver,OUT3*%
X15300000Y-42040000D03*
%TO.P,DRV8833 Driver,OUT4*%
X15300000Y-44710000D03*
%TO.P,DRV8833 Driver,ULT*%
X15300000Y-47380000D03*
%TO.P,DRV8833 Driver,VCC*%
X30870000Y-42077500D03*
%TD*%
D12*
%TO.P,REF\u002A\u002A,1*%
%TO.N,N/C*%
X52400000Y-19480000D03*
%TD*%
%TO.P,DC/DC Converter,1*%
%TO.N,N/C*%
X34600000Y-52480000D03*
%TD*%
%TO.P,REF\u002A\u002A,1*%
%TO.N,N/C*%
X52400000Y-16480000D03*
%TD*%
D13*
%TO.P,Button,1*%
%TO.N,N/C*%
X7080000Y-7160000D03*
%TO.P,Button,2*%
X7080000Y-9160000D03*
%TO.P,Button,3*%
X7080000Y-11160000D03*
%TO.P,Button,4*%
X7080000Y-13160000D03*
%TO.P,Button,5*%
X7080000Y-15160000D03*
%TD*%
D14*
%TO.P,ESP32-C3
SuperMini,0*%
%TO.N,N/C*%
X29700000Y-25040000D03*
%TO.P,ESP32-C3
SuperMini,1*%
X29700000Y-22500000D03*
%TO.P,ESP32-C3
SuperMini,2*%
X29700000Y-19960000D03*
%TO.P,ESP32-C3
SuperMini,3*%
X29700000Y-17420000D03*
%TO.P,ESP32-C3
SuperMini,3.3*%
X29700000Y-12340000D03*
%TO.P,ESP32-C3
SuperMini,4*%
X29700000Y-14880000D03*
%TO.P,ESP32-C3
SuperMini,5*%
X14460000Y-7260000D03*
%TO.P,ESP32-C3
SuperMini,5V*%
X29700000Y-7260000D03*
%TO.P,ESP32-C3
SuperMini,6*%
X14460000Y-9800000D03*
%TO.P,ESP32-C3
SuperMini,7*%
X14460000Y-12340000D03*
%TO.P,ESP32-C3
SuperMini,8*%
X14460000Y-14880000D03*
%TO.P,ESP32-C3
SuperMini,9*%
X14460000Y-17420000D03*
%TO.P,ESP32-C3
SuperMini,10*%
X14460000Y-19960000D03*
%TO.P,ESP32-C3
SuperMini,20*%
X14460000Y-22500000D03*
%TO.P,ESP32-C3
SuperMini,21*%
X14460000Y-25040000D03*
%TO.P,ESP32-C3
SuperMini,G*%
X29700000Y-9800000D03*
%TD*%
D13*
%TO.P,Display / I2C Bus,1*%
%TO.N,N/C*%
X7080000Y-22160000D03*
%TO.P,Display / I2C Bus,2*%
X7080000Y-24160000D03*
%TO.P,Display / I2C Bus,3*%
X7080000Y-26160000D03*
%TO.P,Display / I2C Bus,4*%
X7080000Y-28160000D03*
%TD*%
D12*
%TO.P,REF\u002A\u002A,1*%
%TO.N,N/C*%
X38200000Y-52480000D03*
%TD*%
D15*
%TO.P,JP2,1*%
%TO.N,SDA*%
X44190086Y-13225260D03*
%TO.P,JP2,2*%
%TO.N,SCL*%
X41650086Y-13225260D03*
%TO.P,JP2,3*%
%TO.N,QST*%
X39110086Y-13225260D03*
%TD*%
%TO.P,JP4,1*%
%TO.N,VCC*%
X44190086Y-5605260D03*
%TO.P,JP4,2*%
%TO.N,GND*%
X41650086Y-5605260D03*
%TO.P,JP4,3*%
%TO.N,ALT*%
X39110086Y-5605260D03*
%TD*%
%TO.P,JP5,1*%
%TO.N,VCC*%
X46730086Y-10685260D03*
%TO.P,JP5,2*%
%TO.N,GND*%
X46730086Y-8145260D03*
%TD*%
D16*
%TO.N,*%
X30902500Y-39380000D02*
X38100000Y-39380000D01*
X15300000Y-34065000D02*
X19900000Y-29465000D01*
X38100000Y-52380000D02*
X38200000Y-52480000D01*
X19900000Y-29465000D02*
X19900000Y-26780000D01*
X17900000Y-33780000D02*
X21800000Y-29880000D01*
X21800000Y-26980000D02*
X26280000Y-22500000D01*
X38100000Y-39380000D02*
X38100000Y-52380000D01*
X26280000Y-22500000D02*
X29700000Y-22500000D01*
X34600000Y-42725000D02*
X34600000Y-52480000D01*
X26720000Y-19960000D02*
X29700000Y-19960000D01*
X17900000Y-44780000D02*
X17900000Y-33780000D01*
X30870000Y-42077500D02*
X33952500Y-42077500D01*
X21800000Y-29880000D02*
X21800000Y-26980000D01*
X19900000Y-26780000D02*
X26720000Y-19960000D01*
X33952500Y-42077500D02*
X34600000Y-42725000D01*
X15300000Y-47380000D02*
X17900000Y-44780000D01*
X30870000Y-39412500D02*
X30902500Y-39380000D01*
D17*
%TO.N,VCC*%
X34400000Y-9480000D02*
X34400000Y-12480000D01*
X40315346Y-9480000D02*
X34400000Y-9480000D01*
X34400000Y-12480000D02*
X38400000Y-16480000D01*
X38400000Y-16480000D02*
X52400000Y-16480000D01*
X44190086Y-5605260D02*
X40315346Y-9480000D01*
%TO.N,GND*%
X52400000Y-19480000D02*
X39400000Y-19480000D01*
X33600000Y-8480000D02*
X39400000Y-8480000D01*
X33400000Y-13480000D02*
X33400000Y-8680000D01*
X39400000Y-19480000D02*
X33400000Y-13480000D01*
X39400000Y-8480000D02*
X41650086Y-6229914D01*
X33400000Y-8680000D02*
X33600000Y-8480000D01*
X41650086Y-6229914D02*
X41650086Y-5605260D01*
%TD*%
M02*
