M48
; DRILL file {KiCad 9.0.2} date 2025-05-23T14:51:10+0900
; FORMAT={-:-/ absolute / metric / decimal}
; #@! TF.CreationDate,2025-05-23T14:51:10+09:00
; #@! TF.GenerationSoftware,Kicad,Pcbnew,9.0.2
; #@! TF.FileFunction,Plated,1,2,PTH
FMAT,2
METRIC
; #@! TA.AperFunction,Plated,PTH,ComponentDrill
T1C0.800
; #@! TA.AperFunction,Plated,PTH,ComponentDrill
T2C1.016
; #@! TA.AperFunction,Plated,PTH,ComponentDrill
T3C1.270
; #@! TA.AperFunction,Plated,PTH,ComponentDrill
T4C1.300
%
G90
G05
T1
X7.08Y-7.16
X7.08Y-9.16
X7.08Y-11.16
X7.08Y-13.16
X7.08Y-15.16
X7.08Y-22.16
X7.08Y-24.16
X7.08Y-26.16
X7.08Y-28.16
X52.3Y-26.48
X52.3Y-28.48
X52.3Y-30.48
T2
X39.11Y-5.605
X39.11Y-13.225
X41.65Y-5.605
X41.65Y-13.225
X44.19Y-5.605
X44.19Y-13.225
X46.73Y-8.145
X46.73Y-10.685
T3
X14.46Y-7.26
X14.46Y-9.8
X14.46Y-12.34
X14.46Y-14.88
X14.46Y-17.42
X14.46Y-19.96
X14.46Y-22.5
X14.46Y-25.04
X29.7Y-7.26
X29.7Y-9.8
X29.7Y-12.34
X29.7Y-14.88
X29.7Y-17.42
X29.7Y-19.96
X29.7Y-22.5
X29.7Y-25.04
T4
X15.3Y-34.065
X15.3Y-36.735
X15.3Y-39.38
X15.3Y-42.04
X15.3Y-44.71
X15.3Y-47.38
X30.87Y-34.065
X30.87Y-36.735
X30.87Y-39.413
X30.87Y-42.078
X30.87Y-44.725
X30.87Y-47.395
M30
