%TF.GenerationSoftware,KiCad,Pcbnew,9.0.2*%
%TF.CreationDate,2025-05-23T14:51:07+09:00*%
%TF.ProjectId,__,78912e6b-6963-4616-945f-706362585858,rev?*%
%TF.SameCoordinates,Original*%
%TF.FileFunction,Soldermask,Bot*%
%TF.FilePolarity,Negative*%
%FSLAX46Y46*%
G04 Gerber Fmt 4.6, Leading zero omitted, Abs format (unit mm)*
G04 Created by KiCad (PCBNEW 9.0.2) date 2025-05-23 14:51:07*
%MOMM*%
%LPD*%
G01*
G04 APERTURE LIST*
%ADD10C,1.350000*%
%ADD11C,1.905000*%
%ADD12C,2.109000*%
%ADD13C,2.082800*%
%ADD14C,0.200000*%
%ADD15C,0.400000*%
G04 APERTURE END LIST*
D10*
%TO.C,Sensors*%
X52300000Y-28480000D03*
X52300000Y-26480000D03*
X52300000Y-30480000D03*
%TD*%
D11*
%TO.C,DRV8833 Driver*%
X15300000Y-34065000D03*
X30870000Y-39412500D03*
X30870000Y-47395000D03*
X30870000Y-44725000D03*
X30870000Y-36735000D03*
X30870000Y-34065000D03*
X15300000Y-36735000D03*
X15300000Y-39380000D03*
X15300000Y-42040000D03*
X15300000Y-44710000D03*
X15300000Y-47380000D03*
X30870000Y-42077500D03*
%TD*%
D10*
%TO.C,Button*%
X7080000Y-7160000D03*
X7080000Y-9160000D03*
X7080000Y-11160000D03*
X7080000Y-13160000D03*
X7080000Y-15160000D03*
%TD*%
D12*
%TO.C,ESP32-C3
SuperMini*%
X29700000Y-25040000D03*
X29700000Y-22500000D03*
X29700000Y-19960000D03*
X29700000Y-17420000D03*
X29700000Y-12340000D03*
X29700000Y-14880000D03*
X14460000Y-7260000D03*
X29700000Y-7260000D03*
X14460000Y-9800000D03*
X14460000Y-12340000D03*
X14460000Y-14880000D03*
X14460000Y-17420000D03*
X14460000Y-19960000D03*
X14460000Y-22500000D03*
X14460000Y-25040000D03*
X29700000Y-9800000D03*
%TD*%
D10*
%TO.C,Display / I2C Bus*%
X7080000Y-22160000D03*
X7080000Y-24160000D03*
X7080000Y-26160000D03*
X7080000Y-28160000D03*
%TD*%
D13*
%TO.C,JP2*%
X44190086Y-13225260D03*
X41650086Y-13225260D03*
X39110086Y-13225260D03*
%TD*%
%TO.C,JP4*%
X44190086Y-5605260D03*
X41650086Y-5605260D03*
X39110086Y-5605260D03*
%TD*%
%TO.C,JP5*%
X46730086Y-10685260D03*
X46730086Y-8145260D03*
%TD*%
D14*
X30902500Y-39380000D02*
X38100000Y-39380000D01*
X15300000Y-34065000D02*
X19900000Y-29465000D01*
X19900000Y-29465000D02*
X19900000Y-26780000D01*
X17900000Y-33780000D02*
X21800000Y-29880000D01*
X21800000Y-26980000D02*
X26280000Y-22500000D01*
X38100000Y-39380000D02*
X38100000Y-52380000D01*
X26280000Y-22500000D02*
X29700000Y-22500000D01*
X34600000Y-42725000D02*
X34600000Y-52480000D01*
X26720000Y-19960000D02*
X29700000Y-19960000D01*
X17900000Y-44780000D02*
X17900000Y-33780000D01*
X30870000Y-42077500D02*
X33952500Y-42077500D01*
X21800000Y-29880000D02*
X21800000Y-26980000D01*
X19900000Y-26780000D02*
X26720000Y-19960000D01*
X33952500Y-42077500D02*
X34600000Y-42725000D01*
X15300000Y-47380000D02*
X17900000Y-44780000D01*
D15*
X34400000Y-9480000D02*
X34400000Y-12480000D01*
X40315346Y-9480000D02*
X34400000Y-9480000D01*
X34400000Y-12480000D02*
X38400000Y-16480000D01*
X38400000Y-16480000D02*
X52400000Y-16480000D01*
X44190086Y-5605260D02*
X40315346Y-9480000D01*
X52400000Y-19480000D02*
X39400000Y-19480000D01*
X33600000Y-8480000D02*
X39400000Y-8480000D01*
X33400000Y-13480000D02*
X33400000Y-8680000D01*
X39400000Y-19480000D02*
X33400000Y-13480000D01*
X39400000Y-8480000D02*
X41650086Y-6229914D01*
X33400000Y-8680000D02*
X33600000Y-8480000D01*
M02*
