%TF.GenerationSoftware,KiCad,Pcbnew,9.0.2*%
%TF.CreationDate,2025-05-23T14:51:07+09:00*%
%TF.ProjectId,__,78912e6b-6963-4616-945f-706362585858,rev?*%
%TF.SameCoordinates,Original*%
%TF.FileFunction,Legend,Bot*%
%TF.FilePolarity,Positive*%
%FSLAX46Y46*%
G04 Gerber Fmt 4.6, Leading zero omitted, Abs format (unit mm)*
G04 Created by KiCad (PCBNEW 9.0.2) date 2025-05-23 14:51:07*
%MOMM*%
%LPD*%
G01*
G04 APERTURE LIST*
%ADD10C,0.200000*%
%ADD11C,0.100000*%
%ADD12C,0.114300*%
%ADD13C,0.203200*%
%ADD14R,2.000000X2.000000*%
G04 APERTURE END LIST*
D10*
X19930951Y-25377219D02*
X19930951Y-24377219D01*
X19930951Y-24377219D02*
X19549999Y-24377219D01*
X19549999Y-24377219D02*
X19454761Y-24424838D01*
X19454761Y-24424838D02*
X19407142Y-24472457D01*
X19407142Y-24472457D02*
X19359523Y-24567695D01*
X19359523Y-24567695D02*
X19359523Y-24710552D01*
X19359523Y-24710552D02*
X19407142Y-24805790D01*
X19407142Y-24805790D02*
X19454761Y-24853409D01*
X19454761Y-24853409D02*
X19549999Y-24901028D01*
X19549999Y-24901028D02*
X19930951Y-24901028D01*
X19026189Y-24377219D02*
X18788094Y-25377219D01*
X18788094Y-25377219D02*
X18597618Y-24662933D01*
X18597618Y-24662933D02*
X18407142Y-25377219D01*
X18407142Y-25377219D02*
X18169047Y-24377219D01*
X17788094Y-25377219D02*
X17788094Y-24377219D01*
X17788094Y-24377219D02*
X17454761Y-25091504D01*
X17454761Y-25091504D02*
X17121428Y-24377219D01*
X17121428Y-24377219D02*
X17121428Y-25377219D01*
X16692856Y-24472457D02*
X16645237Y-24424838D01*
X16645237Y-24424838D02*
X16549999Y-24377219D01*
X16549999Y-24377219D02*
X16311904Y-24377219D01*
X16311904Y-24377219D02*
X16216666Y-24424838D01*
X16216666Y-24424838D02*
X16169047Y-24472457D01*
X16169047Y-24472457D02*
X16121428Y-24567695D01*
X16121428Y-24567695D02*
X16121428Y-24662933D01*
X16121428Y-24662933D02*
X16169047Y-24805790D01*
X16169047Y-24805790D02*
X16740475Y-25377219D01*
X16740475Y-25377219D02*
X16121428Y-25377219D01*
D11*
X15900000Y-24050000D02*
X15920000Y-24050000D01*
X16320000Y-24050000D02*
X16340000Y-24050000D01*
X16740000Y-24050000D02*
X16760000Y-24050000D01*
X17160000Y-24050000D02*
X17180000Y-24050000D01*
X17580000Y-24050000D02*
X17600000Y-24050000D01*
X18000000Y-24050000D02*
X18020000Y-24050000D01*
X18420000Y-24050000D02*
X18440000Y-24050000D01*
X18840000Y-24050000D02*
X18860000Y-24050000D01*
X19260000Y-24050000D02*
X19280000Y-24050000D01*
X19680000Y-24050000D02*
X19700000Y-24050000D01*
X20100000Y-24050000D02*
X20120000Y-24050000D01*
X20200000Y-24050000D02*
X20200000Y-24070000D01*
X20200000Y-24470000D02*
X20200000Y-24490000D01*
X20200000Y-24890000D02*
X20200000Y-24910000D01*
X20200000Y-25310000D02*
X20200000Y-25330000D01*
X20200000Y-25730000D02*
X20200000Y-25750000D01*
X20200000Y-25800000D02*
X20180000Y-25800000D01*
X19780000Y-25800000D02*
X19760000Y-25800000D01*
X19360000Y-25800000D02*
X19340000Y-25800000D01*
X18940000Y-25800000D02*
X18920000Y-25800000D01*
X18520000Y-25800000D02*
X18500000Y-25800000D01*
X18100000Y-25800000D02*
X18080000Y-25800000D01*
X17680000Y-25800000D02*
X17660000Y-25800000D01*
X17260000Y-25800000D02*
X17240000Y-25800000D01*
X16840000Y-25800000D02*
X16820000Y-25800000D01*
X16420000Y-25800000D02*
X16400000Y-25800000D01*
X16000000Y-25800000D02*
X15980000Y-25800000D01*
X15900000Y-25800000D02*
X15900000Y-25780000D01*
X15900000Y-25380000D02*
X15900000Y-25360000D01*
X15900000Y-24960000D02*
X15900000Y-24940000D01*
X15900000Y-24540000D02*
X15900000Y-24520000D01*
X15900000Y-24120000D02*
X15900000Y-24100000D01*
D10*
X19930951Y-22877219D02*
X19930951Y-21877219D01*
X19930951Y-21877219D02*
X19549999Y-21877219D01*
X19549999Y-21877219D02*
X19454761Y-21924838D01*
X19454761Y-21924838D02*
X19407142Y-21972457D01*
X19407142Y-21972457D02*
X19359523Y-22067695D01*
X19359523Y-22067695D02*
X19359523Y-22210552D01*
X19359523Y-22210552D02*
X19407142Y-22305790D01*
X19407142Y-22305790D02*
X19454761Y-22353409D01*
X19454761Y-22353409D02*
X19549999Y-22401028D01*
X19549999Y-22401028D02*
X19930951Y-22401028D01*
X19026189Y-21877219D02*
X18788094Y-22877219D01*
X18788094Y-22877219D02*
X18597618Y-22162933D01*
X18597618Y-22162933D02*
X18407142Y-22877219D01*
X18407142Y-22877219D02*
X18169047Y-21877219D01*
X17788094Y-22877219D02*
X17788094Y-21877219D01*
X17788094Y-21877219D02*
X17454761Y-22591504D01*
X17454761Y-22591504D02*
X17121428Y-21877219D01*
X17121428Y-21877219D02*
X17121428Y-22877219D01*
X16121428Y-22877219D02*
X16692856Y-22877219D01*
X16407142Y-22877219D02*
X16407142Y-21877219D01*
X16407142Y-21877219D02*
X16502380Y-22020076D01*
X16502380Y-22020076D02*
X16597618Y-22115314D01*
X16597618Y-22115314D02*
X16692856Y-22162933D01*
D11*
X15900000Y-21550000D02*
X15920000Y-21550000D01*
X16320000Y-21550000D02*
X16340000Y-21550000D01*
X16740000Y-21550000D02*
X16760000Y-21550000D01*
X17160000Y-21550000D02*
X17180000Y-21550000D01*
X17580000Y-21550000D02*
X17600000Y-21550000D01*
X18000000Y-21550000D02*
X18020000Y-21550000D01*
X18420000Y-21550000D02*
X18440000Y-21550000D01*
X18840000Y-21550000D02*
X18860000Y-21550000D01*
X19260000Y-21550000D02*
X19280000Y-21550000D01*
X19680000Y-21550000D02*
X19700000Y-21550000D01*
X20100000Y-21550000D02*
X20120000Y-21550000D01*
X20200000Y-21550000D02*
X20200000Y-21570000D01*
X20200000Y-21970000D02*
X20200000Y-21990000D01*
X20200000Y-22390000D02*
X20200000Y-22410000D01*
X20200000Y-22810000D02*
X20200000Y-22830000D01*
X20200000Y-23230000D02*
X20200000Y-23250000D01*
X20200000Y-23300000D02*
X20180000Y-23300000D01*
X19780000Y-23300000D02*
X19760000Y-23300000D01*
X19360000Y-23300000D02*
X19340000Y-23300000D01*
X18940000Y-23300000D02*
X18920000Y-23300000D01*
X18520000Y-23300000D02*
X18500000Y-23300000D01*
X18100000Y-23300000D02*
X18080000Y-23300000D01*
X17680000Y-23300000D02*
X17660000Y-23300000D01*
X17260000Y-23300000D02*
X17240000Y-23300000D01*
X16840000Y-23300000D02*
X16820000Y-23300000D01*
X16420000Y-23300000D02*
X16400000Y-23300000D01*
X16000000Y-23300000D02*
X15980000Y-23300000D01*
X15900000Y-23300000D02*
X15900000Y-23280000D01*
X15900000Y-22880000D02*
X15900000Y-22860000D01*
X15900000Y-22460000D02*
X15900000Y-22440000D01*
X15900000Y-22040000D02*
X15900000Y-22020000D01*
X15900000Y-21620000D02*
X15900000Y-21600000D01*
D10*
X18990475Y-17829600D02*
X18847618Y-17877219D01*
X18847618Y-17877219D02*
X18609523Y-17877219D01*
X18609523Y-17877219D02*
X18514285Y-17829600D01*
X18514285Y-17829600D02*
X18466666Y-17781980D01*
X18466666Y-17781980D02*
X18419047Y-17686742D01*
X18419047Y-17686742D02*
X18419047Y-17591504D01*
X18419047Y-17591504D02*
X18466666Y-17496266D01*
X18466666Y-17496266D02*
X18514285Y-17448647D01*
X18514285Y-17448647D02*
X18609523Y-17401028D01*
X18609523Y-17401028D02*
X18799999Y-17353409D01*
X18799999Y-17353409D02*
X18895237Y-17305790D01*
X18895237Y-17305790D02*
X18942856Y-17258171D01*
X18942856Y-17258171D02*
X18990475Y-17162933D01*
X18990475Y-17162933D02*
X18990475Y-17067695D01*
X18990475Y-17067695D02*
X18942856Y-16972457D01*
X18942856Y-16972457D02*
X18895237Y-16924838D01*
X18895237Y-16924838D02*
X18799999Y-16877219D01*
X18799999Y-16877219D02*
X18561904Y-16877219D01*
X18561904Y-16877219D02*
X18419047Y-16924838D01*
X17419047Y-17781980D02*
X17466666Y-17829600D01*
X17466666Y-17829600D02*
X17609523Y-17877219D01*
X17609523Y-17877219D02*
X17704761Y-17877219D01*
X17704761Y-17877219D02*
X17847618Y-17829600D01*
X17847618Y-17829600D02*
X17942856Y-17734361D01*
X17942856Y-17734361D02*
X17990475Y-17639123D01*
X17990475Y-17639123D02*
X18038094Y-17448647D01*
X18038094Y-17448647D02*
X18038094Y-17305790D01*
X18038094Y-17305790D02*
X17990475Y-17115314D01*
X17990475Y-17115314D02*
X17942856Y-17020076D01*
X17942856Y-17020076D02*
X17847618Y-16924838D01*
X17847618Y-16924838D02*
X17704761Y-16877219D01*
X17704761Y-16877219D02*
X17609523Y-16877219D01*
X17609523Y-16877219D02*
X17466666Y-16924838D01*
X17466666Y-16924838D02*
X17419047Y-16972457D01*
X16514285Y-17877219D02*
X16990475Y-17877219D01*
X16990475Y-17877219D02*
X16990475Y-16877219D01*
D11*
X16050000Y-16550000D02*
X16070000Y-16550000D01*
X16470000Y-16550000D02*
X16490000Y-16550000D01*
X16890000Y-16550000D02*
X16910000Y-16550000D01*
X17310000Y-16550000D02*
X17330000Y-16550000D01*
X17730000Y-16550000D02*
X17750000Y-16550000D01*
X18150000Y-16550000D02*
X18170000Y-16550000D01*
X18570000Y-16550000D02*
X18590000Y-16550000D01*
X18990000Y-16550000D02*
X19010000Y-16550000D01*
X19410000Y-16550000D02*
X19430000Y-16550000D01*
X19550000Y-16550000D02*
X19550000Y-16570000D01*
X19550000Y-16970000D02*
X19550000Y-16990000D01*
X19550000Y-17390000D02*
X19550000Y-17410000D01*
X19550000Y-17810000D02*
X19550000Y-17830000D01*
X19550000Y-18230000D02*
X19550000Y-18250000D01*
X19550000Y-18300000D02*
X19530000Y-18300000D01*
X19130000Y-18300000D02*
X19110000Y-18300000D01*
X18710000Y-18300000D02*
X18690000Y-18300000D01*
X18290000Y-18300000D02*
X18270000Y-18300000D01*
X17870000Y-18300000D02*
X17850000Y-18300000D01*
X17450000Y-18300000D02*
X17430000Y-18300000D01*
X17030000Y-18300000D02*
X17010000Y-18300000D01*
X16610000Y-18300000D02*
X16590000Y-18300000D01*
X16190000Y-18300000D02*
X16170000Y-18300000D01*
X16050000Y-18300000D02*
X16050000Y-18280000D01*
X16050000Y-17880000D02*
X16050000Y-17860000D01*
X16050000Y-17460000D02*
X16050000Y-17440000D01*
X16050000Y-17040000D02*
X16050000Y-17020000D01*
X16050000Y-16620000D02*
X16050000Y-16600000D01*
D10*
X19014285Y-15229600D02*
X18871428Y-15277219D01*
X18871428Y-15277219D02*
X18633333Y-15277219D01*
X18633333Y-15277219D02*
X18538095Y-15229600D01*
X18538095Y-15229600D02*
X18490476Y-15181980D01*
X18490476Y-15181980D02*
X18442857Y-15086742D01*
X18442857Y-15086742D02*
X18442857Y-14991504D01*
X18442857Y-14991504D02*
X18490476Y-14896266D01*
X18490476Y-14896266D02*
X18538095Y-14848647D01*
X18538095Y-14848647D02*
X18633333Y-14801028D01*
X18633333Y-14801028D02*
X18823809Y-14753409D01*
X18823809Y-14753409D02*
X18919047Y-14705790D01*
X18919047Y-14705790D02*
X18966666Y-14658171D01*
X18966666Y-14658171D02*
X19014285Y-14562933D01*
X19014285Y-14562933D02*
X19014285Y-14467695D01*
X19014285Y-14467695D02*
X18966666Y-14372457D01*
X18966666Y-14372457D02*
X18919047Y-14324838D01*
X18919047Y-14324838D02*
X18823809Y-14277219D01*
X18823809Y-14277219D02*
X18585714Y-14277219D01*
X18585714Y-14277219D02*
X18442857Y-14324838D01*
X18014285Y-15277219D02*
X18014285Y-14277219D01*
X18014285Y-14277219D02*
X17776190Y-14277219D01*
X17776190Y-14277219D02*
X17633333Y-14324838D01*
X17633333Y-14324838D02*
X17538095Y-14420076D01*
X17538095Y-14420076D02*
X17490476Y-14515314D01*
X17490476Y-14515314D02*
X17442857Y-14705790D01*
X17442857Y-14705790D02*
X17442857Y-14848647D01*
X17442857Y-14848647D02*
X17490476Y-15039123D01*
X17490476Y-15039123D02*
X17538095Y-15134361D01*
X17538095Y-15134361D02*
X17633333Y-15229600D01*
X17633333Y-15229600D02*
X17776190Y-15277219D01*
X17776190Y-15277219D02*
X18014285Y-15277219D01*
X17061904Y-14991504D02*
X16585714Y-14991504D01*
X17157142Y-15277219D02*
X16823809Y-14277219D01*
X16823809Y-14277219D02*
X16490476Y-15277219D01*
D11*
X16050000Y-13950000D02*
X16070000Y-13950000D01*
X16470000Y-13950000D02*
X16490000Y-13950000D01*
X16890000Y-13950000D02*
X16910000Y-13950000D01*
X17310000Y-13950000D02*
X17330000Y-13950000D01*
X17730000Y-13950000D02*
X17750000Y-13950000D01*
X18150000Y-13950000D02*
X18170000Y-13950000D01*
X18570000Y-13950000D02*
X18590000Y-13950000D01*
X18990000Y-13950000D02*
X19010000Y-13950000D01*
X19410000Y-13950000D02*
X19430000Y-13950000D01*
X19550000Y-13950000D02*
X19550000Y-13970000D01*
X19550000Y-14370000D02*
X19550000Y-14390000D01*
X19550000Y-14790000D02*
X19550000Y-14810000D01*
X19550000Y-15210000D02*
X19550000Y-15230000D01*
X19550000Y-15630000D02*
X19550000Y-15650000D01*
X19550000Y-15700000D02*
X19530000Y-15700000D01*
X19130000Y-15700000D02*
X19110000Y-15700000D01*
X18710000Y-15700000D02*
X18690000Y-15700000D01*
X18290000Y-15700000D02*
X18270000Y-15700000D01*
X17870000Y-15700000D02*
X17850000Y-15700000D01*
X17450000Y-15700000D02*
X17430000Y-15700000D01*
X17030000Y-15700000D02*
X17010000Y-15700000D01*
X16610000Y-15700000D02*
X16590000Y-15700000D01*
X16190000Y-15700000D02*
X16170000Y-15700000D01*
X16050000Y-15700000D02*
X16050000Y-15680000D01*
X16050000Y-15280000D02*
X16050000Y-15260000D01*
X16050000Y-14860000D02*
X16050000Y-14840000D01*
X16050000Y-14440000D02*
X16050000Y-14420000D01*
X16050000Y-14020000D02*
X16050000Y-14000000D01*
D10*
X17604761Y-12253409D02*
X17461904Y-12301028D01*
X17461904Y-12301028D02*
X17414285Y-12348647D01*
X17414285Y-12348647D02*
X17366666Y-12443885D01*
X17366666Y-12443885D02*
X17366666Y-12586742D01*
X17366666Y-12586742D02*
X17414285Y-12681980D01*
X17414285Y-12681980D02*
X17461904Y-12729600D01*
X17461904Y-12729600D02*
X17557142Y-12777219D01*
X17557142Y-12777219D02*
X17938094Y-12777219D01*
X17938094Y-12777219D02*
X17938094Y-11777219D01*
X17938094Y-11777219D02*
X17604761Y-11777219D01*
X17604761Y-11777219D02*
X17509523Y-11824838D01*
X17509523Y-11824838D02*
X17461904Y-11872457D01*
X17461904Y-11872457D02*
X17414285Y-11967695D01*
X17414285Y-11967695D02*
X17414285Y-12062933D01*
X17414285Y-12062933D02*
X17461904Y-12158171D01*
X17461904Y-12158171D02*
X17509523Y-12205790D01*
X17509523Y-12205790D02*
X17604761Y-12253409D01*
X17604761Y-12253409D02*
X17938094Y-12253409D01*
X17033332Y-11777219D02*
X16414285Y-11777219D01*
X16414285Y-11777219D02*
X16747618Y-12158171D01*
X16747618Y-12158171D02*
X16604761Y-12158171D01*
X16604761Y-12158171D02*
X16509523Y-12205790D01*
X16509523Y-12205790D02*
X16461904Y-12253409D01*
X16461904Y-12253409D02*
X16414285Y-12348647D01*
X16414285Y-12348647D02*
X16414285Y-12586742D01*
X16414285Y-12586742D02*
X16461904Y-12681980D01*
X16461904Y-12681980D02*
X16509523Y-12729600D01*
X16509523Y-12729600D02*
X16604761Y-12777219D01*
X16604761Y-12777219D02*
X16890475Y-12777219D01*
X16890475Y-12777219D02*
X16985713Y-12729600D01*
X16985713Y-12729600D02*
X17033332Y-12681980D01*
D11*
X16050000Y-11450000D02*
X16070000Y-11450000D01*
X16470000Y-11450000D02*
X16490000Y-11450000D01*
X16890000Y-11450000D02*
X16910000Y-11450000D01*
X17310000Y-11450000D02*
X17330000Y-11450000D01*
X17730000Y-11450000D02*
X17750000Y-11450000D01*
X18150000Y-11450000D02*
X18170000Y-11450000D01*
X18350000Y-11450000D02*
X18350000Y-11470000D01*
X18350000Y-11870000D02*
X18350000Y-11890000D01*
X18350000Y-12290000D02*
X18350000Y-12310000D01*
X18350000Y-12710000D02*
X18350000Y-12730000D01*
X18350000Y-13130000D02*
X18350000Y-13150000D01*
X18350000Y-13200000D02*
X18330000Y-13200000D01*
X17930000Y-13200000D02*
X17910000Y-13200000D01*
X17510000Y-13200000D02*
X17490000Y-13200000D01*
X17090000Y-13200000D02*
X17070000Y-13200000D01*
X16670000Y-13200000D02*
X16650000Y-13200000D01*
X16250000Y-13200000D02*
X16230000Y-13200000D01*
X16050000Y-13200000D02*
X16050000Y-13180000D01*
X16050000Y-12780000D02*
X16050000Y-12760000D01*
X16050000Y-12360000D02*
X16050000Y-12340000D01*
X16050000Y-11940000D02*
X16050000Y-11920000D01*
X16050000Y-11520000D02*
X16050000Y-11500000D01*
D10*
X17604761Y-9753409D02*
X17461904Y-9801028D01*
X17461904Y-9801028D02*
X17414285Y-9848647D01*
X17414285Y-9848647D02*
X17366666Y-9943885D01*
X17366666Y-9943885D02*
X17366666Y-10086742D01*
X17366666Y-10086742D02*
X17414285Y-10181980D01*
X17414285Y-10181980D02*
X17461904Y-10229600D01*
X17461904Y-10229600D02*
X17557142Y-10277219D01*
X17557142Y-10277219D02*
X17938094Y-10277219D01*
X17938094Y-10277219D02*
X17938094Y-9277219D01*
X17938094Y-9277219D02*
X17604761Y-9277219D01*
X17604761Y-9277219D02*
X17509523Y-9324838D01*
X17509523Y-9324838D02*
X17461904Y-9372457D01*
X17461904Y-9372457D02*
X17414285Y-9467695D01*
X17414285Y-9467695D02*
X17414285Y-9562933D01*
X17414285Y-9562933D02*
X17461904Y-9658171D01*
X17461904Y-9658171D02*
X17509523Y-9705790D01*
X17509523Y-9705790D02*
X17604761Y-9753409D01*
X17604761Y-9753409D02*
X17938094Y-9753409D01*
X16985713Y-9372457D02*
X16938094Y-9324838D01*
X16938094Y-9324838D02*
X16842856Y-9277219D01*
X16842856Y-9277219D02*
X16604761Y-9277219D01*
X16604761Y-9277219D02*
X16509523Y-9324838D01*
X16509523Y-9324838D02*
X16461904Y-9372457D01*
X16461904Y-9372457D02*
X16414285Y-9467695D01*
X16414285Y-9467695D02*
X16414285Y-9562933D01*
X16414285Y-9562933D02*
X16461904Y-9705790D01*
X16461904Y-9705790D02*
X17033332Y-10277219D01*
X17033332Y-10277219D02*
X16414285Y-10277219D01*
D11*
X16050000Y-8950000D02*
X16070000Y-8950000D01*
X16470000Y-8950000D02*
X16490000Y-8950000D01*
X16890000Y-8950000D02*
X16910000Y-8950000D01*
X17310000Y-8950000D02*
X17330000Y-8950000D01*
X17730000Y-8950000D02*
X17750000Y-8950000D01*
X18150000Y-8950000D02*
X18170000Y-8950000D01*
X18350000Y-8950000D02*
X18350000Y-8970000D01*
X18350000Y-9370000D02*
X18350000Y-9390000D01*
X18350000Y-9790000D02*
X18350000Y-9810000D01*
X18350000Y-10210000D02*
X18350000Y-10230000D01*
X18350000Y-10630000D02*
X18350000Y-10650000D01*
X18350000Y-10700000D02*
X18330000Y-10700000D01*
X17930000Y-10700000D02*
X17910000Y-10700000D01*
X17510000Y-10700000D02*
X17490000Y-10700000D01*
X17090000Y-10700000D02*
X17070000Y-10700000D01*
X16670000Y-10700000D02*
X16650000Y-10700000D01*
X16250000Y-10700000D02*
X16230000Y-10700000D01*
X16050000Y-10700000D02*
X16050000Y-10680000D01*
X16050000Y-10280000D02*
X16050000Y-10260000D01*
X16050000Y-9860000D02*
X16050000Y-9840000D01*
X16050000Y-9440000D02*
X16050000Y-9420000D01*
X16050000Y-9020000D02*
X16050000Y-9000000D01*
D10*
X17604761Y-7153409D02*
X17461904Y-7201028D01*
X17461904Y-7201028D02*
X17414285Y-7248647D01*
X17414285Y-7248647D02*
X17366666Y-7343885D01*
X17366666Y-7343885D02*
X17366666Y-7486742D01*
X17366666Y-7486742D02*
X17414285Y-7581980D01*
X17414285Y-7581980D02*
X17461904Y-7629600D01*
X17461904Y-7629600D02*
X17557142Y-7677219D01*
X17557142Y-7677219D02*
X17938094Y-7677219D01*
X17938094Y-7677219D02*
X17938094Y-6677219D01*
X17938094Y-6677219D02*
X17604761Y-6677219D01*
X17604761Y-6677219D02*
X17509523Y-6724838D01*
X17509523Y-6724838D02*
X17461904Y-6772457D01*
X17461904Y-6772457D02*
X17414285Y-6867695D01*
X17414285Y-6867695D02*
X17414285Y-6962933D01*
X17414285Y-6962933D02*
X17461904Y-7058171D01*
X17461904Y-7058171D02*
X17509523Y-7105790D01*
X17509523Y-7105790D02*
X17604761Y-7153409D01*
X17604761Y-7153409D02*
X17938094Y-7153409D01*
X16414285Y-7677219D02*
X16985713Y-7677219D01*
X16699999Y-7677219D02*
X16699999Y-6677219D01*
X16699999Y-6677219D02*
X16795237Y-6820076D01*
X16795237Y-6820076D02*
X16890475Y-6915314D01*
X16890475Y-6915314D02*
X16985713Y-6962933D01*
D11*
X16050000Y-6350000D02*
X16070000Y-6350000D01*
X16470000Y-6350000D02*
X16490000Y-6350000D01*
X16890000Y-6350000D02*
X16910000Y-6350000D01*
X17310000Y-6350000D02*
X17330000Y-6350000D01*
X17730000Y-6350000D02*
X17750000Y-6350000D01*
X18150000Y-6350000D02*
X18170000Y-6350000D01*
X18350000Y-6350000D02*
X18350000Y-6370000D01*
X18350000Y-6770000D02*
X18350000Y-6790000D01*
X18350000Y-7190000D02*
X18350000Y-7210000D01*
X18350000Y-7610000D02*
X18350000Y-7630000D01*
X18350000Y-8030000D02*
X18350000Y-8050000D01*
X18350000Y-8100000D02*
X18330000Y-8100000D01*
X17930000Y-8100000D02*
X17910000Y-8100000D01*
X17510000Y-8100000D02*
X17490000Y-8100000D01*
X17090000Y-8100000D02*
X17070000Y-8100000D01*
X16670000Y-8100000D02*
X16650000Y-8100000D01*
X16250000Y-8100000D02*
X16230000Y-8100000D01*
X16050000Y-8100000D02*
X16050000Y-8080000D01*
X16050000Y-7680000D02*
X16050000Y-7660000D01*
X16050000Y-7260000D02*
X16050000Y-7240000D01*
X16050000Y-6840000D02*
X16050000Y-6820000D01*
X16050000Y-6420000D02*
X16050000Y-6400000D01*
D10*
X34171428Y-21877219D02*
X34171428Y-22686742D01*
X34171428Y-22686742D02*
X34123809Y-22781980D01*
X34123809Y-22781980D02*
X34076190Y-22829600D01*
X34076190Y-22829600D02*
X33980952Y-22877219D01*
X33980952Y-22877219D02*
X33790476Y-22877219D01*
X33790476Y-22877219D02*
X33695238Y-22829600D01*
X33695238Y-22829600D02*
X33647619Y-22781980D01*
X33647619Y-22781980D02*
X33600000Y-22686742D01*
X33600000Y-22686742D02*
X33600000Y-21877219D01*
X32647619Y-22877219D02*
X33123809Y-22877219D01*
X33123809Y-22877219D02*
X33123809Y-21877219D01*
X32457142Y-21877219D02*
X31885714Y-21877219D01*
X32171428Y-22877219D02*
X32171428Y-21877219D01*
D11*
X31650000Y-21550000D02*
X31670000Y-21550000D01*
X32070000Y-21550000D02*
X32090000Y-21550000D01*
X32490000Y-21550000D02*
X32510000Y-21550000D01*
X32910000Y-21550000D02*
X32930000Y-21550000D01*
X33330000Y-21550000D02*
X33350000Y-21550000D01*
X33750000Y-21550000D02*
X33770000Y-21550000D01*
X34170000Y-21550000D02*
X34190000Y-21550000D01*
X34550000Y-21550000D02*
X34550000Y-21570000D01*
X34550000Y-21970000D02*
X34550000Y-21990000D01*
X34550000Y-22390000D02*
X34550000Y-22410000D01*
X34550000Y-22810000D02*
X34550000Y-22830000D01*
X34550000Y-23230000D02*
X34550000Y-23250000D01*
X34550000Y-23300000D02*
X34530000Y-23300000D01*
X34130000Y-23300000D02*
X34110000Y-23300000D01*
X33710000Y-23300000D02*
X33690000Y-23300000D01*
X33290000Y-23300000D02*
X33270000Y-23300000D01*
X32870000Y-23300000D02*
X32850000Y-23300000D01*
X32450000Y-23300000D02*
X32430000Y-23300000D01*
X32030000Y-23300000D02*
X32010000Y-23300000D01*
X31650000Y-23300000D02*
X31650000Y-23280000D01*
X31650000Y-22880000D02*
X31650000Y-22860000D01*
X31650000Y-22460000D02*
X31650000Y-22440000D01*
X31650000Y-22040000D02*
X31650000Y-22020000D01*
X31650000Y-21620000D02*
X31650000Y-21600000D01*
D10*
X34266666Y-19853409D02*
X33933333Y-19853409D01*
X33790476Y-20377219D02*
X34266666Y-20377219D01*
X34266666Y-20377219D02*
X34266666Y-19377219D01*
X34266666Y-19377219D02*
X33790476Y-19377219D01*
X33361904Y-19853409D02*
X33028571Y-19853409D01*
X32885714Y-20377219D02*
X33361904Y-20377219D01*
X33361904Y-20377219D02*
X33361904Y-19377219D01*
X33361904Y-19377219D02*
X32885714Y-19377219D01*
X32457142Y-20377219D02*
X32457142Y-19377219D01*
X32457142Y-19377219D02*
X32076190Y-19377219D01*
X32076190Y-19377219D02*
X31980952Y-19424838D01*
X31980952Y-19424838D02*
X31933333Y-19472457D01*
X31933333Y-19472457D02*
X31885714Y-19567695D01*
X31885714Y-19567695D02*
X31885714Y-19710552D01*
X31885714Y-19710552D02*
X31933333Y-19805790D01*
X31933333Y-19805790D02*
X31980952Y-19853409D01*
X31980952Y-19853409D02*
X32076190Y-19901028D01*
X32076190Y-19901028D02*
X32457142Y-19901028D01*
D11*
X31650000Y-19050000D02*
X31670000Y-19050000D01*
X32070000Y-19050000D02*
X32090000Y-19050000D01*
X32490000Y-19050000D02*
X32510000Y-19050000D01*
X32910000Y-19050000D02*
X32930000Y-19050000D01*
X33330000Y-19050000D02*
X33350000Y-19050000D01*
X33750000Y-19050000D02*
X33770000Y-19050000D01*
X34170000Y-19050000D02*
X34190000Y-19050000D01*
X34550000Y-19050000D02*
X34550000Y-19070000D01*
X34550000Y-19470000D02*
X34550000Y-19490000D01*
X34550000Y-19890000D02*
X34550000Y-19910000D01*
X34550000Y-20310000D02*
X34550000Y-20330000D01*
X34550000Y-20730000D02*
X34550000Y-20750000D01*
X34550000Y-20800000D02*
X34530000Y-20800000D01*
X34130000Y-20800000D02*
X34110000Y-20800000D01*
X33710000Y-20800000D02*
X33690000Y-20800000D01*
X33290000Y-20800000D02*
X33270000Y-20800000D01*
X32870000Y-20800000D02*
X32850000Y-20800000D01*
X32450000Y-20800000D02*
X32430000Y-20800000D01*
X32030000Y-20800000D02*
X32010000Y-20800000D01*
X31650000Y-20800000D02*
X31650000Y-20780000D01*
X31650000Y-20380000D02*
X31650000Y-20360000D01*
X31650000Y-19960000D02*
X31650000Y-19940000D01*
X31650000Y-19540000D02*
X31650000Y-19520000D01*
X31650000Y-19120000D02*
X31650000Y-19100000D01*
D10*
X27913095Y-17779600D02*
X27770238Y-17827219D01*
X27770238Y-17827219D02*
X27532143Y-17827219D01*
X27532143Y-17827219D02*
X27436905Y-17779600D01*
X27436905Y-17779600D02*
X27389286Y-17731980D01*
X27389286Y-17731980D02*
X27341667Y-17636742D01*
X27341667Y-17636742D02*
X27341667Y-17541504D01*
X27341667Y-17541504D02*
X27389286Y-17446266D01*
X27389286Y-17446266D02*
X27436905Y-17398647D01*
X27436905Y-17398647D02*
X27532143Y-17351028D01*
X27532143Y-17351028D02*
X27722619Y-17303409D01*
X27722619Y-17303409D02*
X27817857Y-17255790D01*
X27817857Y-17255790D02*
X27865476Y-17208171D01*
X27865476Y-17208171D02*
X27913095Y-17112933D01*
X27913095Y-17112933D02*
X27913095Y-17017695D01*
X27913095Y-17017695D02*
X27865476Y-16922457D01*
X27865476Y-16922457D02*
X27817857Y-16874838D01*
X27817857Y-16874838D02*
X27722619Y-16827219D01*
X27722619Y-16827219D02*
X27484524Y-16827219D01*
X27484524Y-16827219D02*
X27341667Y-16874838D01*
X26532143Y-17779600D02*
X26627381Y-17827219D01*
X26627381Y-17827219D02*
X26817857Y-17827219D01*
X26817857Y-17827219D02*
X26913095Y-17779600D01*
X26913095Y-17779600D02*
X26960714Y-17684361D01*
X26960714Y-17684361D02*
X26960714Y-17303409D01*
X26960714Y-17303409D02*
X26913095Y-17208171D01*
X26913095Y-17208171D02*
X26817857Y-17160552D01*
X26817857Y-17160552D02*
X26627381Y-17160552D01*
X26627381Y-17160552D02*
X26532143Y-17208171D01*
X26532143Y-17208171D02*
X26484524Y-17303409D01*
X26484524Y-17303409D02*
X26484524Y-17398647D01*
X26484524Y-17398647D02*
X26960714Y-17493885D01*
X26055952Y-17160552D02*
X26055952Y-17827219D01*
X26055952Y-17255790D02*
X26008333Y-17208171D01*
X26008333Y-17208171D02*
X25913095Y-17160552D01*
X25913095Y-17160552D02*
X25770238Y-17160552D01*
X25770238Y-17160552D02*
X25675000Y-17208171D01*
X25675000Y-17208171D02*
X25627381Y-17303409D01*
X25627381Y-17303409D02*
X25627381Y-17827219D01*
X25198809Y-17779600D02*
X25103571Y-17827219D01*
X25103571Y-17827219D02*
X24913095Y-17827219D01*
X24913095Y-17827219D02*
X24817857Y-17779600D01*
X24817857Y-17779600D02*
X24770238Y-17684361D01*
X24770238Y-17684361D02*
X24770238Y-17636742D01*
X24770238Y-17636742D02*
X24817857Y-17541504D01*
X24817857Y-17541504D02*
X24913095Y-17493885D01*
X24913095Y-17493885D02*
X25055952Y-17493885D01*
X25055952Y-17493885D02*
X25151190Y-17446266D01*
X25151190Y-17446266D02*
X25198809Y-17351028D01*
X25198809Y-17351028D02*
X25198809Y-17303409D01*
X25198809Y-17303409D02*
X25151190Y-17208171D01*
X25151190Y-17208171D02*
X25055952Y-17160552D01*
X25055952Y-17160552D02*
X24913095Y-17160552D01*
X24913095Y-17160552D02*
X24817857Y-17208171D01*
X24198809Y-17827219D02*
X24294047Y-17779600D01*
X24294047Y-17779600D02*
X24341666Y-17731980D01*
X24341666Y-17731980D02*
X24389285Y-17636742D01*
X24389285Y-17636742D02*
X24389285Y-17351028D01*
X24389285Y-17351028D02*
X24341666Y-17255790D01*
X24341666Y-17255790D02*
X24294047Y-17208171D01*
X24294047Y-17208171D02*
X24198809Y-17160552D01*
X24198809Y-17160552D02*
X24055952Y-17160552D01*
X24055952Y-17160552D02*
X23960714Y-17208171D01*
X23960714Y-17208171D02*
X23913095Y-17255790D01*
X23913095Y-17255790D02*
X23865476Y-17351028D01*
X23865476Y-17351028D02*
X23865476Y-17636742D01*
X23865476Y-17636742D02*
X23913095Y-17731980D01*
X23913095Y-17731980D02*
X23960714Y-17779600D01*
X23960714Y-17779600D02*
X24055952Y-17827219D01*
X24055952Y-17827219D02*
X24198809Y-17827219D01*
X23436904Y-17827219D02*
X23436904Y-17160552D01*
X23436904Y-17351028D02*
X23389285Y-17255790D01*
X23389285Y-17255790D02*
X23341666Y-17208171D01*
X23341666Y-17208171D02*
X23246428Y-17160552D01*
X23246428Y-17160552D02*
X23151190Y-17160552D01*
X22865475Y-17779600D02*
X22770237Y-17827219D01*
X22770237Y-17827219D02*
X22579761Y-17827219D01*
X22579761Y-17827219D02*
X22484523Y-17779600D01*
X22484523Y-17779600D02*
X22436904Y-17684361D01*
X22436904Y-17684361D02*
X22436904Y-17636742D01*
X22436904Y-17636742D02*
X22484523Y-17541504D01*
X22484523Y-17541504D02*
X22579761Y-17493885D01*
X22579761Y-17493885D02*
X22722618Y-17493885D01*
X22722618Y-17493885D02*
X22817856Y-17446266D01*
X22817856Y-17446266D02*
X22865475Y-17351028D01*
X22865475Y-17351028D02*
X22865475Y-17303409D01*
X22865475Y-17303409D02*
X22817856Y-17208171D01*
X22817856Y-17208171D02*
X22722618Y-17160552D01*
X22722618Y-17160552D02*
X22579761Y-17160552D01*
X22579761Y-17160552D02*
X22484523Y-17208171D01*
D11*
X22200000Y-16550000D02*
X22220000Y-16550000D01*
X22620000Y-16550000D02*
X22640000Y-16550000D01*
X23040000Y-16550000D02*
X23060000Y-16550000D01*
X23460000Y-16550000D02*
X23480000Y-16550000D01*
X23880000Y-16550000D02*
X23900000Y-16550000D01*
X24300000Y-16550000D02*
X24320000Y-16550000D01*
X24720000Y-16550000D02*
X24740000Y-16550000D01*
X25140000Y-16550000D02*
X25160000Y-16550000D01*
X25560000Y-16550000D02*
X25580000Y-16550000D01*
X25980000Y-16550000D02*
X26000000Y-16550000D01*
X26400000Y-16550000D02*
X26420000Y-16550000D01*
X26820000Y-16550000D02*
X26840000Y-16550000D01*
X27240000Y-16550000D02*
X27260000Y-16550000D01*
X27660000Y-16550000D02*
X27680000Y-16550000D01*
X28080000Y-16550000D02*
X28100000Y-16550000D01*
X28150000Y-16550000D02*
X28150000Y-16570000D01*
X28150000Y-16970000D02*
X28150000Y-16990000D01*
X28150000Y-17390000D02*
X28150000Y-17410000D01*
X28150000Y-17810000D02*
X28150000Y-17830000D01*
X28150000Y-18200000D02*
X28130000Y-18200000D01*
X27730000Y-18200000D02*
X27710000Y-18200000D01*
X27310000Y-18200000D02*
X27290000Y-18200000D01*
X26890000Y-18200000D02*
X26870000Y-18200000D01*
X26470000Y-18200000D02*
X26450000Y-18200000D01*
X26050000Y-18200000D02*
X26030000Y-18200000D01*
X25630000Y-18200000D02*
X25610000Y-18200000D01*
X25210000Y-18200000D02*
X25190000Y-18200000D01*
X24790000Y-18200000D02*
X24770000Y-18200000D01*
X24370000Y-18200000D02*
X24350000Y-18200000D01*
X23950000Y-18200000D02*
X23930000Y-18200000D01*
X23530000Y-18200000D02*
X23510000Y-18200000D01*
X23110000Y-18200000D02*
X23090000Y-18200000D01*
X22690000Y-18200000D02*
X22670000Y-18200000D01*
X22270000Y-18200000D02*
X22250000Y-18200000D01*
X22200000Y-18200000D02*
X22200000Y-18180000D01*
X22200000Y-17780000D02*
X22200000Y-17760000D01*
X22200000Y-17360000D02*
X22200000Y-17340000D01*
X22200000Y-16940000D02*
X22200000Y-16920000D01*
D10*
X27776189Y-11777219D02*
X27157142Y-11777219D01*
X27157142Y-11777219D02*
X27490475Y-12158171D01*
X27490475Y-12158171D02*
X27347618Y-12158171D01*
X27347618Y-12158171D02*
X27252380Y-12205790D01*
X27252380Y-12205790D02*
X27204761Y-12253409D01*
X27204761Y-12253409D02*
X27157142Y-12348647D01*
X27157142Y-12348647D02*
X27157142Y-12586742D01*
X27157142Y-12586742D02*
X27204761Y-12681980D01*
X27204761Y-12681980D02*
X27252380Y-12729600D01*
X27252380Y-12729600D02*
X27347618Y-12777219D01*
X27347618Y-12777219D02*
X27633332Y-12777219D01*
X27633332Y-12777219D02*
X27728570Y-12729600D01*
X27728570Y-12729600D02*
X27776189Y-12681980D01*
X26728570Y-12681980D02*
X26680951Y-12729600D01*
X26680951Y-12729600D02*
X26728570Y-12777219D01*
X26728570Y-12777219D02*
X26776189Y-12729600D01*
X26776189Y-12729600D02*
X26728570Y-12681980D01*
X26728570Y-12681980D02*
X26728570Y-12777219D01*
X26347618Y-11777219D02*
X25728571Y-11777219D01*
X25728571Y-11777219D02*
X26061904Y-12158171D01*
X26061904Y-12158171D02*
X25919047Y-12158171D01*
X25919047Y-12158171D02*
X25823809Y-12205790D01*
X25823809Y-12205790D02*
X25776190Y-12253409D01*
X25776190Y-12253409D02*
X25728571Y-12348647D01*
X25728571Y-12348647D02*
X25728571Y-12586742D01*
X25728571Y-12586742D02*
X25776190Y-12681980D01*
X25776190Y-12681980D02*
X25823809Y-12729600D01*
X25823809Y-12729600D02*
X25919047Y-12777219D01*
X25919047Y-12777219D02*
X26204761Y-12777219D01*
X26204761Y-12777219D02*
X26299999Y-12729600D01*
X26299999Y-12729600D02*
X26347618Y-12681980D01*
X25442856Y-11777219D02*
X25109523Y-12777219D01*
X25109523Y-12777219D02*
X24776190Y-11777219D01*
D11*
X24550000Y-11450000D02*
X24570000Y-11450000D01*
X24970000Y-11450000D02*
X24990000Y-11450000D01*
X25390000Y-11450000D02*
X25410000Y-11450000D01*
X25810000Y-11450000D02*
X25830000Y-11450000D01*
X26230000Y-11450000D02*
X26250000Y-11450000D01*
X26650000Y-11450000D02*
X26670000Y-11450000D01*
X27070000Y-11450000D02*
X27090000Y-11450000D01*
X27490000Y-11450000D02*
X27510000Y-11450000D01*
X27910000Y-11450000D02*
X27930000Y-11450000D01*
X28050000Y-11450000D02*
X28050000Y-11470000D01*
X28050000Y-11870000D02*
X28050000Y-11890000D01*
X28050000Y-12290000D02*
X28050000Y-12310000D01*
X28050000Y-12710000D02*
X28050000Y-12730000D01*
X28050000Y-13130000D02*
X28050000Y-13150000D01*
X28050000Y-13200000D02*
X28030000Y-13200000D01*
X27630000Y-13200000D02*
X27610000Y-13200000D01*
X27210000Y-13200000D02*
X27190000Y-13200000D01*
X26790000Y-13200000D02*
X26770000Y-13200000D01*
X26370000Y-13200000D02*
X26350000Y-13200000D01*
X25950000Y-13200000D02*
X25930000Y-13200000D01*
X25530000Y-13200000D02*
X25510000Y-13200000D01*
X25110000Y-13200000D02*
X25090000Y-13200000D01*
X24690000Y-13200000D02*
X24670000Y-13200000D01*
X24550000Y-13200000D02*
X24550000Y-13180000D01*
X24550000Y-12780000D02*
X24550000Y-12760000D01*
X24550000Y-12360000D02*
X24550000Y-12340000D01*
X24550000Y-11940000D02*
X24550000Y-11920000D01*
X24550000Y-11520000D02*
X24550000Y-11500000D01*
D10*
X50549999Y-31157219D02*
X50549999Y-30157219D01*
X50549999Y-30157219D02*
X50311904Y-30157219D01*
X50311904Y-30157219D02*
X50169047Y-30204838D01*
X50169047Y-30204838D02*
X50073809Y-30300076D01*
X50073809Y-30300076D02*
X50026190Y-30395314D01*
X50026190Y-30395314D02*
X49978571Y-30585790D01*
X49978571Y-30585790D02*
X49978571Y-30728647D01*
X49978571Y-30728647D02*
X50026190Y-30919123D01*
X50026190Y-30919123D02*
X50073809Y-31014361D01*
X50073809Y-31014361D02*
X50169047Y-31109600D01*
X50169047Y-31109600D02*
X50311904Y-31157219D01*
X50311904Y-31157219D02*
X50549999Y-31157219D01*
X49597618Y-30871504D02*
X49121428Y-30871504D01*
X49692856Y-31157219D02*
X49359523Y-30157219D01*
X49359523Y-30157219D02*
X49026190Y-31157219D01*
X48835713Y-30157219D02*
X48264285Y-30157219D01*
X48549999Y-31157219D02*
X48549999Y-30157219D01*
X47978570Y-30871504D02*
X47502380Y-30871504D01*
X48073808Y-31157219D02*
X47740475Y-30157219D01*
X47740475Y-30157219D02*
X47407142Y-31157219D01*
D11*
X47300000Y-29830000D02*
X47320000Y-29830000D01*
X47720000Y-29830000D02*
X47740000Y-29830000D01*
X48140000Y-29830000D02*
X48160000Y-29830000D01*
X48560000Y-29830000D02*
X48580000Y-29830000D01*
X48980000Y-29830000D02*
X49000000Y-29830000D01*
X49400000Y-29830000D02*
X49420000Y-29830000D01*
X49820000Y-29830000D02*
X49840000Y-29830000D01*
X50240000Y-29830000D02*
X50260000Y-29830000D01*
X50660000Y-29830000D02*
X50680000Y-29830000D01*
X50800000Y-29830000D02*
X50800000Y-29850000D01*
X50800000Y-30250000D02*
X50800000Y-30270000D01*
X50800000Y-30670000D02*
X50800000Y-30690000D01*
X50800000Y-31090000D02*
X50800000Y-31110000D01*
X50800000Y-31510000D02*
X50800000Y-31530000D01*
X50800000Y-31580000D02*
X50780000Y-31580000D01*
X50380000Y-31580000D02*
X50360000Y-31580000D01*
X49960000Y-31580000D02*
X49940000Y-31580000D01*
X49540000Y-31580000D02*
X49520000Y-31580000D01*
X49120000Y-31580000D02*
X49100000Y-31580000D01*
X48700000Y-31580000D02*
X48680000Y-31580000D01*
X48280000Y-31580000D02*
X48260000Y-31580000D01*
X47860000Y-31580000D02*
X47840000Y-31580000D01*
X47440000Y-31580000D02*
X47420000Y-31580000D01*
X47300000Y-31580000D02*
X47300000Y-31560000D01*
X47300000Y-31160000D02*
X47300000Y-31140000D01*
X47300000Y-30740000D02*
X47300000Y-30720000D01*
X47300000Y-30320000D02*
X47300000Y-30300000D01*
X47300000Y-29900000D02*
X47300000Y-29880000D01*
D10*
X50333332Y-27832219D02*
X49999999Y-28832219D01*
X49999999Y-28832219D02*
X49666666Y-27832219D01*
X48761904Y-28736980D02*
X48809523Y-28784600D01*
X48809523Y-28784600D02*
X48952380Y-28832219D01*
X48952380Y-28832219D02*
X49047618Y-28832219D01*
X49047618Y-28832219D02*
X49190475Y-28784600D01*
X49190475Y-28784600D02*
X49285713Y-28689361D01*
X49285713Y-28689361D02*
X49333332Y-28594123D01*
X49333332Y-28594123D02*
X49380951Y-28403647D01*
X49380951Y-28403647D02*
X49380951Y-28260790D01*
X49380951Y-28260790D02*
X49333332Y-28070314D01*
X49333332Y-28070314D02*
X49285713Y-27975076D01*
X49285713Y-27975076D02*
X49190475Y-27879838D01*
X49190475Y-27879838D02*
X49047618Y-27832219D01*
X49047618Y-27832219D02*
X48952380Y-27832219D01*
X48952380Y-27832219D02*
X48809523Y-27879838D01*
X48809523Y-27879838D02*
X48761904Y-27927457D01*
X47761904Y-28736980D02*
X47809523Y-28784600D01*
X47809523Y-28784600D02*
X47952380Y-28832219D01*
X47952380Y-28832219D02*
X48047618Y-28832219D01*
X48047618Y-28832219D02*
X48190475Y-28784600D01*
X48190475Y-28784600D02*
X48285713Y-28689361D01*
X48285713Y-28689361D02*
X48333332Y-28594123D01*
X48333332Y-28594123D02*
X48380951Y-28403647D01*
X48380951Y-28403647D02*
X48380951Y-28260790D01*
X48380951Y-28260790D02*
X48333332Y-28070314D01*
X48333332Y-28070314D02*
X48285713Y-27975076D01*
X48285713Y-27975076D02*
X48190475Y-27879838D01*
X48190475Y-27879838D02*
X48047618Y-27832219D01*
X48047618Y-27832219D02*
X47952380Y-27832219D01*
X47952380Y-27832219D02*
X47809523Y-27879838D01*
X47809523Y-27879838D02*
X47761904Y-27927457D01*
D11*
X47250000Y-27505000D02*
X47270000Y-27505000D01*
X47670000Y-27505000D02*
X47690000Y-27505000D01*
X48090000Y-27505000D02*
X48110000Y-27505000D01*
X48510000Y-27505000D02*
X48530000Y-27505000D01*
X48930000Y-27505000D02*
X48950000Y-27505000D01*
X49350000Y-27505000D02*
X49370000Y-27505000D01*
X49770000Y-27505000D02*
X49790000Y-27505000D01*
X50190000Y-27505000D02*
X50210000Y-27505000D01*
X50610000Y-27505000D02*
X50630000Y-27505000D01*
X50750000Y-27505000D02*
X50750000Y-27525000D01*
X50750000Y-27925000D02*
X50750000Y-27945000D01*
X50750000Y-28345000D02*
X50750000Y-28365000D01*
X50750000Y-28765000D02*
X50750000Y-28785000D01*
X50750000Y-29185000D02*
X50750000Y-29205000D01*
X50750000Y-29255000D02*
X50730000Y-29255000D01*
X50330000Y-29255000D02*
X50310000Y-29255000D01*
X49910000Y-29255000D02*
X49890000Y-29255000D01*
X49490000Y-29255000D02*
X49470000Y-29255000D01*
X49070000Y-29255000D02*
X49050000Y-29255000D01*
X48650000Y-29255000D02*
X48630000Y-29255000D01*
X48230000Y-29255000D02*
X48210000Y-29255000D01*
X47810000Y-29255000D02*
X47790000Y-29255000D01*
X47390000Y-29255000D02*
X47370000Y-29255000D01*
X47250000Y-29255000D02*
X47250000Y-29235000D01*
X47250000Y-28835000D02*
X47250000Y-28815000D01*
X47250000Y-28415000D02*
X47250000Y-28395000D01*
X47250000Y-27995000D02*
X47250000Y-27975000D01*
X47250000Y-27575000D02*
X47250000Y-27555000D01*
D10*
X49761904Y-25754838D02*
X49857142Y-25707219D01*
X49857142Y-25707219D02*
X49999999Y-25707219D01*
X49999999Y-25707219D02*
X50142856Y-25754838D01*
X50142856Y-25754838D02*
X50238094Y-25850076D01*
X50238094Y-25850076D02*
X50285713Y-25945314D01*
X50285713Y-25945314D02*
X50333332Y-26135790D01*
X50333332Y-26135790D02*
X50333332Y-26278647D01*
X50333332Y-26278647D02*
X50285713Y-26469123D01*
X50285713Y-26469123D02*
X50238094Y-26564361D01*
X50238094Y-26564361D02*
X50142856Y-26659600D01*
X50142856Y-26659600D02*
X49999999Y-26707219D01*
X49999999Y-26707219D02*
X49904761Y-26707219D01*
X49904761Y-26707219D02*
X49761904Y-26659600D01*
X49761904Y-26659600D02*
X49714285Y-26611980D01*
X49714285Y-26611980D02*
X49714285Y-26278647D01*
X49714285Y-26278647D02*
X49904761Y-26278647D01*
X49285713Y-26707219D02*
X49285713Y-25707219D01*
X49285713Y-25707219D02*
X48714285Y-26707219D01*
X48714285Y-26707219D02*
X48714285Y-25707219D01*
X48238094Y-26707219D02*
X48238094Y-25707219D01*
X48238094Y-25707219D02*
X47999999Y-25707219D01*
X47999999Y-25707219D02*
X47857142Y-25754838D01*
X47857142Y-25754838D02*
X47761904Y-25850076D01*
X47761904Y-25850076D02*
X47714285Y-25945314D01*
X47714285Y-25945314D02*
X47666666Y-26135790D01*
X47666666Y-26135790D02*
X47666666Y-26278647D01*
X47666666Y-26278647D02*
X47714285Y-26469123D01*
X47714285Y-26469123D02*
X47761904Y-26564361D01*
X47761904Y-26564361D02*
X47857142Y-26659600D01*
X47857142Y-26659600D02*
X47999999Y-26707219D01*
X47999999Y-26707219D02*
X48238094Y-26707219D01*
D11*
X47250000Y-25380000D02*
X47270000Y-25380000D01*
X47670000Y-25380000D02*
X47690000Y-25380000D01*
X48090000Y-25380000D02*
X48110000Y-25380000D01*
X48510000Y-25380000D02*
X48530000Y-25380000D01*
X48930000Y-25380000D02*
X48950000Y-25380000D01*
X49350000Y-25380000D02*
X49370000Y-25380000D01*
X49770000Y-25380000D02*
X49790000Y-25380000D01*
X50190000Y-25380000D02*
X50210000Y-25380000D01*
X50610000Y-25380000D02*
X50630000Y-25380000D01*
X50750000Y-25380000D02*
X50750000Y-25400000D01*
X50750000Y-25800000D02*
X50750000Y-25820000D01*
X50750000Y-26220000D02*
X50750000Y-26240000D01*
X50750000Y-26640000D02*
X50750000Y-26660000D01*
X50750000Y-27060000D02*
X50750000Y-27080000D01*
X50750000Y-27130000D02*
X50730000Y-27130000D01*
X50330000Y-27130000D02*
X50310000Y-27130000D01*
X49910000Y-27130000D02*
X49890000Y-27130000D01*
X49490000Y-27130000D02*
X49470000Y-27130000D01*
X49070000Y-27130000D02*
X49050000Y-27130000D01*
X48650000Y-27130000D02*
X48630000Y-27130000D01*
X48230000Y-27130000D02*
X48210000Y-27130000D01*
X47810000Y-27130000D02*
X47790000Y-27130000D01*
X47390000Y-27130000D02*
X47370000Y-27130000D01*
X47250000Y-27130000D02*
X47250000Y-27110000D01*
X47250000Y-26710000D02*
X47250000Y-26690000D01*
X47250000Y-26290000D02*
X47250000Y-26270000D01*
X47250000Y-25870000D02*
X47250000Y-25850000D01*
X47250000Y-25450000D02*
X47250000Y-25430000D01*
D10*
X4536904Y-6604838D02*
X4632142Y-6557219D01*
X4632142Y-6557219D02*
X4774999Y-6557219D01*
X4774999Y-6557219D02*
X4917856Y-6604838D01*
X4917856Y-6604838D02*
X5013094Y-6700076D01*
X5013094Y-6700076D02*
X5060713Y-6795314D01*
X5060713Y-6795314D02*
X5108332Y-6985790D01*
X5108332Y-6985790D02*
X5108332Y-7128647D01*
X5108332Y-7128647D02*
X5060713Y-7319123D01*
X5060713Y-7319123D02*
X5013094Y-7414361D01*
X5013094Y-7414361D02*
X4917856Y-7509600D01*
X4917856Y-7509600D02*
X4774999Y-7557219D01*
X4774999Y-7557219D02*
X4679761Y-7557219D01*
X4679761Y-7557219D02*
X4536904Y-7509600D01*
X4536904Y-7509600D02*
X4489285Y-7461980D01*
X4489285Y-7461980D02*
X4489285Y-7128647D01*
X4489285Y-7128647D02*
X4679761Y-7128647D01*
X4060713Y-7557219D02*
X4060713Y-6557219D01*
X4060713Y-6557219D02*
X3489285Y-7557219D01*
X3489285Y-7557219D02*
X3489285Y-6557219D01*
X3013094Y-7557219D02*
X3013094Y-6557219D01*
X3013094Y-6557219D02*
X2774999Y-6557219D01*
X2774999Y-6557219D02*
X2632142Y-6604838D01*
X2632142Y-6604838D02*
X2536904Y-6700076D01*
X2536904Y-6700076D02*
X2489285Y-6795314D01*
X2489285Y-6795314D02*
X2441666Y-6985790D01*
X2441666Y-6985790D02*
X2441666Y-7128647D01*
X2441666Y-7128647D02*
X2489285Y-7319123D01*
X2489285Y-7319123D02*
X2536904Y-7414361D01*
X2536904Y-7414361D02*
X2632142Y-7509600D01*
X2632142Y-7509600D02*
X2774999Y-7557219D01*
X2774999Y-7557219D02*
X3013094Y-7557219D01*
D11*
X2025000Y-6230000D02*
X2045000Y-6230000D01*
X2445000Y-6230000D02*
X2465000Y-6230000D01*
X2865000Y-6230000D02*
X2885000Y-6230000D01*
X3285000Y-6230000D02*
X3305000Y-6230000D01*
X3705000Y-6230000D02*
X3725000Y-6230000D01*
X4125000Y-6230000D02*
X4145000Y-6230000D01*
X4545000Y-6230000D02*
X4565000Y-6230000D01*
X4965000Y-6230000D02*
X4985000Y-6230000D01*
X5385000Y-6230000D02*
X5405000Y-6230000D01*
X5525000Y-6230000D02*
X5525000Y-6250000D01*
X5525000Y-6650000D02*
X5525000Y-6670000D01*
X5525000Y-7070000D02*
X5525000Y-7090000D01*
X5525000Y-7490000D02*
X5525000Y-7510000D01*
X5525000Y-7910000D02*
X5525000Y-7930000D01*
X5525000Y-7980000D02*
X5505000Y-7980000D01*
X5105000Y-7980000D02*
X5085000Y-7980000D01*
X4685000Y-7980000D02*
X4665000Y-7980000D01*
X4265000Y-7980000D02*
X4245000Y-7980000D01*
X3845000Y-7980000D02*
X3825000Y-7980000D01*
X3425000Y-7980000D02*
X3405000Y-7980000D01*
X3005000Y-7980000D02*
X2985000Y-7980000D01*
X2585000Y-7980000D02*
X2565000Y-7980000D01*
X2165000Y-7980000D02*
X2145000Y-7980000D01*
X2025000Y-7980000D02*
X2025000Y-7960000D01*
X2025000Y-7560000D02*
X2025000Y-7540000D01*
X2025000Y-7140000D02*
X2025000Y-7120000D01*
X2025000Y-6720000D02*
X2025000Y-6700000D01*
X2025000Y-6300000D02*
X2025000Y-6280000D01*
D10*
X5179761Y-11557219D02*
X5179761Y-10557219D01*
X5179761Y-10938171D02*
X5084523Y-10890552D01*
X5084523Y-10890552D02*
X4894047Y-10890552D01*
X4894047Y-10890552D02*
X4798809Y-10938171D01*
X4798809Y-10938171D02*
X4751190Y-10985790D01*
X4751190Y-10985790D02*
X4703571Y-11081028D01*
X4703571Y-11081028D02*
X4703571Y-11366742D01*
X4703571Y-11366742D02*
X4751190Y-11461980D01*
X4751190Y-11461980D02*
X4798809Y-11509600D01*
X4798809Y-11509600D02*
X4894047Y-11557219D01*
X4894047Y-11557219D02*
X5084523Y-11557219D01*
X5084523Y-11557219D02*
X5179761Y-11509600D01*
X4132142Y-11557219D02*
X4227380Y-11509600D01*
X4227380Y-11509600D02*
X4274999Y-11461980D01*
X4274999Y-11461980D02*
X4322618Y-11366742D01*
X4322618Y-11366742D02*
X4322618Y-11081028D01*
X4322618Y-11081028D02*
X4274999Y-10985790D01*
X4274999Y-10985790D02*
X4227380Y-10938171D01*
X4227380Y-10938171D02*
X4132142Y-10890552D01*
X4132142Y-10890552D02*
X3989285Y-10890552D01*
X3989285Y-10890552D02*
X3894047Y-10938171D01*
X3894047Y-10938171D02*
X3846428Y-10985790D01*
X3846428Y-10985790D02*
X3798809Y-11081028D01*
X3798809Y-11081028D02*
X3798809Y-11366742D01*
X3798809Y-11366742D02*
X3846428Y-11461980D01*
X3846428Y-11461980D02*
X3894047Y-11509600D01*
X3894047Y-11509600D02*
X3989285Y-11557219D01*
X3989285Y-11557219D02*
X4132142Y-11557219D01*
X3227380Y-11557219D02*
X3322618Y-11509600D01*
X3322618Y-11509600D02*
X3370237Y-11461980D01*
X3370237Y-11461980D02*
X3417856Y-11366742D01*
X3417856Y-11366742D02*
X3417856Y-11081028D01*
X3417856Y-11081028D02*
X3370237Y-10985790D01*
X3370237Y-10985790D02*
X3322618Y-10938171D01*
X3322618Y-10938171D02*
X3227380Y-10890552D01*
X3227380Y-10890552D02*
X3084523Y-10890552D01*
X3084523Y-10890552D02*
X2989285Y-10938171D01*
X2989285Y-10938171D02*
X2941666Y-10985790D01*
X2941666Y-10985790D02*
X2894047Y-11081028D01*
X2894047Y-11081028D02*
X2894047Y-11366742D01*
X2894047Y-11366742D02*
X2941666Y-11461980D01*
X2941666Y-11461980D02*
X2989285Y-11509600D01*
X2989285Y-11509600D02*
X3084523Y-11557219D01*
X3084523Y-11557219D02*
X3227380Y-11557219D01*
X2608332Y-10890552D02*
X2227380Y-10890552D01*
X2465475Y-10557219D02*
X2465475Y-11414361D01*
X2465475Y-11414361D02*
X2417856Y-11509600D01*
X2417856Y-11509600D02*
X2322618Y-11557219D01*
X2322618Y-11557219D02*
X2227380Y-11557219D01*
D11*
X2025000Y-10230000D02*
X2045000Y-10230000D01*
X2445000Y-10230000D02*
X2465000Y-10230000D01*
X2865000Y-10230000D02*
X2885000Y-10230000D01*
X3285000Y-10230000D02*
X3305000Y-10230000D01*
X3705000Y-10230000D02*
X3725000Y-10230000D01*
X4125000Y-10230000D02*
X4145000Y-10230000D01*
X4545000Y-10230000D02*
X4565000Y-10230000D01*
X4965000Y-10230000D02*
X4985000Y-10230000D01*
X5385000Y-10230000D02*
X5405000Y-10230000D01*
X5525000Y-10230000D02*
X5525000Y-10250000D01*
X5525000Y-10650000D02*
X5525000Y-10670000D01*
X5525000Y-11070000D02*
X5525000Y-11090000D01*
X5525000Y-11490000D02*
X5525000Y-11510000D01*
X5525000Y-11910000D02*
X5525000Y-11930000D01*
X5525000Y-11980000D02*
X5505000Y-11980000D01*
X5105000Y-11980000D02*
X5085000Y-11980000D01*
X4685000Y-11980000D02*
X4665000Y-11980000D01*
X4265000Y-11980000D02*
X4245000Y-11980000D01*
X3845000Y-11980000D02*
X3825000Y-11980000D01*
X3425000Y-11980000D02*
X3405000Y-11980000D01*
X3005000Y-11980000D02*
X2985000Y-11980000D01*
X2585000Y-11980000D02*
X2565000Y-11980000D01*
X2165000Y-11980000D02*
X2145000Y-11980000D01*
X2025000Y-11980000D02*
X2025000Y-11960000D01*
X2025000Y-11560000D02*
X2025000Y-11540000D01*
X2025000Y-11140000D02*
X2025000Y-11120000D01*
X2025000Y-10720000D02*
X2025000Y-10700000D01*
X2025000Y-10300000D02*
X2025000Y-10280000D01*
D10*
X4833332Y-23307219D02*
X4499999Y-24307219D01*
X4499999Y-24307219D02*
X4166666Y-23307219D01*
X3261904Y-24211980D02*
X3309523Y-24259600D01*
X3309523Y-24259600D02*
X3452380Y-24307219D01*
X3452380Y-24307219D02*
X3547618Y-24307219D01*
X3547618Y-24307219D02*
X3690475Y-24259600D01*
X3690475Y-24259600D02*
X3785713Y-24164361D01*
X3785713Y-24164361D02*
X3833332Y-24069123D01*
X3833332Y-24069123D02*
X3880951Y-23878647D01*
X3880951Y-23878647D02*
X3880951Y-23735790D01*
X3880951Y-23735790D02*
X3833332Y-23545314D01*
X3833332Y-23545314D02*
X3785713Y-23450076D01*
X3785713Y-23450076D02*
X3690475Y-23354838D01*
X3690475Y-23354838D02*
X3547618Y-23307219D01*
X3547618Y-23307219D02*
X3452380Y-23307219D01*
X3452380Y-23307219D02*
X3309523Y-23354838D01*
X3309523Y-23354838D02*
X3261904Y-23402457D01*
X2261904Y-24211980D02*
X2309523Y-24259600D01*
X2309523Y-24259600D02*
X2452380Y-24307219D01*
X2452380Y-24307219D02*
X2547618Y-24307219D01*
X2547618Y-24307219D02*
X2690475Y-24259600D01*
X2690475Y-24259600D02*
X2785713Y-24164361D01*
X2785713Y-24164361D02*
X2833332Y-24069123D01*
X2833332Y-24069123D02*
X2880951Y-23878647D01*
X2880951Y-23878647D02*
X2880951Y-23735790D01*
X2880951Y-23735790D02*
X2833332Y-23545314D01*
X2833332Y-23545314D02*
X2785713Y-23450076D01*
X2785713Y-23450076D02*
X2690475Y-23354838D01*
X2690475Y-23354838D02*
X2547618Y-23307219D01*
X2547618Y-23307219D02*
X2452380Y-23307219D01*
X2452380Y-23307219D02*
X2309523Y-23354838D01*
X2309523Y-23354838D02*
X2261904Y-23402457D01*
D11*
X1750000Y-22980000D02*
X1770000Y-22980000D01*
X2170000Y-22980000D02*
X2190000Y-22980000D01*
X2590000Y-22980000D02*
X2610000Y-22980000D01*
X3010000Y-22980000D02*
X3030000Y-22980000D01*
X3430000Y-22980000D02*
X3450000Y-22980000D01*
X3850000Y-22980000D02*
X3870000Y-22980000D01*
X4270000Y-22980000D02*
X4290000Y-22980000D01*
X4690000Y-22980000D02*
X4710000Y-22980000D01*
X5110000Y-22980000D02*
X5130000Y-22980000D01*
X5250000Y-22980000D02*
X5250000Y-23000000D01*
X5250000Y-23400000D02*
X5250000Y-23420000D01*
X5250000Y-23820000D02*
X5250000Y-23840000D01*
X5250000Y-24240000D02*
X5250000Y-24260000D01*
X5250000Y-24660000D02*
X5250000Y-24680000D01*
X5250000Y-24730000D02*
X5230000Y-24730000D01*
X4830000Y-24730000D02*
X4810000Y-24730000D01*
X4410000Y-24730000D02*
X4390000Y-24730000D01*
X3990000Y-24730000D02*
X3970000Y-24730000D01*
X3570000Y-24730000D02*
X3550000Y-24730000D01*
X3150000Y-24730000D02*
X3130000Y-24730000D01*
X2730000Y-24730000D02*
X2710000Y-24730000D01*
X2310000Y-24730000D02*
X2290000Y-24730000D01*
X1890000Y-24730000D02*
X1870000Y-24730000D01*
X1750000Y-24730000D02*
X1750000Y-24710000D01*
X1750000Y-24310000D02*
X1750000Y-24290000D01*
X1750000Y-23890000D02*
X1750000Y-23870000D01*
X1750000Y-23470000D02*
X1750000Y-23450000D01*
X1750000Y-23050000D02*
X1750000Y-23030000D01*
D10*
X53883332Y-11307219D02*
X53549999Y-12307219D01*
X53549999Y-12307219D02*
X53216666Y-11307219D01*
X52311904Y-12211980D02*
X52359523Y-12259600D01*
X52359523Y-12259600D02*
X52502380Y-12307219D01*
X52502380Y-12307219D02*
X52597618Y-12307219D01*
X52597618Y-12307219D02*
X52740475Y-12259600D01*
X52740475Y-12259600D02*
X52835713Y-12164361D01*
X52835713Y-12164361D02*
X52883332Y-12069123D01*
X52883332Y-12069123D02*
X52930951Y-11878647D01*
X52930951Y-11878647D02*
X52930951Y-11735790D01*
X52930951Y-11735790D02*
X52883332Y-11545314D01*
X52883332Y-11545314D02*
X52835713Y-11450076D01*
X52835713Y-11450076D02*
X52740475Y-11354838D01*
X52740475Y-11354838D02*
X52597618Y-11307219D01*
X52597618Y-11307219D02*
X52502380Y-11307219D01*
X52502380Y-11307219D02*
X52359523Y-11354838D01*
X52359523Y-11354838D02*
X52311904Y-11402457D01*
X51311904Y-12211980D02*
X51359523Y-12259600D01*
X51359523Y-12259600D02*
X51502380Y-12307219D01*
X51502380Y-12307219D02*
X51597618Y-12307219D01*
X51597618Y-12307219D02*
X51740475Y-12259600D01*
X51740475Y-12259600D02*
X51835713Y-12164361D01*
X51835713Y-12164361D02*
X51883332Y-12069123D01*
X51883332Y-12069123D02*
X51930951Y-11878647D01*
X51930951Y-11878647D02*
X51930951Y-11735790D01*
X51930951Y-11735790D02*
X51883332Y-11545314D01*
X51883332Y-11545314D02*
X51835713Y-11450076D01*
X51835713Y-11450076D02*
X51740475Y-11354838D01*
X51740475Y-11354838D02*
X51597618Y-11307219D01*
X51597618Y-11307219D02*
X51502380Y-11307219D01*
X51502380Y-11307219D02*
X51359523Y-11354838D01*
X51359523Y-11354838D02*
X51311904Y-11402457D01*
D11*
X50800000Y-10980000D02*
X54300000Y-10980000D01*
X54300000Y-12730000D01*
X50800000Y-12730000D01*
X50800000Y-10980000D01*
D10*
X4740475Y-28709600D02*
X4597618Y-28757219D01*
X4597618Y-28757219D02*
X4359523Y-28757219D01*
X4359523Y-28757219D02*
X4264285Y-28709600D01*
X4264285Y-28709600D02*
X4216666Y-28661980D01*
X4216666Y-28661980D02*
X4169047Y-28566742D01*
X4169047Y-28566742D02*
X4169047Y-28471504D01*
X4169047Y-28471504D02*
X4216666Y-28376266D01*
X4216666Y-28376266D02*
X4264285Y-28328647D01*
X4264285Y-28328647D02*
X4359523Y-28281028D01*
X4359523Y-28281028D02*
X4549999Y-28233409D01*
X4549999Y-28233409D02*
X4645237Y-28185790D01*
X4645237Y-28185790D02*
X4692856Y-28138171D01*
X4692856Y-28138171D02*
X4740475Y-28042933D01*
X4740475Y-28042933D02*
X4740475Y-27947695D01*
X4740475Y-27947695D02*
X4692856Y-27852457D01*
X4692856Y-27852457D02*
X4645237Y-27804838D01*
X4645237Y-27804838D02*
X4549999Y-27757219D01*
X4549999Y-27757219D02*
X4311904Y-27757219D01*
X4311904Y-27757219D02*
X4169047Y-27804838D01*
X3169047Y-28661980D02*
X3216666Y-28709600D01*
X3216666Y-28709600D02*
X3359523Y-28757219D01*
X3359523Y-28757219D02*
X3454761Y-28757219D01*
X3454761Y-28757219D02*
X3597618Y-28709600D01*
X3597618Y-28709600D02*
X3692856Y-28614361D01*
X3692856Y-28614361D02*
X3740475Y-28519123D01*
X3740475Y-28519123D02*
X3788094Y-28328647D01*
X3788094Y-28328647D02*
X3788094Y-28185790D01*
X3788094Y-28185790D02*
X3740475Y-27995314D01*
X3740475Y-27995314D02*
X3692856Y-27900076D01*
X3692856Y-27900076D02*
X3597618Y-27804838D01*
X3597618Y-27804838D02*
X3454761Y-27757219D01*
X3454761Y-27757219D02*
X3359523Y-27757219D01*
X3359523Y-27757219D02*
X3216666Y-27804838D01*
X3216666Y-27804838D02*
X3169047Y-27852457D01*
X2264285Y-28757219D02*
X2740475Y-28757219D01*
X2740475Y-28757219D02*
X2740475Y-27757219D01*
D11*
X1800000Y-27430000D02*
X1820000Y-27430000D01*
X2220000Y-27430000D02*
X2240000Y-27430000D01*
X2640000Y-27430000D02*
X2660000Y-27430000D01*
X3060000Y-27430000D02*
X3080000Y-27430000D01*
X3480000Y-27430000D02*
X3500000Y-27430000D01*
X3900000Y-27430000D02*
X3920000Y-27430000D01*
X4320000Y-27430000D02*
X4340000Y-27430000D01*
X4740000Y-27430000D02*
X4760000Y-27430000D01*
X5160000Y-27430000D02*
X5180000Y-27430000D01*
X5300000Y-27430000D02*
X5300000Y-27450000D01*
X5300000Y-27850000D02*
X5300000Y-27870000D01*
X5300000Y-28270000D02*
X5300000Y-28290000D01*
X5300000Y-28690000D02*
X5300000Y-28710000D01*
X5300000Y-29110000D02*
X5300000Y-29130000D01*
X5300000Y-29180000D02*
X5280000Y-29180000D01*
X4880000Y-29180000D02*
X4860000Y-29180000D01*
X4460000Y-29180000D02*
X4440000Y-29180000D01*
X4040000Y-29180000D02*
X4020000Y-29180000D01*
X3620000Y-29180000D02*
X3600000Y-29180000D01*
X3200000Y-29180000D02*
X3180000Y-29180000D01*
X2780000Y-29180000D02*
X2760000Y-29180000D01*
X2360000Y-29180000D02*
X2340000Y-29180000D01*
X1940000Y-29180000D02*
X1920000Y-29180000D01*
X1800000Y-29180000D02*
X1800000Y-29160000D01*
X1800000Y-28760000D02*
X1800000Y-28740000D01*
X1800000Y-28340000D02*
X1800000Y-28320000D01*
X1800000Y-27920000D02*
X1800000Y-27900000D01*
X1800000Y-27500000D02*
X1800000Y-27480000D01*
D10*
X4560713Y-12557219D02*
X4560713Y-13366742D01*
X4560713Y-13366742D02*
X4513094Y-13461980D01*
X4513094Y-13461980D02*
X4465475Y-13509600D01*
X4465475Y-13509600D02*
X4370237Y-13557219D01*
X4370237Y-13557219D02*
X4179761Y-13557219D01*
X4179761Y-13557219D02*
X4084523Y-13509600D01*
X4084523Y-13509600D02*
X4036904Y-13461980D01*
X4036904Y-13461980D02*
X3989285Y-13366742D01*
X3989285Y-13366742D02*
X3989285Y-12557219D01*
X3513094Y-13557219D02*
X3513094Y-12557219D01*
X3513094Y-12557219D02*
X3132142Y-12557219D01*
X3132142Y-12557219D02*
X3036904Y-12604838D01*
X3036904Y-12604838D02*
X2989285Y-12652457D01*
X2989285Y-12652457D02*
X2941666Y-12747695D01*
X2941666Y-12747695D02*
X2941666Y-12890552D01*
X2941666Y-12890552D02*
X2989285Y-12985790D01*
X2989285Y-12985790D02*
X3036904Y-13033409D01*
X3036904Y-13033409D02*
X3132142Y-13081028D01*
X3132142Y-13081028D02*
X3513094Y-13081028D01*
D11*
X2025000Y-12230000D02*
X2045000Y-12230000D01*
X2445000Y-12230000D02*
X2465000Y-12230000D01*
X2865000Y-12230000D02*
X2885000Y-12230000D01*
X3285000Y-12230000D02*
X3305000Y-12230000D01*
X3705000Y-12230000D02*
X3725000Y-12230000D01*
X4125000Y-12230000D02*
X4145000Y-12230000D01*
X4545000Y-12230000D02*
X4565000Y-12230000D01*
X4965000Y-12230000D02*
X4985000Y-12230000D01*
X5385000Y-12230000D02*
X5405000Y-12230000D01*
X5525000Y-12230000D02*
X5525000Y-12250000D01*
X5525000Y-12650000D02*
X5525000Y-12670000D01*
X5525000Y-13070000D02*
X5525000Y-13090000D01*
X5525000Y-13490000D02*
X5525000Y-13510000D01*
X5525000Y-13910000D02*
X5525000Y-13930000D01*
X5525000Y-13980000D02*
X5505000Y-13980000D01*
X5105000Y-13980000D02*
X5085000Y-13980000D01*
X4685000Y-13980000D02*
X4665000Y-13980000D01*
X4265000Y-13980000D02*
X4245000Y-13980000D01*
X3845000Y-13980000D02*
X3825000Y-13980000D01*
X3425000Y-13980000D02*
X3405000Y-13980000D01*
X3005000Y-13980000D02*
X2985000Y-13980000D01*
X2585000Y-13980000D02*
X2565000Y-13980000D01*
X2165000Y-13980000D02*
X2145000Y-13980000D01*
X2025000Y-13980000D02*
X2025000Y-13960000D01*
X2025000Y-13560000D02*
X2025000Y-13540000D01*
X2025000Y-13140000D02*
X2025000Y-13120000D01*
X2025000Y-12720000D02*
X2025000Y-12700000D01*
X2025000Y-12300000D02*
X2025000Y-12280000D01*
D10*
X26340476Y-6732219D02*
X26816666Y-6732219D01*
X26816666Y-6732219D02*
X26864285Y-7208409D01*
X26864285Y-7208409D02*
X26816666Y-7160790D01*
X26816666Y-7160790D02*
X26721428Y-7113171D01*
X26721428Y-7113171D02*
X26483333Y-7113171D01*
X26483333Y-7113171D02*
X26388095Y-7160790D01*
X26388095Y-7160790D02*
X26340476Y-7208409D01*
X26340476Y-7208409D02*
X26292857Y-7303647D01*
X26292857Y-7303647D02*
X26292857Y-7541742D01*
X26292857Y-7541742D02*
X26340476Y-7636980D01*
X26340476Y-7636980D02*
X26388095Y-7684600D01*
X26388095Y-7684600D02*
X26483333Y-7732219D01*
X26483333Y-7732219D02*
X26721428Y-7732219D01*
X26721428Y-7732219D02*
X26816666Y-7684600D01*
X26816666Y-7684600D02*
X26864285Y-7636980D01*
X26007142Y-6732219D02*
X25673809Y-7732219D01*
X25673809Y-7732219D02*
X25340476Y-6732219D01*
D11*
X24400000Y-6405000D02*
X24420000Y-6405000D01*
X24820000Y-6405000D02*
X24840000Y-6405000D01*
X25240000Y-6405000D02*
X25260000Y-6405000D01*
X25660000Y-6405000D02*
X25680000Y-6405000D01*
X26080000Y-6405000D02*
X26100000Y-6405000D01*
X26500000Y-6405000D02*
X26520000Y-6405000D01*
X26920000Y-6405000D02*
X26940000Y-6405000D01*
X27340000Y-6405000D02*
X27360000Y-6405000D01*
X27760000Y-6405000D02*
X27780000Y-6405000D01*
X27900000Y-6405000D02*
X27900000Y-6425000D01*
X27900000Y-6825000D02*
X27900000Y-6845000D01*
X27900000Y-7245000D02*
X27900000Y-7265000D01*
X27900000Y-7665000D02*
X27900000Y-7685000D01*
X27900000Y-8085000D02*
X27900000Y-8105000D01*
X27900000Y-8155000D02*
X27880000Y-8155000D01*
X27480000Y-8155000D02*
X27460000Y-8155000D01*
X27060000Y-8155000D02*
X27040000Y-8155000D01*
X26640000Y-8155000D02*
X26620000Y-8155000D01*
X26220000Y-8155000D02*
X26200000Y-8155000D01*
X25800000Y-8155000D02*
X25780000Y-8155000D01*
X25380000Y-8155000D02*
X25360000Y-8155000D01*
X24960000Y-8155000D02*
X24940000Y-8155000D01*
X24540000Y-8155000D02*
X24520000Y-8155000D01*
X24400000Y-8155000D02*
X24400000Y-8135000D01*
X24400000Y-7735000D02*
X24400000Y-7715000D01*
X24400000Y-7315000D02*
X24400000Y-7295000D01*
X24400000Y-6895000D02*
X24400000Y-6875000D01*
X24400000Y-6475000D02*
X24400000Y-6455000D01*
D10*
X53311904Y-13479838D02*
X53407142Y-13432219D01*
X53407142Y-13432219D02*
X53549999Y-13432219D01*
X53549999Y-13432219D02*
X53692856Y-13479838D01*
X53692856Y-13479838D02*
X53788094Y-13575076D01*
X53788094Y-13575076D02*
X53835713Y-13670314D01*
X53835713Y-13670314D02*
X53883332Y-13860790D01*
X53883332Y-13860790D02*
X53883332Y-14003647D01*
X53883332Y-14003647D02*
X53835713Y-14194123D01*
X53835713Y-14194123D02*
X53788094Y-14289361D01*
X53788094Y-14289361D02*
X53692856Y-14384600D01*
X53692856Y-14384600D02*
X53549999Y-14432219D01*
X53549999Y-14432219D02*
X53454761Y-14432219D01*
X53454761Y-14432219D02*
X53311904Y-14384600D01*
X53311904Y-14384600D02*
X53264285Y-14336980D01*
X53264285Y-14336980D02*
X53264285Y-14003647D01*
X53264285Y-14003647D02*
X53454761Y-14003647D01*
X52835713Y-14432219D02*
X52835713Y-13432219D01*
X52835713Y-13432219D02*
X52264285Y-14432219D01*
X52264285Y-14432219D02*
X52264285Y-13432219D01*
X51788094Y-14432219D02*
X51788094Y-13432219D01*
X51788094Y-13432219D02*
X51549999Y-13432219D01*
X51549999Y-13432219D02*
X51407142Y-13479838D01*
X51407142Y-13479838D02*
X51311904Y-13575076D01*
X51311904Y-13575076D02*
X51264285Y-13670314D01*
X51264285Y-13670314D02*
X51216666Y-13860790D01*
X51216666Y-13860790D02*
X51216666Y-14003647D01*
X51216666Y-14003647D02*
X51264285Y-14194123D01*
X51264285Y-14194123D02*
X51311904Y-14289361D01*
X51311904Y-14289361D02*
X51407142Y-14384600D01*
X51407142Y-14384600D02*
X51549999Y-14432219D01*
X51549999Y-14432219D02*
X51788094Y-14432219D01*
D11*
X50800000Y-13105000D02*
X54300000Y-13105000D01*
X54300000Y-14855000D01*
X50800000Y-14855000D01*
X50800000Y-13105000D01*
D10*
X5655951Y-15557219D02*
X5655951Y-14557219D01*
X5655951Y-14557219D02*
X5417856Y-14557219D01*
X5417856Y-14557219D02*
X5274999Y-14604838D01*
X5274999Y-14604838D02*
X5179761Y-14700076D01*
X5179761Y-14700076D02*
X5132142Y-14795314D01*
X5132142Y-14795314D02*
X5084523Y-14985790D01*
X5084523Y-14985790D02*
X5084523Y-15128647D01*
X5084523Y-15128647D02*
X5132142Y-15319123D01*
X5132142Y-15319123D02*
X5179761Y-15414361D01*
X5179761Y-15414361D02*
X5274999Y-15509600D01*
X5274999Y-15509600D02*
X5417856Y-15557219D01*
X5417856Y-15557219D02*
X5655951Y-15557219D01*
X4465475Y-14557219D02*
X4274999Y-14557219D01*
X4274999Y-14557219D02*
X4179761Y-14604838D01*
X4179761Y-14604838D02*
X4084523Y-14700076D01*
X4084523Y-14700076D02*
X4036904Y-14890552D01*
X4036904Y-14890552D02*
X4036904Y-15223885D01*
X4036904Y-15223885D02*
X4084523Y-15414361D01*
X4084523Y-15414361D02*
X4179761Y-15509600D01*
X4179761Y-15509600D02*
X4274999Y-15557219D01*
X4274999Y-15557219D02*
X4465475Y-15557219D01*
X4465475Y-15557219D02*
X4560713Y-15509600D01*
X4560713Y-15509600D02*
X4655951Y-15414361D01*
X4655951Y-15414361D02*
X4703570Y-15223885D01*
X4703570Y-15223885D02*
X4703570Y-14890552D01*
X4703570Y-14890552D02*
X4655951Y-14700076D01*
X4655951Y-14700076D02*
X4560713Y-14604838D01*
X4560713Y-14604838D02*
X4465475Y-14557219D01*
X3703570Y-14557219D02*
X3465475Y-15557219D01*
X3465475Y-15557219D02*
X3274999Y-14842933D01*
X3274999Y-14842933D02*
X3084523Y-15557219D01*
X3084523Y-15557219D02*
X2846428Y-14557219D01*
X2465475Y-15557219D02*
X2465475Y-14557219D01*
X2465475Y-14557219D02*
X1894047Y-15557219D01*
X1894047Y-15557219D02*
X1894047Y-14557219D01*
D11*
X2150000Y-14230000D02*
X2170000Y-14230000D01*
X2570000Y-14230000D02*
X2590000Y-14230000D01*
X2990000Y-14230000D02*
X3010000Y-14230000D01*
X3410000Y-14230000D02*
X3430000Y-14230000D01*
X3830000Y-14230000D02*
X3850000Y-14230000D01*
X4250000Y-14230000D02*
X4270000Y-14230000D01*
X4670000Y-14230000D02*
X4690000Y-14230000D01*
X5090000Y-14230000D02*
X5110000Y-14230000D01*
X5400000Y-14230000D02*
X5400000Y-14250000D01*
X5400000Y-14650000D02*
X5400000Y-14670000D01*
X5400000Y-15070000D02*
X5400000Y-15090000D01*
X5400000Y-15490000D02*
X5400000Y-15510000D01*
X5400000Y-15910000D02*
X5400000Y-15930000D01*
X5400000Y-15980000D02*
X5380000Y-15980000D01*
X4980000Y-15980000D02*
X4960000Y-15980000D01*
X4560000Y-15980000D02*
X4540000Y-15980000D01*
X4140000Y-15980000D02*
X4120000Y-15980000D01*
X3720000Y-15980000D02*
X3700000Y-15980000D01*
X3300000Y-15980000D02*
X3280000Y-15980000D01*
X2880000Y-15980000D02*
X2860000Y-15980000D01*
X2460000Y-15980000D02*
X2440000Y-15980000D01*
X2150000Y-15980000D02*
X2150000Y-15960000D01*
X2150000Y-15560000D02*
X2150000Y-15540000D01*
X2150000Y-15140000D02*
X2150000Y-15120000D01*
X2150000Y-14720000D02*
X2150000Y-14700000D01*
X2150000Y-14300000D02*
X2150000Y-14280000D01*
D10*
X4764285Y-26584600D02*
X4621428Y-26632219D01*
X4621428Y-26632219D02*
X4383333Y-26632219D01*
X4383333Y-26632219D02*
X4288095Y-26584600D01*
X4288095Y-26584600D02*
X4240476Y-26536980D01*
X4240476Y-26536980D02*
X4192857Y-26441742D01*
X4192857Y-26441742D02*
X4192857Y-26346504D01*
X4192857Y-26346504D02*
X4240476Y-26251266D01*
X4240476Y-26251266D02*
X4288095Y-26203647D01*
X4288095Y-26203647D02*
X4383333Y-26156028D01*
X4383333Y-26156028D02*
X4573809Y-26108409D01*
X4573809Y-26108409D02*
X4669047Y-26060790D01*
X4669047Y-26060790D02*
X4716666Y-26013171D01*
X4716666Y-26013171D02*
X4764285Y-25917933D01*
X4764285Y-25917933D02*
X4764285Y-25822695D01*
X4764285Y-25822695D02*
X4716666Y-25727457D01*
X4716666Y-25727457D02*
X4669047Y-25679838D01*
X4669047Y-25679838D02*
X4573809Y-25632219D01*
X4573809Y-25632219D02*
X4335714Y-25632219D01*
X4335714Y-25632219D02*
X4192857Y-25679838D01*
X3764285Y-26632219D02*
X3764285Y-25632219D01*
X3764285Y-25632219D02*
X3526190Y-25632219D01*
X3526190Y-25632219D02*
X3383333Y-25679838D01*
X3383333Y-25679838D02*
X3288095Y-25775076D01*
X3288095Y-25775076D02*
X3240476Y-25870314D01*
X3240476Y-25870314D02*
X3192857Y-26060790D01*
X3192857Y-26060790D02*
X3192857Y-26203647D01*
X3192857Y-26203647D02*
X3240476Y-26394123D01*
X3240476Y-26394123D02*
X3288095Y-26489361D01*
X3288095Y-26489361D02*
X3383333Y-26584600D01*
X3383333Y-26584600D02*
X3526190Y-26632219D01*
X3526190Y-26632219D02*
X3764285Y-26632219D01*
X2811904Y-26346504D02*
X2335714Y-26346504D01*
X2907142Y-26632219D02*
X2573809Y-25632219D01*
X2573809Y-25632219D02*
X2240476Y-26632219D01*
D11*
X1800000Y-25305000D02*
X1820000Y-25305000D01*
X2220000Y-25305000D02*
X2240000Y-25305000D01*
X2640000Y-25305000D02*
X2660000Y-25305000D01*
X3060000Y-25305000D02*
X3080000Y-25305000D01*
X3480000Y-25305000D02*
X3500000Y-25305000D01*
X3900000Y-25305000D02*
X3920000Y-25305000D01*
X4320000Y-25305000D02*
X4340000Y-25305000D01*
X4740000Y-25305000D02*
X4760000Y-25305000D01*
X5160000Y-25305000D02*
X5180000Y-25305000D01*
X5300000Y-25305000D02*
X5300000Y-25325000D01*
X5300000Y-25725000D02*
X5300000Y-25745000D01*
X5300000Y-26145000D02*
X5300000Y-26165000D01*
X5300000Y-26565000D02*
X5300000Y-26585000D01*
X5300000Y-26985000D02*
X5300000Y-27005000D01*
X5300000Y-27055000D02*
X5280000Y-27055000D01*
X4880000Y-27055000D02*
X4860000Y-27055000D01*
X4460000Y-27055000D02*
X4440000Y-27055000D01*
X4040000Y-27055000D02*
X4020000Y-27055000D01*
X3620000Y-27055000D02*
X3600000Y-27055000D01*
X3200000Y-27055000D02*
X3180000Y-27055000D01*
X2780000Y-27055000D02*
X2760000Y-27055000D01*
X2360000Y-27055000D02*
X2340000Y-27055000D01*
X1940000Y-27055000D02*
X1920000Y-27055000D01*
X1800000Y-27055000D02*
X1800000Y-27035000D01*
X1800000Y-26635000D02*
X1800000Y-26615000D01*
X1800000Y-26215000D02*
X1800000Y-26195000D01*
X1800000Y-25795000D02*
X1800000Y-25775000D01*
X1800000Y-25375000D02*
X1800000Y-25355000D01*
D10*
X32333332Y-52332219D02*
X31999999Y-53332219D01*
X31999999Y-53332219D02*
X31666666Y-52332219D01*
X30761904Y-53236980D02*
X30809523Y-53284600D01*
X30809523Y-53284600D02*
X30952380Y-53332219D01*
X30952380Y-53332219D02*
X31047618Y-53332219D01*
X31047618Y-53332219D02*
X31190475Y-53284600D01*
X31190475Y-53284600D02*
X31285713Y-53189361D01*
X31285713Y-53189361D02*
X31333332Y-53094123D01*
X31333332Y-53094123D02*
X31380951Y-52903647D01*
X31380951Y-52903647D02*
X31380951Y-52760790D01*
X31380951Y-52760790D02*
X31333332Y-52570314D01*
X31333332Y-52570314D02*
X31285713Y-52475076D01*
X31285713Y-52475076D02*
X31190475Y-52379838D01*
X31190475Y-52379838D02*
X31047618Y-52332219D01*
X31047618Y-52332219D02*
X30952380Y-52332219D01*
X30952380Y-52332219D02*
X30809523Y-52379838D01*
X30809523Y-52379838D02*
X30761904Y-52427457D01*
X29761904Y-53236980D02*
X29809523Y-53284600D01*
X29809523Y-53284600D02*
X29952380Y-53332219D01*
X29952380Y-53332219D02*
X30047618Y-53332219D01*
X30047618Y-53332219D02*
X30190475Y-53284600D01*
X30190475Y-53284600D02*
X30285713Y-53189361D01*
X30285713Y-53189361D02*
X30333332Y-53094123D01*
X30333332Y-53094123D02*
X30380951Y-52903647D01*
X30380951Y-52903647D02*
X30380951Y-52760790D01*
X30380951Y-52760790D02*
X30333332Y-52570314D01*
X30333332Y-52570314D02*
X30285713Y-52475076D01*
X30285713Y-52475076D02*
X30190475Y-52379838D01*
X30190475Y-52379838D02*
X30047618Y-52332219D01*
X30047618Y-52332219D02*
X29952380Y-52332219D01*
X29952380Y-52332219D02*
X29809523Y-52379838D01*
X29809523Y-52379838D02*
X29761904Y-52427457D01*
D11*
X29250000Y-52005000D02*
X29270000Y-52005000D01*
X29670000Y-52005000D02*
X29690000Y-52005000D01*
X30090000Y-52005000D02*
X30110000Y-52005000D01*
X30510000Y-52005000D02*
X30530000Y-52005000D01*
X30930000Y-52005000D02*
X30950000Y-52005000D01*
X31350000Y-52005000D02*
X31370000Y-52005000D01*
X31770000Y-52005000D02*
X31790000Y-52005000D01*
X32190000Y-52005000D02*
X32210000Y-52005000D01*
X32610000Y-52005000D02*
X32630000Y-52005000D01*
X32750000Y-52005000D02*
X32750000Y-52025000D01*
X32750000Y-52425000D02*
X32750000Y-52445000D01*
X32750000Y-52845000D02*
X32750000Y-52865000D01*
X32750000Y-53265000D02*
X32750000Y-53285000D01*
X32750000Y-53685000D02*
X32750000Y-53705000D01*
X32750000Y-53755000D02*
X32730000Y-53755000D01*
X32330000Y-53755000D02*
X32310000Y-53755000D01*
X31910000Y-53755000D02*
X31890000Y-53755000D01*
X31490000Y-53755000D02*
X31470000Y-53755000D01*
X31070000Y-53755000D02*
X31050000Y-53755000D01*
X30650000Y-53755000D02*
X30630000Y-53755000D01*
X30230000Y-53755000D02*
X30210000Y-53755000D01*
X29810000Y-53755000D02*
X29790000Y-53755000D01*
X29390000Y-53755000D02*
X29370000Y-53755000D01*
X29250000Y-53755000D02*
X29250000Y-53735000D01*
X29250000Y-53335000D02*
X29250000Y-53315000D01*
X29250000Y-52915000D02*
X29250000Y-52895000D01*
X29250000Y-52495000D02*
X29250000Y-52475000D01*
X29250000Y-52075000D02*
X29250000Y-52055000D01*
D10*
X27111904Y-9304838D02*
X27207142Y-9257219D01*
X27207142Y-9257219D02*
X27349999Y-9257219D01*
X27349999Y-9257219D02*
X27492856Y-9304838D01*
X27492856Y-9304838D02*
X27588094Y-9400076D01*
X27588094Y-9400076D02*
X27635713Y-9495314D01*
X27635713Y-9495314D02*
X27683332Y-9685790D01*
X27683332Y-9685790D02*
X27683332Y-9828647D01*
X27683332Y-9828647D02*
X27635713Y-10019123D01*
X27635713Y-10019123D02*
X27588094Y-10114361D01*
X27588094Y-10114361D02*
X27492856Y-10209600D01*
X27492856Y-10209600D02*
X27349999Y-10257219D01*
X27349999Y-10257219D02*
X27254761Y-10257219D01*
X27254761Y-10257219D02*
X27111904Y-10209600D01*
X27111904Y-10209600D02*
X27064285Y-10161980D01*
X27064285Y-10161980D02*
X27064285Y-9828647D01*
X27064285Y-9828647D02*
X27254761Y-9828647D01*
X26635713Y-10257219D02*
X26635713Y-9257219D01*
X26635713Y-9257219D02*
X26064285Y-10257219D01*
X26064285Y-10257219D02*
X26064285Y-9257219D01*
X25588094Y-10257219D02*
X25588094Y-9257219D01*
X25588094Y-9257219D02*
X25349999Y-9257219D01*
X25349999Y-9257219D02*
X25207142Y-9304838D01*
X25207142Y-9304838D02*
X25111904Y-9400076D01*
X25111904Y-9400076D02*
X25064285Y-9495314D01*
X25064285Y-9495314D02*
X25016666Y-9685790D01*
X25016666Y-9685790D02*
X25016666Y-9828647D01*
X25016666Y-9828647D02*
X25064285Y-10019123D01*
X25064285Y-10019123D02*
X25111904Y-10114361D01*
X25111904Y-10114361D02*
X25207142Y-10209600D01*
X25207142Y-10209600D02*
X25349999Y-10257219D01*
X25349999Y-10257219D02*
X25588094Y-10257219D01*
D11*
X24600000Y-8930000D02*
X24620000Y-8930000D01*
X25020000Y-8930000D02*
X25040000Y-8930000D01*
X25440000Y-8930000D02*
X25460000Y-8930000D01*
X25860000Y-8930000D02*
X25880000Y-8930000D01*
X26280000Y-8930000D02*
X26300000Y-8930000D01*
X26700000Y-8930000D02*
X26720000Y-8930000D01*
X27120000Y-8930000D02*
X27140000Y-8930000D01*
X27540000Y-8930000D02*
X27560000Y-8930000D01*
X27960000Y-8930000D02*
X27980000Y-8930000D01*
X28100000Y-8930000D02*
X28100000Y-8950000D01*
X28100000Y-9350000D02*
X28100000Y-9370000D01*
X28100000Y-9770000D02*
X28100000Y-9790000D01*
X28100000Y-10190000D02*
X28100000Y-10210000D01*
X28100000Y-10610000D02*
X28100000Y-10630000D01*
X28100000Y-10680000D02*
X28080000Y-10680000D01*
X27680000Y-10680000D02*
X27660000Y-10680000D01*
X27260000Y-10680000D02*
X27240000Y-10680000D01*
X26840000Y-10680000D02*
X26820000Y-10680000D01*
X26420000Y-10680000D02*
X26400000Y-10680000D01*
X26000000Y-10680000D02*
X25980000Y-10680000D01*
X25580000Y-10680000D02*
X25560000Y-10680000D01*
X25160000Y-10680000D02*
X25140000Y-10680000D01*
X24740000Y-10680000D02*
X24720000Y-10680000D01*
X24600000Y-10680000D02*
X24600000Y-10660000D01*
X24600000Y-10260000D02*
X24600000Y-10240000D01*
X24600000Y-9840000D02*
X24600000Y-9820000D01*
X24600000Y-9420000D02*
X24600000Y-9400000D01*
X24600000Y-9000000D02*
X24600000Y-8980000D01*
D10*
X4261904Y-21229838D02*
X4357142Y-21182219D01*
X4357142Y-21182219D02*
X4499999Y-21182219D01*
X4499999Y-21182219D02*
X4642856Y-21229838D01*
X4642856Y-21229838D02*
X4738094Y-21325076D01*
X4738094Y-21325076D02*
X4785713Y-21420314D01*
X4785713Y-21420314D02*
X4833332Y-21610790D01*
X4833332Y-21610790D02*
X4833332Y-21753647D01*
X4833332Y-21753647D02*
X4785713Y-21944123D01*
X4785713Y-21944123D02*
X4738094Y-22039361D01*
X4738094Y-22039361D02*
X4642856Y-22134600D01*
X4642856Y-22134600D02*
X4499999Y-22182219D01*
X4499999Y-22182219D02*
X4404761Y-22182219D01*
X4404761Y-22182219D02*
X4261904Y-22134600D01*
X4261904Y-22134600D02*
X4214285Y-22086980D01*
X4214285Y-22086980D02*
X4214285Y-21753647D01*
X4214285Y-21753647D02*
X4404761Y-21753647D01*
X3785713Y-22182219D02*
X3785713Y-21182219D01*
X3785713Y-21182219D02*
X3214285Y-22182219D01*
X3214285Y-22182219D02*
X3214285Y-21182219D01*
X2738094Y-22182219D02*
X2738094Y-21182219D01*
X2738094Y-21182219D02*
X2499999Y-21182219D01*
X2499999Y-21182219D02*
X2357142Y-21229838D01*
X2357142Y-21229838D02*
X2261904Y-21325076D01*
X2261904Y-21325076D02*
X2214285Y-21420314D01*
X2214285Y-21420314D02*
X2166666Y-21610790D01*
X2166666Y-21610790D02*
X2166666Y-21753647D01*
X2166666Y-21753647D02*
X2214285Y-21944123D01*
X2214285Y-21944123D02*
X2261904Y-22039361D01*
X2261904Y-22039361D02*
X2357142Y-22134600D01*
X2357142Y-22134600D02*
X2499999Y-22182219D01*
X2499999Y-22182219D02*
X2738094Y-22182219D01*
D11*
X1750000Y-20855000D02*
X1770000Y-20855000D01*
X2170000Y-20855000D02*
X2190000Y-20855000D01*
X2590000Y-20855000D02*
X2610000Y-20855000D01*
X3010000Y-20855000D02*
X3030000Y-20855000D01*
X3430000Y-20855000D02*
X3450000Y-20855000D01*
X3850000Y-20855000D02*
X3870000Y-20855000D01*
X4270000Y-20855000D02*
X4290000Y-20855000D01*
X4690000Y-20855000D02*
X4710000Y-20855000D01*
X5110000Y-20855000D02*
X5130000Y-20855000D01*
X5250000Y-20855000D02*
X5250000Y-20875000D01*
X5250000Y-21275000D02*
X5250000Y-21295000D01*
X5250000Y-21695000D02*
X5250000Y-21715000D01*
X5250000Y-22115000D02*
X5250000Y-22135000D01*
X5250000Y-22535000D02*
X5250000Y-22555000D01*
X5250000Y-22605000D02*
X5230000Y-22605000D01*
X4830000Y-22605000D02*
X4810000Y-22605000D01*
X4410000Y-22605000D02*
X4390000Y-22605000D01*
X3990000Y-22605000D02*
X3970000Y-22605000D01*
X3570000Y-22605000D02*
X3550000Y-22605000D01*
X3150000Y-22605000D02*
X3130000Y-22605000D01*
X2730000Y-22605000D02*
X2710000Y-22605000D01*
X2310000Y-22605000D02*
X2290000Y-22605000D01*
X1890000Y-22605000D02*
X1870000Y-22605000D01*
X1750000Y-22605000D02*
X1750000Y-22585000D01*
X1750000Y-22185000D02*
X1750000Y-22165000D01*
X1750000Y-21765000D02*
X1750000Y-21745000D01*
X1750000Y-21345000D02*
X1750000Y-21325000D01*
X1750000Y-20925000D02*
X1750000Y-20905000D01*
D10*
X4983332Y-8682219D02*
X4649999Y-9682219D01*
X4649999Y-9682219D02*
X4316666Y-8682219D01*
X3411904Y-9586980D02*
X3459523Y-9634600D01*
X3459523Y-9634600D02*
X3602380Y-9682219D01*
X3602380Y-9682219D02*
X3697618Y-9682219D01*
X3697618Y-9682219D02*
X3840475Y-9634600D01*
X3840475Y-9634600D02*
X3935713Y-9539361D01*
X3935713Y-9539361D02*
X3983332Y-9444123D01*
X3983332Y-9444123D02*
X4030951Y-9253647D01*
X4030951Y-9253647D02*
X4030951Y-9110790D01*
X4030951Y-9110790D02*
X3983332Y-8920314D01*
X3983332Y-8920314D02*
X3935713Y-8825076D01*
X3935713Y-8825076D02*
X3840475Y-8729838D01*
X3840475Y-8729838D02*
X3697618Y-8682219D01*
X3697618Y-8682219D02*
X3602380Y-8682219D01*
X3602380Y-8682219D02*
X3459523Y-8729838D01*
X3459523Y-8729838D02*
X3411904Y-8777457D01*
X2411904Y-9586980D02*
X2459523Y-9634600D01*
X2459523Y-9634600D02*
X2602380Y-9682219D01*
X2602380Y-9682219D02*
X2697618Y-9682219D01*
X2697618Y-9682219D02*
X2840475Y-9634600D01*
X2840475Y-9634600D02*
X2935713Y-9539361D01*
X2935713Y-9539361D02*
X2983332Y-9444123D01*
X2983332Y-9444123D02*
X3030951Y-9253647D01*
X3030951Y-9253647D02*
X3030951Y-9110790D01*
X3030951Y-9110790D02*
X2983332Y-8920314D01*
X2983332Y-8920314D02*
X2935713Y-8825076D01*
X2935713Y-8825076D02*
X2840475Y-8729838D01*
X2840475Y-8729838D02*
X2697618Y-8682219D01*
X2697618Y-8682219D02*
X2602380Y-8682219D01*
X2602380Y-8682219D02*
X2459523Y-8729838D01*
X2459523Y-8729838D02*
X2411904Y-8777457D01*
D11*
X1900000Y-8355000D02*
X1920000Y-8355000D01*
X2320000Y-8355000D02*
X2340000Y-8355000D01*
X2740000Y-8355000D02*
X2760000Y-8355000D01*
X3160000Y-8355000D02*
X3180000Y-8355000D01*
X3580000Y-8355000D02*
X3600000Y-8355000D01*
X4000000Y-8355000D02*
X4020000Y-8355000D01*
X4420000Y-8355000D02*
X4440000Y-8355000D01*
X4840000Y-8355000D02*
X4860000Y-8355000D01*
X5260000Y-8355000D02*
X5280000Y-8355000D01*
X5400000Y-8355000D02*
X5400000Y-8375000D01*
X5400000Y-8775000D02*
X5400000Y-8795000D01*
X5400000Y-9195000D02*
X5400000Y-9215000D01*
X5400000Y-9615000D02*
X5400000Y-9635000D01*
X5400000Y-10035000D02*
X5400000Y-10055000D01*
X5400000Y-10105000D02*
X5380000Y-10105000D01*
X4980000Y-10105000D02*
X4960000Y-10105000D01*
X4560000Y-10105000D02*
X4540000Y-10105000D01*
X4140000Y-10105000D02*
X4120000Y-10105000D01*
X3720000Y-10105000D02*
X3700000Y-10105000D01*
X3300000Y-10105000D02*
X3280000Y-10105000D01*
X2880000Y-10105000D02*
X2860000Y-10105000D01*
X2460000Y-10105000D02*
X2440000Y-10105000D01*
X2040000Y-10105000D02*
X2020000Y-10105000D01*
X1900000Y-10105000D02*
X1900000Y-10085000D01*
X1900000Y-9685000D02*
X1900000Y-9665000D01*
X1900000Y-9265000D02*
X1900000Y-9245000D01*
X1900000Y-8845000D02*
X1900000Y-8825000D01*
X1900000Y-8425000D02*
X1900000Y-8405000D01*
D10*
X42811904Y-52279838D02*
X42907142Y-52232219D01*
X42907142Y-52232219D02*
X43049999Y-52232219D01*
X43049999Y-52232219D02*
X43192856Y-52279838D01*
X43192856Y-52279838D02*
X43288094Y-52375076D01*
X43288094Y-52375076D02*
X43335713Y-52470314D01*
X43335713Y-52470314D02*
X43383332Y-52660790D01*
X43383332Y-52660790D02*
X43383332Y-52803647D01*
X43383332Y-52803647D02*
X43335713Y-52994123D01*
X43335713Y-52994123D02*
X43288094Y-53089361D01*
X43288094Y-53089361D02*
X43192856Y-53184600D01*
X43192856Y-53184600D02*
X43049999Y-53232219D01*
X43049999Y-53232219D02*
X42954761Y-53232219D01*
X42954761Y-53232219D02*
X42811904Y-53184600D01*
X42811904Y-53184600D02*
X42764285Y-53136980D01*
X42764285Y-53136980D02*
X42764285Y-52803647D01*
X42764285Y-52803647D02*
X42954761Y-52803647D01*
X42335713Y-53232219D02*
X42335713Y-52232219D01*
X42335713Y-52232219D02*
X41764285Y-53232219D01*
X41764285Y-53232219D02*
X41764285Y-52232219D01*
X41288094Y-53232219D02*
X41288094Y-52232219D01*
X41288094Y-52232219D02*
X41049999Y-52232219D01*
X41049999Y-52232219D02*
X40907142Y-52279838D01*
X40907142Y-52279838D02*
X40811904Y-52375076D01*
X40811904Y-52375076D02*
X40764285Y-52470314D01*
X40764285Y-52470314D02*
X40716666Y-52660790D01*
X40716666Y-52660790D02*
X40716666Y-52803647D01*
X40716666Y-52803647D02*
X40764285Y-52994123D01*
X40764285Y-52994123D02*
X40811904Y-53089361D01*
X40811904Y-53089361D02*
X40907142Y-53184600D01*
X40907142Y-53184600D02*
X41049999Y-53232219D01*
X41049999Y-53232219D02*
X41288094Y-53232219D01*
D11*
X40300000Y-51905000D02*
X40320000Y-51905000D01*
X40720000Y-51905000D02*
X40740000Y-51905000D01*
X41140000Y-51905000D02*
X41160000Y-51905000D01*
X41560000Y-51905000D02*
X41580000Y-51905000D01*
X41980000Y-51905000D02*
X42000000Y-51905000D01*
X42400000Y-51905000D02*
X42420000Y-51905000D01*
X42820000Y-51905000D02*
X42840000Y-51905000D01*
X43240000Y-51905000D02*
X43260000Y-51905000D01*
X43660000Y-51905000D02*
X43680000Y-51905000D01*
X43800000Y-51905000D02*
X43800000Y-51925000D01*
X43800000Y-52325000D02*
X43800000Y-52345000D01*
X43800000Y-52745000D02*
X43800000Y-52765000D01*
X43800000Y-53165000D02*
X43800000Y-53185000D01*
X43800000Y-53585000D02*
X43800000Y-53605000D01*
X43800000Y-53655000D02*
X43780000Y-53655000D01*
X43380000Y-53655000D02*
X43360000Y-53655000D01*
X42960000Y-53655000D02*
X42940000Y-53655000D01*
X42540000Y-53655000D02*
X42520000Y-53655000D01*
X42120000Y-53655000D02*
X42100000Y-53655000D01*
X41700000Y-53655000D02*
X41680000Y-53655000D01*
X41280000Y-53655000D02*
X41260000Y-53655000D01*
X40860000Y-53655000D02*
X40840000Y-53655000D01*
X40440000Y-53655000D02*
X40420000Y-53655000D01*
X40300000Y-53655000D02*
X40300000Y-53635000D01*
X40300000Y-53235000D02*
X40300000Y-53215000D01*
X40300000Y-52815000D02*
X40300000Y-52795000D01*
X40300000Y-52395000D02*
X40300000Y-52375000D01*
X40300000Y-51975000D02*
X40300000Y-51955000D01*
D12*
X42929555Y-11347370D02*
X42929555Y-10521870D01*
X42929555Y-10521870D02*
X42874522Y-10356770D01*
X42874522Y-10356770D02*
X42764455Y-10246704D01*
X42764455Y-10246704D02*
X42599355Y-10191670D01*
X42599355Y-10191670D02*
X42489289Y-10191670D01*
X43479888Y-10191670D02*
X43479888Y-11347370D01*
X43479888Y-11347370D02*
X43920155Y-11347370D01*
X43920155Y-11347370D02*
X44030222Y-11292337D01*
X44030222Y-11292337D02*
X44085255Y-11237304D01*
X44085255Y-11237304D02*
X44140288Y-11127237D01*
X44140288Y-11127237D02*
X44140288Y-10962137D01*
X44140288Y-10962137D02*
X44085255Y-10852070D01*
X44085255Y-10852070D02*
X44030222Y-10797037D01*
X44030222Y-10797037D02*
X43920155Y-10742004D01*
X43920155Y-10742004D02*
X43479888Y-10742004D01*
X44580555Y-11237304D02*
X44635588Y-11292337D01*
X44635588Y-11292337D02*
X44745655Y-11347370D01*
X44745655Y-11347370D02*
X45020822Y-11347370D01*
X45020822Y-11347370D02*
X45130888Y-11292337D01*
X45130888Y-11292337D02*
X45185922Y-11237304D01*
X45185922Y-11237304D02*
X45240955Y-11127237D01*
X45240955Y-11127237D02*
X45240955Y-11017170D01*
X45240955Y-11017170D02*
X45185922Y-10852070D01*
X45185922Y-10852070D02*
X44525522Y-10191670D01*
X44525522Y-10191670D02*
X45240955Y-10191670D01*
X49861965Y-11350896D02*
X49036465Y-11350896D01*
X49036465Y-11350896D02*
X48871365Y-11405929D01*
X48871365Y-11405929D02*
X48761299Y-11515996D01*
X48761299Y-11515996D02*
X48706265Y-11681096D01*
X48706265Y-11681096D02*
X48706265Y-11791163D01*
X48706265Y-10800563D02*
X49861965Y-10800563D01*
X49861965Y-10800563D02*
X49861965Y-10360296D01*
X49861965Y-10360296D02*
X49806932Y-10250230D01*
X49806932Y-10250230D02*
X49751899Y-10195196D01*
X49751899Y-10195196D02*
X49641832Y-10140163D01*
X49641832Y-10140163D02*
X49476732Y-10140163D01*
X49476732Y-10140163D02*
X49366665Y-10195196D01*
X49366665Y-10195196D02*
X49311632Y-10250230D01*
X49311632Y-10250230D02*
X49256599Y-10360296D01*
X49256599Y-10360296D02*
X49256599Y-10800563D01*
X49861965Y-9094530D02*
X49861965Y-9644863D01*
X49861965Y-9644863D02*
X49311632Y-9699896D01*
X49311632Y-9699896D02*
X49366665Y-9644863D01*
X49366665Y-9644863D02*
X49421699Y-9534796D01*
X49421699Y-9534796D02*
X49421699Y-9259630D01*
X49421699Y-9259630D02*
X49366665Y-9149563D01*
X49366665Y-9149563D02*
X49311632Y-9094530D01*
X49311632Y-9094530D02*
X49201565Y-9039496D01*
X49201565Y-9039496D02*
X48926399Y-9039496D01*
X48926399Y-9039496D02*
X48816332Y-9094530D01*
X48816332Y-9094530D02*
X48761299Y-9149563D01*
X48761299Y-9149563D02*
X48706265Y-9259630D01*
X48706265Y-9259630D02*
X48706265Y-9534796D01*
X48706265Y-9534796D02*
X48761299Y-9644863D01*
X48761299Y-9644863D02*
X48816332Y-9699896D01*
D13*
%TO.C,JP2*%
X37840086Y-12590260D02*
X37840086Y-13860260D01*
X37840086Y-13860260D02*
X38475086Y-14495260D01*
X38475086Y-11955260D02*
X37840086Y-12590260D01*
X38475086Y-14495260D02*
X39745086Y-14495260D01*
X39745086Y-11955260D02*
X38475086Y-11955260D01*
X39745086Y-14495260D02*
X40380086Y-13860260D01*
X40380086Y-12590260D02*
X39745086Y-11955260D01*
X40380086Y-13860260D02*
X41015086Y-14495260D01*
X41015086Y-11955260D02*
X40380086Y-12590260D01*
X41015086Y-14495260D02*
X42285086Y-14495260D01*
X42285086Y-11955260D02*
X41015086Y-11955260D01*
X42285086Y-14495260D02*
X42920086Y-13860260D01*
X42920086Y-12590260D02*
X42285086Y-11955260D01*
X42920086Y-13860260D02*
X43555086Y-14495260D01*
X43555086Y-11955260D02*
X42920086Y-12590260D01*
X43555086Y-14495260D02*
X44825086Y-14495260D01*
X44825086Y-11955260D02*
X43555086Y-11955260D01*
X44825086Y-11955260D02*
X45460086Y-12590260D01*
X45460086Y-12590260D02*
X45460086Y-13860260D01*
X45460086Y-13860260D02*
X44825086Y-14495260D01*
%TO.C,JP4*%
X37840086Y-4970260D02*
X37840086Y-6240260D01*
X37840086Y-6240260D02*
X38475086Y-6875260D01*
X38475086Y-4335260D02*
X37840086Y-4970260D01*
X38475086Y-6875260D02*
X39745086Y-6875260D01*
X39745086Y-4335260D02*
X38475086Y-4335260D01*
X39745086Y-6875260D02*
X40380086Y-6240260D01*
X40380086Y-4970260D02*
X39745086Y-4335260D01*
X40380086Y-6240260D02*
X41015086Y-6875260D01*
X41015086Y-4335260D02*
X40380086Y-4970260D01*
X41015086Y-6875260D02*
X42285086Y-6875260D01*
X42285086Y-4335260D02*
X41015086Y-4335260D01*
X42285086Y-6875260D02*
X42920086Y-6240260D01*
X42920086Y-4970260D02*
X42285086Y-4335260D01*
X42920086Y-6240260D02*
X43555086Y-6875260D01*
X43555086Y-4335260D02*
X42920086Y-4970260D01*
X43555086Y-6875260D02*
X44825086Y-6875260D01*
X44825086Y-4335260D02*
X43555086Y-4335260D01*
X44825086Y-4335260D02*
X45460086Y-4970260D01*
X45460086Y-4970260D02*
X45460086Y-6240260D01*
X45460086Y-6240260D02*
X44825086Y-6875260D01*
%TO.C,JP5*%
X45460086Y-7510260D02*
X45460086Y-8780260D01*
X45460086Y-8780260D02*
X46095086Y-9415260D01*
X45460086Y-10050260D02*
X45460086Y-11320260D01*
X46095086Y-6875260D02*
X45460086Y-7510260D01*
X46095086Y-9415260D02*
X45460086Y-10050260D01*
X46095086Y-11955260D02*
X45460086Y-11320260D01*
X47365086Y-6875260D02*
X46095086Y-6875260D01*
X47365086Y-9415260D02*
X48000086Y-8780260D01*
X47365086Y-11955260D02*
X46095086Y-11955260D01*
X48000086Y-7510260D02*
X47365086Y-6875260D01*
X48000086Y-8780260D02*
X48000086Y-7510260D01*
X48000086Y-10050260D02*
X47365086Y-9415260D01*
X48000086Y-11320260D02*
X47365086Y-11955260D01*
X48000086Y-11320260D02*
X48000086Y-10050260D01*
%TD*%
D14*
%TO.C,REF\u002A\u002A*%
X52400000Y-19480000D03*
%TD*%
%TO.C,DC/DC Converter*%
X34600000Y-52480000D03*
%TD*%
%TO.C,REF\u002A\u002A*%
X52400000Y-16480000D03*
%TD*%
%TO.C,REF\u002A\u002A*%
X38200000Y-52480000D03*
%TD*%
M02*
