%TF.GenerationSoftware,KiCad,Pcbnew,9.0.2*%
%TF.CreationDate,2025-05-23T14:51:07+09:00*%
%TF.ProjectId,__,78912e6b-6963-4616-945f-706362585858,rev?*%
%TF.SameCoordinates,Original*%
%TF.FileFunction,Copper,L1,Top*%
%TF.FilePolarity,Positive*%
%FSLAX46Y46*%
G04 Gerber Fmt 4.6, Leading zero omitted, Abs format (unit mm)*
G04 Created by KiCad (PCBNEW 9.0.2) date 2025-05-23 14:51:07*
%MOMM*%
%LPD*%
G01*
G04 APERTURE LIST*
%TA.AperFunction,CastellatedPad*%
%ADD10C,1.350000*%
%TD*%
%TA.AperFunction,CastellatedPad*%
%ADD11C,1.905000*%
%TD*%
%TA.AperFunction,BGAPad,CuDef*%
%ADD12R,2.000000X2.000000*%
%TD*%
%TA.AperFunction,ComponentPad*%
%ADD13C,1.350000*%
%TD*%
%TA.AperFunction,ComponentPad*%
%ADD14C,1.905000*%
%TD*%
%TA.AperFunction,ComponentPad*%
%ADD15C,1.879600*%
%TD*%
%TA.AperFunction,Conductor*%
%ADD16C,0.200000*%
%TD*%
%TA.AperFunction,Conductor*%
%ADD17C,0.400000*%
%TD*%
G04 APERTURE END LIST*
D10*
%TO.P,Sensors,VCC*%
%TO.N,N/C*%
X52300000Y-28480000D03*
%TO.P,Sensors,GND*%
X52300000Y-26480000D03*
%TO.P,Sensors,DAT*%
X52300000Y-30480000D03*
%TD*%
D11*
%TO.P,DRV8833 Driver,EEP*%
%TO.N,N/C*%
X15300000Y-34065000D03*
%TO.P,DRV8833 Driver,GND*%
X30870000Y-39412500D03*
%TO.P,DRV8833 Driver,IN1*%
X30870000Y-47395000D03*
%TO.P,DRV8833 Driver,IN2*%
X30870000Y-44725000D03*
%TO.P,DRV8833 Driver,IN3*%
X30870000Y-36735000D03*
%TO.P,DRV8833 Driver,IN4*%
X30870000Y-34065000D03*
%TO.P,DRV8833 Driver,OUT1*%
X15300000Y-36735000D03*
%TO.P,DRV8833 Driver,OUT2*%
X15300000Y-39380000D03*
%TO.P,DRV8833 Driver,OUT3*%
X15300000Y-42040000D03*
%TO.P,DRV8833 Driver,OUT4*%
X15300000Y-44710000D03*
%TO.P,DRV8833 Driver,ULT*%
X15300000Y-47380000D03*
%TO.P,DRV8833 Driver,VCC*%
X30870000Y-42077500D03*
%TD*%
D12*
%TO.P,Feltier +,1*%
%TO.N,N/C*%
X4385000Y-52945000D03*
%TD*%
D13*
%TO.P,Button,1*%
%TO.N,N/C*%
X7080000Y-7160000D03*
%TO.P,Button,2*%
X7080000Y-9160000D03*
%TO.P,Button,3*%
X7080000Y-11160000D03*
%TO.P,Button,4*%
X7080000Y-13160000D03*
%TO.P,Button,5*%
X7080000Y-15160000D03*
%TD*%
D14*
%TO.P,ESP32-C3
SuperMini,0*%
%TO.N,N/C*%
X29700000Y-25040000D03*
%TO.P,ESP32-C3
SuperMini,1*%
X29700000Y-22500000D03*
%TO.P,ESP32-C3
SuperMini,2*%
X29700000Y-19960000D03*
%TO.P,ESP32-C3
SuperMini,3*%
X29700000Y-17420000D03*
%TO.P,ESP32-C3
SuperMini,3.3*%
X29700000Y-12340000D03*
%TO.P,ESP32-C3
SuperMini,4*%
X29700000Y-14880000D03*
%TO.P,ESP32-C3
SuperMini,5*%
X14460000Y-7260000D03*
%TO.P,ESP32-C3
SuperMini,5V*%
X29700000Y-7260000D03*
%TO.P,ESP32-C3
SuperMini,6*%
X14460000Y-9800000D03*
%TO.P,ESP32-C3
SuperMini,7*%
X14460000Y-12340000D03*
%TO.P,ESP32-C3
SuperMini,8*%
X14460000Y-14880000D03*
%TO.P,ESP32-C3
SuperMini,9*%
X14460000Y-17420000D03*
%TO.P,ESP32-C3
SuperMini,10*%
X14460000Y-19960000D03*
%TO.P,ESP32-C3
SuperMini,20*%
X14460000Y-22500000D03*
%TO.P,ESP32-C3
SuperMini,21*%
X14460000Y-25040000D03*
%TO.P,ESP32-C3
SuperMini,G*%
X29700000Y-9800000D03*
%TD*%
D13*
%TO.P,Display / I2C Bus,1*%
%TO.N,N/C*%
X7080000Y-22160000D03*
%TO.P,Display / I2C Bus,2*%
X7080000Y-24160000D03*
%TO.P,Display / I2C Bus,3*%
X7080000Y-26160000D03*
%TO.P,Display / I2C Bus,4*%
X7080000Y-28160000D03*
%TD*%
D12*
%TO.P,Feltier -,1*%
%TO.N,N/C*%
X7985000Y-52945000D03*
%TD*%
D15*
%TO.P,JP2,1*%
%TO.N,SDA*%
X44190086Y-13225260D03*
%TO.P,JP2,2*%
%TO.N,SCL*%
X41650086Y-13225260D03*
%TO.P,JP2,3*%
%TO.N,QST*%
X39110086Y-13225260D03*
%TD*%
%TO.P,JP4,1*%
%TO.N,VCC*%
X44190086Y-5605260D03*
%TO.P,JP4,2*%
%TO.N,GND*%
X41650086Y-5605260D03*
%TO.P,JP4,3*%
%TO.N,ALT*%
X39110086Y-5605260D03*
%TD*%
%TO.P,JP5,1*%
%TO.N,VCC*%
X46730086Y-10685260D03*
%TO.P,JP5,2*%
%TO.N,GND*%
X46730086Y-8145260D03*
%TD*%
D16*
%TO.N,*%
X46500000Y-28580000D02*
X53000000Y-28580000D01*
X30260000Y-12340000D02*
X46500000Y-28580000D01*
X44500000Y-30580000D02*
X53000000Y-30580000D01*
X44450000Y-30530000D02*
X44500000Y-30580000D01*
%TO.N,GND*%
X32400000Y-11056700D02*
X47861650Y-26518350D01*
X47900000Y-26480000D02*
X52300000Y-26480000D01*
X47861650Y-26518350D02*
X47900000Y-26480000D01*
%TO.N,*%
X12895000Y-36735000D02*
X12885000Y-36745000D01*
X31340000Y-17420000D02*
X44500000Y-30580000D01*
X12885000Y-41935000D02*
X12990000Y-42040000D01*
X28865000Y-44725000D02*
X28585000Y-44445000D01*
X28585000Y-38780000D02*
X28585000Y-34445000D01*
X17085000Y-39345000D02*
X17050000Y-39380000D01*
X30870000Y-44725000D02*
X28865000Y-44725000D01*
X32200000Y-31680000D02*
X26100000Y-31680000D01*
X25000000Y-22500000D02*
X26000000Y-23500000D01*
X7080000Y-11160000D02*
X10980000Y-7260000D01*
X4720000Y-9800000D02*
X5360000Y-9160000D01*
X4720000Y-19800000D02*
X4720000Y-9800000D01*
D17*
X12985000Y-42045000D02*
X4385000Y-42045000D01*
D16*
X29700000Y-12340000D02*
X30260000Y-12340000D01*
X25200000Y-25280000D02*
X25200000Y-35395000D01*
X10980000Y-7260000D02*
X14460000Y-7260000D01*
X32545000Y-36735000D02*
X30870000Y-36735000D01*
X17085000Y-44745000D02*
X17085000Y-39345000D01*
X33500000Y-37380000D02*
X33500000Y-46530000D01*
X26000000Y-23500000D02*
X26000000Y-31580000D01*
X12990000Y-42040000D02*
X12985000Y-42045000D01*
D17*
X12885000Y-36745000D02*
X12885000Y-41935000D01*
D16*
X14460000Y-25040000D02*
X24960000Y-25040000D01*
D17*
X12990000Y-42040000D02*
X15300000Y-42040000D01*
D16*
X8020000Y-44710000D02*
X7985000Y-44745000D01*
X29700000Y-12340000D02*
X22160000Y-4800000D01*
X10440000Y-9800000D02*
X14460000Y-9800000D01*
X30870000Y-47395000D02*
X32635000Y-47395000D01*
X7080000Y-9160000D02*
X7360000Y-9160000D01*
X32700000Y-32180000D02*
X32200000Y-31680000D01*
X7080000Y-22160000D02*
X4720000Y-19800000D01*
X29880000Y-22680000D02*
X29700000Y-22500000D01*
X26100000Y-31680000D02*
X26000000Y-31580000D01*
X33500000Y-46530000D02*
X32635000Y-47395000D01*
X22160000Y-4800000D02*
X11440000Y-4800000D01*
D17*
X4385000Y-42045000D02*
X4385000Y-52945000D01*
D16*
X29700000Y-17420000D02*
X31340000Y-17420000D01*
X9900000Y-12340000D02*
X14460000Y-12340000D01*
X28685000Y-34345000D02*
X28585000Y-34445000D01*
X5360000Y-9160000D02*
X7080000Y-9160000D01*
X30870000Y-34065000D02*
X28965000Y-34065000D01*
X32700000Y-36580000D02*
X32700000Y-32180000D01*
X7080000Y-15160000D02*
X9900000Y-12340000D01*
X17050000Y-39380000D02*
X15300000Y-39380000D01*
X28965000Y-34065000D02*
X28585000Y-34445000D01*
X32700000Y-36580000D02*
X32545000Y-36735000D01*
X7080000Y-13160000D02*
X10440000Y-9800000D01*
D17*
X7985000Y-44745000D02*
X7985000Y-52845000D01*
D16*
X32700000Y-36580000D02*
X33500000Y-37380000D01*
X25200000Y-35395000D02*
X28585000Y-38780000D01*
D17*
X15300000Y-36735000D02*
X12895000Y-36735000D01*
D16*
X15300000Y-44710000D02*
X17050000Y-44710000D01*
X24960000Y-25040000D02*
X25200000Y-25280000D01*
X11440000Y-4800000D02*
X7080000Y-9160000D01*
X14460000Y-22500000D02*
X25000000Y-22500000D01*
D17*
X15300000Y-44710000D02*
X8020000Y-44710000D01*
D16*
X17050000Y-44710000D02*
X17085000Y-44745000D01*
X28585000Y-44445000D02*
X28585000Y-38780000D01*
%TO.N,VCC*%
X42744826Y-4160000D02*
X42700000Y-4160000D01*
X36830000Y-4180000D02*
X36830000Y-7160000D01*
X44190086Y-5605260D02*
X42744826Y-4160000D01*
X36830000Y-7160000D02*
X30320000Y-7160000D01*
X30320000Y-7160000D02*
X30200000Y-7280000D01*
X36850000Y-4160000D02*
X36830000Y-4180000D01*
X42700000Y-4160000D02*
X36850000Y-4160000D01*
%TO.N,SDA*%
X47654740Y-13225260D02*
X49400000Y-11480000D01*
X7080000Y-26160000D02*
X8360000Y-26160000D01*
X8360000Y-26160000D02*
X9720000Y-24800000D01*
X44190086Y-13225260D02*
X47654740Y-13225260D01*
X9720000Y-24800000D02*
X9720000Y-16800000D01*
X11640000Y-14880000D02*
X14460000Y-14880000D01*
X9720000Y-16800000D02*
X11640000Y-14880000D01*
X5870532Y-26180000D02*
X6800000Y-26180000D01*
X2400000Y-2480000D02*
X2400000Y-22709468D01*
X49400000Y-2480000D02*
X2400000Y-2480000D01*
X2400000Y-22709468D02*
X5870532Y-26180000D01*
X49400000Y-11480000D02*
X49400000Y-2480000D01*
%TO.N,GND*%
X32400000Y-8580000D02*
X32400000Y-11056700D01*
X38775346Y-8480000D02*
X41650086Y-5605260D01*
X3720000Y-20800000D02*
X7080000Y-24160000D01*
X6500000Y-7160000D02*
X4360000Y-7160000D01*
X6760000Y-6900000D02*
X7080000Y-6900000D01*
X23060000Y-3160000D02*
X30956700Y-11056700D01*
X6500000Y-7160000D02*
X6760000Y-6900000D01*
X32500000Y-8480000D02*
X32400000Y-8580000D01*
X3720000Y-7800000D02*
X3720000Y-20800000D01*
X10830000Y-3160000D02*
X23060000Y-3160000D01*
X4360000Y-7160000D02*
X3720000Y-7800000D01*
X30956700Y-11056700D02*
X32400000Y-11056700D01*
X41650086Y-5605260D02*
X41650086Y-6339914D01*
X7080000Y-6900000D02*
X7300000Y-6680000D01*
X32500000Y-8480000D02*
X38775346Y-8480000D01*
X7310000Y-6680000D02*
X10830000Y-3160000D01*
X7300000Y-6680000D02*
X7310000Y-6680000D01*
%TO.N,SCL*%
X5800000Y-28180000D02*
X7100000Y-28180000D01*
X51400000Y-11480000D02*
X51400000Y-1480000D01*
X48400000Y-14480000D02*
X49400000Y-13480000D01*
X11100000Y-17420000D02*
X14460000Y-17420000D01*
X42400000Y-14480000D02*
X48400000Y-14480000D01*
X49400000Y-13480000D02*
X51400000Y-11480000D01*
X1400000Y-23780000D02*
X5800000Y-28180000D01*
X41650086Y-13225260D02*
X41650086Y-13730086D01*
X1400000Y-1480000D02*
X1400000Y-23709468D01*
X10720000Y-17800000D02*
X11100000Y-17420000D01*
X41650086Y-13730086D02*
X42400000Y-14480000D01*
X1400000Y-23709468D02*
X1400000Y-23780000D01*
X10720000Y-25800000D02*
X10720000Y-17800000D01*
X7080000Y-28160000D02*
X8360000Y-28160000D01*
X8360000Y-28160000D02*
X10720000Y-25800000D01*
X51400000Y-1480000D02*
X1400000Y-1480000D01*
%TD*%
M02*
